<svg viewBox="0 0 64 64" xmlns="http://www.w3.org/2000/svg" fill="none" stroke="#000" stroke-linecap="round" stroke-linejoin="round"><title>US wall types (plan view): brick-veneer-wall</title><desc>Tekstvrij wandpatroon: cavity.</desc><g stroke-width="1.6"><line x1="4" y1="14" x2="60" y2="14"/><line x1="4" y1="24" x2="60" y2="24"/><line x1="4" y1="40" x2="60" y2="40"/><line x1="4" y1="50" x2="60" y2="50"/></g><g stroke-width="0.75"><line x1="4" y1="14" x2="4" y2="14"/><line x1="4" y1="22.571" x2="16" y2="14"/><line x1="14" y1="24" x2="28" y2="14"/><line x1="26" y1="24" x2="40" y2="14"/><line x1="38" y1="24" x2="52" y2="14"/><line x1="50" y1="24" x2="60" y2="16.857"/><line x1="4" y1="32" x2="60" y2="32" stroke-dasharray="2 4"/></g><g stroke-width="0.75"><line x1="4" y1="45" x2="60" y2="45"/><line x1="12" y1="40" x2="12" y2="45"/><line x1="24" y1="40" x2="24" y2="45"/><line x1="36" y1="40" x2="36" y2="45"/><line x1="48" y1="40" x2="48" y2="45"/><line x1="18" y1="45" x2="18" y2="50"/><line x1="30" y1="45" x2="30" y2="50"/><line x1="42" y1="45" x2="42" y2="50"/><line x1="54" y1="45" x2="54" y2="50"/></g></svg>
