<svg viewBox="0 0 64 64" xmlns="http://www.w3.org/2000/svg" fill="none" stroke="#000" stroke-width="1.8"><path d="M11.00 12.82 L53.00 12.82 L53.00 16.32 L35.75 16.32 L35.75 16.32 L35.13 16.42 L34.57 16.70 L34.13 17.14 L33.85 17.70 L33.75 18.32 L33.75 47.68 L33.75 47.68 L33.85 48.30 L34.13 48.86 L34.57 49.30 L35.13 49.58 L35.75 49.68 L53.00 49.68 L53.00 53.18 L11.00 53.18 L11.00 49.68 L28.25 49.68 L28.25 49.68 L28.87 49.58 L29.43 49.30 L29.87 48.86 L30.15 48.30 L30.25 47.68 L30.25 18.32 L30.25 18.32 L30.15 17.70 L29.87 17.14 L29.43 16.70 L28.87 16.42 L28.25 16.32 L11.00 16.32 Z"/><line x1="4.7" y1="33.0" x2="59.3" y2="33.0" stroke-width="0.9" stroke-dasharray="6 2.2 1.4 2.2"/><line x1="32.0" y1="6.8" x2="32.0" y2="59.2" stroke-width="0.9" stroke-dasharray="6 2.2 1.4 2.2"/><text x="61" y="9" font-size="8" font-weight="bold" text-anchor="end" fill="#000" stroke="none">HP</text></svg>
