<svg viewBox="0 0 64 64" xmlns="http://www.w3.org/2000/svg" fill="none" stroke="#000" stroke-width="1.8"><path d="M11.00 26.38 L11.19 25.16 L11.75 24.07 L12.62 23.20 L13.72 22.64 L14.93 22.45 L49.07 22.45 L50.28 22.64 L51.38 23.20 L52.25 24.07 L52.81 25.16 L53.00 26.38 L53.00 39.62 L52.81 40.84 L52.25 41.93 L51.38 42.80 L50.28 43.36 L49.07 43.55 L14.93 43.55 L13.72 43.36 L12.62 42.80 L11.75 41.93 L11.19 40.84 L11.00 39.62 Z"/><path d="M14.50 26.75 L14.54 26.50 L14.65 26.28 L14.83 26.10 L15.05 25.99 L15.30 25.95 L48.70 25.95 L48.95 25.99 L49.17 26.10 L49.35 26.28 L49.46 26.50 L49.50 26.75 L49.50 39.25 L49.46 39.50 L49.35 39.72 L49.17 39.90 L48.95 40.01 L48.70 40.05 L15.30 40.05 L15.05 40.01 L14.83 39.90 L14.65 39.72 L14.54 39.50 L14.50 39.25 Z"/><line x1="4.7" y1="33.0" x2="59.3" y2="33.0" stroke-width="0.9" stroke-dasharray="6 2.2 1.4 2.2"/><line x1="32.0" y1="19.3" x2="32.0" y2="46.7" stroke-width="0.9" stroke-dasharray="6 2.2 1.4 2.2"/><text x="61" y="9" font-size="8" font-weight="bold" text-anchor="end" fill="#000" stroke="none">HSS</text></svg>
