<svg viewBox="0 0 64 64" xmlns="http://www.w3.org/2000/svg" fill="none" stroke="#000" stroke-width="1.8"><path d="M11.00 18.91 L11.34 16.77 L12.32 14.85 L13.85 13.32 L15.77 12.34 L17.91 12.00 L46.09 12.00 L48.23 12.34 L50.15 13.32 L51.68 14.85 L52.66 16.77 L53.00 18.91 L53.00 47.09 L52.66 49.23 L51.68 51.15 L50.15 52.68 L48.23 53.66 L46.09 54.00 L17.91 54.00 L15.77 53.66 L13.85 52.68 L12.32 51.15 L11.34 49.23 L11.00 47.09 Z"/><path d="M14.51 18.91 L14.68 17.86 L15.16 16.91 L15.91 16.16 L16.86 15.68 L17.91 15.51 L46.09 15.51 L47.14 15.68 L48.09 16.16 L48.84 16.91 L49.32 17.86 L49.49 18.91 L49.49 47.09 L49.32 48.14 L48.84 49.09 L48.09 49.84 L47.14 50.32 L46.09 50.49 L17.91 50.49 L16.86 50.32 L15.91 49.84 L15.16 49.09 L14.68 48.14 L14.51 47.09 Z"/><line x1="4.7" y1="33.0" x2="59.3" y2="33.0" stroke-width="0.9" stroke-dasharray="6 2.2 1.4 2.2"/><line x1="32.0" y1="5.7" x2="32.0" y2="60.3" stroke-width="0.9" stroke-dasharray="6 2.2 1.4 2.2"/><text x="61" y="9" font-size="8" font-weight="bold" text-anchor="end" fill="#000" stroke="none">HSS</text></svg>
