<svg viewBox="0 0 64 64" xmlns="http://www.w3.org/2000/svg" fill="none" stroke="#000" stroke-width="1.8"><path d="M21.03 12.00 L42.97 12.00 L42.97 15.50 L35.82 15.50 L35.82 15.50 L35.18 15.60 L34.60 15.90 L34.15 16.35 L33.85 16.93 L33.75 17.57 L33.75 48.43 L33.75 48.43 L33.85 49.07 L34.15 49.65 L34.60 50.10 L35.18 50.40 L35.82 50.50 L42.97 50.50 L42.97 54.00 L21.03 54.00 L21.03 50.50 L28.18 50.50 L28.18 50.50 L28.82 50.40 L29.40 50.10 L29.85 49.65 L30.15 49.07 L30.25 48.43 L30.25 17.57 L30.25 17.57 L30.15 16.93 L29.85 16.35 L29.40 15.90 L28.82 15.60 L28.18 15.50 L21.03 15.50 Z"/><line x1="17.7" y1="33.0" x2="46.3" y2="33.0" stroke-width="0.9" stroke-dasharray="6 2.2 1.4 2.2"/><line x1="32.0" y1="5.7" x2="32.0" y2="60.3" stroke-width="0.9" stroke-dasharray="6 2.2 1.4 2.2"/><text x="61" y="9" font-size="8" font-weight="bold" text-anchor="end" fill="#000" stroke="none">S</text></svg>
