<svg viewBox="0 0 64 64" xmlns="http://www.w3.org/2000/svg" fill="none" stroke="#000" stroke-width="1.5" stroke-linecap="round" stroke-linejoin="round"><title>US steel shapes (AISC): s-shape</title><desc>Catalogusgedreven doorsnede; vorm i.</desc><g stroke-width="0.7" stroke-dasharray="5 2 1 2"><line x1="6" y1="32" x2="58" y2="32"/><line x1="32" y1="6" x2="32" y2="58"/></g><path d="M21.174 6 L42.826 6 L42.826 8.353 L34.634 8.353 A1.875 1.875 0 0 0 32.759 10.228 L32.759 53.772 A1.875 1.875 0 0 0 34.634 55.647 L42.826 55.647 L42.826 58 L21.174 58 L21.174 55.647 L29.366 55.647 A1.875 1.875 0 0 0 31.241 53.772 L31.241 10.228 A1.875 1.875 0 0 0 29.366 8.353 L21.174 8.353 Z"/></svg>
