<svg viewBox="0 0 64 64" xmlns="http://www.w3.org/2000/svg" fill="none" stroke="#000" stroke-width="1.5" stroke-linecap="round" stroke-linejoin="round"><title>US steel shapes (AISC): w-shape</title><desc>Catalogusgedreven doorsnede; vorm i.</desc><g stroke-width="0.7" stroke-dasharray="5 2 1 2"><line x1="6" y1="32" x2="58" y2="32"/><line x1="32" y1="6" x2="32" y2="58"/></g><path d="M18.161 6 L45.839 6 L45.839 7.627 L33.996 7.627 A1.51 1.51 0 0 0 32.486 9.137 L32.486 54.863 A1.51 1.51 0 0 0 33.996 56.373 L45.839 56.373 L45.839 58 L18.161 58 L18.161 56.373 L30.004 56.373 A1.51 1.51 0 0 0 31.514 54.863 L31.514 9.137 A1.51 1.51 0 0 0 30.004 7.627 L18.161 7.627 Z"/></svg>
