<svg viewBox="0 0 64 64" xmlns="http://www.w3.org/2000/svg" fill="none" stroke="#000" stroke-width="1.5" stroke-linecap="round" stroke-linejoin="round"><title>Korean steel shapes (KS): h-shape-wide</title><desc>Catalogusgedreven doorsnede; vorm i.</desc><g stroke-width="0.7" stroke-dasharray="5 2 1 2"><line x1="6" y1="32" x2="58" y2="32"/><line x1="32" y1="6" x2="32" y2="58"/></g><path d="M6 6 L58 6 L58 8.6 L35.987 8.6 A3.12 3.12 0 0 0 32.867 11.72 L32.867 52.28 A3.12 3.12 0 0 0 35.987 55.4 L58 55.4 L58 58 L6 58 L6 55.4 L28.013 55.4 A3.12 3.12 0 0 0 31.133 52.28 L31.133 11.72 A3.12 3.12 0 0 0 28.013 8.6 L6 8.6 Z"/></svg>
