<svg viewBox="0 0 64 64" xmlns="http://www.w3.org/2000/svg" fill="none" stroke="#000" stroke-width="1.8"><path d="M21.50 12.00 L42.50 12.00 L42.50 15.50 L35.85 15.50 L35.85 15.50 L35.20 15.60 L34.62 15.90 L34.15 16.37 L33.85 16.95 L33.75 17.60 L33.75 48.40 L33.75 48.40 L33.85 49.05 L34.15 49.63 L34.62 50.10 L35.20 50.40 L35.85 50.50 L42.50 50.50 L42.50 54.00 L21.50 54.00 L21.50 50.50 L28.15 50.50 L28.15 50.50 L28.80 50.40 L29.38 50.10 L29.85 49.63 L30.15 49.05 L30.25 48.40 L30.25 17.60 L30.25 17.60 L30.15 16.95 L29.85 16.37 L29.38 15.90 L28.80 15.60 L28.15 15.50 L21.50 15.50 Z"/><line x1="18.4" y1="33.0" x2="45.6" y2="33.0" stroke-width="0.9" stroke-dasharray="6 2.2 1.4 2.2"/><line x1="32.0" y1="5.7" x2="32.0" y2="60.3" stroke-width="0.9" stroke-dasharray="6 2.2 1.4 2.2"/><text x="61" y="9" font-size="8" font-weight="bold" text-anchor="end" fill="#000" stroke="none">I</text></svg>
