<svg viewBox="0 0 64 64" xmlns="http://www.w3.org/2000/svg" fill="none" stroke="#000" stroke-width="1.8"><path d="M11.00 23.20 L11.21 21.90 L11.80 20.73 L12.73 19.80 L13.90 19.21 L15.20 19.00 L48.80 19.00 L50.10 19.21 L51.27 19.80 L52.20 20.73 L52.79 21.90 L53.00 23.20 L53.00 42.80 L52.79 44.10 L52.20 45.27 L51.27 46.20 L50.10 46.79 L48.80 47.00 L15.20 47.00 L13.90 46.79 L12.73 46.20 L11.80 45.27 L11.21 44.10 L11.00 42.80 Z"/><path d="M14.50 23.30 L14.54 23.05 L14.65 22.83 L14.83 22.65 L15.05 22.54 L15.30 22.50 L48.70 22.50 L48.95 22.54 L49.17 22.65 L49.35 22.83 L49.46 23.05 L49.50 23.30 L49.50 42.70 L49.46 42.95 L49.35 43.17 L49.17 43.35 L48.95 43.46 L48.70 43.50 L15.30 43.50 L15.05 43.46 L14.83 43.35 L14.65 43.17 L14.54 42.95 L14.50 42.70 Z"/><line x1="4.7" y1="33.0" x2="59.3" y2="33.0" stroke-width="0.9" stroke-dasharray="6 2.2 1.4 2.2"/><line x1="32.0" y1="14.8" x2="32.0" y2="51.2" stroke-width="0.9" stroke-dasharray="6 2.2 1.4 2.2"/><text x="61" y="9" font-size="8" font-weight="bold" text-anchor="end" fill="#000" stroke="none">RHS</text></svg>
