<svg viewBox="0 0 64 64" xmlns="http://www.w3.org/2000/svg" fill="none" stroke="#000" stroke-width="1.5" stroke-linecap="round" stroke-linejoin="round"><title>Japanese steel shapes (JIS): i-beam</title><desc>Catalogusgedreven doorsnede; vorm i.</desc><g stroke-width="0.7" stroke-dasharray="5 2 1 2"><line x1="6" y1="32" x2="58" y2="32"/><line x1="32" y1="6" x2="32" y2="58"/></g><path d="M14.313 6 L49.687 6 L49.687 8.122 L35.891 8.122 A3.184 3.184 0 0 0 32.707 11.306 L32.707 52.694 A3.184 3.184 0 0 0 35.891 55.878 L49.687 55.878 L49.687 58 L14.313 58 L14.313 55.878 L28.109 55.878 A3.184 3.184 0 0 0 31.293 52.694 L31.293 11.306 A3.184 3.184 0 0 0 28.109 8.122 L14.313 8.122 Z"/></svg>
