<svg viewBox="0 0 826 70" width="826" xmlns="http://www.w3.org/2000/svg"><rect x="0" y="0" width="826" height="70" rx="10" fill="#ffffff" stroke="#d6d3cd"/><svg x="16" y="10" width="50" height="50" viewBox="0 0 64 64" xmlns="http://www.w3.org/2000/svg"><rect x="5" y="5" width="54" height="54" rx="4" fill="#00854d"/><rect x="41" y="15" width="12" height="34" fill="#fff"/><circle cx="24" cy="18" r="4" fill="#fff"/><path d="M23 23 L29 33 M24 26 L15 31 M24 26 L33 29 M29 33 L38 42 M29 33 L21 44" fill="none" stroke="#fff" stroke-width="3.2" stroke-linecap="round" stroke-linejoin="round"/></svg><svg x="78" y="10" width="50" height="50" viewBox="0 0 64 64" xmlns="http://www.w3.org/2000/svg" fill="none" stroke="#000" stroke-width="2"><circle cx="32" cy="30" r="16"/><circle cx="32" cy="30" r="9"/><circle cx="32" cy="30" r="3"/><line x1="32" y1="46" x2="32" y2="54"/><line x1="32" y1="54" x2="44" y2="54"/><text x="32" y="12" font-size="9" font-weight="bold" text-anchor="middle" fill="#000" stroke="none">BSH</text></svg><svg x="140" y="10" width="50" height="50" viewBox="0 0 64 64" xmlns="http://www.w3.org/2000/svg" fill="none" stroke="#000" stroke-linecap="round" stroke-linejoin="round"><title>Dutch wall types (plan view): metselwerk</title><desc>Tekstvrij wandpatroon: masonry.</desc><g stroke-width="1.6"><line x1="4" y1="18" x2="60" y2="18"/><line x1="4" y1="46" x2="60" y2="46"/></g><g stroke-width="0.75"><line x1="4" y1="32" x2="60" y2="32"/><line x1="12" y1="18" x2="12" y2="32"/><line x1="24" y1="18" x2="24" y2="32"/><line x1="36" y1="18" x2="36" y2="32"/><line x1="48" y1="18" x2="48" y2="32"/><line x1="18" y1="32" x2="18" y2="46"/><line x1="30" y1="32" x2="30" y2="46"/><line x1="42" y1="32" x2="42" y2="46"/><line x1="54" y1="32" x2="54" y2="46"/></g></svg><svg x="202" y="10" width="50" height="50" viewBox="0 0 64 64" xmlns="http://www.w3.org/2000/svg" fill="none" stroke="#000" stroke-width="2"><circle cx="32" cy="32" r="20"/><text x="32" y="36.68" font-size="13" font-weight="bold" text-anchor="middle" fill="#000" stroke="none">SD</text></svg><svg x="264" y="10" width="50" height="50" viewBox="0 0 64 64" xmlns="http://www.w3.org/2000/svg" fill="none" stroke="#000" stroke-width="2"><path d="M24 46 L24 26 A8 8 0 0 1 40 26 L40 46"/><line x1="18" y1="46" x2="46" y2="46"/><rect x="14" y="30" width="8" height="8"/><rect x="42" y="30" width="8" height="8"/><text x="32" y="60" font-size="10" font-weight="bold" text-anchor="middle" fill="#000" stroke="none">H</text></svg><svg x="326" y="10" width="50" height="50" viewBox="0 0 64 64" xmlns="http://www.w3.org/2000/svg" fill="none" stroke="#000" stroke-width="2"><circle cx="32" cy="30" r="16"/><circle cx="32" cy="30" r="9"/><circle cx="32" cy="30" r="3"/><line x1="32" y1="46" x2="32" y2="54"/><line x1="32" y1="54" x2="44" y2="54"/><text x="32" y="12" font-size="10" font-weight="bold" text-anchor="middle" fill="#000" stroke="none">HR</text></svg><svg x="388" y="10" width="50" height="50" viewBox="0 0 64 64" xmlns="http://www.w3.org/2000/svg" fill="none" stroke="#000" stroke-width="1.5" stroke-linecap="round" stroke-linejoin="round"><title>European steel profiles: heb</title><desc>Catalogusgedreven doorsnede; vorm i.</desc><g stroke-width="0.7" stroke-dasharray="5 2 1 2"><line x1="6" y1="32" x2="58" y2="32"/><line x1="32" y1="6" x2="32" y2="58"/></g><path d="M6 6 L58 6 L58 9.9 L37.85 9.9 A4.68 4.68 0 0 0 33.17 14.58 L33.17 49.42 A4.68 4.68 0 0 0 37.85 54.1 L58 54.1 L58 58 L6 58 L6 54.1 L26.15 54.1 A4.68 4.68 0 0 0 30.83 49.42 L30.83 14.58 A4.68 4.68 0 0 0 26.15 9.9 L6 9.9 Z"/></svg><svg x="450" y="10" width="50" height="50" viewBox="0 0 64 64" xmlns="http://www.w3.org/2000/svg" fill="none" stroke="#000" stroke-width="1.5" stroke-linecap="round" stroke-linejoin="round"><title>US steel shapes (AISC): w-shape</title><desc>Catalogusgedreven doorsnede; vorm i.</desc><g stroke-width="0.7" stroke-dasharray="5 2 1 2"><line x1="6" y1="32" x2="58" y2="32"/><line x1="32" y1="6" x2="32" y2="58"/></g><path d="M18.161 6 L45.839 6 L45.839 7.627 L33.996 7.627 A1.51 1.51 0 0 0 32.486 9.137 L32.486 54.863 A1.51 1.51 0 0 0 33.996 56.373 L45.839 56.373 L45.839 58 L18.161 58 L18.161 56.373 L30.004 56.373 A1.51 1.51 0 0 0 31.514 54.863 L31.514 9.137 A1.51 1.51 0 0 0 30.004 7.627 L18.161 7.627 Z"/></svg><svg x="512" y="10" width="50" height="50" viewBox="0 0 64 64" xmlns="http://www.w3.org/2000/svg" fill="none" stroke="#000" stroke-width="1.5" stroke-linecap="round" stroke-linejoin="round"><title>Japanese steel shapes (JIS): h-shape-wide</title><desc>Catalogusgedreven doorsnede; vorm i.</desc><g stroke-width="0.7" stroke-dasharray="5 2 1 2"><line x1="6" y1="32" x2="58" y2="32"/><line x1="32" y1="6" x2="32" y2="58"/></g><path d="M6 6 L58 6 L58 8.6 L35.987 8.6 A3.12 3.12 0 0 0 32.867 11.72 L32.867 52.28 A3.12 3.12 0 0 0 35.987 55.4 L58 55.4 L58 58 L6 58 L6 55.4 L28.013 55.4 A3.12 3.12 0 0 0 31.133 52.28 L31.133 11.72 A3.12 3.12 0 0 0 28.013 8.6 L6 8.6 Z"/></svg><svg x="574" y="10" width="50" height="50" viewBox="0 0 64 64" xmlns="http://www.w3.org/2000/svg" fill="none" stroke="#000" stroke-width="2"><circle cx="32" cy="32" r="4"/><line x1="35" y1="29" x2="48" y2="16"/><line x1="48" y1="16" x2="54" y2="22"/><line x1="29" y1="35" x2="16" y2="48"/><line x1="16" y1="48" x2="10" y2="42"/></svg><svg x="636" y="10" width="50" height="50" viewBox="0 0 64 64" xmlns="http://www.w3.org/2000/svg" fill="none" stroke="#000" stroke-width="2"><path d="M12 24 L32 32 L12 40 Z"/><path d="M52 24 L32 32 L52 40 Z"/><line x1="32" y1="32" x2="32" y2="18"/><path d="M22 18 A10 6 0 0 1 42 18"/></svg><svg x="698" y="10" width="50" height="50" viewBox="0 0 64 64" xmlns="http://www.w3.org/2000/svg" fill="none" stroke="#000" stroke-width="2"><rect x="14" y="14" width="36" height="36"/><line x1="14" y1="14" x2="50" y2="50"/><line x1="50" y1="14" x2="14" y2="50"/></svg><svg x="760" y="10" width="50" height="50" viewBox="0 0 64 64" xmlns="http://www.w3.org/2000/svg" fill="none" stroke="#000" stroke-width="2"><path d="M32 6 L44 50 L32 42 Z" fill="#000" stroke="none"/><path d="M32 6 L20 50 L32 42 Z" fill="none"/><text x="32" y="62" font-size="12" font-weight="bold" text-anchor="middle" fill="#000" stroke="none">N</text></svg></svg>
