<svg viewBox="0 0 826 70" width="826" xmlns="http://www.w3.org/2000/svg"><rect x="0" y="0" width="826" height="70" rx="10" fill="#ffffff" stroke="#d6d3cd"/><svg x="16" y="10" width="50" height="50" viewBox="0 0 64 64" xmlns="http://www.w3.org/2000/svg"><rect x="5" y="5" width="54" height="54" rx="4" fill="#00854d"/><rect x="41" y="15" width="12" height="34" fill="#fff"/><circle cx="24" cy="18" r="4" fill="#fff"/><path d="M23 23 L29 33 M24 26 L15 31 M24 26 L33 29 M29 33 L38 42 M29 33 L21 44" fill="none" stroke="#fff" stroke-width="3.2" stroke-linecap="round" stroke-linejoin="round"/></svg><svg x="78" y="10" width="50" height="50" viewBox="0 0 64 64" xmlns="http://www.w3.org/2000/svg" fill="none" stroke="#000" stroke-width="2"><circle cx="32" cy="30" r="16"/><circle cx="32" cy="30" r="9"/><circle cx="32" cy="30" r="3"/><line x1="32" y1="46" x2="32" y2="54"/><line x1="32" y1="54" x2="44" y2="54"/><text x="32" y="12" font-size="9" font-weight="bold" text-anchor="middle" fill="#000" stroke="none">BSH</text></svg><svg x="140" y="10" width="50" height="50" viewBox="0 0 64 64" xmlns="http://www.w3.org/2000/svg" fill="none" stroke="#000" stroke-width="2"><line x1="4" y1="22" x2="60" y2="22"/><line x1="4" y1="40" x2="60" y2="40"/><line x1="10" y1="40" x2="24" y2="22"/><line x1="24" y1="40" x2="38" y2="22"/><line x1="38" y1="40" x2="52" y2="22"/><text x="32" y="56" font-size="8" font-weight="bold" text-anchor="middle" fill="#000" stroke="none">METSELWERK</text></svg><svg x="202" y="10" width="50" height="50" viewBox="0 0 64 64" xmlns="http://www.w3.org/2000/svg" fill="none" stroke="#000" stroke-width="2"><circle cx="32" cy="32" r="20"/><text x="32" y="36.68" font-size="13" font-weight="bold" text-anchor="middle" fill="#000" stroke="none">SD</text></svg><svg x="264" y="10" width="50" height="50" viewBox="0 0 64 64" xmlns="http://www.w3.org/2000/svg" fill="none" stroke="#000" stroke-width="2"><path d="M24 46 L24 26 A8 8 0 0 1 40 26 L40 46"/><line x1="18" y1="46" x2="46" y2="46"/><rect x="14" y="30" width="8" height="8"/><rect x="42" y="30" width="8" height="8"/><text x="32" y="60" font-size="10" font-weight="bold" text-anchor="middle" fill="#000" stroke="none">H</text></svg><svg x="326" y="10" width="50" height="50" viewBox="0 0 64 64" xmlns="http://www.w3.org/2000/svg" fill="none" stroke="#000" stroke-width="2"><circle cx="32" cy="30" r="16"/><circle cx="32" cy="30" r="9"/><circle cx="32" cy="30" r="3"/><line x1="32" y1="46" x2="32" y2="54"/><line x1="32" y1="54" x2="44" y2="54"/><text x="32" y="12" font-size="10" font-weight="bold" text-anchor="middle" fill="#000" stroke="none">HR</text></svg><svg x="388" y="10" width="50" height="50" viewBox="0 0 64 64" xmlns="http://www.w3.org/2000/svg" fill="none" stroke="#000" stroke-width="1.8"><path d="M11.00 12.00 L53.00 12.00 L53.00 15.50 L37.53 15.50 L37.53 15.50 L36.36 15.69 L35.31 16.22 L34.47 17.06 L33.94 18.11 L33.75 19.28 L33.75 46.72 L33.75 46.72 L33.94 47.89 L34.47 48.94 L35.31 49.78 L36.36 50.31 L37.53 50.50 L53.00 50.50 L53.00 54.00 L11.00 54.00 L11.00 50.50 L26.47 50.50 L26.47 50.50 L27.64 50.31 L28.69 49.78 L29.53 48.94 L30.06 47.89 L30.25 46.72 L30.25 19.28 L30.25 19.28 L30.06 18.11 L29.53 17.06 L28.69 16.22 L27.64 15.69 L26.47 15.50 L11.00 15.50 Z"/><line x1="4.7" y1="33.0" x2="59.3" y2="33.0" stroke-width="0.9" stroke-dasharray="6 2.2 1.4 2.2"/><line x1="32.0" y1="5.7" x2="32.0" y2="60.3" stroke-width="0.9" stroke-dasharray="6 2.2 1.4 2.2"/><text x="61" y="9" font-size="8" font-weight="bold" text-anchor="end" fill="#000" stroke="none">HEB</text></svg><svg x="450" y="10" width="50" height="50" viewBox="0 0 64 64" xmlns="http://www.w3.org/2000/svg" fill="none" stroke="#000" stroke-width="1.8"><path d="M20.82 12.00 L43.18 12.00 L43.18 15.50 L35.75 15.50 L35.75 15.50 L35.13 15.60 L34.57 15.88 L34.13 16.32 L33.85 16.88 L33.75 17.50 L33.75 48.50 L33.75 48.50 L33.85 49.12 L34.13 49.68 L34.57 50.12 L35.13 50.40 L35.75 50.50 L43.18 50.50 L43.18 54.00 L20.82 54.00 L20.82 50.50 L28.25 50.50 L28.25 50.50 L28.87 50.40 L29.43 50.12 L29.87 49.68 L30.15 49.12 L30.25 48.50 L30.25 17.50 L30.25 17.50 L30.15 16.88 L29.87 16.32 L29.43 15.88 L28.87 15.60 L28.25 15.50 L20.82 15.50 Z"/><line x1="17.5" y1="33.0" x2="46.5" y2="33.0" stroke-width="0.9" stroke-dasharray="6 2.2 1.4 2.2"/><line x1="32.0" y1="5.7" x2="32.0" y2="60.3" stroke-width="0.9" stroke-dasharray="6 2.2 1.4 2.2"/><text x="61" y="9" font-size="8" font-weight="bold" text-anchor="end" fill="#000" stroke="none">W</text></svg><svg x="512" y="10" width="50" height="50" viewBox="0 0 64 64" xmlns="http://www.w3.org/2000/svg" fill="none" stroke="#000" stroke-width="1.8"><path d="M11.00 12.00 L53.00 12.00 L53.00 15.50 L36.48 15.50 L36.48 15.50 L35.64 15.63 L34.88 16.02 L34.27 16.63 L33.88 17.39 L33.75 18.23 L33.75 47.77 L33.75 47.77 L33.88 48.61 L34.27 49.37 L34.88 49.98 L35.64 50.37 L36.48 50.50 L53.00 50.50 L53.00 54.00 L11.00 54.00 L11.00 50.50 L27.52 50.50 L27.52 50.50 L28.36 50.37 L29.12 49.98 L29.73 49.37 L30.12 48.61 L30.25 47.77 L30.25 18.23 L30.25 18.23 L30.12 17.39 L29.73 16.63 L29.12 16.02 L28.36 15.63 L27.52 15.50 L11.00 15.50 Z"/><line x1="4.7" y1="33.0" x2="59.3" y2="33.0" stroke-width="0.9" stroke-dasharray="6 2.2 1.4 2.2"/><line x1="32.0" y1="5.7" x2="32.0" y2="60.3" stroke-width="0.9" stroke-dasharray="6 2.2 1.4 2.2"/><text x="61" y="9" font-size="8" font-weight="bold" text-anchor="end" fill="#000" stroke="none">H</text></svg><svg x="574" y="10" width="50" height="50" viewBox="0 0 64 64" xmlns="http://www.w3.org/2000/svg" fill="none" stroke="#000" stroke-width="2"><circle cx="32" cy="32" r="4"/><line x1="35" y1="29" x2="48" y2="16"/><line x1="48" y1="16" x2="54" y2="22"/><line x1="29" y1="35" x2="16" y2="48"/><line x1="16" y1="48" x2="10" y2="42"/></svg><svg x="636" y="10" width="50" height="50" viewBox="0 0 64 64" xmlns="http://www.w3.org/2000/svg" fill="none" stroke="#000" stroke-width="2"><path d="M12 24 L32 32 L12 40 Z"/><path d="M52 24 L32 32 L52 40 Z"/><line x1="32" y1="32" x2="32" y2="18"/><path d="M22 18 A10 6 0 0 1 42 18"/></svg><svg x="698" y="10" width="50" height="50" viewBox="0 0 64 64" xmlns="http://www.w3.org/2000/svg" fill="none" stroke="#000" stroke-width="2"><rect x="14" y="14" width="36" height="36"/><line x1="14" y1="14" x2="50" y2="50"/><line x1="50" y1="14" x2="14" y2="50"/></svg><svg x="760" y="10" width="50" height="50" viewBox="0 0 64 64" xmlns="http://www.w3.org/2000/svg" fill="none" stroke="#000" stroke-width="2"><path d="M32 6 L44 50 L32 42 Z" fill="#000" stroke="none"/><path d="M32 6 L20 50 L32 42 Z" fill="none"/><text x="32" y="62" font-size="12" font-weight="bold" text-anchor="middle" fill="#000" stroke="none">N</text></svg></svg>
