<svg viewBox="0 0 696 416" width="696" xmlns="http://www.w3.org/2000/svg"><rect x="0" y="0" width="696" height="416" rx="8" fill="#ffffff" stroke="#d6d3cd"/><svg x="28" y="18" width="52" height="52" viewBox="0 0 64 64" xmlns="http://www.w3.org/2000/svg" fill="none" stroke="#000" stroke-width="2"><circle cx="32" cy="32" r="20"/><text x="32" y="36.68" font-size="13" font-weight="bold" text-anchor="middle" fill="#000" stroke="none">BM</text></svg><text x="54" y="83" font-size="7.5" font-family="system-ui, -apple-system, Segoe UI, sans-serif" text-anchor="middle" fill="#78716c">automatischer-brandmelder</text><svg x="112" y="18" width="52" height="52" viewBox="0 0 64 64" xmlns="http://www.w3.org/2000/svg" fill="none" stroke="#000" stroke-width="2"><circle cx="32" cy="30" r="7"/><line x1="42.0" y1="30.0" x2="49.0" y2="30.0"/><line x1="39.1" y1="37.1" x2="44.0" y2="42.0"/><line x1="32.0" y1="40.0" x2="32.0" y2="47.0"/><line x1="24.9" y1="37.1" x2="20.0" y2="42.0"/><line x1="22.0" y1="30.0" x2="15.0" y2="30.0"/><line x1="24.9" y1="22.9" x2="20.0" y2="18.0"/><line x1="32.0" y1="20.0" x2="32.0" y2="13.0"/><line x1="39.1" y1="22.9" x2="44.0" y2="18.0"/><text x="32" y="58" font-size="11" font-weight="bold" text-anchor="middle" fill="#000" stroke="none">BL</text></svg><text x="138" y="83" font-size="7.5" font-family="system-ui, -apple-system, Segoe UI, sans-serif" text-anchor="middle" fill="#78716c">blitzleuchte</text><svg x="196" y="18" width="52" height="52" viewBox="0 0 64 64" xmlns="http://www.w3.org/2000/svg" fill="none" stroke="#000" stroke-width="2"><rect x="6" y="18" width="52" height="28"/><text x="32" y="36.68" font-size="13" font-weight="bold" text-anchor="middle" fill="#000" stroke="none">BMZ</text></svg><text x="222" y="83" font-size="7.5" font-family="system-ui, -apple-system, Segoe UI, sans-serif" text-anchor="middle" fill="#78716c">brandmelderzentrale</text><svg x="280" y="18" width="52" height="52" viewBox="0 0 64 64" xmlns="http://www.w3.org/2000/svg" fill="none" stroke="#000" stroke-width="2"><rect x="14" y="14" width="36" height="36"/><line x1="14" y1="50" x2="50" y2="14"/><line x1="14" y1="14" x2="50" y2="50"/><text x="32" y="62" font-size="10" font-weight="bold" text-anchor="middle" fill="#000" stroke="none">BSK</text></svg><text x="306" y="83" font-size="7.5" font-family="system-ui, -apple-system, Segoe UI, sans-serif" text-anchor="middle" fill="#78716c">brandschutzklappe</text><svg x="364" y="18" width="52" height="52" viewBox="0 0 64 64" xmlns="http://www.w3.org/2000/svg" fill="none" stroke="#000" stroke-width="2"><line x1="12" y1="52" x2="52" y2="52"/><line x1="16" y1="52" x2="16" y2="16"/><path d="M16 16 A36 36 0 0 1 52 52"/><text x="28" y="40" font-size="9" font-weight="bold" text-anchor="middle" fill="#000" stroke="none">T30</text></svg><text x="390" y="83" font-size="7.5" font-family="system-ui, -apple-system, Segoe UI, sans-serif" text-anchor="middle" fill="#78716c">brandschutztuer</text><svg x="448" y="18" width="52" height="52" viewBox="0 0 64 64" xmlns="http://www.w3.org/2000/svg" fill="none" stroke="#000" stroke-width="2"><line x1="8" y1="26" x2="56" y2="26" stroke-width="4"/><line x1="8" y1="38" x2="56" y2="38" stroke-width="4"/><line x1="16" y1="26" x2="16" y2="38"/><line x1="32" y1="26" x2="32" y2="38"/><line x1="48" y1="26" x2="48" y2="38"/><text x="32" y="56" font-size="10" font-weight="bold" text-anchor="middle" fill="#000" stroke="none">BW</text></svg><text x="474" y="83" font-size="7.5" font-family="system-ui, -apple-system, Segoe UI, sans-serif" text-anchor="middle" fill="#78716c">brandwand</text><svg x="532" y="18" width="52" height="52" viewBox="0 0 64 64" xmlns="http://www.w3.org/2000/svg" fill="none" stroke="#000" stroke-width="2"><rect x="6" y="18" width="52" height="28"/><text x="32" y="36.68" font-size="13" font-weight="bold" text-anchor="middle" fill="#000" stroke="none">CO2</text></svg><text x="558" y="83" font-size="7.5" font-family="system-ui, -apple-system, Segoe UI, sans-serif" text-anchor="middle" fill="#78716c">co2-loeschanlage</text><svg x="616" y="18" width="52" height="52" viewBox="0 0 64 64" xmlns="http://www.w3.org/2000/svg" fill="none" stroke="#000" stroke-width="2"><circle cx="22" cy="28" r="9"/><circle cx="42" cy="28" r="9"/><circle cx="22" cy="28" r="3"/><circle cx="42" cy="28" r="3"/><line x1="13" y1="42" x2="51" y2="42"/><text x="32" y="58" font-size="11" font-weight="bold" text-anchor="middle" fill="#000" stroke="none">ES</text></svg><text x="642" y="83" font-size="7.5" font-family="system-ui, -apple-system, Segoe UI, sans-serif" text-anchor="middle" fill="#78716c">einspeisestelle</text><svg x="28" y="116" width="52" height="52" viewBox="0 0 64 64" xmlns="http://www.w3.org/2000/svg" fill="none" stroke="#000" stroke-width="2"><rect x="24" y="22" width="16" height="30" rx="4"/><line x1="32" y1="22" x2="32" y2="16"/><path d="M32 16 L40 12"/><text x="32" y="41" font-size="10" font-weight="bold" text-anchor="middle" fill="#000" stroke="none">FL</text></svg><text x="54" y="181" font-size="7.5" font-family="system-ui, -apple-system, Segoe UI, sans-serif" text-anchor="middle" fill="#78716c">feuerloescher</text><svg x="112" y="116" width="52" height="52" viewBox="0 0 64 64" xmlns="http://www.w3.org/2000/svg" fill="none" stroke="#000" stroke-width="2"><rect x="6" y="18" width="52" height="28"/><text x="32" y="36.68" font-size="13" font-weight="bold" text-anchor="middle" fill="#000" stroke="none">FAT</text></svg><text x="138" y="181" font-size="7.5" font-family="system-ui, -apple-system, Segoe UI, sans-serif" text-anchor="middle" fill="#78716c">feuerwehr-anzeigetableau</text><svg x="196" y="116" width="52" height="52" viewBox="0 0 64 64" xmlns="http://www.w3.org/2000/svg" fill="none" stroke="#000" stroke-width="2"><rect x="6" y="18" width="52" height="28"/><text x="32" y="36.68" font-size="13" font-weight="bold" text-anchor="middle" fill="#000" stroke="none">FBF</text></svg><text x="222" y="181" font-size="7.5" font-family="system-ui, -apple-system, Segoe UI, sans-serif" text-anchor="middle" fill="#78716c">feuerwehr-bedienfeld</text><svg x="280" y="116" width="52" height="52" viewBox="0 0 64 64" xmlns="http://www.w3.org/2000/svg" fill="none" stroke="#000" stroke-width="2"><rect x="12" y="12" width="40" height="40"/><text x="32" y="36.32" font-size="12" font-weight="bold" text-anchor="middle" fill="#000" stroke="none">FSD</text></svg><text x="306" y="181" font-size="7.5" font-family="system-ui, -apple-system, Segoe UI, sans-serif" text-anchor="middle" fill="#78716c">feuerwehr-schluesseldepot</text><svg x="364" y="116" width="52" height="52" viewBox="0 0 64 64" xmlns="http://www.w3.org/2000/svg" fill="none" stroke="#000" stroke-width="2"><rect x="6" y="18" width="52" height="28"/><line x1="14" y1="32" x2="42" y2="32"/><path d="M36 24 L44 32 L36 40"/><text x="32" y="60" font-size="8" font-weight="bold" text-anchor="middle" fill="#000" stroke="none">FW-ZUFAHRT</text></svg><text x="390" y="181" font-size="7.5" font-family="system-ui, -apple-system, Segoe UI, sans-serif" text-anchor="middle" fill="#78716c">feuerwehrzufahrt</text><svg x="448" y="116" width="52" height="52" viewBox="0 0 64 64" xmlns="http://www.w3.org/2000/svg" fill="none" stroke="#000" stroke-width="2"><rect x="12" y="12" width="40" height="40"/><text x="32" y="36.32" font-size="12" font-weight="bold" text-anchor="middle" fill="#000" stroke="none">FSE</text></svg><text x="474" y="181" font-size="7.5" font-family="system-ui, -apple-system, Segoe UI, sans-serif" text-anchor="middle" fill="#78716c">freischaltelement</text><svg x="532" y="116" width="52" height="52" viewBox="0 0 64 64" xmlns="http://www.w3.org/2000/svg" fill="none" stroke="#000" stroke-width="2"><rect x="12" y="12" width="40" height="40"/><text x="32" y="37.4" font-size="15" font-weight="bold" text-anchor="middle" fill="#000" stroke="none">HM</text></svg><text x="558" y="181" font-size="7.5" font-family="system-ui, -apple-system, Segoe UI, sans-serif" text-anchor="middle" fill="#78716c">handfeuermelder</text><svg x="616" y="116" width="52" height="52" viewBox="0 0 64 64" xmlns="http://www.w3.org/2000/svg" fill="none" stroke="#000" stroke-width="2"><rect x="10" y="20" width="44" height="26"/><path d="M14 30 Q20 26 26 30 T38 30 T50 30"/><text x="32" y="58" font-size="10" font-weight="bold" text-anchor="middle" fill="#000" stroke="none">LWB</text></svg><text x="642" y="181" font-size="7.5" font-family="system-ui, -apple-system, Segoe UI, sans-serif" text-anchor="middle" fill="#78716c">loeschwasserbehaelter</text><svg x="28" y="214" width="52" height="52" viewBox="0 0 64 64" xmlns="http://www.w3.org/2000/svg" fill="none" stroke="#000" stroke-width="2"><circle cx="32" cy="32" r="20"/><text x="32" y="36.68" font-size="13" font-weight="bold" text-anchor="middle" fill="#000" stroke="none">LW</text></svg><text x="54" y="279" font-size="7.5" font-family="system-ui, -apple-system, Segoe UI, sans-serif" text-anchor="middle" fill="#78716c">loeschwasserentnahme</text><svg x="112" y="214" width="52" height="52" viewBox="0 0 64 64" xmlns="http://www.w3.org/2000/svg" fill="none" stroke="#000" stroke-width="2"><rect x="14" y="14" width="36" height="36"/><line x1="14" y1="50" x2="50" y2="14"/><text x="32" y="62" font-size="10" font-weight="bold" text-anchor="middle" fill="#000" stroke="none">RA</text></svg><text x="138" y="279" font-size="7.5" font-family="system-ui, -apple-system, Segoe UI, sans-serif" text-anchor="middle" fill="#78716c">rauchabzug</text><svg x="196" y="214" width="52" height="52" viewBox="0 0 64 64" xmlns="http://www.w3.org/2000/svg" fill="none" stroke="#000" stroke-width="2"><circle cx="32" cy="32" r="20"/><text x="32" y="36.68" font-size="13" font-weight="bold" text-anchor="middle" fill="#000" stroke="none">RM</text></svg><text x="222" y="279" font-size="7.5" font-family="system-ui, -apple-system, Segoe UI, sans-serif" text-anchor="middle" fill="#78716c">rauchmelder</text><svg x="280" y="214" width="52" height="52" viewBox="0 0 64 64" xmlns="http://www.w3.org/2000/svg" fill="none" stroke="#000" stroke-width="2"><rect x="6" y="18" width="52" height="28"/><text x="32" y="36.32" font-size="12" font-weight="bold" text-anchor="middle" fill="#000" stroke="none">RWA</text></svg><text x="306" y="279" font-size="7.5" font-family="system-ui, -apple-system, Segoe UI, sans-serif" text-anchor="middle" fill="#78716c">rwa-bedienstelle</text><svg x="364" y="214" width="52" height="52" viewBox="0 0 64 64" xmlns="http://www.w3.org/2000/svg" fill="none" stroke="#000" stroke-width="2"><rect x="14" y="14" width="36" height="36"/><line x1="20" y1="20" x2="28" y2="28"/><path d="M28 22 L28 28 L22 28"/><line x1="44" y1="20" x2="36" y2="28"/><path d="M36 22 L36 28 L42 28"/><line x1="20" y1="44" x2="28" y2="36"/><path d="M22 36 L28 36 L28 42"/><line x1="44" y1="44" x2="36" y2="36"/><path d="M42 36 L36 36 L36 42"/><text x="32" y="62" font-size="10" font-weight="bold" text-anchor="middle" fill="#000" stroke="none">SP</text></svg><text x="390" y="279" font-size="7.5" font-family="system-ui, -apple-system, Segoe UI, sans-serif" text-anchor="middle" fill="#78716c">sammelplatz</text><svg x="448" y="214" width="52" height="52" viewBox="0 0 64 64" xmlns="http://www.w3.org/2000/svg" fill="none" stroke="#000" stroke-width="2"><path d="M14 26 L26 26 L38 16 L38 48 L26 38 L14 38 Z"/><path d="M44 24 A12 12 0 0 1 44 40"/><path d="M50 19 A19 19 0 0 1 50 45"/><text x="24" y="58" font-size="10" font-weight="bold" text-anchor="middle" fill="#000" stroke="none">SIR</text></svg><text x="474" y="279" font-size="7.5" font-family="system-ui, -apple-system, Segoe UI, sans-serif" text-anchor="middle" fill="#78716c">sirene</text><svg x="532" y="214" width="52" height="52" viewBox="0 0 64 64" xmlns="http://www.w3.org/2000/svg" fill="none" stroke="#000" stroke-width="2"><line x1="32" y1="8" x2="32" y2="26"/><circle cx="32" cy="32" r="6"/><line x1="24" y1="46" x2="28" y2="40"/><line x1="32" y1="48" x2="32" y2="40"/><line x1="40" y1="46" x2="36" y2="40"/></svg><text x="558" y="279" font-size="7.5" font-family="system-ui, -apple-system, Segoe UI, sans-serif" text-anchor="middle" fill="#78716c">sprinkler-geschuetzt</text><svg x="616" y="214" width="52" height="52" viewBox="0 0 64 64" xmlns="http://www.w3.org/2000/svg" fill="none" stroke="#000" stroke-width="2"><rect x="6" y="18" width="52" height="28"/><text x="32" y="36.32" font-size="12" font-weight="bold" text-anchor="middle" fill="#000" stroke="none">SPZ</text></svg><text x="642" y="279" font-size="7.5" font-family="system-ui, -apple-system, Segoe UI, sans-serif" text-anchor="middle" fill="#78716c">sprinklerzentrale</text><svg x="28" y="312" width="52" height="52" viewBox="0 0 64 64" xmlns="http://www.w3.org/2000/svg" fill="none" stroke="#000" stroke-width="2"><line x1="28" y1="10" x2="28" y2="54"/><line x1="36" y1="10" x2="36" y2="54"/><circle cx="32" cy="32" r="12"/><text x="32" y="36" font-size="12" font-weight="bold" text-anchor="middle" fill="#000" stroke="none">N</text></svg><text x="54" y="377" font-size="7.5" font-family="system-ui, -apple-system, Segoe UI, sans-serif" text-anchor="middle" fill="#78716c">steigleitung-nass</text><svg x="112" y="312" width="52" height="52" viewBox="0 0 64 64" xmlns="http://www.w3.org/2000/svg" fill="none" stroke="#000" stroke-width="2"><line x1="28" y1="10" x2="28" y2="54"/><line x1="36" y1="10" x2="36" y2="54"/><circle cx="32" cy="32" r="12" stroke-dasharray="4 3"/><text x="32" y="36" font-size="12" font-weight="bold" text-anchor="middle" fill="#000" stroke="none">T</text></svg><text x="138" y="377" font-size="7.5" font-family="system-ui, -apple-system, Segoe UI, sans-serif" text-anchor="middle" fill="#78716c">steigleitung-trocken</text><svg x="196" y="312" width="52" height="52" viewBox="0 0 64 64" xmlns="http://www.w3.org/2000/svg" fill="none" stroke="#000" stroke-width="2"><path d="M24 46 L24 26 A8 8 0 0 1 40 26 L40 46"/><line x1="18" y1="46" x2="46" y2="46"/><rect x="14" y="30" width="8" height="8"/><rect x="42" y="30" width="8" height="8"/><text x="32" y="60" font-size="10" font-weight="bold" text-anchor="middle" fill="#000" stroke="none">H</text></svg><text x="222" y="377" font-size="7.5" font-family="system-ui, -apple-system, Segoe UI, sans-serif" text-anchor="middle" fill="#78716c">ueberflurhydrant</text><svg x="280" y="312" width="52" height="52" viewBox="0 0 64 64" xmlns="http://www.w3.org/2000/svg" fill="none" stroke="#000" stroke-width="2"><circle cx="32" cy="30" r="14"/><line x1="18" y1="48" x2="46" y2="48"/><text x="32" y="34" font-size="11" font-weight="bold" text-anchor="middle" fill="#000" stroke="none">UH</text></svg><text x="306" y="377" font-size="7.5" font-family="system-ui, -apple-system, Segoe UI, sans-serif" text-anchor="middle" fill="#78716c">unterflurhydrant</text><svg x="364" y="312" width="52" height="52" viewBox="0 0 64 64" xmlns="http://www.w3.org/2000/svg" fill="none" stroke="#000" stroke-width="2"><circle cx="32" cy="32" r="20"/><text x="32" y="36.68" font-size="13" font-weight="bold" text-anchor="middle" fill="#000" stroke="none">WM</text></svg><text x="390" y="377" font-size="7.5" font-family="system-ui, -apple-system, Segoe UI, sans-serif" text-anchor="middle" fill="#78716c">waermemelder</text><svg x="448" y="312" width="52" height="52" viewBox="0 0 64 64" xmlns="http://www.w3.org/2000/svg" fill="none" stroke="#000" stroke-width="2"><rect x="12" y="12" width="40" height="40"/><text x="32" y="37.04" font-size="14" font-weight="bold" text-anchor="middle" fill="#000" stroke="none">WH</text></svg><text x="474" y="377" font-size="7.5" font-family="system-ui, -apple-system, Segoe UI, sans-serif" text-anchor="middle" fill="#78716c">wandhydrant</text><svg x="532" y="312" width="52" height="52" viewBox="0 0 64 64" xmlns="http://www.w3.org/2000/svg" fill="none" stroke="#000" stroke-width="2"><rect x="14" y="14" width="36" height="36"/><line x1="20" y1="32" x2="44" y2="32"/><path d="M36 24 L44 32 L36 40"/><text x="32" y="62" font-size="10" font-weight="bold" text-anchor="middle" fill="#000" stroke="none">ZL</text></svg><text x="558" y="377" font-size="7.5" font-family="system-ui, -apple-system, Segoe UI, sans-serif" text-anchor="middle" fill="#78716c">zuluftoeffnung</text></svg>
