<svg viewBox="0 0 696 122" width="696" xmlns="http://www.w3.org/2000/svg"><rect x="0" y="0" width="696" height="122" rx="8" fill="#ffffff" stroke="#d6d3cd"/><svg x="28" y="18" width="52" height="52" viewBox="0 0 64 64" xmlns="http://www.w3.org/2000/svg" fill="none" stroke="#000" stroke-linecap="round" stroke-linejoin="round"><title>US wall types (plan view): brick-veneer-wall</title><desc>Tekstvrij wandpatroon: cavity.</desc><g stroke-width="1.6"><line x1="4" y1="14" x2="60" y2="14"/><line x1="4" y1="24" x2="60" y2="24"/><line x1="4" y1="40" x2="60" y2="40"/><line x1="4" y1="50" x2="60" y2="50"/></g><g stroke-width="0.75"><line x1="4" y1="14" x2="4" y2="14"/><line x1="4" y1="22.571" x2="16" y2="14"/><line x1="14" y1="24" x2="28" y2="14"/><line x1="26" y1="24" x2="40" y2="14"/><line x1="38" y1="24" x2="52" y2="14"/><line x1="50" y1="24" x2="60" y2="16.857"/><line x1="4" y1="32" x2="60" y2="32" stroke-dasharray="2 4"/></g><g stroke-width="0.75"><line x1="4" y1="45" x2="60" y2="45"/><line x1="12" y1="40" x2="12" y2="45"/><line x1="24" y1="40" x2="24" y2="45"/><line x1="36" y1="40" x2="36" y2="45"/><line x1="48" y1="40" x2="48" y2="45"/><line x1="18" y1="45" x2="18" y2="50"/><line x1="30" y1="45" x2="30" y2="50"/><line x1="42" y1="45" x2="42" y2="50"/><line x1="54" y1="45" x2="54" y2="50"/></g></svg><text x="54" y="83" font-size="7.5" font-family="system-ui, -apple-system, Segoe UI, sans-serif" text-anchor="middle" fill="#78716c">brick-veneer-wall</text><svg x="112" y="18" width="52" height="52" viewBox="0 0 64 64" xmlns="http://www.w3.org/2000/svg" fill="none" stroke="#000" stroke-linecap="round" stroke-linejoin="round"><title>US wall types (plan view): cmu-wall</title><desc>Tekstvrij wandpatroon: masonry.</desc><g stroke-width="1.6"><line x1="4" y1="18" x2="60" y2="18"/><line x1="4" y1="46" x2="60" y2="46"/></g><g stroke-width="0.75"><line x1="4" y1="32" x2="60" y2="32"/><line x1="12" y1="18" x2="12" y2="32"/><line x1="24" y1="18" x2="24" y2="32"/><line x1="36" y1="18" x2="36" y2="32"/><line x1="48" y1="18" x2="48" y2="32"/><line x1="18" y1="32" x2="18" y2="46"/><line x1="30" y1="32" x2="30" y2="46"/><line x1="42" y1="32" x2="42" y2="46"/><line x1="54" y1="32" x2="54" y2="46"/></g></svg><text x="138" y="83" font-size="7.5" font-family="system-ui, -apple-system, Segoe UI, sans-serif" text-anchor="middle" fill="#78716c">cmu-wall</text><svg x="196" y="18" width="52" height="52" viewBox="0 0 64 64" xmlns="http://www.w3.org/2000/svg" fill="none" stroke="#000" stroke-linecap="round" stroke-linejoin="round"><title>US wall types (plan view): concrete-wall</title><desc>Tekstvrij wandpatroon: concrete.</desc><g stroke-width="1.6"><line x1="4" y1="18" x2="60" y2="18"/><line x1="4" y1="46" x2="60" y2="46"/></g><g fill="#000" stroke="none"><circle cx="11" cy="27" r="1.2"/><circle cx="24" cy="38" r="1.4"/><circle cx="35" cy="25" r="1.1"/><circle cx="50" cy="36" r="1.3"/><circle cx="56" cy="25" r="0.9"/></g><g stroke-width="0.75"><polygon points="17,37 21,31 24,37"/><polygon points="39,39 43,33 47,39"/><polyline points="27,25 30,29 33,25"/></g></svg><text x="222" y="83" font-size="7.5" font-family="system-ui, -apple-system, Segoe UI, sans-serif" text-anchor="middle" fill="#78716c">concrete-wall</text><svg x="280" y="18" width="52" height="52" viewBox="0 0 64 64" xmlns="http://www.w3.org/2000/svg" fill="none" stroke="#000" stroke-linecap="round" stroke-linejoin="round"><title>US wall types (plan view): fire-wall-1hr</title><desc>Tekstvrij wandpatroon: fire-single.</desc><g stroke-width="1.6"><line x1="4" y1="18" x2="60" y2="18"/><line x1="4" y1="46" x2="60" y2="46"/></g><g stroke-width="0.75"><line x1="4" y1="32" x2="60" y2="32" stroke-dasharray="6 3"/><polygon points="16,27 19,32 16,37 13,32"/><polygon points="32,27 35,32 32,37 29,32"/><polygon points="48,27 51,32 48,37 45,32"/></g></svg><text x="306" y="83" font-size="7.5" font-family="system-ui, -apple-system, Segoe UI, sans-serif" text-anchor="middle" fill="#78716c">fire-wall-1hr</text><svg x="364" y="18" width="52" height="52" viewBox="0 0 64 64" xmlns="http://www.w3.org/2000/svg" fill="none" stroke="#000" stroke-linecap="round" stroke-linejoin="round"><title>US wall types (plan view): fire-wall-2hr</title><desc>Tekstvrij wandpatroon: fire-double.</desc><g stroke-width="1.6"><line x1="4" y1="18" x2="60" y2="18"/><line x1="4" y1="46" x2="60" y2="46"/></g><g stroke-width="0.75"><line x1="4" y1="29" x2="60" y2="29" stroke-dasharray="6 3"/><line x1="4" y1="35" x2="60" y2="35" stroke-dasharray="6 3"/><polygon points="16,27 19,32 16,37 13,32"/><polygon points="32,27 35,32 32,37 29,32"/><polygon points="48,27 51,32 48,37 45,32"/></g></svg><text x="390" y="83" font-size="7.5" font-family="system-ui, -apple-system, Segoe UI, sans-serif" text-anchor="middle" fill="#78716c">fire-wall-2hr</text><svg x="448" y="18" width="52" height="52" viewBox="0 0 64 64" xmlns="http://www.w3.org/2000/svg" fill="none" stroke="#000" stroke-linecap="round" stroke-linejoin="round"><title>US wall types (plan view): metal-stud-wall</title><desc>Tekstvrij wandpatroon: metal-stud.</desc><g stroke-width="1.6"><line x1="4" y1="18" x2="60" y2="18"/><line x1="4" y1="46" x2="60" y2="46"/></g><g stroke-width="0.75"><polyline points="8,42 8,22 14,22 14,27 11,27 11,42"/><polyline points="28,42 28,22 34,22 34,27 31,27 31,42"/><polyline points="48,42 48,22 54,22 54,27 51,27 51,42"/><line x1="4" y1="21" x2="60" y2="21"/><line x1="4" y1="43" x2="60" y2="43"/></g></svg><text x="474" y="83" font-size="7.5" font-family="system-ui, -apple-system, Segoe UI, sans-serif" text-anchor="middle" fill="#78716c">metal-stud-wall</text><svg x="532" y="18" width="52" height="52" viewBox="0 0 64 64" xmlns="http://www.w3.org/2000/svg" fill="none" stroke="#000" stroke-linecap="round" stroke-linejoin="round"><title>US wall types (plan view): shaft-wall</title><desc>Tekstvrij wandpatroon: shaft.</desc><g stroke-width="1.6"><line x1="4" y1="18" x2="60" y2="18"/><line x1="4" y1="46" x2="60" y2="46"/></g><g stroke-width="0.75"><line x1="4" y1="29" x2="60" y2="29" stroke-dasharray="8 4"/><line x1="4" y1="35" x2="60" y2="35" stroke-dasharray="2 3"/></g></svg><text x="558" y="83" font-size="7.5" font-family="system-ui, -apple-system, Segoe UI, sans-serif" text-anchor="middle" fill="#78716c">shaft-wall</text><svg x="616" y="18" width="52" height="52" viewBox="0 0 64 64" xmlns="http://www.w3.org/2000/svg" fill="none" stroke="#000" stroke-linecap="round" stroke-linejoin="round"><title>US wall types (plan view): wood-stud-wall</title><desc>Tekstvrij wandpatroon: timber-stud.</desc><g stroke-width="1.6"><line x1="4" y1="18" x2="60" y2="18"/><line x1="4" y1="46" x2="60" y2="46"/></g><g stroke-width="0.75"><rect x="10" y="20" width="4" height="24"/><rect x="28" y="20" width="4" height="24"/><rect x="46" y="20" width="4" height="24"/><polyline points="4,42 18,22 32,42 46,22 60,42"/></g></svg><text x="642" y="83" font-size="7.5" font-family="system-ui, -apple-system, Segoe UI, sans-serif" text-anchor="middle" fill="#78716c">wood-stud-wall</text></svg>
