<svg viewBox="0 0 696 416" width="696" xmlns="http://www.w3.org/2000/svg"><rect x="0" y="0" width="696" height="416" rx="8" fill="#ffffff" stroke="#d6d3cd"/><svg x="28" y="18" width="52" height="52" viewBox="0 0 64 64" xmlns="http://www.w3.org/2000/svg" fill="none" stroke="#000" stroke-width="2"><rect x="14" y="14" width="36" height="36"/><line x1="14" y1="50" x2="50" y2="14"/><text x="32" y="62" font-size="10" font-weight="bold" text-anchor="middle" fill="#000" stroke="none">AOV</text></svg><text x="54" y="83" font-size="7.5" font-family="system-ui, -apple-system, Segoe UI, sans-serif" text-anchor="middle" fill="#78716c">aov</text><svg x="112" y="18" width="52" height="52" viewBox="0 0 64 64" xmlns="http://www.w3.org/2000/svg" fill="none" stroke="#000" stroke-width="2"><circle cx="32" cy="30" r="7"/><line x1="42.0" y1="30.0" x2="49.0" y2="30.0"/><line x1="39.1" y1="37.1" x2="44.0" y2="42.0"/><line x1="32.0" y1="40.0" x2="32.0" y2="47.0"/><line x1="24.9" y1="37.1" x2="20.0" y2="42.0"/><line x1="22.0" y1="30.0" x2="15.0" y2="30.0"/><line x1="24.9" y1="22.9" x2="20.0" y2="18.0"/><line x1="32.0" y1="20.0" x2="32.0" y2="13.0"/><line x1="39.1" y1="22.9" x2="44.0" y2="18.0"/><text x="32" y="58" font-size="10" font-weight="bold" text-anchor="middle" fill="#000" stroke="none">BCN</text></svg><text x="138" y="83" font-size="7.5" font-family="system-ui, -apple-system, Segoe UI, sans-serif" text-anchor="middle" fill="#78716c">beacon</text><svg x="196" y="18" width="52" height="52" viewBox="0 0 64 64" xmlns="http://www.w3.org/2000/svg" fill="none" stroke="#000" stroke-width="2"><circle cx="18" cy="32" r="10"/><line x1="28" y1="32" x2="52" y2="32" stroke-dasharray="4 3"/><line x1="52" y1="26" x2="52" y2="38"/><text x="18" y="36" font-size="9" font-weight="bold" text-anchor="middle" fill="#000" stroke="none">BD</text></svg><text x="222" y="83" font-size="7.5" font-family="system-ui, -apple-system, Segoe UI, sans-serif" text-anchor="middle" fill="#78716c">beam-detector</text><svg x="280" y="18" width="52" height="52" viewBox="0 0 64 64" xmlns="http://www.w3.org/2000/svg" fill="none" stroke="#000" stroke-width="2"><circle cx="22" cy="28" r="9"/><circle cx="42" cy="28" r="9"/><circle cx="22" cy="28" r="3"/><circle cx="42" cy="28" r="3"/><line x1="13" y1="42" x2="51" y2="42"/><text x="32" y="58" font-size="11" font-weight="bold" text-anchor="middle" fill="#000" stroke="none">DRI</text></svg><text x="306" y="83" font-size="7.5" font-family="system-ui, -apple-system, Segoe UI, sans-serif" text-anchor="middle" fill="#78716c">dry-riser-inlet</text><svg x="364" y="18" width="52" height="52" viewBox="0 0 64 64" xmlns="http://www.w3.org/2000/svg" fill="none" stroke="#000" stroke-width="2"><circle cx="32" cy="26" r="11"/><circle cx="32" cy="26" r="4"/><line x1="32" y1="37" x2="32" y2="48"/><text x="32" y="60" font-size="11" font-weight="bold" text-anchor="middle" fill="#000" stroke="none">DRO</text></svg><text x="390" y="83" font-size="7.5" font-family="system-ui, -apple-system, Segoe UI, sans-serif" text-anchor="middle" fill="#78716c">dry-riser-outlet</text><svg x="448" y="18" width="52" height="52" viewBox="0 0 64 64" xmlns="http://www.w3.org/2000/svg" fill="none" stroke="#000" stroke-width="2"><circle cx="32" cy="24" r="10"/><line x1="24" y1="34" x2="16" y2="48"/><line x1="40" y1="34" x2="48" y2="48"/><text x="32" y="28" font-size="9" font-weight="bold" text-anchor="middle" fill="#000" stroke="none">EM</text></svg><text x="474" y="83" font-size="7.5" font-family="system-ui, -apple-system, Segoe UI, sans-serif" text-anchor="middle" fill="#78716c">emergency-luminaire</text><svg x="532" y="18" width="52" height="52" viewBox="0 0 64 64" xmlns="http://www.w3.org/2000/svg" fill="none" stroke="#000" stroke-width="2"><rect x="6" y="18" width="52" height="28"/><text x="32" y="37.04" font-size="14" font-weight="bold" text-anchor="middle" fill="#000" stroke="none">EXIT</text></svg><text x="558" y="83" font-size="7.5" font-family="system-ui, -apple-system, Segoe UI, sans-serif" text-anchor="middle" fill="#78716c">exit-sign</text><svg x="616" y="18" width="52" height="52" viewBox="0 0 64 64" xmlns="http://www.w3.org/2000/svg" fill="none" stroke="#000" stroke-width="2"><rect x="6" y="18" width="52" height="28"/><text x="32" y="36.32" font-size="12" font-weight="bold" text-anchor="middle" fill="#000" stroke="none">FAP</text></svg><text x="642" y="83" font-size="7.5" font-family="system-ui, -apple-system, Segoe UI, sans-serif" text-anchor="middle" fill="#78716c">fire-alarm-panel</text><svg x="28" y="116" width="52" height="52" viewBox="0 0 64 64" xmlns="http://www.w3.org/2000/svg" fill="none" stroke="#000" stroke-width="2"><rect x="12" y="12" width="40" height="40"/><text x="32" y="37.04" font-size="14" font-weight="bold" text-anchor="middle" fill="#000" stroke="none">FB</text></svg><text x="54" y="181" font-size="7.5" font-family="system-ui, -apple-system, Segoe UI, sans-serif" text-anchor="middle" fill="#78716c">fire-blanket</text><svg x="112" y="116" width="52" height="52" viewBox="0 0 64 64" xmlns="http://www.w3.org/2000/svg" fill="none" stroke="#000" stroke-width="2"><line x1="12" y1="52" x2="52" y2="52"/><line x1="16" y1="52" x2="16" y2="16"/><path d="M16 16 A36 36 0 0 1 52 52"/><text x="30" y="42" font-size="9" font-weight="bold" text-anchor="middle" fill="#000" stroke="none">FD30</text></svg><text x="138" y="181" font-size="7.5" font-family="system-ui, -apple-system, Segoe UI, sans-serif" text-anchor="middle" fill="#78716c">fire-door-fd30</text><svg x="196" y="116" width="52" height="52" viewBox="0 0 64 64" xmlns="http://www.w3.org/2000/svg" fill="none" stroke="#000" stroke-width="2"><line x1="12" y1="52" x2="52" y2="52"/><line x1="16" y1="52" x2="16" y2="16"/><path d="M16 16 A36 36 0 0 1 52 52"/><text x="30" y="42" font-size="9" font-weight="bold" text-anchor="middle" fill="#000" stroke="none">FD60</text></svg><text x="222" y="181" font-size="7.5" font-family="system-ui, -apple-system, Segoe UI, sans-serif" text-anchor="middle" fill="#78716c">fire-door-fd60</text><svg x="280" y="116" width="52" height="52" viewBox="0 0 64 64" xmlns="http://www.w3.org/2000/svg" fill="none" stroke="#000" stroke-width="2"><rect x="24" y="22" width="16" height="30" rx="4"/><line x1="32" y1="22" x2="32" y2="16"/><path d="M32 16 L40 12"/><text x="32" y="41" font-size="10" font-weight="bold" text-anchor="middle" fill="#000" stroke="none">FE</text></svg><text x="306" y="181" font-size="7.5" font-family="system-ui, -apple-system, Segoe UI, sans-serif" text-anchor="middle" fill="#78716c">fire-extinguisher</text><svg x="364" y="116" width="52" height="52" viewBox="0 0 64 64" xmlns="http://www.w3.org/2000/svg" fill="none" stroke="#000" stroke-width="2"><rect x="12" y="12" width="40" height="40"/><text x="32" y="39.2" font-size="20" font-weight="bold" text-anchor="middle" fill="#000" stroke="none">H</text></svg><text x="390" y="181" font-size="7.5" font-family="system-ui, -apple-system, Segoe UI, sans-serif" text-anchor="middle" fill="#78716c">fire-hydrant</text><svg x="448" y="116" width="52" height="52" viewBox="0 0 64 64" xmlns="http://www.w3.org/2000/svg" fill="none" stroke="#000" stroke-width="2"><circle cx="32" cy="28" r="12"/><circle cx="32" cy="28" r="4"/><line x1="20" y1="44" x2="44" y2="44"/><text x="32" y="60" font-size="11" font-weight="bold" text-anchor="middle" fill="#000" stroke="none">FI</text></svg><text x="474" y="181" font-size="7.5" font-family="system-ui, -apple-system, Segoe UI, sans-serif" text-anchor="middle" fill="#78716c">foam-inlet</text><svg x="532" y="116" width="52" height="52" viewBox="0 0 64 64" xmlns="http://www.w3.org/2000/svg" fill="none" stroke="#000" stroke-width="2"><circle cx="32" cy="32" r="20"/><text x="32" y="36.68" font-size="13" font-weight="bold" text-anchor="middle" fill="#000" stroke="none">HD</text></svg><text x="558" y="181" font-size="7.5" font-family="system-ui, -apple-system, Segoe UI, sans-serif" text-anchor="middle" fill="#78716c">heat-detector</text><svg x="616" y="116" width="52" height="52" viewBox="0 0 64 64" xmlns="http://www.w3.org/2000/svg" fill="none" stroke="#000" stroke-width="2"><circle cx="32" cy="30" r="16"/><circle cx="32" cy="30" r="9"/><circle cx="32" cy="30" r="3"/><line x1="32" y1="46" x2="32" y2="54"/><line x1="32" y1="54" x2="44" y2="54"/><text x="32" y="12" font-size="10" font-weight="bold" text-anchor="middle" fill="#000" stroke="none">HR</text></svg><text x="642" y="181" font-size="7.5" font-family="system-ui, -apple-system, Segoe UI, sans-serif" text-anchor="middle" fill="#78716c">hose-reel</text><svg x="28" y="214" width="52" height="52" viewBox="0 0 64 64" xmlns="http://www.w3.org/2000/svg" fill="none" stroke="#000" stroke-width="2"><rect x="12" y="12" width="40" height="40"/><text x="32" y="36.32" font-size="12" font-weight="bold" text-anchor="middle" fill="#000" stroke="none">MCP</text></svg><text x="54" y="279" font-size="7.5" font-family="system-ui, -apple-system, Segoe UI, sans-serif" text-anchor="middle" fill="#78716c">manual-call-point</text><svg x="112" y="214" width="52" height="52" viewBox="0 0 64 64" xmlns="http://www.w3.org/2000/svg" fill="none" stroke="#000" stroke-width="2"><circle cx="32" cy="32" r="20"/><text x="32" y="36.68" font-size="13" font-weight="bold" text-anchor="middle" fill="#000" stroke="none">MS</text></svg><text x="138" y="279" font-size="7.5" font-family="system-ui, -apple-system, Segoe UI, sans-serif" text-anchor="middle" fill="#78716c">multi-sensor-detector</text><svg x="196" y="214" width="52" height="52" viewBox="0 0 64 64" xmlns="http://www.w3.org/2000/svg" fill="none" stroke="#000" stroke-width="2"><rect x="12" y="12" width="40" height="40"/><text x="32" y="36.32" font-size="12" font-weight="bold" text-anchor="middle" fill="#000" stroke="none">REF</text></svg><text x="222" y="279" font-size="7.5" font-family="system-ui, -apple-system, Segoe UI, sans-serif" text-anchor="middle" fill="#78716c">refuge-point</text><svg x="280" y="214" width="52" height="52" viewBox="0 0 64 64" xmlns="http://www.w3.org/2000/svg" fill="none" stroke="#000" stroke-width="2"><rect x="6" y="18" width="52" height="28"/><text x="32" y="36.32" font-size="12" font-weight="bold" text-anchor="middle" fill="#000" stroke="none">RPT</text></svg><text x="306" y="279" font-size="7.5" font-family="system-ui, -apple-system, Segoe UI, sans-serif" text-anchor="middle" fill="#78716c">repeater-panel</text><svg x="364" y="214" width="52" height="52" viewBox="0 0 64 64" xmlns="http://www.w3.org/2000/svg" fill="none" stroke="#000" stroke-width="2"><circle cx="32" cy="32" r="20"/><text x="32" y="36.68" font-size="13" font-weight="bold" text-anchor="middle" fill="#000" stroke="none">SD</text></svg><text x="390" y="279" font-size="7.5" font-family="system-ui, -apple-system, Segoe UI, sans-serif" text-anchor="middle" fill="#78716c">smoke-detector</text><svg x="448" y="214" width="52" height="52" viewBox="0 0 64 64" xmlns="http://www.w3.org/2000/svg" fill="none" stroke="#000" stroke-width="2"><path d="M8 26 L18 26 L28 18 L28 42 L18 34 L8 34 Z"/><circle cx="44" cy="30" r="7"/><line x1="54.0" y1="30.0" x2="61.0" y2="30.0"/><line x1="51.1" y1="37.1" x2="56.0" y2="42.0"/><line x1="44.0" y1="40.0" x2="44.0" y2="47.0"/><line x1="36.9" y1="37.1" x2="32.0" y2="42.0"/><line x1="34.0" y1="30.0" x2="27.0" y2="30.0"/><line x1="36.9" y1="22.9" x2="32.0" y2="18.0"/><line x1="44.0" y1="20.0" x2="44.0" y2="13.0"/><line x1="51.1" y1="22.9" x2="56.0" y2="18.0"/><text x="32" y="58" font-size="10" font-weight="bold" text-anchor="middle" fill="#000" stroke="none">S/B</text></svg><text x="474" y="279" font-size="7.5" font-family="system-ui, -apple-system, Segoe UI, sans-serif" text-anchor="middle" fill="#78716c">sounder-beacon</text><svg x="532" y="214" width="52" height="52" viewBox="0 0 64 64" xmlns="http://www.w3.org/2000/svg" fill="none" stroke="#000" stroke-width="2"><path d="M14 26 L26 26 L38 16 L38 48 L26 38 L14 38 Z"/><path d="M44 24 A12 12 0 0 1 44 40"/><path d="M50 19 A19 19 0 0 1 50 45"/><text x="24" y="58" font-size="9" font-weight="bold" text-anchor="middle" fill="#000" stroke="none">SNDR</text></svg><text x="558" y="279" font-size="7.5" font-family="system-ui, -apple-system, Segoe UI, sans-serif" text-anchor="middle" fill="#78716c">sounder</text><svg x="616" y="214" width="52" height="52" viewBox="0 0 64 64" xmlns="http://www.w3.org/2000/svg" fill="none" stroke="#000" stroke-width="2"><line x1="32" y1="8" x2="32" y2="26"/><circle cx="32" cy="32" r="6"/><line x1="24" y1="46" x2="28" y2="40"/><line x1="32" y1="48" x2="32" y2="40"/><line x1="40" y1="46" x2="36" y2="40"/></svg><text x="642" y="279" font-size="7.5" font-family="system-ui, -apple-system, Segoe UI, sans-serif" text-anchor="middle" fill="#78716c">sprinkler-head</text><svg x="28" y="312" width="52" height="52" viewBox="0 0 64 64" xmlns="http://www.w3.org/2000/svg" fill="none" stroke="#000" stroke-width="2"><path d="M14 24 L32 32 L14 40 Z"/><path d="M50 24 L32 32 L50 40 Z"/><line x1="32" y1="32" x2="32" y2="20"/><circle cx="32" cy="17" r="3"/><text x="32" y="56" font-size="11" font-weight="bold" text-anchor="middle" fill="#000" stroke="none">SSV</text></svg><text x="54" y="377" font-size="7.5" font-family="system-ui, -apple-system, Segoe UI, sans-serif" text-anchor="middle" fill="#78716c">sprinkler-stop-valve</text><svg x="112" y="312" width="52" height="52" viewBox="0 0 64 64" xmlns="http://www.w3.org/2000/svg" fill="none" stroke="#000" stroke-width="2"><circle cx="32" cy="26" r="11"/><circle cx="32" cy="26" r="4"/><line x1="32" y1="37" x2="32" y2="48"/><text x="32" y="60" font-size="11" font-weight="bold" text-anchor="middle" fill="#000" stroke="none">WRO</text></svg><text x="138" y="377" font-size="7.5" font-family="system-ui, -apple-system, Segoe UI, sans-serif" text-anchor="middle" fill="#78716c">wet-riser-outlet</text></svg>
