<svg viewBox="0 0 696 514" width="696" xmlns="http://www.w3.org/2000/svg"><rect x="0" y="0" width="696" height="514" rx="8" fill="#ffffff" stroke="#d6d3cd"/><svg x="28" y="18" width="52" height="52" viewBox="0 0 64 64" xmlns="http://www.w3.org/2000/svg" fill="none" stroke="#000" stroke-width="1.6" stroke-linecap="round" stroke-linejoin="round"><title>Electrical installation symbols (IEC 60617): battery</title><desc>Elektrisch symbool; profiel iec; type supply; variant battery.</desc><line x1="18" y1="25" x2="18" y2="39"/><line x1="27" y1="20" x2="27" y2="44"/><line x1="37" y1="25" x2="37" y2="39"/><line x1="46" y1="20" x2="46" y2="44"/><g stroke-width="0.8"><line x1="8" y1="32" x2="18" y2="32"/><line x1="46" y1="32" x2="56" y2="32"/></g></svg><text x="54" y="83" font-size="7.5" font-family="system-ui, -apple-system, Segoe UI, sans-serif" text-anchor="middle" fill="#78716c">battery</text><svg x="112" y="18" width="52" height="52" viewBox="0 0 64 64" xmlns="http://www.w3.org/2000/svg" fill="none" stroke="#000" stroke-width="1.6" stroke-linecap="round" stroke-linejoin="round"><title>Electrical installation symbols (IEC 60617): circuit-breaker</title><desc>Elektrisch symbool; profiel iec; type protection; variant circuit-breaker.</desc><rect x="12" y="20" width="40" height="24" rx="3"/><line x1="20" y1="38" x2="44" y2="26"/><g stroke-width="0.8"><circle cx="20" cy="38" r="2"/><circle cx="44" cy="26" r="2"/></g></svg><text x="138" y="83" font-size="7.5" font-family="system-ui, -apple-system, Segoe UI, sans-serif" text-anchor="middle" fill="#78716c">circuit-breaker</text><svg x="196" y="18" width="52" height="52" viewBox="0 0 64 64" xmlns="http://www.w3.org/2000/svg" fill="none" stroke="#000" stroke-width="1.6" stroke-linecap="round" stroke-linejoin="round"><title>Electrical installation symbols (IEC 60617): data-outlet</title><desc>Elektrisch symbool; profiel iec; type communication; variant data.</desc><rect x="14" y="18" width="36" height="28" rx="3"/><g stroke-width="0.8"><rect x="20" y="24" width="24" height="14" rx="2"/><line x1="24" y1="38" x2="24" y2="42"/><line x1="29" y1="38" x2="29" y2="42"/><line x1="35" y1="38" x2="35" y2="42"/><line x1="40" y1="38" x2="40" y2="42"/></g></svg><text x="222" y="83" font-size="7.5" font-family="system-ui, -apple-system, Segoe UI, sans-serif" text-anchor="middle" fill="#78716c">data-outlet</text><svg x="280" y="18" width="52" height="52" viewBox="0 0 64 64" xmlns="http://www.w3.org/2000/svg" fill="none" stroke="#000" stroke-width="1.6" stroke-linecap="round" stroke-linejoin="round"><title>Electrical installation symbols (IEC 60617): dimmer</title><desc>Elektrisch symbool; profiel iec; type switch; variant dimmer.</desc><circle cx="18" cy="44" r="3"/><circle cx="44" cy="22" r="2.2"/><g stroke-width="0.8"><line x1="21" y1="41" x2="41" y2="25"/><path d="M25 50 A14 14 0 0 0 46 42 M43 38 L46 42 L41 44"/></g></svg><text x="306" y="83" font-size="7.5" font-family="system-ui, -apple-system, Segoe UI, sans-serif" text-anchor="middle" fill="#78716c">dimmer</text><svg x="364" y="18" width="52" height="52" viewBox="0 0 64 64" xmlns="http://www.w3.org/2000/svg" fill="none" stroke="#000" stroke-width="1.6" stroke-linecap="round" stroke-linejoin="round"><title>Electrical installation symbols (IEC 60617): distribution-board</title><desc>Elektrisch symbool; profiel iec; type board; variant basis.</desc><rect x="12" y="12" width="40" height="40" rx="3"/><line x1="32" y1="12" x2="32" y2="52"/><g stroke-width="0.8"><line x1="18" y1="21" x2="46" y2="21"/><line x1="18" y1="28" x2="46" y2="28"/><line x1="18" y1="36" x2="46" y2="36"/><line x1="18" y1="43" x2="46" y2="43"/></g></svg><text x="390" y="83" font-size="7.5" font-family="system-ui, -apple-system, Segoe UI, sans-serif" text-anchor="middle" fill="#78716c">distribution-board</text><svg x="448" y="18" width="52" height="52" viewBox="0 0 64 64" xmlns="http://www.w3.org/2000/svg" fill="none" stroke="#000" stroke-width="1.6" stroke-linecap="round" stroke-linejoin="round"><title>Electrical installation symbols (IEC 60617): doorbell</title><desc>Elektrisch symbool; profiel iec; type alarm; variant audible.</desc><path d="M14 38 H23 L38 48 V16 L23 26 H14 Z"/><g stroke-width="0.8"><path d="M43 24 A11 11 0 0 1 43 40 M48 19 A18 18 0 0 1 48 45"/></g></svg><text x="474" y="83" font-size="7.5" font-family="system-ui, -apple-system, Segoe UI, sans-serif" text-anchor="middle" fill="#78716c">doorbell</text><svg x="532" y="18" width="52" height="52" viewBox="0 0 64 64" xmlns="http://www.w3.org/2000/svg" fill="none" stroke="#000" stroke-width="1.6" stroke-linecap="round" stroke-linejoin="round"><title>Electrical installation symbols (IEC 60617): earth</title><desc>Elektrisch symbool; profiel iec; type earth; variant basis.</desc><line x1="32" y1="10" x2="32" y2="34"/><line x1="18" y1="34" x2="46" y2="34"/><g stroke-width="0.8"><line x1="22" y1="40" x2="42" y2="40"/><line x1="27" y1="46" x2="37" y2="46"/><line x1="30" y1="52" x2="34" y2="52"/></g></svg><text x="558" y="83" font-size="7.5" font-family="system-ui, -apple-system, Segoe UI, sans-serif" text-anchor="middle" fill="#78716c">earth</text><svg x="616" y="18" width="52" height="52" viewBox="0 0 64 64" xmlns="http://www.w3.org/2000/svg" fill="none" stroke="#000" stroke-width="1.6" stroke-linecap="round" stroke-linejoin="round"><title>Electrical installation symbols (IEC 60617): emergency-light</title><desc>Elektrisch symbool; profiel iec; type light; variant emergency.</desc><circle cx="32" cy="32" r="15"/><g stroke-width="0.8"><line x1="22" y1="22" x2="42" y2="42"/><line x1="42" y1="22" x2="22" y2="42"/><line x1="12" y1="32" x2="20" y2="32"/><line x1="16" y1="28" x2="12" y2="32"/><line x1="16" y1="36" x2="12" y2="32"/><line x1="52" y1="32" x2="44" y2="32"/><line x1="48" y1="28" x2="52" y2="32"/><line x1="48" y1="36" x2="52" y2="32"/></g></svg><text x="642" y="83" font-size="7.5" font-family="system-ui, -apple-system, Segoe UI, sans-serif" text-anchor="middle" fill="#78716c">emergency-light</text><svg x="28" y="116" width="52" height="52" viewBox="0 0 64 64" xmlns="http://www.w3.org/2000/svg" fill="none" stroke="#000" stroke-width="1.6" stroke-linecap="round" stroke-linejoin="round"><title>Electrical installation symbols (IEC 60617): fire-alarm-call-point</title><desc>Elektrisch symbool; profiel iec; type alarm; variant manual-call.</desc><rect x="14" y="14" width="36" height="36" rx="3"/><circle cx="32" cy="32" r="10"/><g stroke-width="0.8"><path d="M26 32 H38 M32 26 V38"/></g></svg><text x="54" y="181" font-size="7.5" font-family="system-ui, -apple-system, Segoe UI, sans-serif" text-anchor="middle" fill="#78716c">fire-alarm-call-point</text><svg x="112" y="116" width="52" height="52" viewBox="0 0 64 64" xmlns="http://www.w3.org/2000/svg" fill="none" stroke="#000" stroke-width="1.6" stroke-linecap="round" stroke-linejoin="round"><title>Electrical installation symbols (IEC 60617): fluorescent-luminaire</title><desc>Elektrisch symbool; profiel iec; type light; variant linear.</desc><rect x="9" y="25" width="46" height="14" rx="2"/><g stroke-width="0.8"><line x1="14" y1="29" x2="50" y2="29"/><line x1="14" y1="35" x2="50" y2="35"/></g></svg><text x="138" y="181" font-size="7.5" font-family="system-ui, -apple-system, Segoe UI, sans-serif" text-anchor="middle" fill="#78716c">fluorescent-luminaire</text><svg x="196" y="116" width="52" height="52" viewBox="0 0 64 64" xmlns="http://www.w3.org/2000/svg" fill="none" stroke="#000" stroke-width="1.6" stroke-linecap="round" stroke-linejoin="round"><title>Electrical installation symbols (IEC 60617): fused-switch</title><desc>Elektrisch symbool; profiel iec; type isolator; variant fused.</desc><rect x="12" y="14" width="40" height="36" rx="4"/><rect x="25" y="27" width="14" height="8" rx="2"/><g stroke-width="0.8"><line x1="18" y1="32" x2="25" y2="32"/><line x1="39" y1="32" x2="46" y2="32"/></g></svg><text x="222" y="181" font-size="7.5" font-family="system-ui, -apple-system, Segoe UI, sans-serif" text-anchor="middle" fill="#78716c">fused-switch</text><svg x="280" y="116" width="52" height="52" viewBox="0 0 64 64" xmlns="http://www.w3.org/2000/svg" fill="none" stroke="#000" stroke-width="1.6" stroke-linecap="round" stroke-linejoin="round"><title>Electrical installation symbols (IEC 60617): generator</title><desc>Elektrisch symbool; profiel iec; type supply; variant generator.</desc><circle cx="32" cy="32" r="18"/><path d="M23 36 A10 10 0 1 1 41 28"/><g stroke-width="0.8"><path d="M39 23 L43 28 L37 29"/></g></svg><text x="306" y="181" font-size="7.5" font-family="system-ui, -apple-system, Segoe UI, sans-serif" text-anchor="middle" fill="#78716c">generator</text><svg x="364" y="116" width="52" height="52" viewBox="0 0 64 64" xmlns="http://www.w3.org/2000/svg" fill="none" stroke="#000" stroke-width="1.6" stroke-linecap="round" stroke-linejoin="round"><title>Electrical installation symbols (IEC 60617): heat-detector</title><desc>Elektrisch symbool; profiel iec; type detector; variant heat.</desc><circle cx="32" cy="32" r="18"/><circle cx="32" cy="32" r="5" fill="#000"/><g stroke-width="0.8"><line x1="32" y1="18" x2="32" y2="24"/><line x1="32" y1="40" x2="32" y2="46"/><line x1="18" y1="32" x2="24" y2="32"/><line x1="40" y1="32" x2="46" y2="32"/></g></svg><text x="390" y="181" font-size="7.5" font-family="system-ui, -apple-system, Segoe UI, sans-serif" text-anchor="middle" fill="#78716c">heat-detector</text><svg x="448" y="116" width="52" height="52" viewBox="0 0 64 64" xmlns="http://www.w3.org/2000/svg" fill="none" stroke="#000" stroke-width="1.6" stroke-linecap="round" stroke-linejoin="round"><title>Electrical installation symbols (IEC 60617): isolator</title><desc>Elektrisch symbool; profiel iec; type isolator; variant basis.</desc><rect x="12" y="14" width="40" height="36" rx="4"/><circle cx="32" cy="32" r="6"/><g stroke-width="0.8"><line x1="18" y1="32" x2="25" y2="32"/><line x1="39" y1="32" x2="46" y2="32"/></g></svg><text x="474" y="181" font-size="7.5" font-family="system-ui, -apple-system, Segoe UI, sans-serif" text-anchor="middle" fill="#78716c">isolator</text><svg x="532" y="116" width="52" height="52" viewBox="0 0 64 64" xmlns="http://www.w3.org/2000/svg" fill="none" stroke="#000" stroke-width="1.6" stroke-linecap="round" stroke-linejoin="round"><title>Electrical installation symbols (IEC 60617): junction-box</title><desc>Elektrisch symbool; profiel iec; type junction; variant basis.</desc><circle cx="32" cy="32" r="18"/><circle cx="32" cy="32" r="4" fill="#000"/><g stroke-width="0.8"><line x1="20" y1="20" x2="44" y2="44"/><line x1="44" y1="20" x2="20" y2="44"/></g></svg><text x="558" y="181" font-size="7.5" font-family="system-ui, -apple-system, Segoe UI, sans-serif" text-anchor="middle" fill="#78716c">junction-box</text><svg x="616" y="116" width="52" height="52" viewBox="0 0 64 64" xmlns="http://www.w3.org/2000/svg" fill="none" stroke="#000" stroke-width="1.6" stroke-linecap="round" stroke-linejoin="round"><title>Electrical installation symbols (IEC 60617): light-point</title><desc>Elektrisch symbool; profiel iec; type light; variant ceiling.</desc><circle cx="32" cy="32" r="15"/><g stroke-width="0.8"><line x1="22" y1="22" x2="42" y2="42"/><line x1="42" y1="22" x2="22" y2="42"/></g></svg><text x="642" y="181" font-size="7.5" font-family="system-ui, -apple-system, Segoe UI, sans-serif" text-anchor="middle" fill="#78716c">light-point</text><svg x="28" y="214" width="52" height="52" viewBox="0 0 64 64" xmlns="http://www.w3.org/2000/svg" fill="none" stroke="#000" stroke-width="1.6" stroke-linecap="round" stroke-linejoin="round"><title>Electrical installation symbols (IEC 60617): motion-detector</title><desc>Elektrisch symbool; profiel iec; type detector; variant motion.</desc><circle cx="22" cy="32" r="5" fill="#000"/><g stroke-width="0.8"><path d="M29 24 A12 12 0 0 1 29 40 M34 19 A19 19 0 0 1 34 45 M40 14 A26 26 0 0 1 40 50"/></g></svg><text x="54" y="279" font-size="7.5" font-family="system-ui, -apple-system, Segoe UI, sans-serif" text-anchor="middle" fill="#78716c">motion-detector</text><svg x="112" y="214" width="52" height="52" viewBox="0 0 64 64" xmlns="http://www.w3.org/2000/svg" fill="none" stroke="#000" stroke-width="1.6" stroke-linecap="round" stroke-linejoin="round"><title>Electrical installation symbols (IEC 60617): motor-single-phase</title><desc>Elektrisch symbool; profiel iec; type motor; variant single-phase.</desc><circle cx="32" cy="32" r="20"/><g stroke-width="0.8"><path d="M21 32 C25 22 29 42 33 32 C37 22 41 42 45 32"/></g></svg><text x="138" y="279" font-size="7.5" font-family="system-ui, -apple-system, Segoe UI, sans-serif" text-anchor="middle" fill="#78716c">motor-single-phase</text><svg x="196" y="214" width="52" height="52" viewBox="0 0 64 64" xmlns="http://www.w3.org/2000/svg" fill="none" stroke="#000" stroke-width="1.6" stroke-linecap="round" stroke-linejoin="round"><title>Electrical installation symbols (IEC 60617): motor-three-phase</title><desc>Elektrisch symbool; profiel iec; type motor; variant three-phase.</desc><circle cx="32" cy="32" r="20"/><g stroke-width="0.8"><line x1="27" y1="27" x2="27" y2="37"/><line x1="32" y1="27" x2="32" y2="37"/><line x1="37" y1="27" x2="37" y2="37"/></g></svg><text x="222" y="279" font-size="7.5" font-family="system-ui, -apple-system, Segoe UI, sans-serif" text-anchor="middle" fill="#78716c">motor-three-phase</text><svg x="280" y="214" width="52" height="52" viewBox="0 0 64 64" xmlns="http://www.w3.org/2000/svg" fill="none" stroke="#000" stroke-width="1.6" stroke-linecap="round" stroke-linejoin="round"><title>Electrical installation symbols (IEC 60617): phone-outlet</title><desc>Elektrisch symbool; profiel iec; type communication; variant phone.</desc><circle cx="32" cy="32" r="20"/><path d="M22 20 C18 26 18 38 22 44 L27 39 C25 35 25 29 27 25 Z M42 20 C46 26 46 38 42 44 L37 39 C39 35 39 29 37 25 Z"/><g stroke-width="0.8"><line x1="27" y1="32" x2="37" y2="32"/></g></svg><text x="306" y="279" font-size="7.5" font-family="system-ui, -apple-system, Segoe UI, sans-serif" text-anchor="middle" fill="#78716c">phone-outlet</text><svg x="364" y="214" width="52" height="52" viewBox="0 0 64 64" xmlns="http://www.w3.org/2000/svg" fill="none" stroke="#000" stroke-width="1.6" stroke-linecap="round" stroke-linejoin="round"><title>Electrical installation symbols (IEC 60617): push-button</title><desc>Elektrisch symbool; profiel iec; type switch; variant push-button.</desc><circle cx="18" cy="44" r="3"/><circle cx="44" cy="22" r="2.2"/><g stroke-width="0.8"><line x1="21" y1="41" x2="41" y2="25"/><line x1="18" y1="20" x2="18" y2="35"/><line x1="12" y1="20" x2="24" y2="20"/></g></svg><text x="390" y="279" font-size="7.5" font-family="system-ui, -apple-system, Segoe UI, sans-serif" text-anchor="middle" fill="#78716c">push-button</text><svg x="448" y="214" width="52" height="52" viewBox="0 0 64 64" xmlns="http://www.w3.org/2000/svg" fill="none" stroke="#000" stroke-width="1.6" stroke-linecap="round" stroke-linejoin="round"><title>Electrical installation symbols (IEC 60617): residual-current-device</title><desc>Elektrisch symbool; profiel iec; type protection; variant residual-current.</desc><rect x="14" y="16" width="36" height="32" rx="4"/><circle cx="32" cy="32" r="9"/><g stroke-width="0.8"><line x1="20" y1="22" x2="44" y2="42"/><circle cx="42" cy="22" r="2" fill="#000" stroke="none"/></g></svg><text x="474" y="279" font-size="7.5" font-family="system-ui, -apple-system, Segoe UI, sans-serif" text-anchor="middle" fill="#78716c">residual-current-device</text><svg x="532" y="214" width="52" height="52" viewBox="0 0 64 64" xmlns="http://www.w3.org/2000/svg" fill="none" stroke="#000" stroke-width="1.6" stroke-linecap="round" stroke-linejoin="round"><title>Electrical installation symbols (IEC 60617): siren</title><desc>Elektrisch symbool; profiel iec; type alarm; variant audible.</desc><path d="M14 38 H23 L38 48 V16 L23 26 H14 Z"/><g stroke-width="0.8"><path d="M43 24 A11 11 0 0 1 43 40 M48 19 A18 18 0 0 1 48 45"/></g></svg><text x="558" y="279" font-size="7.5" font-family="system-ui, -apple-system, Segoe UI, sans-serif" text-anchor="middle" fill="#78716c">siren</text><svg x="616" y="214" width="52" height="52" viewBox="0 0 64 64" xmlns="http://www.w3.org/2000/svg" fill="none" stroke="#000" stroke-width="1.6" stroke-linecap="round" stroke-linejoin="round"><title>Electrical installation symbols (IEC 60617): smoke-detector</title><desc>Elektrisch symbool; profiel iec; type detector; variant smoke.</desc><circle cx="32" cy="32" r="18"/><g stroke-width="0.8"><path d="M20 29 C24 24 28 34 32 29 C36 24 40 34 44 29 M20 37 C24 32 28 42 32 37 C36 32 40 42 44 37"/></g></svg><text x="642" y="279" font-size="7.5" font-family="system-ui, -apple-system, Segoe UI, sans-serif" text-anchor="middle" fill="#78716c">smoke-detector</text><svg x="28" y="312" width="52" height="52" viewBox="0 0 64 64" xmlns="http://www.w3.org/2000/svg" fill="none" stroke="#000" stroke-width="1.6" stroke-linecap="round" stroke-linejoin="round"><title>Electrical installation symbols (IEC 60617): socket-double</title><desc>Elektrisch symbool; profiel iec; type socket; variant double.</desc><path d="M16 39 A16 16 0 0 1 48 39"/><line x1="28" y1="24" x2="28" y2="12"/><line x1="36" y1="24" x2="36" y2="12"/><g stroke-width="0.8"><line x1="24" y1="47" x2="40" y2="47"/></g></svg><text x="54" y="377" font-size="7.5" font-family="system-ui, -apple-system, Segoe UI, sans-serif" text-anchor="middle" fill="#78716c">socket-double</text><svg x="112" y="312" width="52" height="52" viewBox="0 0 64 64" xmlns="http://www.w3.org/2000/svg" fill="none" stroke="#000" stroke-width="1.6" stroke-linecap="round" stroke-linejoin="round"><title>Electrical installation symbols (IEC 60617): socket-earthed</title><desc>Elektrisch symbool; profiel iec; type socket; variant single, earthed.</desc><path d="M16 39 A16 16 0 0 1 48 39"/><line x1="32" y1="24" x2="32" y2="12"/><g stroke-width="0.8"><line x1="24" y1="14" x2="40" y2="14"/><line x1="27" y1="18" x2="37" y2="18" stroke-dasharray="1 2"/></g></svg><text x="138" y="377" font-size="7.5" font-family="system-ui, -apple-system, Segoe UI, sans-serif" text-anchor="middle" fill="#78716c">socket-earthed</text><svg x="196" y="312" width="52" height="52" viewBox="0 0 64 64" xmlns="http://www.w3.org/2000/svg" fill="none" stroke="#000" stroke-width="1.6" stroke-linecap="round" stroke-linejoin="round"><title>Electrical installation symbols (IEC 60617): socket-single</title><desc>Elektrisch symbool; profiel iec; type socket; variant single.</desc><path d="M16 39 A16 16 0 0 1 48 39"/><line x1="32" y1="24" x2="32" y2="12"/><g stroke-width="0.8"><line x1="24" y1="47" x2="40" y2="47"/></g></svg><text x="222" y="377" font-size="7.5" font-family="system-ui, -apple-system, Segoe UI, sans-serif" text-anchor="middle" fill="#78716c">socket-single</text><svg x="280" y="312" width="52" height="52" viewBox="0 0 64 64" xmlns="http://www.w3.org/2000/svg" fill="none" stroke="#000" stroke-width="1.6" stroke-linecap="round" stroke-linejoin="round"><title>Electrical installation symbols (IEC 60617): spotlight</title><desc>Elektrisch symbool; profiel iec; type light; variant spot.</desc><circle cx="22" cy="32" r="7"/><path d="M29 27 L52 18 V46 L29 37 Z"/><g stroke-width="0.8"><line x1="36" y1="25" x2="36" y2="39"/></g></svg><text x="306" y="377" font-size="7.5" font-family="system-ui, -apple-system, Segoe UI, sans-serif" text-anchor="middle" fill="#78716c">spotlight</text><svg x="364" y="312" width="52" height="52" viewBox="0 0 64 64" xmlns="http://www.w3.org/2000/svg" fill="none" stroke="#000" stroke-width="1.6" stroke-linecap="round" stroke-linejoin="round"><title>Electrical installation symbols (IEC 60617): switch-double</title><desc>Elektrisch symbool; profiel iec; type switch; variant double.</desc><circle cx="18" cy="44" r="3"/><circle cx="44" cy="22" r="2.2"/><circle cx="48" cy="30" r="2.2"/><g stroke-width="0.8"><line x1="21" y1="41" x2="41" y2="25"/></g></svg><text x="390" y="377" font-size="7.5" font-family="system-ui, -apple-system, Segoe UI, sans-serif" text-anchor="middle" fill="#78716c">switch-double</text><svg x="448" y="312" width="52" height="52" viewBox="0 0 64 64" xmlns="http://www.w3.org/2000/svg" fill="none" stroke="#000" stroke-width="1.6" stroke-linecap="round" stroke-linejoin="round"><title>Electrical installation symbols (IEC 60617): switch-single</title><desc>Elektrisch symbool; profiel iec; type switch; variant one-way.</desc><circle cx="18" cy="44" r="3"/><circle cx="44" cy="22" r="2.2"/><g stroke-width="0.8"><line x1="21" y1="41" x2="41" y2="25"/></g></svg><text x="474" y="377" font-size="7.5" font-family="system-ui, -apple-system, Segoe UI, sans-serif" text-anchor="middle" fill="#78716c">switch-single</text><svg x="532" y="312" width="52" height="52" viewBox="0 0 64 64" xmlns="http://www.w3.org/2000/svg" fill="none" stroke="#000" stroke-width="1.6" stroke-linecap="round" stroke-linejoin="round"><title>Electrical installation symbols (IEC 60617): switch-two-way</title><desc>Elektrisch symbool; profiel iec; type switch; variant two-way.</desc><circle cx="18" cy="44" r="3"/><circle cx="44" cy="22" r="2.2"/><circle cx="48" cy="30" r="2.2"/><g stroke-width="0.8"><line x1="21" y1="41" x2="41" y2="25"/></g></svg><text x="558" y="377" font-size="7.5" font-family="system-ui, -apple-system, Segoe UI, sans-serif" text-anchor="middle" fill="#78716c">switch-two-way</text><svg x="616" y="312" width="52" height="52" viewBox="0 0 64 64" xmlns="http://www.w3.org/2000/svg" fill="none" stroke="#000" stroke-width="1.6" stroke-linecap="round" stroke-linejoin="round"><title>Electrical installation symbols (IEC 60617): thermostat</title><desc>Elektrisch symbool; profiel iec; type control; variant thermostat.</desc><circle cx="32" cy="32" r="20"/><line x1="28" y1="18" x2="28" y2="39"/><circle cx="28" cy="43" r="5" fill="#000"/><g stroke-width="0.8"><line x1="34" y1="22" x2="43" y2="22"/><line x1="34" y1="29" x2="40" y2="29"/><line x1="34" y1="36" x2="43" y2="36"/></g></svg><text x="642" y="377" font-size="7.5" font-family="system-ui, -apple-system, Segoe UI, sans-serif" text-anchor="middle" fill="#78716c">thermostat</text><svg x="28" y="410" width="52" height="52" viewBox="0 0 64 64" xmlns="http://www.w3.org/2000/svg" fill="none" stroke="#000" stroke-width="1.6" stroke-linecap="round" stroke-linejoin="round"><title>Electrical installation symbols (IEC 60617): transformer</title><desc>Elektrisch symbool; profiel iec; type supply; variant transformer.</desc><path d="M8 32 H18 C18 22 28 22 28 32 C28 42 18 42 18 32 M56 32 H46 C46 22 36 22 36 32 C36 42 46 42 46 32"/><g stroke-width="0.8"><line x1="30" y1="18" x2="30" y2="46"/><line x1="34" y1="18" x2="34" y2="46"/></g></svg><text x="54" y="475" font-size="7.5" font-family="system-ui, -apple-system, Segoe UI, sans-serif" text-anchor="middle" fill="#78716c">transformer</text><svg x="112" y="410" width="52" height="52" viewBox="0 0 64 64" xmlns="http://www.w3.org/2000/svg" fill="none" stroke="#000" stroke-width="1.6" stroke-linecap="round" stroke-linejoin="round"><title>Electrical installation symbols (IEC 60617): tv-outlet</title><desc>Elektrisch symbool; profiel iec; type communication; variant television.</desc><circle cx="32" cy="32" r="20"/><circle cx="32" cy="32" r="8"/><g stroke-width="0.8"><line x1="26" y1="14" x2="32" y2="24"/><line x1="38" y1="14" x2="32" y2="24"/></g></svg><text x="138" y="475" font-size="7.5" font-family="system-ui, -apple-system, Segoe UI, sans-serif" text-anchor="middle" fill="#78716c">tv-outlet</text><svg x="196" y="410" width="52" height="52" viewBox="0 0 64 64" xmlns="http://www.w3.org/2000/svg" fill="none" stroke="#000" stroke-width="1.6" stroke-linecap="round" stroke-linejoin="round"><title>Electrical installation symbols (IEC 60617): visual-alarm-device</title><desc>Elektrisch symbool; profiel iec; type alarm; variant visual.</desc><circle cx="32" cy="32" r="9" fill="#000"/><g stroke-width="0.8"><line x1="32" y1="8" x2="32" y2="18"/><line x1="32" y1="46" x2="32" y2="56"/><line x1="8" y1="32" x2="18" y2="32"/><line x1="46" y1="32" x2="56" y2="32"/><path d="M15 15 L22 22 M42 42 L49 49 M49 15 L42 22 M22 42 L15 49"/></g></svg><text x="222" y="475" font-size="7.5" font-family="system-ui, -apple-system, Segoe UI, sans-serif" text-anchor="middle" fill="#78716c">visual-alarm-device</text><svg x="280" y="410" width="52" height="52" viewBox="0 0 64 64" xmlns="http://www.w3.org/2000/svg" fill="none" stroke="#000" stroke-width="1.6" stroke-linecap="round" stroke-linejoin="round"><title>Electrical installation symbols (IEC 60617): wall-light</title><desc>Elektrisch symbool; profiel iec; type light; variant wall.</desc><path d="M18 42 A14 14 0 0 1 46 42"/><line x1="18" y1="42" x2="46" y2="42"/><g stroke-width="0.8"><line x1="32" y1="18" x2="32" y2="28"/><line x1="25" y1="21" x2="28" y2="29"/><line x1="39" y1="21" x2="36" y2="29"/></g></svg><text x="306" y="475" font-size="7.5" font-family="system-ui, -apple-system, Segoe UI, sans-serif" text-anchor="middle" fill="#78716c">wall-light</text></svg>
