<svg viewBox="0 0 696 318" width="696" xmlns="http://www.w3.org/2000/svg"><rect x="0" y="0" width="696" height="318" rx="8" fill="#ffffff" stroke="#d6d3cd"/><svg x="28" y="18" width="52" height="52" viewBox="0 0 64 64" xmlns="http://www.w3.org/2000/svg" fill="none" stroke="#000" stroke-width="2"><circle cx="32" cy="32" r="12"/><line x1="32" y1="14" x2="32" y2="20"/><line x1="32" y1="44" x2="32" y2="50"/><line x1="14" y1="32" x2="20" y2="32"/><line x1="44" y1="32" x2="50" y2="32"/></svg><text x="54" y="83" font-size="7.5" font-family="system-ui, -apple-system, Segoe UI, sans-serif" text-anchor="middle" fill="#78716c">ceiling-light</text><svg x="112" y="18" width="52" height="52" viewBox="0 0 64 64" xmlns="http://www.w3.org/2000/svg" fill="none" stroke="#000" stroke-width="2"><path d="M20 42 L32 22 L44 42 Z"/><text x="32" y="56" font-size="10" font-weight="bold" text-anchor="middle" fill="#000" stroke="none">D</text></svg><text x="138" y="83" font-size="7.5" font-family="system-ui, -apple-system, Segoe UI, sans-serif" text-anchor="middle" fill="#78716c">data-outlet</text><svg x="196" y="18" width="52" height="52" viewBox="0 0 64 64" xmlns="http://www.w3.org/2000/svg" fill="none" stroke="#000" stroke-width="2"><circle cx="32" cy="32" r="11"/><line x1="12" y1="28" x2="52" y2="28"/><line x1="12" y1="36" x2="52" y2="36"/></svg><text x="222" y="83" font-size="7.5" font-family="system-ui, -apple-system, Segoe UI, sans-serif" text-anchor="middle" fill="#78716c">duplex-receptacle</text><svg x="280" y="18" width="52" height="52" viewBox="0 0 64 64" xmlns="http://www.w3.org/2000/svg" fill="none" stroke="#000" stroke-width="2"><rect x="16" y="16" width="32" height="32"/><circle cx="32" cy="32" r="10"/></svg><text x="306" y="83" font-size="7.5" font-family="system-ui, -apple-system, Segoe UI, sans-serif" text-anchor="middle" fill="#78716c">floor-receptacle</text><svg x="364" y="18" width="52" height="52" viewBox="0 0 64 64" xmlns="http://www.w3.org/2000/svg" fill="none" stroke="#000" stroke-width="2"><rect x="8" y="24" width="48" height="16"/><circle cx="16" cy="32" r="3"/><circle cx="48" cy="32" r="3"/></svg><text x="390" y="83" font-size="7.5" font-family="system-ui, -apple-system, Segoe UI, sans-serif" text-anchor="middle" fill="#78716c">fluorescent-fixture</text><svg x="448" y="18" width="52" height="52" viewBox="0 0 64 64" xmlns="http://www.w3.org/2000/svg" fill="none" stroke="#000" stroke-width="2"><circle cx="32" cy="32" r="11"/><line x1="12" y1="28" x2="52" y2="28"/><line x1="12" y1="36" x2="52" y2="36"/><text x="32" y="56" font-size="10" font-weight="bold" text-anchor="middle" fill="#000" stroke="none">GFI</text></svg><text x="474" y="83" font-size="7.5" font-family="system-ui, -apple-system, Segoe UI, sans-serif" text-anchor="middle" fill="#78716c">gfci-receptacle</text><svg x="532" y="18" width="52" height="52" viewBox="0 0 64 64" xmlns="http://www.w3.org/2000/svg" fill="none" stroke="#000" stroke-width="2"><circle cx="32" cy="32" r="12"/><text x="32" y="37" font-size="13" font-weight="bold" text-anchor="middle" fill="#000" stroke="none">J</text></svg><text x="558" y="83" font-size="7.5" font-family="system-ui, -apple-system, Segoe UI, sans-serif" text-anchor="middle" fill="#78716c">junction-box</text><svg x="616" y="18" width="52" height="52" viewBox="0 0 64 64" xmlns="http://www.w3.org/2000/svg" fill="none" stroke="#000" stroke-width="2"><rect x="12" y="20" width="40" height="24"/><path d="M12 20 H52 V44 Z" fill="#1a1a1a" stroke="none"/></svg><text x="642" y="83" font-size="7.5" font-family="system-ui, -apple-system, Segoe UI, sans-serif" text-anchor="middle" fill="#78716c">panelboard</text><svg x="28" y="116" width="52" height="52" viewBox="0 0 64 64" xmlns="http://www.w3.org/2000/svg" fill="none" stroke="#000" stroke-width="2"><path d="M20 42 L32 22 L44 42 Z"/><text x="32" y="56" font-size="10" font-weight="bold" text-anchor="middle" fill="#000" stroke="none">T</text></svg><text x="54" y="181" font-size="7.5" font-family="system-ui, -apple-system, Segoe UI, sans-serif" text-anchor="middle" fill="#78716c">phone-outlet</text><svg x="112" y="116" width="52" height="52" viewBox="0 0 64 64" xmlns="http://www.w3.org/2000/svg" fill="none" stroke="#000" stroke-width="2"><circle cx="32" cy="32" r="11"/><line x1="12" y1="28" x2="52" y2="28"/><line x1="12" y1="36" x2="52" y2="36"/><line x1="12" y1="22" x2="52" y2="22"/><line x1="12" y1="42" x2="52" y2="42"/></svg><text x="138" y="181" font-size="7.5" font-family="system-ui, -apple-system, Segoe UI, sans-serif" text-anchor="middle" fill="#78716c">quadplex-receptacle</text><svg x="196" y="116" width="52" height="52" viewBox="0 0 64 64" xmlns="http://www.w3.org/2000/svg" fill="none" stroke="#000" stroke-width="2"><circle cx="32" cy="32" r="11"/><line x1="12" y1="26" x2="52" y2="26"/><line x1="12" y1="32" x2="52" y2="32"/><line x1="12" y1="38" x2="52" y2="38"/><text x="32" y="58" font-size="10" font-weight="bold" text-anchor="middle" fill="#000" stroke="none">240V</text></svg><text x="222" y="181" font-size="7.5" font-family="system-ui, -apple-system, Segoe UI, sans-serif" text-anchor="middle" fill="#78716c">receptacle-240v</text><svg x="280" y="116" width="52" height="52" viewBox="0 0 64 64" xmlns="http://www.w3.org/2000/svg" fill="none" stroke="#000" stroke-width="2"><circle cx="32" cy="32" r="12" stroke-dasharray="5 4"/><circle cx="32" cy="32" r="5"/></svg><text x="306" y="181" font-size="7.5" font-family="system-ui, -apple-system, Segoe UI, sans-serif" text-anchor="middle" fill="#78716c">recessed-downlight</text><svg x="364" y="116" width="52" height="52" viewBox="0 0 64 64" xmlns="http://www.w3.org/2000/svg" fill="none" stroke="#000" stroke-width="2"><text x="32" y="40" font-size="24" font-weight="bold" text-anchor="middle" fill="#000" stroke="none">SD</text></svg><text x="390" y="181" font-size="7.5" font-family="system-ui, -apple-system, Segoe UI, sans-serif" text-anchor="middle" fill="#78716c">switch-dimmer</text><svg x="448" y="116" width="52" height="52" viewBox="0 0 64 64" xmlns="http://www.w3.org/2000/svg" fill="none" stroke="#000" stroke-width="2"><text x="32" y="40" font-size="24" font-weight="bold" text-anchor="middle" fill="#000" stroke="none">S4</text></svg><text x="474" y="181" font-size="7.5" font-family="system-ui, -apple-system, Segoe UI, sans-serif" text-anchor="middle" fill="#78716c">switch-four-way</text><svg x="532" y="116" width="52" height="52" viewBox="0 0 64 64" xmlns="http://www.w3.org/2000/svg" fill="none" stroke="#000" stroke-width="2"><text x="32" y="40" font-size="24" font-weight="bold" text-anchor="middle" fill="#000" stroke="none">S3</text></svg><text x="558" y="181" font-size="7.5" font-family="system-ui, -apple-system, Segoe UI, sans-serif" text-anchor="middle" fill="#78716c">switch-three-way</text><svg x="616" y="116" width="52" height="52" viewBox="0 0 64 64" xmlns="http://www.w3.org/2000/svg" fill="none" stroke="#000" stroke-width="2"><text x="32" y="40" font-size="26" font-weight="bold" text-anchor="middle" fill="#000" stroke="none">S</text></svg><text x="642" y="181" font-size="7.5" font-family="system-ui, -apple-system, Segoe UI, sans-serif" text-anchor="middle" fill="#78716c">switch</text><svg x="28" y="214" width="52" height="52" viewBox="0 0 64 64" xmlns="http://www.w3.org/2000/svg" fill="none" stroke="#000" stroke-width="2"><circle cx="32" cy="32" r="13"/><text x="32" y="37" font-size="13" font-weight="bold" text-anchor="middle" fill="#000" stroke="none">T</text></svg><text x="54" y="279" font-size="7.5" font-family="system-ui, -apple-system, Segoe UI, sans-serif" text-anchor="middle" fill="#78716c">thermostat</text><svg x="112" y="214" width="52" height="52" viewBox="0 0 64 64" xmlns="http://www.w3.org/2000/svg" fill="none" stroke="#000" stroke-width="2"><circle cx="32" cy="32" r="13"/><text x="32" y="37" font-size="11" font-weight="bold" text-anchor="middle" fill="#000" stroke="none">TV</text></svg><text x="138" y="279" font-size="7.5" font-family="system-ui, -apple-system, Segoe UI, sans-serif" text-anchor="middle" fill="#78716c">tv-outlet</text><svg x="196" y="214" width="52" height="52" viewBox="0 0 64 64" xmlns="http://www.w3.org/2000/svg" fill="none" stroke="#000" stroke-width="2"><circle cx="36" cy="32" r="10"/><line x1="14" y1="14" x2="14" y2="50"/><line x1="14" y1="32" x2="26" y2="32"/></svg><text x="222" y="279" font-size="7.5" font-family="system-ui, -apple-system, Segoe UI, sans-serif" text-anchor="middle" fill="#78716c">wall-sconce</text></svg>
