<svg viewBox="0 0 696 220" width="696" xmlns="http://www.w3.org/2000/svg"><rect x="0" y="0" width="696" height="220" rx="8" fill="#ffffff" stroke="#d6d3cd"/><svg x="28" y="18" width="52" height="52" viewBox="0 0 64 64" xmlns="http://www.w3.org/2000/svg" fill="none" stroke="#000" stroke-width="2"><rect x="12" y="20" width="40" height="24"/><path d="M12 20 H52 V44 Z" fill="#1a1a1a" stroke="none"/><text x="32" y="58" font-size="10" font-weight="bold" text-anchor="middle" fill="#000" stroke="none">CU</text></svg><text x="54" y="83" font-size="7.5" font-family="system-ui, -apple-system, Segoe UI, sans-serif" text-anchor="middle" fill="#78716c">consumer-unit</text><svg x="112" y="18" width="52" height="52" viewBox="0 0 64 64" xmlns="http://www.w3.org/2000/svg" fill="none" stroke="#000" stroke-width="2"><rect x="16" y="18" width="32" height="28"/><text x="32" y="37" font-size="14" font-weight="bold" text-anchor="middle" fill="#000" stroke="none">C</text></svg><text x="138" y="83" font-size="7.5" font-family="system-ui, -apple-system, Segoe UI, sans-serif" text-anchor="middle" fill="#78716c">cooker-point</text><svg x="196" y="18" width="52" height="52" viewBox="0 0 64 64" xmlns="http://www.w3.org/2000/svg" fill="none" stroke="#000" stroke-width="2"><path d="M18 36 A14 14 0 0 1 46 36"/><text x="32" y="20" font-size="11" font-weight="bold" text-anchor="middle" fill="#000" stroke="none">D</text></svg><text x="222" y="83" font-size="7.5" font-family="system-ui, -apple-system, Segoe UI, sans-serif" text-anchor="middle" fill="#78716c">data-outlet</text><svg x="280" y="18" width="52" height="52" viewBox="0 0 64 64" xmlns="http://www.w3.org/2000/svg" fill="none" stroke="#000" stroke-width="2"><rect x="14" y="20" width="36" height="24"/><text x="32" y="37" font-size="11" font-weight="bold" text-anchor="middle" fill="#000" stroke="none">FCU</text></svg><text x="306" y="83" font-size="7.5" font-family="system-ui, -apple-system, Segoe UI, sans-serif" text-anchor="middle" fill="#78716c">fused-connection-unit</text><svg x="364" y="18" width="52" height="52" viewBox="0 0 64 64" xmlns="http://www.w3.org/2000/svg" fill="none" stroke="#000" stroke-width="2"><circle cx="32" cy="34" r="11"/><line x1="32" y1="12" x2="32" y2="23"/></svg><text x="390" y="83" font-size="7.5" font-family="system-ui, -apple-system, Segoe UI, sans-serif" text-anchor="middle" fill="#78716c">pendant-light</text><svg x="448" y="18" width="52" height="52" viewBox="0 0 64 64" xmlns="http://www.w3.org/2000/svg" fill="none" stroke="#000" stroke-width="2"><rect x="14" y="20" width="36" height="24"/><text x="32" y="37" font-size="12" font-weight="bold" text-anchor="middle" fill="#000" stroke="none">SH</text></svg><text x="474" y="83" font-size="7.5" font-family="system-ui, -apple-system, Segoe UI, sans-serif" text-anchor="middle" fill="#78716c">shaver-socket</text><svg x="532" y="18" width="52" height="52" viewBox="0 0 64 64" xmlns="http://www.w3.org/2000/svg" fill="none" stroke="#000" stroke-width="2"><path d="M18 36 A14 14 0 0 1 46 36"/><line x1="32" y1="22" x2="32" y2="12"/><text x="46" y="18" font-size="11" font-weight="bold" text-anchor="middle" fill="#000" stroke="none">2</text></svg><text x="558" y="83" font-size="7.5" font-family="system-ui, -apple-system, Segoe UI, sans-serif" text-anchor="middle" fill="#78716c">socket-13a-double</text><svg x="616" y="18" width="52" height="52" viewBox="0 0 64 64" xmlns="http://www.w3.org/2000/svg" fill="none" stroke="#000" stroke-width="2"><path d="M18 36 A14 14 0 0 1 46 36"/><line x1="32" y1="22" x2="32" y2="12"/></svg><text x="642" y="83" font-size="7.5" font-family="system-ui, -apple-system, Segoe UI, sans-serif" text-anchor="middle" fill="#78716c">socket-13a-single</text><svg x="28" y="116" width="52" height="52" viewBox="0 0 64 64" xmlns="http://www.w3.org/2000/svg" fill="none" stroke="#000" stroke-width="2"><circle cx="26" cy="40" r="4"/><line x1="29" y1="37" x2="44" y2="22"/><line x1="44" y1="22" x2="50" y2="28"/></svg><text x="54" y="181" font-size="7.5" font-family="system-ui, -apple-system, Segoe UI, sans-serif" text-anchor="middle" fill="#78716c">switch-1way</text><svg x="112" y="116" width="52" height="52" viewBox="0 0 64 64" xmlns="http://www.w3.org/2000/svg" fill="none" stroke="#000" stroke-width="2"><circle cx="26" cy="40" r="4"/><line x1="29" y1="37" x2="44" y2="22"/><line x1="44" y1="22" x2="50" y2="28"/><text x="52" y="40" font-size="11" font-weight="bold" text-anchor="middle" fill="#000" stroke="none">2</text></svg><text x="138" y="181" font-size="7.5" font-family="system-ui, -apple-system, Segoe UI, sans-serif" text-anchor="middle" fill="#78716c">switch-2way</text><svg x="196" y="116" width="52" height="52" viewBox="0 0 64 64" xmlns="http://www.w3.org/2000/svg" fill="none" stroke="#000" stroke-width="2"><circle cx="26" cy="40" r="4"/><line x1="29" y1="37" x2="44" y2="22"/><line x1="44" y1="22" x2="50" y2="28"/><text x="50" y="42" font-size="9" font-weight="bold" text-anchor="middle" fill="#000" stroke="none">INT</text></svg><text x="222" y="181" font-size="7.5" font-family="system-ui, -apple-system, Segoe UI, sans-serif" text-anchor="middle" fill="#78716c">switch-intermediate</text><svg x="280" y="116" width="52" height="52" viewBox="0 0 64 64" xmlns="http://www.w3.org/2000/svg" fill="none" stroke="#000" stroke-width="2"><path d="M18 36 A14 14 0 0 1 46 36"/><line x1="32" y1="22" x2="32" y2="12"/><text x="46" y="18" font-size="10" font-weight="normal" text-anchor="middle" fill="#000" stroke="none">sw</text></svg><text x="306" y="181" font-size="7.5" font-family="system-ui, -apple-system, Segoe UI, sans-serif" text-anchor="middle" fill="#78716c">switched-socket</text><svg x="364" y="116" width="52" height="52" viewBox="0 0 64 64" xmlns="http://www.w3.org/2000/svg" fill="none" stroke="#000" stroke-width="2"><path d="M18 36 A14 14 0 0 1 46 36"/><text x="32" y="20" font-size="10" font-weight="bold" text-anchor="middle" fill="#000" stroke="none">TV</text></svg><text x="390" y="181" font-size="7.5" font-family="system-ui, -apple-system, Segoe UI, sans-serif" text-anchor="middle" fill="#78716c">tv-outlet</text></svg>
