<svg viewBox="0 0 696 220" width="696" xmlns="http://www.w3.org/2000/svg"><rect x="0" y="0" width="696" height="220" rx="8" fill="#ffffff" stroke="#d6d3cd"/><svg x="28" y="18" width="52" height="52" viewBox="0 0 64 64" xmlns="http://www.w3.org/2000/svg" fill="none" stroke="#000" stroke-width="1.5" stroke-linecap="round" stroke-linejoin="round"><title>Indian steel shapes (IS 808): angle-elevation</title><desc>Schematisch aanzicht met voorbeeldlengte 4 maal de profielhoogte.</desc><rect x="6" y="25.5" width="52" height="13"/><line x1="6" y1="26.8" x2="58" y2="26.8"/><g stroke-width="0.7" stroke-dasharray="5 2 1 2"><line x1="6" y1="32" x2="58" y2="32"/><line x1="32" y1="6" x2="32" y2="58"/></g></svg><text x="54" y="83" font-size="7.5" font-family="system-ui, -apple-system, Segoe UI, sans-serif" text-anchor="middle" fill="#78716c">angle-elevation</text><svg x="112" y="18" width="52" height="52" viewBox="0 0 64 64" xmlns="http://www.w3.org/2000/svg" fill="none" stroke="#000" stroke-width="1.5" stroke-linecap="round" stroke-linejoin="round"><title>Indian steel shapes (IS 808): channel-elevation</title><desc>Schematisch aanzicht met voorbeeldlengte 4 maal de profielhoogte.</desc><rect x="6" y="25.5" width="52" height="13"/><line x1="6" y1="26.241" x2="58" y2="26.241"/><line x1="6" y1="37.759" x2="58" y2="37.759"/><g stroke-width="0.7" stroke-dasharray="5 2 1 2"><line x1="6" y1="32" x2="58" y2="32"/><line x1="32" y1="6" x2="32" y2="58"/></g></svg><text x="138" y="83" font-size="7.5" font-family="system-ui, -apple-system, Segoe UI, sans-serif" text-anchor="middle" fill="#78716c">channel-elevation</text><svg x="196" y="18" width="52" height="52" viewBox="0 0 64 64" xmlns="http://www.w3.org/2000/svg" fill="none" stroke="#000" stroke-width="1.5" stroke-linecap="round" stroke-linejoin="round"><title>Indian steel shapes (IS 808): chs</title><desc>Catalogusgedreven doorsnede; vorm pipe.</desc><g stroke-width="0.7" stroke-dasharray="5 2 1 2"><line x1="6" y1="32" x2="58" y2="32"/><line x1="32" y1="6" x2="32" y2="58"/></g><circle cx="32" cy="32" r="26"/><circle cx="32" cy="32" r="23.075"/></svg><text x="222" y="83" font-size="7.5" font-family="system-ui, -apple-system, Segoe UI, sans-serif" text-anchor="middle" fill="#78716c">chs</text><svg x="280" y="18" width="52" height="52" viewBox="0 0 64 64" xmlns="http://www.w3.org/2000/svg" fill="none" stroke="#000" stroke-width="1.5" stroke-linecap="round" stroke-linejoin="round"><title>Indian steel shapes (IS 808): hollow-section-elevation</title><desc>Schematisch aanzicht met voorbeeldlengte 4 maal de profielhoogte.</desc><rect x="6" y="25.5" width="52" height="13"/><rect x="6.813" y="26.313" width="50.375" height="11.375"/><g stroke-width="0.7" stroke-dasharray="5 2 1 2"><line x1="6" y1="32" x2="58" y2="32"/><line x1="32" y1="6" x2="32" y2="58"/></g></svg><text x="306" y="83" font-size="7.5" font-family="system-ui, -apple-system, Segoe UI, sans-serif" text-anchor="middle" fill="#78716c">hollow-section-elevation</text><svg x="364" y="18" width="52" height="52" viewBox="0 0 64 64" xmlns="http://www.w3.org/2000/svg" fill="none" stroke="#000" stroke-width="1.5" stroke-linecap="round" stroke-linejoin="round"><title>Indian steel shapes (IS 808): i-beam-elevation</title><desc>Schematisch aanzicht met voorbeeldlengte 4 maal de profielhoogte.</desc><rect x="6" y="25.5" width="52" height="13"/><line x1="6" y1="26.2" x2="58" y2="26.2"/><line x1="6" y1="37.8" x2="58" y2="37.8"/><g stroke-width="0.7" stroke-dasharray="5 2 1 2"><line x1="6" y1="32" x2="58" y2="32"/><line x1="32" y1="6" x2="32" y2="58"/></g></svg><text x="390" y="83" font-size="7.5" font-family="system-ui, -apple-system, Segoe UI, sans-serif" text-anchor="middle" fill="#78716c">i-beam-elevation</text><svg x="448" y="18" width="52" height="52" viewBox="0 0 64 64" xmlns="http://www.w3.org/2000/svg" fill="none" stroke="#000" stroke-width="1.5" stroke-linecap="round" stroke-linejoin="round"><title>Indian steel shapes (IS 808): isa-equal</title><desc>Catalogusgedreven doorsnede; vorm angle.</desc><g stroke-width="0.7" stroke-dasharray="5 2 1 2"><line x1="6" y1="32" x2="58" y2="32"/><line x1="32" y1="6" x2="32" y2="58"/></g><path d="M6 6 L11.2 6 L11.2 48.64 A4.16 4.16 0 0 0 15.36 52.8 L58 52.8 L58 58 L6 58 Z"/></svg><text x="474" y="83" font-size="7.5" font-family="system-ui, -apple-system, Segoe UI, sans-serif" text-anchor="middle" fill="#78716c">isa-equal</text><svg x="532" y="18" width="52" height="52" viewBox="0 0 64 64" xmlns="http://www.w3.org/2000/svg" fill="none" stroke="#000" stroke-width="1.5" stroke-linecap="round" stroke-linejoin="round"><title>Indian steel shapes (IS 808): isa-unequal</title><desc>Catalogusgedreven doorsnede; vorm angle.</desc><g stroke-width="0.7" stroke-dasharray="5 2 1 2"><line x1="6" y1="32" x2="58" y2="32"/><line x1="32" y1="6" x2="32" y2="58"/></g><path d="M14.938 6 L19.487 6 L19.487 49.875 A3.575 3.575 0 0 0 23.063 53.45 L49.063 53.45 L49.063 58 L14.938 58 Z"/></svg><text x="558" y="83" font-size="7.5" font-family="system-ui, -apple-system, Segoe UI, sans-serif" text-anchor="middle" fill="#78716c">isa-unequal</text><svg x="616" y="18" width="52" height="52" viewBox="0 0 64 64" xmlns="http://www.w3.org/2000/svg" fill="none" stroke="#000" stroke-width="1.5" stroke-linecap="round" stroke-linejoin="round"><title>Indian steel shapes (IS 808): ishb</title><desc>Catalogusgedreven doorsnede; vorm i.</desc><g stroke-width="0.7" stroke-dasharray="5 2 1 2"><line x1="6" y1="32" x2="58" y2="32"/><line x1="32" y1="6" x2="32" y2="58"/></g><path d="M10.333 6 L53.667 6 L53.667 7.837 L34.565 7.837 A1.907 1.907 0 0 0 32.659 9.744 L32.659 54.256 A1.907 1.907 0 0 0 34.565 56.163 L53.667 56.163 L53.667 58 L10.333 58 L10.333 56.163 L29.435 56.163 A1.907 1.907 0 0 0 31.341 54.256 L31.341 9.744 A1.907 1.907 0 0 0 29.435 7.837 L10.333 7.837 Z"/></svg><text x="642" y="83" font-size="7.5" font-family="system-ui, -apple-system, Segoe UI, sans-serif" text-anchor="middle" fill="#78716c">ishb</text><svg x="28" y="116" width="52" height="52" viewBox="0 0 64 64" xmlns="http://www.w3.org/2000/svg" fill="none" stroke="#000" stroke-width="1.5" stroke-linecap="round" stroke-linejoin="round"><title>Indian steel shapes (IS 808): ismb</title><desc>Catalogusgedreven doorsnede; vorm i.</desc><g stroke-width="0.7" stroke-dasharray="5 2 1 2"><line x1="6" y1="32" x2="58" y2="32"/><line x1="32" y1="6" x2="32" y2="58"/></g><path d="M19.867 6 L44.133 6 L44.133 8.149 L35.077 8.149 A2.427 2.427 0 0 0 32.65 10.576 L32.65 53.424 A2.427 2.427 0 0 0 35.077 55.851 L44.133 55.851 L44.133 58 L19.867 58 L19.867 55.851 L28.923 55.851 A2.427 2.427 0 0 0 31.35 53.424 L31.35 10.576 A2.427 2.427 0 0 0 28.923 8.149 L19.867 8.149 Z"/></svg><text x="54" y="181" font-size="7.5" font-family="system-ui, -apple-system, Segoe UI, sans-serif" text-anchor="middle" fill="#78716c">ismb</text><svg x="112" y="116" width="52" height="52" viewBox="0 0 64 64" xmlns="http://www.w3.org/2000/svg" fill="none" stroke="#000" stroke-width="1.5" stroke-linecap="round" stroke-linejoin="round"><title>Indian steel shapes (IS 808): ismc</title><desc>Catalogusgedreven doorsnede; vorm u.</desc><g stroke-width="0.7" stroke-dasharray="5 2 1 2"><line x1="6" y1="32" x2="58" y2="32"/><line x1="32" y1="6" x2="32" y2="58"/></g><path d="M22.25 6 L41.75 6 L41.75 8.964 L26.696 8.964 A2.86 2.86 0 0 0 23.836 11.824 L23.836 52.176 A2.86 2.86 0 0 0 26.696 55.036 L41.75 55.036 L41.75 58 L22.25 58 Z"/></svg><text x="138" y="181" font-size="7.5" font-family="system-ui, -apple-system, Segoe UI, sans-serif" text-anchor="middle" fill="#78716c">ismc</text><svg x="196" y="116" width="52" height="52" viewBox="0 0 64 64" xmlns="http://www.w3.org/2000/svg" fill="none" stroke="#000" stroke-width="1.5" stroke-linecap="round" stroke-linejoin="round"><title>Indian steel shapes (IS 808): isnt-tee</title><desc>Catalogusgedreven doorsnede; vorm tee.</desc><g stroke-width="0.7" stroke-dasharray="5 2 1 2"><line x1="6" y1="32" x2="58" y2="32"/><line x1="32" y1="6" x2="32" y2="58"/></g><path d="M8.889 6 L55.111 6 L55.111 10.044 L36.333 10.044 A2.889 2.889 0 0 0 33.444 12.933 L33.444 58 L30.556 58 L30.556 12.933 A2.889 2.889 0 0 0 27.667 10.044 L8.889 10.044 Z"/></svg><text x="222" y="181" font-size="7.5" font-family="system-ui, -apple-system, Segoe UI, sans-serif" text-anchor="middle" fill="#78716c">isnt-tee</text><svg x="280" y="116" width="52" height="52" viewBox="0 0 64 64" xmlns="http://www.w3.org/2000/svg" fill="none" stroke="#000" stroke-width="1.5" stroke-linecap="round" stroke-linejoin="round"><title>Indian steel shapes (IS 808): plate</title><desc>Catalogusgedreven doorsnede; vorm plate.</desc><g stroke-width="0.7" stroke-dasharray="5 2 1 2"><line x1="6" y1="32" x2="58" y2="32"/><line x1="32" y1="6" x2="32" y2="58"/></g><rect x="6" y="29.4" width="52" height="5.2"/></svg><text x="306" y="181" font-size="7.5" font-family="system-ui, -apple-system, Segoe UI, sans-serif" text-anchor="middle" fill="#78716c">plate</text><svg x="364" y="116" width="52" height="52" viewBox="0 0 64 64" xmlns="http://www.w3.org/2000/svg" fill="none" stroke="#000" stroke-width="1.5" stroke-linecap="round" stroke-linejoin="round"><title>Indian steel shapes (IS 808): rhs</title><desc>Catalogusgedreven doorsnede; vorm box.</desc><g stroke-width="0.7" stroke-dasharray="5 2 1 2"><line x1="6" y1="32" x2="58" y2="32"/><line x1="32" y1="6" x2="32" y2="58"/></g><rect x="6" y="12.5" width="52" height="39" rx="5.85"/><rect x="9.25" y="15.75" width="45.5" height="32.5" rx="2.6"/></svg><text x="390" y="181" font-size="7.5" font-family="system-ui, -apple-system, Segoe UI, sans-serif" text-anchor="middle" fill="#78716c">rhs</text><svg x="448" y="116" width="52" height="52" viewBox="0 0 64 64" xmlns="http://www.w3.org/2000/svg" fill="none" stroke="#000" stroke-width="1.5" stroke-linecap="round" stroke-linejoin="round"><title>Indian steel shapes (IS 808): shs</title><desc>Catalogusgedreven doorsnede; vorm box.</desc><g stroke-width="0.7" stroke-dasharray="5 2 1 2"><line x1="6" y1="32" x2="58" y2="32"/><line x1="32" y1="6" x2="32" y2="58"/></g><rect x="6" y="6" width="52" height="52" rx="5.85"/><rect x="9.25" y="9.25" width="45.5" height="45.5" rx="2.6"/></svg><text x="474" y="181" font-size="7.5" font-family="system-ui, -apple-system, Segoe UI, sans-serif" text-anchor="middle" fill="#78716c">shs</text><svg x="532" y="116" width="52" height="52" viewBox="0 0 64 64" xmlns="http://www.w3.org/2000/svg" fill="none" stroke="#000" stroke-width="1.5" stroke-linecap="round" stroke-linejoin="round"><title>Indian steel shapes (IS 808): tee-elevation</title><desc>Schematisch aanzicht met voorbeeldlengte 4 maal de profielhoogte.</desc><rect x="6" y="25.5" width="52" height="13"/><line x1="6" y1="26.511" x2="58" y2="26.511"/><g stroke-width="0.7" stroke-dasharray="5 2 1 2"><line x1="6" y1="32" x2="58" y2="32"/><line x1="32" y1="6" x2="32" y2="58"/></g></svg><text x="558" y="181" font-size="7.5" font-family="system-ui, -apple-system, Segoe UI, sans-serif" text-anchor="middle" fill="#78716c">tee-elevation</text></svg>
