<svg viewBox="0 0 696 416" width="696" xmlns="http://www.w3.org/2000/svg"><rect x="0" y="0" width="696" height="416" rx="8" fill="#ffffff" stroke="#d6d3cd"/><svg x="28" y="18" width="52" height="52" viewBox="0 0 64 64" xmlns="http://www.w3.org/2000/svg" fill="none" stroke="#000" stroke-width="2"><rect x="12" y="12" width="40" height="40" rx="4"/><path d="M32 22 C28 16 18 20 22 28 C25 33 32 38 32 38 C32 38 39 33 42 28 C46 20 36 16 32 22 Z"/><path d="M33 24 L28 31 L32 31 L30 38 L36 30 L32 30 Z" fill="#000" stroke="none"/><text x="32" y="61" font-size="9" font-weight="bold" text-anchor="middle" fill="#000" stroke="none">AED</text></svg><text x="54" y="83" font-size="7.5" font-family="system-ui, -apple-system, Segoe UI, sans-serif" text-anchor="middle" fill="#78716c">aed</text><svg x="112" y="18" width="52" height="52" viewBox="0 0 64 64" xmlns="http://www.w3.org/2000/svg" fill="none" stroke="#000" stroke-width="2"><circle cx="32" cy="24" r="10"/><line x1="24" y1="34" x2="16" y2="48"/><line x1="40" y1="34" x2="48" y2="48"/><text x="32" y="28" font-size="9" font-weight="bold" text-anchor="middle" fill="#000" stroke="none">AP</text></svg><text x="138" y="83" font-size="7.5" font-family="system-ui, -apple-system, Segoe UI, sans-serif" text-anchor="middle" fill="#78716c">anti-paniekverlichting</text><svg x="196" y="18" width="52" height="52" viewBox="0 0 64 64" xmlns="http://www.w3.org/2000/svg" fill="none" stroke="#000" stroke-width="2"><rect x="24" y="22" width="16" height="30" rx="4"/><line x1="32" y1="22" x2="32" y2="16"/><path d="M32 16 L40 12"/><text x="32" y="41" font-size="10" font-weight="bold" text-anchor="middle" fill="#000" stroke="none">BT</text></svg><text x="222" y="83" font-size="7.5" font-family="system-ui, -apple-system, Segoe UI, sans-serif" text-anchor="middle" fill="#78716c">blustoestel</text><svg x="280" y="18" width="52" height="52" viewBox="0 0 64 64" xmlns="http://www.w3.org/2000/svg" fill="none" stroke="#000" stroke-width="2"><rect x="14" y="14" width="36" height="36"/><line x1="14" y1="50" x2="50" y2="14"/><text x="32" y="62" font-size="10" font-weight="bold" text-anchor="middle" fill="#000" stroke="none">BK</text></svg><text x="306" y="83" font-size="7.5" font-family="system-ui, -apple-system, Segoe UI, sans-serif" text-anchor="middle" fill="#78716c">brandklep</text><svg x="364" y="18" width="52" height="52" viewBox="0 0 64 64" xmlns="http://www.w3.org/2000/svg" fill="none" stroke="#000" stroke-width="2"><rect x="6" y="18" width="52" height="28"/><text x="32" y="36.68" font-size="13" font-weight="bold" text-anchor="middle" fill="#000" stroke="none">BMC</text></svg><text x="390" y="83" font-size="7.5" font-family="system-ui, -apple-system, Segoe UI, sans-serif" text-anchor="middle" fill="#78716c">brandmeldcentrale</text><svg x="448" y="18" width="52" height="52" viewBox="0 0 64 64" xmlns="http://www.w3.org/2000/svg" fill="none" stroke="#000" stroke-width="2"><circle cx="32" cy="30" r="16"/><circle cx="32" cy="30" r="9"/><circle cx="32" cy="30" r="3"/><line x1="32" y1="46" x2="32" y2="54"/><line x1="32" y1="54" x2="44" y2="54"/><text x="32" y="12" font-size="9" font-weight="bold" text-anchor="middle" fill="#000" stroke="none">BSH</text></svg><text x="474" y="83" font-size="7.5" font-family="system-ui, -apple-system, Segoe UI, sans-serif" text-anchor="middle" fill="#78716c">brandslanghaspel</text><svg x="532" y="18" width="52" height="52" viewBox="0 0 64 64" xmlns="http://www.w3.org/2000/svg" fill="none" stroke="#000" stroke-width="2"><rect x="10" y="14" width="44" height="36"/><line x1="18" y1="32" x2="42" y2="32"/><path d="M36 25 L43 32 L36 39"/><text x="32" y="62" font-size="8" font-weight="bold" text-anchor="middle" fill="#000" stroke="none">BRANDWEER</text></svg><text x="558" y="83" font-size="7.5" font-family="system-ui, -apple-system, Segoe UI, sans-serif" text-anchor="middle" fill="#78716c">brandweeringang</text><svg x="616" y="18" width="52" height="52" viewBox="0 0 64 64" xmlns="http://www.w3.org/2000/svg" fill="none" stroke="#000" stroke-width="2"><rect x="6" y="18" width="52" height="28"/><text x="32" y="36.68" font-size="13" font-weight="bold" text-anchor="middle" fill="#000" stroke="none">BWP</text></svg><text x="642" y="83" font-size="7.5" font-family="system-ui, -apple-system, Segoe UI, sans-serif" text-anchor="middle" fill="#78716c">brandweerpaneel</text><svg x="28" y="116" width="52" height="52" viewBox="0 0 64 64" xmlns="http://www.w3.org/2000/svg" fill="none" stroke="#000" stroke-width="2"><rect x="6" y="18" width="52" height="28"/><text x="32" y="36.68" font-size="13" font-weight="bold" text-anchor="middle" fill="#000" stroke="none">CO2</text></svg><text x="54" y="181" font-size="7.5" font-family="system-ui, -apple-system, Segoe UI, sans-serif" text-anchor="middle" fill="#78716c">co2-blusinstallatie</text><svg x="112" y="116" width="52" height="52" viewBox="0 0 64 64" xmlns="http://www.w3.org/2000/svg" fill="none" stroke="#000" stroke-width="2"><line x1="12" y1="52" x2="52" y2="52"/><line x1="16" y1="52" x2="16" y2="16"/><path d="M16 16 A36 36 0 0 1 52 52"/><text x="30" y="42" font-size="10" font-weight="bold" text-anchor="middle" fill="#000" stroke="none">DD</text></svg><text x="138" y="181" font-size="7.5" font-family="system-ui, -apple-system, Segoe UI, sans-serif" text-anchor="middle" fill="#78716c">deurdranger</text><svg x="196" y="116" width="52" height="52" viewBox="0 0 64 64" xmlns="http://www.w3.org/2000/svg" fill="none" stroke="#000" stroke-width="2"><line x1="28" y1="10" x2="28" y2="54"/><line x1="36" y1="10" x2="36" y2="54"/><circle cx="32" cy="32" r="12" stroke-dasharray="4 3"/><text x="32" y="36" font-size="12" font-weight="bold" text-anchor="middle" fill="#000" stroke="none">D</text></svg><text x="222" y="181" font-size="7.5" font-family="system-ui, -apple-system, Segoe UI, sans-serif" text-anchor="middle" fill="#78716c">droge-blusleiding</text><svg x="280" y="116" width="52" height="52" viewBox="0 0 64 64" xmlns="http://www.w3.org/2000/svg" fill="none" stroke="#000" stroke-width="2"><rect x="12" y="12" width="40" height="40" rx="4"/><path d="M28 20 H36 V28 H44 V36 H36 V44 H28 V36 H20 V28 H28 Z"/><text x="32" y="61" font-size="9" font-weight="bold" text-anchor="middle" fill="#000" stroke="none">EHBO</text></svg><text x="306" y="181" font-size="7.5" font-family="system-ui, -apple-system, Segoe UI, sans-serif" text-anchor="middle" fill="#78716c">ehbo-post</text><svg x="364" y="116" width="52" height="52" viewBox="0 0 64 64" xmlns="http://www.w3.org/2000/svg" fill="none" stroke="#000" stroke-width="2"><circle cx="32" cy="30" r="7"/><line x1="42.0" y1="30.0" x2="49.0" y2="30.0"/><line x1="39.1" y1="37.1" x2="44.0" y2="42.0"/><line x1="32.0" y1="40.0" x2="32.0" y2="47.0"/><line x1="24.9" y1="37.1" x2="20.0" y2="42.0"/><line x1="22.0" y1="30.0" x2="15.0" y2="30.0"/><line x1="24.9" y1="22.9" x2="20.0" y2="18.0"/><line x1="32.0" y1="20.0" x2="32.0" y2="13.0"/><line x1="39.1" y1="22.9" x2="44.0" y2="18.0"/><text x="32" y="58" font-size="11" font-weight="bold" text-anchor="middle" fill="#000" stroke="none">FL</text></svg><text x="390" y="181" font-size="7.5" font-family="system-ui, -apple-system, Segoe UI, sans-serif" text-anchor="middle" fill="#78716c">flitslicht</text><svg x="448" y="116" width="52" height="52" viewBox="0 0 64 64" xmlns="http://www.w3.org/2000/svg" fill="none" stroke="#000" stroke-width="2"><rect x="12" y="12" width="40" height="40"/><text x="32" y="37.4" font-size="15" font-weight="bold" text-anchor="middle" fill="#000" stroke="none">HM</text></svg><text x="474" y="181" font-size="7.5" font-family="system-ui, -apple-system, Segoe UI, sans-serif" text-anchor="middle" fill="#78716c">handbrandmelder</text><svg x="532" y="116" width="52" height="52" viewBox="0 0 64 64" xmlns="http://www.w3.org/2000/svg" fill="none" stroke="#000" stroke-width="2"><circle cx="32" cy="32" r="20"/><text x="32" y="36.68" font-size="13" font-weight="bold" text-anchor="middle" fill="#000" stroke="none">MS</text></svg><text x="558" y="181" font-size="7.5" font-family="system-ui, -apple-system, Segoe UI, sans-serif" text-anchor="middle" fill="#78716c">multisensormelder</text><svg x="616" y="116" width="52" height="52" viewBox="0 0 64 64" xmlns="http://www.w3.org/2000/svg" fill="none" stroke="#000" stroke-width="2"><line x1="12" y1="52" x2="52" y2="52"/><line x1="16" y1="52" x2="16" y2="16"/><path d="M16 16 A36 36 0 0 1 52 52"/><text x="30" y="42" font-size="10" font-weight="bold" text-anchor="middle" fill="#000" stroke="none">ND</text></svg><text x="642" y="181" font-size="7.5" font-family="system-ui, -apple-system, Segoe UI, sans-serif" text-anchor="middle" fill="#78716c">nooddeur</text><svg x="28" y="214" width="52" height="52" viewBox="0 0 64 64" xmlns="http://www.w3.org/2000/svg" fill="none" stroke="#000" stroke-width="2"><circle cx="32" cy="24" r="10"/><line x1="24" y1="34" x2="16" y2="48"/><line x1="40" y1="34" x2="48" y2="48"/><text x="32" y="28" font-size="9" font-weight="bold" text-anchor="middle" fill="#000" stroke="none">NV</text></svg><text x="54" y="279" font-size="7.5" font-family="system-ui, -apple-system, Segoe UI, sans-serif" text-anchor="middle" fill="#78716c">noodverlichting</text><svg x="112" y="214" width="52" height="52" viewBox="0 0 64 64" xmlns="http://www.w3.org/2000/svg" fill="none" stroke="#000" stroke-width="2"><path d="M14 26 L26 26 L38 16 L38 48 L26 38 L14 38 Z"/><path d="M44 24 A12 12 0 0 1 44 40"/><path d="M50 19 A19 19 0 0 1 50 45"/><text x="24" y="58" font-size="10" font-weight="bold" text-anchor="middle" fill="#000" stroke="none">OA</text></svg><text x="138" y="279" font-size="7.5" font-family="system-ui, -apple-system, Segoe UI, sans-serif" text-anchor="middle" fill="#78716c">ontruimingsalarm</text><svg x="196" y="214" width="52" height="52" viewBox="0 0 64 64" xmlns="http://www.w3.org/2000/svg" fill="none" stroke="#000" stroke-width="2"><rect x="6" y="18" width="52" height="28"/><text x="32" y="36.32" font-size="12" font-weight="bold" text-anchor="middle" fill="#000" stroke="none">ODI</text></svg><text x="222" y="279" font-size="7.5" font-family="system-ui, -apple-system, Segoe UI, sans-serif" text-anchor="middle" fill="#78716c">overdrukinstallatie</text><svg x="280" y="214" width="52" height="52" viewBox="0 0 64 64" xmlns="http://www.w3.org/2000/svg" fill="none" stroke="#000" stroke-width="2"><rect x="14" y="14" width="36" height="36"/><line x1="14" y1="50" x2="50" y2="14"/><line x1="14" y1="14" x2="50" y2="50"/><text x="32" y="62" font-size="10" font-weight="bold" text-anchor="middle" fill="#000" stroke="none">RK</text></svg><text x="306" y="279" font-size="7.5" font-family="system-ui, -apple-system, Segoe UI, sans-serif" text-anchor="middle" fill="#78716c">rookklep</text><svg x="364" y="214" width="52" height="52" viewBox="0 0 64 64" xmlns="http://www.w3.org/2000/svg" fill="none" stroke="#000" stroke-width="2"><rect x="12" y="18" width="40" height="28"/><line x1="22" y1="46" x2="32" y2="26"/><line x1="32" y1="46" x2="42" y2="26"/><path d="M28 30 L32 24 L36 30"/><text x="32" y="60" font-size="9" font-weight="bold" text-anchor="middle" fill="#000" stroke="none">RWA</text></svg><text x="390" y="279" font-size="7.5" font-family="system-ui, -apple-system, Segoe UI, sans-serif" text-anchor="middle" fill="#78716c">rookluik</text><svg x="448" y="214" width="52" height="52" viewBox="0 0 64 64" xmlns="http://www.w3.org/2000/svg" fill="none" stroke="#000" stroke-width="2"><circle cx="32" cy="32" r="20"/><text x="32" y="36.68" font-size="13" font-weight="bold" text-anchor="middle" fill="#000" stroke="none">RM</text></svg><text x="474" y="279" font-size="7.5" font-family="system-ui, -apple-system, Segoe UI, sans-serif" text-anchor="middle" fill="#78716c">rookmelder</text><svg x="532" y="214" width="52" height="52" viewBox="0 0 64 64" xmlns="http://www.w3.org/2000/svg" fill="none" stroke="#000" stroke-width="2"><rect x="6" y="18" width="52" height="28"/><text x="32" y="36.32" font-size="12" font-weight="bold" text-anchor="middle" fill="#000" stroke="none">RWA</text></svg><text x="558" y="279" font-size="7.5" font-family="system-ui, -apple-system, Segoe UI, sans-serif" text-anchor="middle" fill="#78716c">rwa-bediening</text><svg x="616" y="214" width="52" height="52" viewBox="0 0 64 64" xmlns="http://www.w3.org/2000/svg" fill="none" stroke="#000" stroke-width="2"><rect x="6" y="18" width="52" height="28"/><text x="32" y="35.6" font-size="10" font-weight="bold" text-anchor="middle" fill="#000" stroke="none">SCHUIM</text></svg><text x="642" y="279" font-size="7.5" font-family="system-ui, -apple-system, Segoe UI, sans-serif" text-anchor="middle" fill="#78716c">schuimblusinstallatie</text><svg x="28" y="312" width="52" height="52" viewBox="0 0 64 64" xmlns="http://www.w3.org/2000/svg" fill="none" stroke="#000" stroke-width="2"><path d="M14 26 L26 26 L38 16 L38 48 L26 38 L14 38 Z"/><path d="M44 24 A12 12 0 0 1 44 40"/><path d="M50 19 A19 19 0 0 1 50 45"/><text x="24" y="58" font-size="10" font-weight="bold" text-anchor="middle" fill="#000" stroke="none">SIR</text></svg><text x="54" y="377" font-size="7.5" font-family="system-ui, -apple-system, Segoe UI, sans-serif" text-anchor="middle" fill="#78716c">sirene</text><svg x="112" y="312" width="52" height="52" viewBox="0 0 64 64" xmlns="http://www.w3.org/2000/svg" fill="none" stroke="#000" stroke-width="2"><rect x="6" y="18" width="52" height="28"/><text x="32" y="36.32" font-size="12" font-weight="bold" text-anchor="middle" fill="#000" stroke="none">SPR</text></svg><text x="138" y="377" font-size="7.5" font-family="system-ui, -apple-system, Segoe UI, sans-serif" text-anchor="middle" fill="#78716c">sprinklerinstallatie</text><svg x="196" y="312" width="52" height="52" viewBox="0 0 64 64" xmlns="http://www.w3.org/2000/svg" fill="none" stroke="#000" stroke-width="2"><line x1="32" y1="8" x2="32" y2="26"/><circle cx="32" cy="32" r="6"/><line x1="24" y1="46" x2="28" y2="40"/><line x1="32" y1="48" x2="32" y2="40"/><line x1="40" y1="46" x2="36" y2="40"/></svg><text x="222" y="377" font-size="7.5" font-family="system-ui, -apple-system, Segoe UI, sans-serif" text-anchor="middle" fill="#78716c">sprinklerkop-hangend</text><svg x="280" y="312" width="52" height="52" viewBox="0 0 64 64" xmlns="http://www.w3.org/2000/svg" fill="none" stroke="#000" stroke-width="2"><circle cx="32" cy="32" r="20"/><text x="32" y="36.68" font-size="13" font-weight="bold" text-anchor="middle" fill="#000" stroke="none">TM</text></svg><text x="306" y="377" font-size="7.5" font-family="system-ui, -apple-system, Segoe UI, sans-serif" text-anchor="middle" fill="#78716c">thermische-melder</text><svg x="364" y="312" width="52" height="52" viewBox="0 0 64 64" xmlns="http://www.w3.org/2000/svg" fill="none" stroke="#000" stroke-width="2"><rect x="14" y="14" width="36" height="36"/><line x1="20" y1="20" x2="28" y2="28"/><path d="M28 22 L28 28 L22 28"/><line x1="44" y1="20" x2="36" y2="28"/><path d="M36 22 L36 28 L42 28"/><line x1="20" y1="44" x2="28" y2="36"/><path d="M22 36 L28 36 L28 42"/><line x1="44" y1="44" x2="36" y2="36"/><path d="M42 36 L36 36 L36 42"/><text x="32" y="62" font-size="10" font-weight="bold" text-anchor="middle" fill="#000" stroke="none">VZ</text></svg><text x="390" y="377" font-size="7.5" font-family="system-ui, -apple-system, Segoe UI, sans-serif" text-anchor="middle" fill="#78716c">verzamelplaats</text><svg x="448" y="312" width="52" height="52" viewBox="0 0 64 64" xmlns="http://www.w3.org/2000/svg" fill="none" stroke="#000" stroke-width="2"><circle cx="32" cy="32" r="20"/><text x="32" y="36.68" font-size="13" font-weight="bold" text-anchor="middle" fill="#000" stroke="none">VM</text></svg><text x="474" y="377" font-size="7.5" font-family="system-ui, -apple-system, Segoe UI, sans-serif" text-anchor="middle" fill="#78716c">vlammelder</text><svg x="532" y="312" width="52" height="52" viewBox="0 0 64 64" xmlns="http://www.w3.org/2000/svg" fill="none" stroke="#000" stroke-width="2"><rect x="8" y="18" width="48" height="24"/><line x1="16" y1="30" x2="38" y2="30"/><path d="M32 23 L39 30 L32 37"/><circle cx="46" cy="25" r="3"/><line x1="46" y1="28" x2="46" y2="35"/><line x1="46" y1="30" x2="42" y2="34"/><line x1="46" y1="30" x2="50" y2="34"/></svg><text x="558" y="377" font-size="7.5" font-family="system-ui, -apple-system, Segoe UI, sans-serif" text-anchor="middle" fill="#78716c">vluchtwegaanduiding</text><svg x="616" y="312" width="52" height="52" viewBox="0 0 64 64" xmlns="http://www.w3.org/2000/svg" fill="none" stroke="#000" stroke-width="2"><rect x="12" y="12" width="40" height="40"/><text x="32" y="37.04" font-size="14" font-weight="bold" text-anchor="middle" fill="#000" stroke="none">WH</text></svg><text x="642" y="377" font-size="7.5" font-family="system-ui, -apple-system, Segoe UI, sans-serif" text-anchor="middle" fill="#78716c">wandhydrant</text></svg>
