<svg viewBox="0 0 696 220" width="696" xmlns="http://www.w3.org/2000/svg"><rect x="0" y="0" width="696" height="220" rx="8" fill="#ffffff" stroke="#d6d3cd"/><svg x="28" y="18" width="52" height="52" viewBox="0 0 64 64" xmlns="http://www.w3.org/2000/svg" fill="none" stroke="#000" stroke-width="2"><circle cx="32" cy="32" r="13"/><text x="32" y="37" font-size="11" font-weight="bold" text-anchor="middle" fill="#000" stroke="none">AC</text></svg><text x="54" y="83" font-size="7.5" font-family="system-ui, -apple-system, Segoe UI, sans-serif" text-anchor="middle" fill="#78716c">aircon-outlet</text><svg x="112" y="18" width="52" height="52" viewBox="0 0 64 64" xmlns="http://www.w3.org/2000/svg" fill="none" stroke="#000" stroke-width="2"><circle cx="32" cy="32" r="12"/><circle cx="32" cy="32" r="3" fill="#1a1a1a"/></svg><text x="138" y="83" font-size="7.5" font-family="system-ui, -apple-system, Segoe UI, sans-serif" text-anchor="middle" fill="#78716c">ceiling-light</text><svg x="196" y="18" width="52" height="52" viewBox="0 0 64 64" xmlns="http://www.w3.org/2000/svg" fill="none" stroke="#000" stroke-width="2"><rect x="12" y="20" width="40" height="24"/><path d="M12 20 H52 V44 Z" fill="#1a1a1a" stroke="none"/></svg><text x="222" y="83" font-size="7.5" font-family="system-ui, -apple-system, Segoe UI, sans-serif" text-anchor="middle" fill="#78716c">distribution-board</text><svg x="280" y="18" width="52" height="52" viewBox="0 0 64 64" xmlns="http://www.w3.org/2000/svg" fill="none" stroke="#000" stroke-width="2"><path d="M20 38 A12 14 0 0 1 44 38 Z"/><line x1="20" y1="38" x2="44" y2="38"/><circle cx="32" cy="42" r="2.5"/></svg><text x="306" y="83" font-size="7.5" font-family="system-ui, -apple-system, Segoe UI, sans-serif" text-anchor="middle" fill="#78716c">doorbell</text><svg x="364" y="18" width="52" height="52" viewBox="0 0 64 64" xmlns="http://www.w3.org/2000/svg" fill="none" stroke="#000" stroke-width="2"><circle cx="32" cy="32" r="12"/><text x="32" y="37" font-size="11" font-weight="bold" text-anchor="middle" fill="#000" stroke="none">DL</text></svg><text x="390" y="83" font-size="7.5" font-family="system-ui, -apple-system, Segoe UI, sans-serif" text-anchor="middle" fill="#78716c">downlight</text><svg x="448" y="18" width="52" height="52" viewBox="0 0 64 64" xmlns="http://www.w3.org/2000/svg" fill="none" stroke="#000" stroke-width="2"><rect x="6" y="27" width="52" height="10" rx="5"/></svg><text x="474" y="83" font-size="7.5" font-family="system-ui, -apple-system, Segoe UI, sans-serif" text-anchor="middle" fill="#78716c">fluorescent</text><svg x="532" y="18" width="52" height="52" viewBox="0 0 64 64" xmlns="http://www.w3.org/2000/svg" fill="none" stroke="#000" stroke-width="2"><circle cx="32" cy="32" r="10"/><circle cx="32" cy="32" r="3" fill="#1a1a1a"/></svg><text x="558" y="83" font-size="7.5" font-family="system-ui, -apple-system, Segoe UI, sans-serif" text-anchor="middle" fill="#78716c">junction-box</text><svg x="616" y="18" width="52" height="52" viewBox="0 0 64 64" xmlns="http://www.w3.org/2000/svg" fill="none" stroke="#000" stroke-width="2"><circle cx="32" cy="32" r="13"/><line x1="27" y1="26" x2="27" y2="38"/><line x1="37" y1="26" x2="37" y2="38"/><text x="50" y="24" font-size="12" font-weight="bold" text-anchor="middle" fill="#000" stroke="none">2</text></svg><text x="642" y="83" font-size="7.5" font-family="system-ui, -apple-system, Segoe UI, sans-serif" text-anchor="middle" fill="#78716c">outlet-double</text><svg x="28" y="116" width="52" height="52" viewBox="0 0 64 64" xmlns="http://www.w3.org/2000/svg" fill="none" stroke="#000" stroke-width="2"><circle cx="32" cy="32" r="13"/><line x1="27" y1="26" x2="27" y2="38"/><line x1="37" y1="26" x2="37" y2="38"/><text x="50" y="24" font-size="12" font-weight="bold" text-anchor="middle" fill="#000" stroke="none">E</text></svg><text x="54" y="181" font-size="7.5" font-family="system-ui, -apple-system, Segoe UI, sans-serif" text-anchor="middle" fill="#78716c">outlet-earthed</text><svg x="112" y="116" width="52" height="52" viewBox="0 0 64 64" xmlns="http://www.w3.org/2000/svg" fill="none" stroke="#000" stroke-width="2"><circle cx="32" cy="32" r="13"/><line x1="27" y1="26" x2="27" y2="38"/><line x1="37" y1="26" x2="37" y2="38"/></svg><text x="138" y="181" font-size="7.5" font-family="system-ui, -apple-system, Segoe UI, sans-serif" text-anchor="middle" fill="#78716c">outlet</text><svg x="196" y="116" width="52" height="52" viewBox="0 0 64 64" xmlns="http://www.w3.org/2000/svg" fill="none" stroke="#000" stroke-width="2"><circle cx="32" cy="32" r="13"/><text x="32" y="37" font-size="12" font-weight="bold" text-anchor="middle" fill="#000" stroke="none">T</text></svg><text x="222" y="181" font-size="7.5" font-family="system-ui, -apple-system, Segoe UI, sans-serif" text-anchor="middle" fill="#78716c">phone-outlet</text><svg x="280" y="116" width="52" height="52" viewBox="0 0 64 64" xmlns="http://www.w3.org/2000/svg" fill="none" stroke="#000" stroke-width="2"><circle cx="32" cy="32" r="6" fill="#1a1a1a"/><text x="44" y="28" font-size="12" font-weight="bold" text-anchor="middle" fill="#000" stroke="none">3</text></svg><text x="306" y="181" font-size="7.5" font-family="system-ui, -apple-system, Segoe UI, sans-serif" text-anchor="middle" fill="#78716c">switch-3way</text><svg x="364" y="116" width="52" height="52" viewBox="0 0 64 64" xmlns="http://www.w3.org/2000/svg" fill="none" stroke="#000" stroke-width="2"><circle cx="32" cy="32" r="6" fill="#1a1a1a"/></svg><text x="390" y="181" font-size="7.5" font-family="system-ui, -apple-system, Segoe UI, sans-serif" text-anchor="middle" fill="#78716c">switch</text><svg x="448" y="116" width="52" height="52" viewBox="0 0 64 64" xmlns="http://www.w3.org/2000/svg" fill="none" stroke="#000" stroke-width="2"><circle cx="32" cy="32" r="13"/><text x="32" y="37" font-size="11" font-weight="bold" text-anchor="middle" fill="#000" stroke="none">TV</text></svg><text x="474" y="181" font-size="7.5" font-family="system-ui, -apple-system, Segoe UI, sans-serif" text-anchor="middle" fill="#78716c">tv-outlet</text></svg>
