<svg viewBox="0 0 696 318" width="696" xmlns="http://www.w3.org/2000/svg"><rect x="0" y="0" width="696" height="318" rx="8" fill="#ffffff" stroke="#d6d3cd"/><svg x="28" y="18" width="52" height="52" viewBox="0 0 64 64" xmlns="http://www.w3.org/2000/svg" fill="none" stroke="#000" stroke-width="2"><line x1="6" y1="22" x2="58" y2="22"/><line x1="6" y1="46" x2="58" y2="46"/><line x1="6" y1="30" x2="58" y2="30" stroke-dasharray="5 4"/><text x="32" y="60" font-size="8" font-weight="bold" text-anchor="middle" fill="#000" stroke="none">L ELEVATION</text></svg><text x="54" y="83" font-size="7.5" font-family="system-ui, -apple-system, Segoe UI, sans-serif" text-anchor="middle" fill="#78716c">angle-elevation</text><svg x="112" y="18" width="52" height="52" viewBox="0 0 64 64" xmlns="http://www.w3.org/2000/svg" fill="none" stroke="#000" stroke-width="2"><path d="M18 8 H48 V16 H28 V48 H48 V56 H18 Z" fill="#1a1a1a" stroke="#000" stroke-width="1"/><text x="32" y="63" font-size="9" font-weight="bold" text-anchor="middle" fill="#000" stroke="none">C</text></svg><text x="138" y="83" font-size="7.5" font-family="system-ui, -apple-system, Segoe UI, sans-serif" text-anchor="middle" fill="#78716c">c-channel</text><svg x="196" y="18" width="52" height="52" viewBox="0 0 64 64" xmlns="http://www.w3.org/2000/svg" fill="none" stroke="#000" stroke-width="2"><line x1="6" y1="16" x2="58" y2="16"/><line x1="6" y1="22" x2="58" y2="22"/><line x1="6" y1="46" x2="58" y2="46"/><text x="32" y="60" font-size="8" font-weight="bold" text-anchor="middle" fill="#000" stroke="none">C ELEVATION</text></svg><text x="222" y="83" font-size="7.5" font-family="system-ui, -apple-system, Segoe UI, sans-serif" text-anchor="middle" fill="#78716c">channel-elevation</text><svg x="280" y="18" width="52" height="52" viewBox="0 0 64 64" xmlns="http://www.w3.org/2000/svg" fill="none" stroke="#000" stroke-width="2"><line x1="6" y1="16" x2="58" y2="16"/><line x1="6" y1="46" x2="58" y2="46"/><line x1="6" y1="22" x2="58" y2="22" stroke-dasharray="5 4"/><line x1="6" y1="40" x2="58" y2="40" stroke-dasharray="5 4"/><text x="32" y="60" font-size="8" font-weight="bold" text-anchor="middle" fill="#000" stroke="none">HSS ELEVATION</text></svg><text x="306" y="83" font-size="7.5" font-family="system-ui, -apple-system, Segoe UI, sans-serif" text-anchor="middle" fill="#78716c">hollow-section-elevation</text><svg x="364" y="18" width="52" height="52" viewBox="0 0 64 64" xmlns="http://www.w3.org/2000/svg" fill="none" stroke="#000" stroke-width="2"><path d="M10 10 H54 V18 H37 V46 H54 V54 H10 V46 H27 V18 H10 Z" fill="#1a1a1a" stroke="#000" stroke-width="1"/><text x="32" y="63" font-size="9" font-weight="bold" text-anchor="middle" fill="#000" stroke="none">HP</text></svg><text x="390" y="83" font-size="7.5" font-family="system-ui, -apple-system, Segoe UI, sans-serif" text-anchor="middle" fill="#78716c">hp-shape</text><svg x="448" y="18" width="52" height="52" viewBox="0 0 64 64" xmlns="http://www.w3.org/2000/svg" fill="none" stroke="#000" stroke-width="2"><path d="M8 18 h48 v28 h-48 Z M16 26 h32 v12 h-32 Z" fill="#1a1a1a" fill-rule="evenodd" stroke="#000" stroke-width="1"/><text x="32" y="12" font-size="8" font-weight="bold" text-anchor="middle" fill="#000" stroke="none">HSS</text></svg><text x="474" y="83" font-size="7.5" font-family="system-ui, -apple-system, Segoe UI, sans-serif" text-anchor="middle" fill="#78716c">hss-rect</text><svg x="532" y="18" width="52" height="52" viewBox="0 0 64 64" xmlns="http://www.w3.org/2000/svg" fill="none" stroke="#000" stroke-width="2"><circle cx="32" cy="34" r="20" fill="#1a1a1a" stroke="#000" stroke-width="1"/><circle cx="32" cy="34" r="13" fill="#fff" stroke="none"/><text x="32" y="10" font-size="8" font-weight="bold" text-anchor="middle" fill="#000" stroke="none">HSS</text></svg><text x="558" y="83" font-size="7.5" font-family="system-ui, -apple-system, Segoe UI, sans-serif" text-anchor="middle" fill="#78716c">hss-round</text><svg x="616" y="18" width="52" height="52" viewBox="0 0 64 64" xmlns="http://www.w3.org/2000/svg" fill="none" stroke="#000" stroke-width="2"><path d="M12 12 h40 v40 h-40 Z M20 20 h24 v24 h-24 Z" fill="#1a1a1a" fill-rule="evenodd" stroke="#000" stroke-width="1"/><text x="32" y="10" font-size="8" font-weight="bold" text-anchor="middle" fill="#000" stroke="none">HSS</text></svg><text x="642" y="83" font-size="7.5" font-family="system-ui, -apple-system, Segoe UI, sans-serif" text-anchor="middle" fill="#78716c">hss-square</text><svg x="28" y="116" width="52" height="52" viewBox="0 0 64 64" xmlns="http://www.w3.org/2000/svg" fill="none" stroke="#000" stroke-width="2"><line x1="6" y1="16" x2="58" y2="16"/><line x1="6" y1="22" x2="58" y2="22"/><line x1="6" y1="40" x2="58" y2="40"/><line x1="6" y1="46" x2="58" y2="46"/><text x="32" y="60" font-size="8" font-weight="bold" text-anchor="middle" fill="#000" stroke="none">I ELEVATION</text></svg><text x="54" y="181" font-size="7.5" font-family="system-ui, -apple-system, Segoe UI, sans-serif" text-anchor="middle" fill="#78716c">i-beam-elevation</text><svg x="112" y="116" width="52" height="52" viewBox="0 0 64 64" xmlns="http://www.w3.org/2000/svg" fill="none" stroke="#000" stroke-width="2"><path d="M16 8 V56 H56 V48 H24 V8 Z" fill="#1a1a1a" stroke="#000" stroke-width="1"/><text x="40" y="30" font-size="9" font-weight="bold" text-anchor="middle" fill="#000" stroke="none">L</text></svg><text x="138" y="181" font-size="7.5" font-family="system-ui, -apple-system, Segoe UI, sans-serif" text-anchor="middle" fill="#78716c">l-angle-equal</text><svg x="196" y="116" width="52" height="52" viewBox="0 0 64 64" xmlns="http://www.w3.org/2000/svg" fill="none" stroke="#000" stroke-width="2"><path d="M16 16 V56 H58 V48 H24 V16 Z" fill="#1a1a1a" stroke="#000" stroke-width="1"/><text x="40" y="36" font-size="9" font-weight="bold" text-anchor="middle" fill="#000" stroke="none">L</text></svg><text x="222" y="181" font-size="7.5" font-family="system-ui, -apple-system, Segoe UI, sans-serif" text-anchor="middle" fill="#78716c">l-angle-unequal</text><svg x="280" y="116" width="52" height="52" viewBox="0 0 64 64" xmlns="http://www.w3.org/2000/svg" fill="none" stroke="#000" stroke-width="2"><circle cx="32" cy="34" r="18" fill="#1a1a1a" stroke="#000" stroke-width="1"/><circle cx="32" cy="34" r="12" fill="#fff" stroke="none"/><text x="32" y="10" font-size="8" font-weight="bold" text-anchor="middle" fill="#000" stroke="none">PIPE</text></svg><text x="306" y="181" font-size="7.5" font-family="system-ui, -apple-system, Segoe UI, sans-serif" text-anchor="middle" fill="#78716c">pipe</text><svg x="364" y="116" width="52" height="52" viewBox="0 0 64 64" xmlns="http://www.w3.org/2000/svg" fill="none" stroke="#000" stroke-width="2"><path d="M8 28 H56 V40 H8 Z" fill="#1a1a1a" stroke="#000" stroke-width="1"/><text x="32" y="56" font-size="9" font-weight="bold" text-anchor="middle" fill="#000" stroke="none">PL</text></svg><text x="390" y="181" font-size="7.5" font-family="system-ui, -apple-system, Segoe UI, sans-serif" text-anchor="middle" fill="#78716c">plate</text><svg x="448" y="116" width="52" height="52" viewBox="0 0 64 64" xmlns="http://www.w3.org/2000/svg" fill="none" stroke="#000" stroke-width="2"><path d="M16 8 H48 V16 H36 V48 H48 V56 H16 V48 H28 V16 H16 Z" fill="#1a1a1a" stroke="#000" stroke-width="1"/><text x="32" y="63" font-size="9" font-weight="bold" text-anchor="middle" fill="#000" stroke="none">S</text></svg><text x="474" y="181" font-size="7.5" font-family="system-ui, -apple-system, Segoe UI, sans-serif" text-anchor="middle" fill="#78716c">s-shape</text><svg x="532" y="116" width="52" height="52" viewBox="0 0 64 64" xmlns="http://www.w3.org/2000/svg" fill="none" stroke="#000" stroke-width="2"><line x1="6" y1="16" x2="58" y2="16"/><line x1="6" y1="22" x2="58" y2="22"/><line x1="6" y1="44" x2="58" y2="44" stroke-dasharray="5 4"/><text x="32" y="60" font-size="8" font-weight="bold" text-anchor="middle" fill="#000" stroke="none">T ELEVATION</text></svg><text x="558" y="181" font-size="7.5" font-family="system-ui, -apple-system, Segoe UI, sans-serif" text-anchor="middle" fill="#78716c">tee-elevation</text><svg x="616" y="116" width="52" height="52" viewBox="0 0 64 64" xmlns="http://www.w3.org/2000/svg" fill="none" stroke="#000" stroke-width="2"><path d="M10 8 H54 V16 H36 V48 H54 V56 H10 V48 H28 V16 H10 Z" fill="#1a1a1a" stroke="#000" stroke-width="1"/><text x="32" y="63" font-size="9" font-weight="bold" text-anchor="middle" fill="#000" stroke="none">W</text></svg><text x="642" y="181" font-size="7.5" font-family="system-ui, -apple-system, Segoe UI, sans-serif" text-anchor="middle" fill="#78716c">w-shape</text><svg x="28" y="214" width="52" height="52" viewBox="0 0 64 64" xmlns="http://www.w3.org/2000/svg" fill="none" stroke="#000" stroke-width="2"><path d="M10 12 H54 V20 H36 V52 H28 V20 H10 Z" fill="#1a1a1a" stroke="#000" stroke-width="1"/><text x="32" y="63" font-size="9" font-weight="bold" text-anchor="middle" fill="#000" stroke="none">WT</text></svg><text x="54" y="279" font-size="7.5" font-family="system-ui, -apple-system, Segoe UI, sans-serif" text-anchor="middle" fill="#78716c">wt-tee</text></svg>
