<svg viewBox="0 0 696 220" width="696" xmlns="http://www.w3.org/2000/svg"><rect x="0" y="0" width="696" height="220" rx="8" fill="#ffffff" stroke="#d6d3cd"/><svg x="28" y="18" width="52" height="52" viewBox="0 0 64 64" xmlns="http://www.w3.org/2000/svg" fill="none" stroke="#000" stroke-width="1.5" stroke-linecap="round" stroke-linejoin="round"><title>Russian steel shapes (GOST): angle-elevation</title><desc>Schematisch aanzicht met voorbeeldlengte 4 maal de profielhoogte.</desc><rect x="6" y="25.5" width="52" height="13"/><line x1="6" y1="26.638" x2="58" y2="26.638"/><g stroke-width="0.7" stroke-dasharray="5 2 1 2"><line x1="6" y1="32" x2="58" y2="32"/><line x1="32" y1="6" x2="32" y2="58"/></g></svg><text x="54" y="83" font-size="7.5" font-family="system-ui, -apple-system, Segoe UI, sans-serif" text-anchor="middle" fill="#78716c">angle-elevation</text><svg x="112" y="18" width="52" height="52" viewBox="0 0 64 64" xmlns="http://www.w3.org/2000/svg" fill="none" stroke="#000" stroke-width="1.5" stroke-linecap="round" stroke-linejoin="round"><title>Russian steel shapes (GOST): channel-elevation</title><desc>Schematisch aanzicht met voorbeeldlengte 4 maal de profielhoogte.</desc><rect x="6" y="25.5" width="52" height="13"/><line x1="6" y1="26.2" x2="58" y2="26.2"/><line x1="6" y1="37.8" x2="58" y2="37.8"/><g stroke-width="0.7" stroke-dasharray="5 2 1 2"><line x1="6" y1="32" x2="58" y2="32"/><line x1="32" y1="6" x2="32" y2="58"/></g></svg><text x="138" y="83" font-size="7.5" font-family="system-ui, -apple-system, Segoe UI, sans-serif" text-anchor="middle" fill="#78716c">channel-elevation</text><svg x="196" y="18" width="52" height="52" viewBox="0 0 64 64" xmlns="http://www.w3.org/2000/svg" fill="none" stroke="#000" stroke-width="1.5" stroke-linecap="round" stroke-linejoin="round"><title>Russian steel shapes (GOST): chs</title><desc>Catalogusgedreven doorsnede; vorm pipe.</desc><g stroke-width="0.7" stroke-dasharray="5 2 1 2"><line x1="6" y1="32" x2="58" y2="32"/><line x1="32" y1="6" x2="32" y2="58"/></g><circle cx="32" cy="32" r="26"/><circle cx="32" cy="32" r="23.075"/></svg><text x="222" y="83" font-size="7.5" font-family="system-ui, -apple-system, Segoe UI, sans-serif" text-anchor="middle" fill="#78716c">chs</text><svg x="280" y="18" width="52" height="52" viewBox="0 0 64 64" xmlns="http://www.w3.org/2000/svg" fill="none" stroke="#000" stroke-width="1.5" stroke-linecap="round" stroke-linejoin="round"><title>Russian steel shapes (GOST): dvutavr-b</title><desc>Catalogusgedreven doorsnede; vorm i.</desc><g stroke-width="0.7" stroke-dasharray="5 2 1 2"><line x1="6" y1="32" x2="58" y2="32"/><line x1="32" y1="6" x2="32" y2="58"/></g><path d="M19 6 L45 6 L45 8.184 L35.146 8.184 A2.47 2.47 0 0 0 32.676 10.654 L32.676 53.346 A2.47 2.47 0 0 0 35.146 55.816 L45 55.816 L45 58 L19 58 L19 55.816 L28.854 55.816 A2.47 2.47 0 0 0 31.324 53.346 L31.324 10.654 A2.47 2.47 0 0 0 28.854 8.184 L19 8.184 Z"/></svg><text x="306" y="83" font-size="7.5" font-family="system-ui, -apple-system, Segoe UI, sans-serif" text-anchor="middle" fill="#78716c">dvutavr-b</text><svg x="364" y="18" width="52" height="52" viewBox="0 0 64 64" xmlns="http://www.w3.org/2000/svg" fill="none" stroke="#000" stroke-width="1.5" stroke-linecap="round" stroke-linejoin="round"><title>Russian steel shapes (GOST): dvutavr-k</title><desc>Catalogusgedreven doorsnede; vorm i.</desc><g stroke-width="0.7" stroke-dasharray="5 2 1 2"><line x1="6" y1="32" x2="58" y2="32"/><line x1="32" y1="6" x2="32" y2="58"/></g><path d="M19 6 L45 6 L45 8.184 L35.146 8.184 A2.47 2.47 0 0 0 32.676 10.654 L32.676 53.346 A2.47 2.47 0 0 0 35.146 55.816 L45 55.816 L45 58 L19 58 L19 55.816 L28.854 55.816 A2.47 2.47 0 0 0 31.324 53.346 L31.324 10.654 A2.47 2.47 0 0 0 28.854 8.184 L19 8.184 Z"/></svg><text x="390" y="83" font-size="7.5" font-family="system-ui, -apple-system, Segoe UI, sans-serif" text-anchor="middle" fill="#78716c">dvutavr-k</text><svg x="448" y="18" width="52" height="52" viewBox="0 0 64 64" xmlns="http://www.w3.org/2000/svg" fill="none" stroke="#000" stroke-width="1.5" stroke-linecap="round" stroke-linejoin="round"><title>Russian steel shapes (GOST): dvutavr-sh</title><desc>Catalogusgedreven doorsnede; vorm i.</desc><g stroke-width="0.7" stroke-dasharray="5 2 1 2"><line x1="6" y1="32" x2="58" y2="32"/><line x1="32" y1="6" x2="32" y2="58"/></g><path d="M19 6 L45 6 L45 8.184 L35.146 8.184 A2.47 2.47 0 0 0 32.676 10.654 L32.676 53.346 A2.47 2.47 0 0 0 35.146 55.816 L45 55.816 L45 58 L19 58 L19 55.816 L28.854 55.816 A2.47 2.47 0 0 0 31.324 53.346 L31.324 10.654 A2.47 2.47 0 0 0 28.854 8.184 L19 8.184 Z"/></svg><text x="474" y="83" font-size="7.5" font-family="system-ui, -apple-system, Segoe UI, sans-serif" text-anchor="middle" fill="#78716c">dvutavr-sh</text><svg x="532" y="18" width="52" height="52" viewBox="0 0 64 64" xmlns="http://www.w3.org/2000/svg" fill="none" stroke="#000" stroke-width="1.5" stroke-linecap="round" stroke-linejoin="round"><title>Russian steel shapes (GOST): hollow-section-elevation</title><desc>Schematisch aanzicht met voorbeeldlengte 4 maal de profielhoogte.</desc><rect x="6" y="25.5" width="52" height="13"/><rect x="6.813" y="26.313" width="50.375" height="11.375"/><g stroke-width="0.7" stroke-dasharray="5 2 1 2"><line x1="6" y1="32" x2="58" y2="32"/><line x1="32" y1="6" x2="32" y2="58"/></g></svg><text x="558" y="83" font-size="7.5" font-family="system-ui, -apple-system, Segoe UI, sans-serif" text-anchor="middle" fill="#78716c">hollow-section-elevation</text><svg x="616" y="18" width="52" height="52" viewBox="0 0 64 64" xmlns="http://www.w3.org/2000/svg" fill="none" stroke="#000" stroke-width="1.5" stroke-linecap="round" stroke-linejoin="round"><title>Russian steel shapes (GOST): i-beam-elevation</title><desc>Schematisch aanzicht met voorbeeldlengte 4 maal de profielhoogte.</desc><rect x="6" y="25.5" width="52" height="13"/><line x1="6" y1="26.2" x2="58" y2="26.2"/><line x1="6" y1="37.8" x2="58" y2="37.8"/><g stroke-width="0.7" stroke-dasharray="5 2 1 2"><line x1="6" y1="32" x2="58" y2="32"/><line x1="32" y1="6" x2="32" y2="58"/></g></svg><text x="642" y="83" font-size="7.5" font-family="system-ui, -apple-system, Segoe UI, sans-serif" text-anchor="middle" fill="#78716c">i-beam-elevation</text><svg x="28" y="116" width="52" height="52" viewBox="0 0 64 64" xmlns="http://www.w3.org/2000/svg" fill="none" stroke="#000" stroke-width="1.5" stroke-linecap="round" stroke-linejoin="round"><title>Russian steel shapes (GOST): plate</title><desc>Catalogusgedreven doorsnede; vorm plate.</desc><g stroke-width="0.7" stroke-dasharray="5 2 1 2"><line x1="6" y1="32" x2="58" y2="32"/><line x1="32" y1="6" x2="32" y2="58"/></g><rect x="6" y="29.4" width="52" height="5.2"/></svg><text x="54" y="181" font-size="7.5" font-family="system-ui, -apple-system, Segoe UI, sans-serif" text-anchor="middle" fill="#78716c">plate</text><svg x="112" y="116" width="52" height="52" viewBox="0 0 64 64" xmlns="http://www.w3.org/2000/svg" fill="none" stroke="#000" stroke-width="1.5" stroke-linecap="round" stroke-linejoin="round"><title>Russian steel shapes (GOST): rhs</title><desc>Catalogusgedreven doorsnede; vorm box.</desc><g stroke-width="0.7" stroke-dasharray="5 2 1 2"><line x1="6" y1="32" x2="58" y2="32"/><line x1="32" y1="6" x2="32" y2="58"/></g><rect x="6" y="12.5" width="52" height="39" rx="5.85"/><rect x="9.25" y="15.75" width="45.5" height="32.5" rx="2.6"/></svg><text x="138" y="181" font-size="7.5" font-family="system-ui, -apple-system, Segoe UI, sans-serif" text-anchor="middle" fill="#78716c">rhs</text><svg x="196" y="116" width="52" height="52" viewBox="0 0 64 64" xmlns="http://www.w3.org/2000/svg" fill="none" stroke="#000" stroke-width="1.5" stroke-linecap="round" stroke-linejoin="round"><title>Russian steel shapes (GOST): shs</title><desc>Catalogusgedreven doorsnede; vorm box.</desc><g stroke-width="0.7" stroke-dasharray="5 2 1 2"><line x1="6" y1="32" x2="58" y2="32"/><line x1="32" y1="6" x2="32" y2="58"/></g><rect x="6" y="6" width="52" height="52" rx="5.85"/><rect x="9.25" y="9.25" width="45.5" height="45.5" rx="2.6"/></svg><text x="222" y="181" font-size="7.5" font-family="system-ui, -apple-system, Segoe UI, sans-serif" text-anchor="middle" fill="#78716c">shs</text><svg x="280" y="116" width="52" height="52" viewBox="0 0 64 64" xmlns="http://www.w3.org/2000/svg" fill="none" stroke="#000" stroke-width="1.5" stroke-linecap="round" stroke-linejoin="round"><title>Russian steel shapes (GOST): shveller</title><desc>Catalogusgedreven doorsnede; vorm u.</desc><g stroke-width="0.7" stroke-dasharray="5 2 1 2"><line x1="6" y1="32" x2="58" y2="32"/><line x1="32" y1="6" x2="32" y2="58"/></g><path d="M22.12 6 L41.88 6 L41.88 8.34 L25.942 8.34 A2.47 2.47 0 0 0 23.472 10.81 L23.472 53.19 A2.47 2.47 0 0 0 25.942 55.66 L41.88 55.66 L41.88 58 L22.12 58 Z"/></svg><text x="306" y="181" font-size="7.5" font-family="system-ui, -apple-system, Segoe UI, sans-serif" text-anchor="middle" fill="#78716c">shveller</text><svg x="364" y="116" width="52" height="52" viewBox="0 0 64 64" xmlns="http://www.w3.org/2000/svg" fill="none" stroke="#000" stroke-width="1.5" stroke-linecap="round" stroke-linejoin="round"><title>Russian steel shapes (GOST): tee-elevation</title><desc>Schematisch aanzicht met voorbeeldlengte 4 maal de profielhoogte.</desc><rect x="6" y="25.5" width="52" height="13"/><line x1="6" y1="26.511" x2="58" y2="26.511"/><g stroke-width="0.7" stroke-dasharray="5 2 1 2"><line x1="6" y1="32" x2="58" y2="32"/><line x1="32" y1="6" x2="32" y2="58"/></g></svg><text x="390" y="181" font-size="7.5" font-family="system-ui, -apple-system, Segoe UI, sans-serif" text-anchor="middle" fill="#78716c">tee-elevation</text><svg x="448" y="116" width="52" height="52" viewBox="0 0 64 64" xmlns="http://www.w3.org/2000/svg" fill="none" stroke="#000" stroke-width="1.5" stroke-linecap="round" stroke-linejoin="round"><title>Russian steel shapes (GOST): ugolok-equal</title><desc>Catalogusgedreven doorsnede; vorm angle.</desc><g stroke-width="0.7" stroke-dasharray="5 2 1 2"><line x1="6" y1="32" x2="58" y2="32"/><line x1="32" y1="6" x2="32" y2="58"/></g><path d="M6 6 L10.55 6 L10.55 49.875 A3.575 3.575 0 0 0 14.125 53.45 L58 53.45 L58 58 L6 58 Z"/></svg><text x="474" y="181" font-size="7.5" font-family="system-ui, -apple-system, Segoe UI, sans-serif" text-anchor="middle" fill="#78716c">ugolok-equal</text><svg x="532" y="116" width="52" height="52" viewBox="0 0 64 64" xmlns="http://www.w3.org/2000/svg" fill="none" stroke="#000" stroke-width="1.5" stroke-linecap="round" stroke-linejoin="round"><title>Russian steel shapes (GOST): ugolok-unequal</title><desc>Catalogusgedreven doorsnede; vorm angle.</desc><g stroke-width="0.7" stroke-dasharray="5 2 1 2"><line x1="6" y1="32" x2="58" y2="32"/><line x1="32" y1="6" x2="32" y2="58"/></g><path d="M14.938 6 L19.487 6 L19.487 49.875 A3.575 3.575 0 0 0 23.063 53.45 L49.063 53.45 L49.063 58 L14.938 58 Z"/></svg><text x="558" y="181" font-size="7.5" font-family="system-ui, -apple-system, Segoe UI, sans-serif" text-anchor="middle" fill="#78716c">ugolok-unequal</text></svg>
