<svg viewBox="0 0 696 220" width="696" xmlns="http://www.w3.org/2000/svg"><rect x="0" y="0" width="696" height="220" rx="8" fill="#ffffff" stroke="#d6d3cd"/><svg x="28" y="18" width="52" height="52" viewBox="0 0 64 64" xmlns="http://www.w3.org/2000/svg" fill="none" stroke="#000" stroke-width="1.5" stroke-linecap="round" stroke-linejoin="round"><title>Japanese steel shapes (JIS): angle-elevation</title><desc>Schematisch aanzicht met voorbeeldlengte 4 maal de profielhoogte.</desc><rect x="6" y="25.5" width="52" height="13"/><line x1="6" y1="26.638" x2="58" y2="26.638"/><g stroke-width="0.7" stroke-dasharray="5 2 1 2"><line x1="6" y1="32" x2="58" y2="32"/><line x1="32" y1="6" x2="32" y2="58"/></g></svg><text x="54" y="83" font-size="7.5" font-family="system-ui, -apple-system, Segoe UI, sans-serif" text-anchor="middle" fill="#78716c">angle-elevation</text><svg x="112" y="18" width="52" height="52" viewBox="0 0 64 64" xmlns="http://www.w3.org/2000/svg" fill="none" stroke="#000" stroke-width="1.5" stroke-linecap="round" stroke-linejoin="round"><title>Japanese steel shapes (JIS): angle-equal</title><desc>Catalogusgedreven doorsnede; vorm angle.</desc><g stroke-width="0.7" stroke-dasharray="5 2 1 2"><line x1="6" y1="32" x2="58" y2="32"/><line x1="32" y1="6" x2="32" y2="58"/></g><path d="M6 6 L10.55 6 L10.55 49.875 A3.575 3.575 0 0 0 14.125 53.45 L58 53.45 L58 58 L6 58 Z"/></svg><text x="138" y="83" font-size="7.5" font-family="system-ui, -apple-system, Segoe UI, sans-serif" text-anchor="middle" fill="#78716c">angle-equal</text><svg x="196" y="18" width="52" height="52" viewBox="0 0 64 64" xmlns="http://www.w3.org/2000/svg" fill="none" stroke="#000" stroke-width="1.5" stroke-linecap="round" stroke-linejoin="round"><title>Japanese steel shapes (JIS): angle-unequal</title><desc>Catalogusgedreven doorsnede; vorm angle.</desc><g stroke-width="0.7" stroke-dasharray="5 2 1 2"><line x1="6" y1="32" x2="58" y2="32"/><line x1="32" y1="6" x2="32" y2="58"/></g><path d="M14.938 6 L19.487 6 L19.487 49.875 A3.575 3.575 0 0 0 23.063 53.45 L49.063 53.45 L49.063 58 L14.938 58 Z"/></svg><text x="222" y="83" font-size="7.5" font-family="system-ui, -apple-system, Segoe UI, sans-serif" text-anchor="middle" fill="#78716c">angle-unequal</text><svg x="280" y="18" width="52" height="52" viewBox="0 0 64 64" xmlns="http://www.w3.org/2000/svg" fill="none" stroke="#000" stroke-width="1.5" stroke-linecap="round" stroke-linejoin="round"><title>Japanese steel shapes (JIS): channel-elevation</title><desc>Schematisch aanzicht met voorbeeldlengte 4 maal de profielhoogte.</desc><rect x="6" y="25.5" width="52" height="13"/><line x1="6" y1="26.215" x2="58" y2="26.215"/><line x1="6" y1="37.785" x2="58" y2="37.785"/><g stroke-width="0.7" stroke-dasharray="5 2 1 2"><line x1="6" y1="32" x2="58" y2="32"/><line x1="32" y1="6" x2="32" y2="58"/></g></svg><text x="306" y="83" font-size="7.5" font-family="system-ui, -apple-system, Segoe UI, sans-serif" text-anchor="middle" fill="#78716c">channel-elevation</text><svg x="364" y="18" width="52" height="52" viewBox="0 0 64 64" xmlns="http://www.w3.org/2000/svg" fill="none" stroke="#000" stroke-width="1.5" stroke-linecap="round" stroke-linejoin="round"><title>Japanese steel shapes (JIS): channel</title><desc>Catalogusgedreven doorsnede; vorm u.</desc><g stroke-width="0.7" stroke-dasharray="5 2 1 2"><line x1="6" y1="32" x2="58" y2="32"/><line x1="32" y1="6" x2="32" y2="58"/></g><path d="M21.6 6 L42.4 6 L42.4 8.86 L26.67 8.86 A3.12 3.12 0 0 0 23.55 11.98 L23.55 52.02 A3.12 3.12 0 0 0 26.67 55.14 L42.4 55.14 L42.4 58 L21.6 58 Z"/></svg><text x="390" y="83" font-size="7.5" font-family="system-ui, -apple-system, Segoe UI, sans-serif" text-anchor="middle" fill="#78716c">channel</text><svg x="448" y="18" width="52" height="52" viewBox="0 0 64 64" xmlns="http://www.w3.org/2000/svg" fill="none" stroke="#000" stroke-width="1.5" stroke-linecap="round" stroke-linejoin="round"><title>Japanese steel shapes (JIS): chs</title><desc>Catalogusgedreven doorsnede; vorm pipe.</desc><g stroke-width="0.7" stroke-dasharray="5 2 1 2"><line x1="6" y1="32" x2="58" y2="32"/><line x1="32" y1="6" x2="32" y2="58"/></g><circle cx="32" cy="32" r="26"/><circle cx="32" cy="32" r="23.075"/></svg><text x="474" y="83" font-size="7.5" font-family="system-ui, -apple-system, Segoe UI, sans-serif" text-anchor="middle" fill="#78716c">chs</text><svg x="532" y="18" width="52" height="52" viewBox="0 0 64 64" xmlns="http://www.w3.org/2000/svg" fill="none" stroke="#000" stroke-width="1.5" stroke-linecap="round" stroke-linejoin="round"><title>Japanese steel shapes (JIS): ct-tee</title><desc>Catalogusgedreven doorsnede; vorm tee.</desc><g stroke-width="0.7" stroke-dasharray="5 2 1 2"><line x1="6" y1="32" x2="58" y2="32"/><line x1="32" y1="6" x2="32" y2="58"/></g><path d="M8.889 6 L55.111 6 L55.111 10.044 L36.333 10.044 A2.889 2.889 0 0 0 33.444 12.933 L33.444 58 L30.556 58 L30.556 12.933 A2.889 2.889 0 0 0 27.667 10.044 L8.889 10.044 Z"/></svg><text x="558" y="83" font-size="7.5" font-family="system-ui, -apple-system, Segoe UI, sans-serif" text-anchor="middle" fill="#78716c">ct-tee</text><svg x="616" y="18" width="52" height="52" viewBox="0 0 64 64" xmlns="http://www.w3.org/2000/svg" fill="none" stroke="#000" stroke-width="1.5" stroke-linecap="round" stroke-linejoin="round"><title>Japanese steel shapes (JIS): h-shape-narrow</title><desc>Catalogusgedreven doorsnede; vorm i.</desc><g stroke-width="0.7" stroke-dasharray="5 2 1 2"><line x1="6" y1="32" x2="58" y2="32"/><line x1="32" y1="6" x2="32" y2="58"/></g><path d="M19 6 L45 6 L45 7.396 L34.748 7.396 A2.268 2.268 0 0 0 32.48 9.664 L32.48 54.336 A2.268 2.268 0 0 0 34.748 56.604 L45 56.604 L45 58 L19 58 L19 56.604 L29.252 56.604 A2.268 2.268 0 0 0 31.52 54.336 L31.52 9.664 A2.268 2.268 0 0 0 29.252 7.396 L19 7.396 Z"/></svg><text x="642" y="83" font-size="7.5" font-family="system-ui, -apple-system, Segoe UI, sans-serif" text-anchor="middle" fill="#78716c">h-shape-narrow</text><svg x="28" y="116" width="52" height="52" viewBox="0 0 64 64" xmlns="http://www.w3.org/2000/svg" fill="none" stroke="#000" stroke-width="1.5" stroke-linecap="round" stroke-linejoin="round"><title>Japanese steel shapes (JIS): h-shape-wide</title><desc>Catalogusgedreven doorsnede; vorm i.</desc><g stroke-width="0.7" stroke-dasharray="5 2 1 2"><line x1="6" y1="32" x2="58" y2="32"/><line x1="32" y1="6" x2="32" y2="58"/></g><path d="M6 6 L58 6 L58 8.6 L35.987 8.6 A3.12 3.12 0 0 0 32.867 11.72 L32.867 52.28 A3.12 3.12 0 0 0 35.987 55.4 L58 55.4 L58 58 L6 58 L6 55.4 L28.013 55.4 A3.12 3.12 0 0 0 31.133 52.28 L31.133 11.72 A3.12 3.12 0 0 0 28.013 8.6 L6 8.6 Z"/></svg><text x="54" y="181" font-size="7.5" font-family="system-ui, -apple-system, Segoe UI, sans-serif" text-anchor="middle" fill="#78716c">h-shape-wide</text><svg x="112" y="116" width="52" height="52" viewBox="0 0 64 64" xmlns="http://www.w3.org/2000/svg" fill="none" stroke="#000" stroke-width="1.5" stroke-linecap="round" stroke-linejoin="round"><title>Japanese steel shapes (JIS): hollow-section-elevation</title><desc>Schematisch aanzicht met voorbeeldlengte 4 maal de profielhoogte.</desc><rect x="6" y="25.5" width="52" height="13"/><rect x="6.813" y="26.313" width="50.375" height="11.375"/><g stroke-width="0.7" stroke-dasharray="5 2 1 2"><line x1="6" y1="32" x2="58" y2="32"/><line x1="32" y1="6" x2="32" y2="58"/></g></svg><text x="138" y="181" font-size="7.5" font-family="system-ui, -apple-system, Segoe UI, sans-serif" text-anchor="middle" fill="#78716c">hollow-section-elevation</text><svg x="196" y="116" width="52" height="52" viewBox="0 0 64 64" xmlns="http://www.w3.org/2000/svg" fill="none" stroke="#000" stroke-width="1.5" stroke-linecap="round" stroke-linejoin="round"><title>Japanese steel shapes (JIS): i-beam-elevation</title><desc>Schematisch aanzicht met voorbeeldlengte 4 maal de profielhoogte.</desc><rect x="6" y="25.5" width="52" height="13"/><line x1="6" y1="26.2" x2="58" y2="26.2"/><line x1="6" y1="37.8" x2="58" y2="37.8"/><g stroke-width="0.7" stroke-dasharray="5 2 1 2"><line x1="6" y1="32" x2="58" y2="32"/><line x1="32" y1="6" x2="32" y2="58"/></g></svg><text x="222" y="181" font-size="7.5" font-family="system-ui, -apple-system, Segoe UI, sans-serif" text-anchor="middle" fill="#78716c">i-beam-elevation</text><svg x="280" y="116" width="52" height="52" viewBox="0 0 64 64" xmlns="http://www.w3.org/2000/svg" fill="none" stroke="#000" stroke-width="1.5" stroke-linecap="round" stroke-linejoin="round"><title>Japanese steel shapes (JIS): i-beam</title><desc>Catalogusgedreven doorsnede; vorm i.</desc><g stroke-width="0.7" stroke-dasharray="5 2 1 2"><line x1="6" y1="32" x2="58" y2="32"/><line x1="32" y1="6" x2="32" y2="58"/></g><path d="M14.313 6 L49.687 6 L49.687 8.122 L35.891 8.122 A3.184 3.184 0 0 0 32.707 11.306 L32.707 52.694 A3.184 3.184 0 0 0 35.891 55.878 L49.687 55.878 L49.687 58 L14.313 58 L14.313 55.878 L28.109 55.878 A3.184 3.184 0 0 0 31.293 52.694 L31.293 11.306 A3.184 3.184 0 0 0 28.109 8.122 L14.313 8.122 Z"/></svg><text x="306" y="181" font-size="7.5" font-family="system-ui, -apple-system, Segoe UI, sans-serif" text-anchor="middle" fill="#78716c">i-beam</text><svg x="364" y="116" width="52" height="52" viewBox="0 0 64 64" xmlns="http://www.w3.org/2000/svg" fill="none" stroke="#000" stroke-width="1.5" stroke-linecap="round" stroke-linejoin="round"><title>Japanese steel shapes (JIS): plate</title><desc>Catalogusgedreven doorsnede; vorm plate.</desc><g stroke-width="0.7" stroke-dasharray="5 2 1 2"><line x1="6" y1="32" x2="58" y2="32"/><line x1="32" y1="6" x2="32" y2="58"/></g><rect x="6" y="29.4" width="52" height="5.2"/></svg><text x="390" y="181" font-size="7.5" font-family="system-ui, -apple-system, Segoe UI, sans-serif" text-anchor="middle" fill="#78716c">plate</text><svg x="448" y="116" width="52" height="52" viewBox="0 0 64 64" xmlns="http://www.w3.org/2000/svg" fill="none" stroke="#000" stroke-width="1.5" stroke-linecap="round" stroke-linejoin="round"><title>Japanese steel shapes (JIS): rhs</title><desc>Catalogusgedreven doorsnede; vorm box.</desc><g stroke-width="0.7" stroke-dasharray="5 2 1 2"><line x1="6" y1="32" x2="58" y2="32"/><line x1="32" y1="6" x2="32" y2="58"/></g><rect x="6" y="12.5" width="52" height="39" rx="5.85"/><rect x="9.25" y="15.75" width="45.5" height="32.5" rx="2.6"/></svg><text x="474" y="181" font-size="7.5" font-family="system-ui, -apple-system, Segoe UI, sans-serif" text-anchor="middle" fill="#78716c">rhs</text><svg x="532" y="116" width="52" height="52" viewBox="0 0 64 64" xmlns="http://www.w3.org/2000/svg" fill="none" stroke="#000" stroke-width="1.5" stroke-linecap="round" stroke-linejoin="round"><title>Japanese steel shapes (JIS): shs</title><desc>Catalogusgedreven doorsnede; vorm box.</desc><g stroke-width="0.7" stroke-dasharray="5 2 1 2"><line x1="6" y1="32" x2="58" y2="32"/><line x1="32" y1="6" x2="32" y2="58"/></g><rect x="6" y="6" width="52" height="52" rx="5.85"/><rect x="9.25" y="9.25" width="45.5" height="45.5" rx="2.6"/></svg><text x="558" y="181" font-size="7.5" font-family="system-ui, -apple-system, Segoe UI, sans-serif" text-anchor="middle" fill="#78716c">shs</text><svg x="616" y="116" width="52" height="52" viewBox="0 0 64 64" xmlns="http://www.w3.org/2000/svg" fill="none" stroke="#000" stroke-width="1.5" stroke-linecap="round" stroke-linejoin="round"><title>Japanese steel shapes (JIS): tee-elevation</title><desc>Schematisch aanzicht met voorbeeldlengte 4 maal de profielhoogte.</desc><rect x="6" y="25.5" width="52" height="13"/><line x1="6" y1="26.511" x2="58" y2="26.511"/><g stroke-width="0.7" stroke-dasharray="5 2 1 2"><line x1="6" y1="32" x2="58" y2="32"/><line x1="32" y1="6" x2="32" y2="58"/></g></svg><text x="642" y="181" font-size="7.5" font-family="system-ui, -apple-system, Segoe UI, sans-serif" text-anchor="middle" fill="#78716c">tee-elevation</text></svg>
