<svg viewBox="0 0 696 220" width="696" xmlns="http://www.w3.org/2000/svg"><rect x="0" y="0" width="696" height="220" rx="8" fill="#ffffff" stroke="#d6d3cd"/><svg x="28" y="18" width="52" height="52" viewBox="0 0 64 64" xmlns="http://www.w3.org/2000/svg" fill="none" stroke="#000" stroke-width="1.8"><rect x="6" y="17" width="52" height="34"/><line x1="6" y1="47.6" x2="58" y2="47.6"/><line x1="-1.8" y1="34" x2="65.8" y2="34" stroke-width="0.9" stroke-dasharray="6 2.2 1.4 2.2"/><text x="61" y="9" font-size="8" font-weight="bold" text-anchor="end" fill="#000" stroke="none">EA ELEV</text></svg><text x="54" y="83" font-size="7.5" font-family="system-ui, -apple-system, Segoe UI, sans-serif" text-anchor="middle" fill="#78716c">angle-elevation</text><svg x="112" y="18" width="52" height="52" viewBox="0 0 64 64" xmlns="http://www.w3.org/2000/svg" fill="none" stroke="#000" stroke-width="1.8"><path d="M11.00 14.59 L53.00 14.59 L53.00 18.09 L36.31 18.09 L36.31 18.09 L35.52 18.21 L34.81 18.58 L34.24 19.14 L33.88 19.86 L33.75 20.65 L33.75 51.41 L30.25 51.41 L30.25 20.65 L30.25 20.65 L30.12 19.86 L29.76 19.14 L29.19 18.58 L28.48 18.21 L27.69 18.09 L11.00 18.09 Z"/><line x1="4.7" y1="33.0" x2="59.3" y2="33.0" stroke-width="0.9" stroke-dasharray="6 2.2 1.4 2.2"/><line x1="32.0" y1="9.1" x2="32.0" y2="56.9" stroke-width="0.9" stroke-dasharray="6 2.2 1.4 2.2"/><text x="61" y="9" font-size="8" font-weight="bold" text-anchor="end" fill="#000" stroke="none">BT</text></svg><text x="138" y="83" font-size="7.5" font-family="system-ui, -apple-system, Segoe UI, sans-serif" text-anchor="middle" fill="#78716c">bt-tee</text><svg x="196" y="18" width="52" height="52" viewBox="0 0 64 64" xmlns="http://www.w3.org/2000/svg" fill="none" stroke="#000" stroke-width="1.8"><rect x="6" y="17" width="52" height="34"/><line x1="6" y1="20.0" x2="58" y2="20.0"/><line x1="6" y1="48.0" x2="58" y2="48.0"/><line x1="-1.8" y1="34" x2="65.8" y2="34" stroke-width="0.9" stroke-dasharray="6 2.2 1.4 2.2"/><text x="61" y="9" font-size="8" font-weight="bold" text-anchor="end" fill="#000" stroke="none">PFC ELEV</text></svg><text x="222" y="83" font-size="7.5" font-family="system-ui, -apple-system, Segoe UI, sans-serif" text-anchor="middle" fill="#78716c">channel-elevation</text><svg x="280" y="18" width="52" height="52" viewBox="0 0 64 64" xmlns="http://www.w3.org/2000/svg" fill="none" stroke="#000" stroke-width="1.8"><circle cx="32" cy="33" r="21.0"/><circle cx="32" cy="33" r="17.5"/><line x1="4.7" y1="33.0" x2="59.3" y2="33.0" stroke-width="0.9" stroke-dasharray="6 2.2 1.4 2.2"/><line x1="32.0" y1="5.7" x2="32.0" y2="60.3" stroke-width="0.9" stroke-dasharray="6 2.2 1.4 2.2"/><text x="61" y="9" font-size="8" font-weight="bold" text-anchor="end" fill="#000" stroke="none">CHS</text></svg><text x="306" y="83" font-size="7.5" font-family="system-ui, -apple-system, Segoe UI, sans-serif" text-anchor="middle" fill="#78716c">chs</text><svg x="364" y="18" width="52" height="52" viewBox="0 0 64 64" xmlns="http://www.w3.org/2000/svg" fill="none" stroke="#000" stroke-width="1.8"><path d="M11.00 12.00 L15.20 12.00 L15.20 45.60 L15.20 45.60 L15.41 46.90 L16.00 48.07 L16.93 49.00 L18.10 49.59 L19.40 49.80 L53.00 49.80 L53.00 54.00 L11.00 54.00 Z"/><line x1="4.7" y1="33.0" x2="59.3" y2="33.0" stroke-width="0.9" stroke-dasharray="6 2.2 1.4 2.2"/><line x1="32.0" y1="5.7" x2="32.0" y2="60.3" stroke-width="0.9" stroke-dasharray="6 2.2 1.4 2.2"/><text x="61" y="9" font-size="8" font-weight="bold" text-anchor="end" fill="#000" stroke="none">EA</text></svg><text x="390" y="83" font-size="7.5" font-family="system-ui, -apple-system, Segoe UI, sans-serif" text-anchor="middle" fill="#78716c">ea-angle</text><svg x="448" y="18" width="52" height="52" viewBox="0 0 64 64" xmlns="http://www.w3.org/2000/svg" fill="none" stroke="#000" stroke-width="1.8"><rect x="11.0" y="30.9" width="42.0" height="4.2"/><line x1="4.7" y1="33.0" x2="59.3" y2="33.0" stroke-width="0.9" stroke-dasharray="6 2.2 1.4 2.2"/><line x1="32.0" y1="30.3" x2="32.0" y2="35.7" stroke-width="0.9" stroke-dasharray="6 2.2 1.4 2.2"/><text x="61" y="9" font-size="8" font-weight="bold" text-anchor="end" fill="#000" stroke="none">FLAT</text></svg><text x="474" y="83" font-size="7.5" font-family="system-ui, -apple-system, Segoe UI, sans-serif" text-anchor="middle" fill="#78716c">flat</text><svg x="532" y="18" width="52" height="52" viewBox="0 0 64 64" xmlns="http://www.w3.org/2000/svg" fill="none" stroke="#000" stroke-width="1.8"><rect x="6" y="17" width="52" height="34"/><line x1="6" y1="20.0" x2="58" y2="20.0" stroke-dasharray="6 3.5"/><line x1="6" y1="48.0" x2="58" y2="48.0" stroke-dasharray="6 3.5"/><line x1="-1.8" y1="34" x2="65.8" y2="34" stroke-width="0.9" stroke-dasharray="6 2.2 1.4 2.2"/><text x="61" y="9" font-size="8" font-weight="bold" text-anchor="end" fill="#000" stroke="none">SHS ELEV</text></svg><text x="558" y="83" font-size="7.5" font-family="system-ui, -apple-system, Segoe UI, sans-serif" text-anchor="middle" fill="#78716c">hollow-section-elevation</text><svg x="616" y="18" width="52" height="52" viewBox="0 0 64 64" xmlns="http://www.w3.org/2000/svg" fill="none" stroke="#000" stroke-width="1.8"><rect x="6" y="17" width="52" height="34"/><line x1="6" y1="20.0" x2="58" y2="20.0"/><line x1="6" y1="48.0" x2="58" y2="48.0"/><line x1="-1.8" y1="34" x2="65.8" y2="34" stroke-width="0.9" stroke-dasharray="6 2.2 1.4 2.2"/><text x="61" y="9" font-size="8" font-weight="bold" text-anchor="end" fill="#000" stroke="none">UB ELEV</text></svg><text x="642" y="83" font-size="7.5" font-family="system-ui, -apple-system, Segoe UI, sans-serif" text-anchor="middle" fill="#78716c">i-beam-elevation</text><svg x="28" y="116" width="52" height="52" viewBox="0 0 64 64" xmlns="http://www.w3.org/2000/svg" fill="none" stroke="#000" stroke-width="1.8"><path d="M24.44 12.00 L39.56 12.00 L39.56 15.50 L29.96 15.50 L29.96 15.50 L29.33 15.60 L28.77 15.89 L28.33 16.33 L28.04 16.89 L27.94 17.52 L27.94 48.48 L27.94 48.48 L28.04 49.11 L28.33 49.67 L28.77 50.11 L29.33 50.40 L29.96 50.50 L39.56 50.50 L39.56 54.00 L24.44 54.00 Z"/><line x1="22.2" y1="33.0" x2="41.8" y2="33.0" stroke-width="0.9" stroke-dasharray="6 2.2 1.4 2.2"/><line x1="32.0" y1="5.7" x2="32.0" y2="60.3" stroke-width="0.9" stroke-dasharray="6 2.2 1.4 2.2"/><text x="61" y="9" font-size="8" font-weight="bold" text-anchor="end" fill="#000" stroke="none">PFC</text></svg><text x="54" y="181" font-size="7.5" font-family="system-ui, -apple-system, Segoe UI, sans-serif" text-anchor="middle" fill="#78716c">pfc</text><svg x="112" y="116" width="52" height="52" viewBox="0 0 64 64" xmlns="http://www.w3.org/2000/svg" fill="none" stroke="#000" stroke-width="1.8"><path d="M11.00 23.20 L11.21 21.90 L11.80 20.73 L12.73 19.80 L13.90 19.21 L15.20 19.00 L48.80 19.00 L50.10 19.21 L51.27 19.80 L52.20 20.73 L52.79 21.90 L53.00 23.20 L53.00 42.80 L52.79 44.10 L52.20 45.27 L51.27 46.20 L50.10 46.79 L48.80 47.00 L15.20 47.00 L13.90 46.79 L12.73 46.20 L11.80 45.27 L11.21 44.10 L11.00 42.80 Z"/><path d="M14.50 23.30 L14.54 23.05 L14.65 22.83 L14.83 22.65 L15.05 22.54 L15.30 22.50 L48.70 22.50 L48.95 22.54 L49.17 22.65 L49.35 22.83 L49.46 23.05 L49.50 23.30 L49.50 42.70 L49.46 42.95 L49.35 43.17 L49.17 43.35 L48.95 43.46 L48.70 43.50 L15.30 43.50 L15.05 43.46 L14.83 43.35 L14.65 43.17 L14.54 42.95 L14.50 42.70 Z"/><line x1="4.7" y1="33.0" x2="59.3" y2="33.0" stroke-width="0.9" stroke-dasharray="6 2.2 1.4 2.2"/><line x1="32.0" y1="14.8" x2="32.0" y2="51.2" stroke-width="0.9" stroke-dasharray="6 2.2 1.4 2.2"/><text x="61" y="9" font-size="8" font-weight="bold" text-anchor="end" fill="#000" stroke="none">RHS</text></svg><text x="138" y="181" font-size="7.5" font-family="system-ui, -apple-system, Segoe UI, sans-serif" text-anchor="middle" fill="#78716c">rhs</text><svg x="196" y="116" width="52" height="52" viewBox="0 0 64 64" xmlns="http://www.w3.org/2000/svg" fill="none" stroke="#000" stroke-width="1.8"><path d="M11.00 18.30 L11.31 16.35 L12.20 14.60 L13.60 13.20 L15.35 12.31 L17.30 12.00 L46.70 12.00 L48.65 12.31 L50.40 13.20 L51.80 14.60 L52.69 16.35 L53.00 18.30 L53.00 47.70 L52.69 49.65 L51.80 51.40 L50.40 52.80 L48.65 53.69 L46.70 54.00 L17.30 54.00 L15.35 53.69 L13.60 52.80 L12.20 51.40 L11.31 49.65 L11.00 47.70 Z"/><path d="M14.50 18.30 L14.64 17.43 L15.03 16.65 L15.65 16.03 L16.43 15.64 L17.30 15.50 L46.70 15.50 L47.57 15.64 L48.35 16.03 L48.97 16.65 L49.36 17.43 L49.50 18.30 L49.50 47.70 L49.36 48.57 L48.97 49.35 L48.35 49.97 L47.57 50.36 L46.70 50.50 L17.30 50.50 L16.43 50.36 L15.65 49.97 L15.03 49.35 L14.64 48.57 L14.50 47.70 Z"/><line x1="4.7" y1="33.0" x2="59.3" y2="33.0" stroke-width="0.9" stroke-dasharray="6 2.2 1.4 2.2"/><line x1="32.0" y1="5.7" x2="32.0" y2="60.3" stroke-width="0.9" stroke-dasharray="6 2.2 1.4 2.2"/><text x="61" y="9" font-size="8" font-weight="bold" text-anchor="end" fill="#000" stroke="none">SHS</text></svg><text x="222" y="181" font-size="7.5" font-family="system-ui, -apple-system, Segoe UI, sans-serif" text-anchor="middle" fill="#78716c">shs</text><svg x="280" y="116" width="52" height="52" viewBox="0 0 64 64" xmlns="http://www.w3.org/2000/svg" fill="none" stroke="#000" stroke-width="1.8"><rect x="6" y="17" width="52" height="34"/><line x1="6" y1="20.0" x2="58" y2="20.0"/><line x1="-1.8" y1="34" x2="65.8" y2="34" stroke-width="0.9" stroke-dasharray="6 2.2 1.4 2.2"/><text x="61" y="9" font-size="8" font-weight="bold" text-anchor="end" fill="#000" stroke="none">BT ELEV</text></svg><text x="306" y="181" font-size="7.5" font-family="system-ui, -apple-system, Segoe UI, sans-serif" text-anchor="middle" fill="#78716c">tee-elevation</text><svg x="364" y="116" width="52" height="52" viewBox="0 0 64 64" xmlns="http://www.w3.org/2000/svg" fill="none" stroke="#000" stroke-width="1.8"><path d="M19.40 12.00 L22.90 12.00 L22.90 47.70 L22.90 47.70 L23.04 48.57 L23.43 49.35 L24.05 49.97 L24.83 50.36 L25.70 50.50 L44.60 50.50 L44.60 54.00 L19.40 54.00 Z"/><line x1="15.6" y1="33.0" x2="48.4" y2="33.0" stroke-width="0.9" stroke-dasharray="6 2.2 1.4 2.2"/><line x1="32.0" y1="5.7" x2="32.0" y2="60.3" stroke-width="0.9" stroke-dasharray="6 2.2 1.4 2.2"/><text x="61" y="9" font-size="8" font-weight="bold" text-anchor="end" fill="#000" stroke="none">UA</text></svg><text x="390" y="181" font-size="7.5" font-family="system-ui, -apple-system, Segoe UI, sans-serif" text-anchor="middle" fill="#78716c">ua-angle</text><svg x="448" y="116" width="52" height="52" viewBox="0 0 64 64" xmlns="http://www.w3.org/2000/svg" fill="none" stroke="#000" stroke-width="1.8"><path d="M20.02 12.00 L43.98 12.00 L43.98 15.50 L35.75 15.50 L35.75 15.50 L35.13 15.60 L34.57 15.88 L34.13 16.32 L33.85 16.88 L33.75 17.50 L33.75 48.50 L33.75 48.50 L33.85 49.12 L34.13 49.68 L34.57 50.12 L35.13 50.40 L35.75 50.50 L43.98 50.50 L43.98 54.00 L20.02 54.00 L20.02 50.50 L28.25 50.50 L28.25 50.50 L28.87 50.40 L29.43 50.12 L29.87 49.68 L30.15 49.12 L30.25 48.50 L30.25 17.50 L30.25 17.50 L30.15 16.88 L29.87 16.32 L29.43 15.88 L28.87 15.60 L28.25 15.50 L20.02 15.50 Z"/><line x1="16.4" y1="33.0" x2="47.6" y2="33.0" stroke-width="0.9" stroke-dasharray="6 2.2 1.4 2.2"/><line x1="32.0" y1="5.7" x2="32.0" y2="60.3" stroke-width="0.9" stroke-dasharray="6 2.2 1.4 2.2"/><text x="61" y="9" font-size="8" font-weight="bold" text-anchor="end" fill="#000" stroke="none">UB</text></svg><text x="474" y="181" font-size="7.5" font-family="system-ui, -apple-system, Segoe UI, sans-serif" text-anchor="middle" fill="#78716c">ub</text><svg x="532" y="116" width="52" height="52" viewBox="0 0 64 64" xmlns="http://www.w3.org/2000/svg" fill="none" stroke="#000" stroke-width="1.8"><path d="M11.50 12.00 L52.50 12.00 L52.50 15.50 L36.03 15.50 L36.03 15.50 L35.33 15.61 L34.69 15.94 L34.19 16.44 L33.86 17.08 L33.75 17.78 L33.75 48.22 L33.75 48.22 L33.86 48.92 L34.19 49.56 L34.69 50.06 L35.33 50.39 L36.03 50.50 L52.50 50.50 L52.50 54.00 L11.50 54.00 L11.50 50.50 L27.97 50.50 L27.97 50.50 L28.67 50.39 L29.31 50.06 L29.81 49.56 L30.14 48.92 L30.25 48.22 L30.25 17.78 L30.25 17.78 L30.14 17.08 L29.81 16.44 L29.31 15.94 L28.67 15.61 L27.97 15.50 L11.50 15.50 Z"/><line x1="5.4" y1="33.0" x2="58.6" y2="33.0" stroke-width="0.9" stroke-dasharray="6 2.2 1.4 2.2"/><line x1="32.0" y1="5.7" x2="32.0" y2="60.3" stroke-width="0.9" stroke-dasharray="6 2.2 1.4 2.2"/><text x="61" y="9" font-size="8" font-weight="bold" text-anchor="end" fill="#000" stroke="none">UC</text></svg><text x="558" y="181" font-size="7.5" font-family="system-ui, -apple-system, Segoe UI, sans-serif" text-anchor="middle" fill="#78716c">uc</text></svg>
