<svg viewBox="0 0 696 808" width="696" xmlns="http://www.w3.org/2000/svg"><rect x="0" y="0" width="696" height="808" rx="8" fill="#ffffff" stroke="#d6d3cd"/><svg x="28" y="18" width="52" height="52" viewBox="0 0 64 64" xmlns="http://www.w3.org/2000/svg"><rect x="5" y="5" width="54" height="54" rx="4" fill="#00854d"/><path d="M48 7 H52 V11 H56 V15 H52 V19 H48 V15 H44 V11 H48 Z" fill="#fff"/><path d="M32 25 C28.5 17 15 20.5 19 31 C21.5 37.5 32 46 32 46 C32 46 42.5 37.5 45 31 C49 20.5 35.5 17 32 25 Z" fill="#fff"/><path d="M34 25 L27 35 H31.5 L29 43 L37 32.5 H32.5 L35 25 Z" fill="#00854d"/></svg><text x="54" y="83" font-size="7.5" font-family="system-ui, -apple-system, Segoe UI, sans-serif" text-anchor="middle" fill="#78716c">escape-aed</text><svg x="112" y="18" width="52" height="52" viewBox="0 0 64 64" xmlns="http://www.w3.org/2000/svg"><rect x="5" y="5" width="54" height="54" rx="4" fill="#00854d"/><g transform="rotate(0 32 32)"><path d="M13 13 L23 23 M23 23 L16.2 21.2 M23 23 L21.2 16.2" fill="none" stroke="#fff" stroke-width="3" stroke-linecap="round" stroke-linejoin="round"/></g><g transform="rotate(90 32 32)"><path d="M13 13 L23 23 M23 23 L16.2 21.2 M23 23 L21.2 16.2" fill="none" stroke="#fff" stroke-width="3" stroke-linecap="round" stroke-linejoin="round"/></g><g transform="rotate(180 32 32)"><path d="M13 13 L23 23 M23 23 L16.2 21.2 M23 23 L21.2 16.2" fill="none" stroke="#fff" stroke-width="3" stroke-linecap="round" stroke-linejoin="round"/></g><g transform="rotate(270 32 32)"><path d="M13 13 L23 23 M23 23 L16.2 21.2 M23 23 L21.2 16.2" fill="none" stroke="#fff" stroke-width="3" stroke-linecap="round" stroke-linejoin="round"/></g><circle cx="28" cy="26.8" r="2.3" fill="#fff"/><path d="M25.4 35.5 q0 -6 2.6 -6 q2.6 0 2.6 6 z" fill="#fff"/><circle cx="36" cy="26.8" r="2.3" fill="#fff"/><path d="M33.4 35.5 q0 -6 2.6 -6 q2.6 0 2.6 6 z" fill="#fff"/><circle cx="28" cy="36.8" r="2.3" fill="#fff"/><path d="M25.4 45.5 q0 -6 2.6 -6 q2.6 0 2.6 6 z" fill="#fff"/><circle cx="36" cy="36.8" r="2.3" fill="#fff"/><path d="M33.4 45.5 q0 -6 2.6 -6 q2.6 0 2.6 6 z" fill="#fff"/></svg><text x="138" y="83" font-size="7.5" font-family="system-ui, -apple-system, Segoe UI, sans-serif" text-anchor="middle" fill="#78716c">escape-assembly-point</text><svg x="196" y="18" width="52" height="52" viewBox="0 0 64 64" xmlns="http://www.w3.org/2000/svg"><rect x="5" y="5" width="54" height="54" rx="4" fill="#00854d"/><g transform="rotate(45 32 32)"><path d="M32 14 L44 27.5 H37.5 V47 H26.5 V27.5 H20 Z" fill="#fff"/></g></svg><text x="222" y="83" font-size="7.5" font-family="system-ui, -apple-system, Segoe UI, sans-serif" text-anchor="middle" fill="#78716c">escape-direction-arrow-45</text><svg x="280" y="18" width="52" height="52" viewBox="0 0 64 64" xmlns="http://www.w3.org/2000/svg"><rect x="5" y="5" width="54" height="54" rx="4" fill="#00854d"/><path d="M32 10 L48 28 H39 V52 H25 V28 H16 Z" fill="#fff"/></svg><text x="306" y="83" font-size="7.5" font-family="system-ui, -apple-system, Segoe UI, sans-serif" text-anchor="middle" fill="#78716c">escape-direction-arrow</text><svg x="364" y="18" width="52" height="52" viewBox="0 0 64 64" xmlns="http://www.w3.org/2000/svg"><rect x="5" y="5" width="54" height="54" rx="4" fill="#00854d"/><path d="M29.333333333333332 9 H34.666666666666664 V14.333333333333334 H40 V19.666666666666668 H34.666666666666664 V25 H29.333333333333332 V19.666666666666668 H24 V14.333333333333334 H29.333333333333332 Z" fill="#fff"/><path d="M18 38 a15 15 0 0 1 28 0" fill="none" stroke="#fff" stroke-width="7" stroke-linecap="round" stroke-linejoin="round"/><circle cx="18" cy="40" r="5.5" fill="#fff"/><circle cx="46" cy="40" r="5.5" fill="#fff"/></svg><text x="390" y="83" font-size="7.5" font-family="system-ui, -apple-system, Segoe UI, sans-serif" text-anchor="middle" fill="#78716c">escape-emergency-phone</text><svg x="448" y="18" width="52" height="52" viewBox="0 0 64 64" xmlns="http://www.w3.org/2000/svg"><rect x="5" y="5" width="54" height="54" rx="4" fill="#00854d"/><g transform="translate(64 0) scale(-1 1)"><rect x="41" y="15" width="12" height="34" fill="#fff"/><circle cx="24" cy="18" r="4" fill="#fff"/><path d="M23 23 L29 33 M24 26 L15 31 M24 26 L33 29 M29 33 L38 42 M29 33 L21 44" fill="none" stroke="#fff" stroke-width="3.2" stroke-linecap="round" stroke-linejoin="round"/></g></svg><text x="474" y="83" font-size="7.5" font-family="system-ui, -apple-system, Segoe UI, sans-serif" text-anchor="middle" fill="#78716c">escape-exit-left</text><svg x="532" y="18" width="52" height="52" viewBox="0 0 64 64" xmlns="http://www.w3.org/2000/svg"><rect x="5" y="5" width="54" height="54" rx="4" fill="#00854d"/><rect x="41" y="15" width="12" height="34" fill="#fff"/><circle cx="24" cy="18" r="4" fill="#fff"/><path d="M23 23 L29 33 M24 26 L15 31 M24 26 L33 29 M29 33 L38 42 M29 33 L21 44" fill="none" stroke="#fff" stroke-width="3.2" stroke-linecap="round" stroke-linejoin="round"/></svg><text x="558" y="83" font-size="7.5" font-family="system-ui, -apple-system, Segoe UI, sans-serif" text-anchor="middle" fill="#78716c">escape-exit-right</text><svg x="616" y="18" width="52" height="52" viewBox="0 0 64 64" xmlns="http://www.w3.org/2000/svg"><rect x="5" y="5" width="54" height="54" rx="4" fill="#00854d"/><path d="M25 12 c3.2 4.5 3.2 8 0 8 c-3.2 0 -3.2 -3.5 0 -8 z" fill="#fff"/><path d="M32 9 c3.2 4.5 3.2 8 0 8 c-3.2 0 -3.2 -3.5 0 -8 z" fill="#fff"/><path d="M39 12 c3.2 4.5 3.2 8 0 8 c-3.2 0 -3.2 -3.5 0 -8 z" fill="#fff"/><path d="M15 38 Q32 26 49 38 Q32 50 15 38 Z" fill="none" stroke="#fff" stroke-width="2.8" stroke-linecap="round" stroke-linejoin="round"/><circle cx="32" cy="38" r="4.5" fill="#fff"/></svg><text x="642" y="83" font-size="7.5" font-family="system-ui, -apple-system, Segoe UI, sans-serif" text-anchor="middle" fill="#78716c">escape-eyewash</text><svg x="28" y="116" width="52" height="52" viewBox="0 0 64 64" xmlns="http://www.w3.org/2000/svg"><rect x="5" y="5" width="54" height="54" rx="4" fill="#00854d"/><path d="M25.666666666666668 13 H38.333333333333336 V25.666666666666668 H51 V38.333333333333336 H38.333333333333336 V51 H25.666666666666668 V38.333333333333336 H13 V25.666666666666668 H25.666666666666668 Z" fill="#fff"/></svg><text x="54" y="181" font-size="7.5" font-family="system-ui, -apple-system, Segoe UI, sans-serif" text-anchor="middle" fill="#78716c">escape-first-aid</text><svg x="112" y="116" width="52" height="52" viewBox="0 0 64 64" xmlns="http://www.w3.org/2000/svg"><rect x="5" y="5" width="54" height="54" rx="4" fill="#00854d"/><rect x="21" y="10" width="22" height="5" rx="1" fill="#fff"/><rect x="30" y="5" width="4" height="5" fill="#fff"/><line x1="23" y1="18" x2="23" y2="26" stroke="#fff" stroke-width="2"/><line x1="27.5" y1="18" x2="27.5" y2="26" stroke="#fff" stroke-width="2"/><line x1="32" y1="18" x2="32" y2="26" stroke="#fff" stroke-width="2"/><line x1="36.5" y1="18" x2="36.5" y2="26" stroke="#fff" stroke-width="2"/><line x1="41" y1="18" x2="41" y2="26" stroke="#fff" stroke-width="2"/><circle cx="32" cy="33" r="4.5" fill="#fff"/><path d="M32 38 V50 M32 41 L23 36 M32 41 L41 36" fill="none" stroke="#fff" stroke-width="3" stroke-linecap="round" stroke-linejoin="round"/></svg><text x="138" y="181" font-size="7.5" font-family="system-ui, -apple-system, Segoe UI, sans-serif" text-anchor="middle" fill="#78716c">escape-safety-shower</text><svg x="196" y="116" width="52" height="52" viewBox="0 0 64 64" xmlns="http://www.w3.org/2000/svg"><rect x="5" y="5" width="54" height="54" rx="4" fill="#00854d"/><path d="M29.666666666666668 8 H34.333333333333336 V12.666666666666666 H39 V17.333333333333332 H34.333333333333336 V22 H29.666666666666668 V17.333333333333332 H25 V12.666666666666666 H29.666666666666668 Z" fill="#fff"/><rect x="17" y="28" width="30" height="12" rx="2" fill="none" stroke="#fff" stroke-width="2.8" stroke-linecap="round" stroke-linejoin="round"/><path d="M8 34 H17 M47 34 H56" fill="none" stroke="#fff" stroke-width="2.8" stroke-linecap="round" stroke-linejoin="round"/></svg><text x="222" y="181" font-size="7.5" font-family="system-ui, -apple-system, Segoe UI, sans-serif" text-anchor="middle" fill="#78716c">escape-stretcher</text><svg x="280" y="116" width="52" height="52" viewBox="0 0 64 64" xmlns="http://www.w3.org/2000/svg"><rect x="5" y="5" width="54" height="54" rx="4" fill="#c8102e"/><rect x="19" y="16" width="26" height="26" rx="2" fill="none" stroke="#fff" stroke-width="2.8" stroke-linecap="round" stroke-linejoin="round"/><circle cx="32" cy="29" r="6" fill="#fff"/><path d="M24 48 H40" fill="none" stroke="#fff" stroke-width="2.5" stroke-linecap="round" stroke-linejoin="round"/></svg><text x="306" y="181" font-size="7.5" font-family="system-ui, -apple-system, Segoe UI, sans-serif" text-anchor="middle" fill="#78716c">fire-alarm-call-point</text><svg x="364" y="116" width="52" height="52" viewBox="0 0 64 64" xmlns="http://www.w3.org/2000/svg"><rect x="5" y="5" width="54" height="54" rx="4" fill="#c8102e"/><path d="M32 10 L48 28 H39 V52 H25 V28 H16 Z" fill="#fff"/></svg><text x="390" y="181" font-size="7.5" font-family="system-ui, -apple-system, Segoe UI, sans-serif" text-anchor="middle" fill="#78716c">fire-direction-arrow</text><svg x="448" y="116" width="52" height="52" viewBox="0 0 64 64" xmlns="http://www.w3.org/2000/svg"><rect x="5" y="5" width="54" height="54" rx="4" fill="#c8102e"/><path d="M32 8 c-3.4 4.3 -5 6.8 -5 9.6 a5 5 0 0 0 10 0 c0 -2.8 -1.6 -5.3 -5 -9.6 z" fill="#fff"/><path d="M18 38 a15 15 0 0 1 28 0" fill="none" stroke="#fff" stroke-width="7" stroke-linecap="round" stroke-linejoin="round"/><circle cx="18" cy="40" r="5.5" fill="#fff"/><circle cx="46" cy="40" r="5.5" fill="#fff"/></svg><text x="474" y="181" font-size="7.5" font-family="system-ui, -apple-system, Segoe UI, sans-serif" text-anchor="middle" fill="#78716c">fire-emergency-phone</text><svg x="532" y="116" width="52" height="52" viewBox="0 0 64 64" xmlns="http://www.w3.org/2000/svg"><rect x="5" y="5" width="54" height="54" rx="4" fill="#c8102e"/><path d="M32 12 c-5.5 7 -8 11 -8 15.5 a8 8 0 0 0 16 0 c0 -4.5 -2.5 -8.5 -8 -15.5 z" fill="#fff"/><path d="M32 22 c-3 3.8 -4.5 6 -4.5 8.5 a4.5 4.5 0 0 0 9 0 c0 -2.5 -1.5 -4.7 -4.5 -8.5 z" fill="#c8102e"/><rect x="20" y="39" width="24" height="11" fill="none" stroke="#fff" stroke-width="2.8" stroke-linecap="round" stroke-linejoin="round"/></svg><text x="558" y="181" font-size="7.5" font-family="system-ui, -apple-system, Segoe UI, sans-serif" text-anchor="middle" fill="#78716c">fire-equipment</text><svg x="616" y="116" width="52" height="52" viewBox="0 0 64 64" xmlns="http://www.w3.org/2000/svg"><rect x="5" y="5" width="54" height="54" rx="4" fill="#c8102e"/><rect x="27" y="24" width="13" height="24" rx="2.5" fill="#fff"/><rect x="31.5" y="19" width="4" height="5" fill="#fff"/><path d="M27 17.5 H40" fill="none" stroke="#fff" stroke-width="3" stroke-linecap="round" stroke-linejoin="round"/><path d="M31 21 Q19 22 19 32 V37" fill="none" stroke="#fff" stroke-width="2.5" stroke-linecap="round" stroke-linejoin="round"/><path d="M16.5 37 h5 l1 7 h-7 z" fill="#fff"/></svg><text x="642" y="181" font-size="7.5" font-family="system-ui, -apple-system, Segoe UI, sans-serif" text-anchor="middle" fill="#78716c">fire-extinguisher</text><svg x="28" y="214" width="52" height="52" viewBox="0 0 64 64" xmlns="http://www.w3.org/2000/svg"><rect x="5" y="5" width="54" height="54" rx="4" fill="#c8102e"/><circle cx="29" cy="28" r="11" fill="none" stroke="#fff" stroke-width="3" stroke-linecap="round" stroke-linejoin="round"/><circle cx="29" cy="28" r="3" fill="#fff"/><path d="M29 39 q0 7 8 7 h6" fill="none" stroke="#fff" stroke-width="3" stroke-linecap="round" stroke-linejoin="round"/><rect x="43" y="43" width="7" height="6" rx="1" fill="#fff"/></svg><text x="54" y="279" font-size="7.5" font-family="system-ui, -apple-system, Segoe UI, sans-serif" text-anchor="middle" fill="#78716c">fire-hose-reel</text><svg x="112" y="214" width="52" height="52" viewBox="0 0 64 64" xmlns="http://www.w3.org/2000/svg"><rect x="5" y="5" width="54" height="54" rx="4" fill="#c8102e"/><path d="M25 12 V52 M39 12 V52" fill="none" stroke="#fff" stroke-width="3" stroke-linecap="round" stroke-linejoin="round"/><line x1="25" y1="17" x2="39" y2="17" stroke="#fff" stroke-width="2.5"/><line x1="25" y1="24" x2="39" y2="24" stroke="#fff" stroke-width="2.5"/><line x1="25" y1="31" x2="39" y2="31" stroke="#fff" stroke-width="2.5"/><line x1="25" y1="38" x2="39" y2="38" stroke="#fff" stroke-width="2.5"/><line x1="25" y1="45" x2="39" y2="45" stroke="#fff" stroke-width="2.5"/></svg><text x="138" y="279" font-size="7.5" font-family="system-ui, -apple-system, Segoe UI, sans-serif" text-anchor="middle" fill="#78716c">fire-ladder</text><svg x="196" y="214" width="52" height="52" viewBox="0 0 64 64" xmlns="http://www.w3.org/2000/svg"><circle cx="32" cy="32" r="27" fill="#0054a6"/><rect x="22" y="10" width="20" height="11" rx="2" fill="#fff"/><circle cx="29" cy="15.5" r="1.8" fill="#0054a6"/><circle cx="35" cy="15.5" r="1.8" fill="#0054a6"/><path d="M24 33 h16 v7 q0 7 -8 7 t-8 -7 z" fill="#fff"/><path d="M29 26 V33 M35 26 V33 M32 47 v6" fill="none" stroke="#fff" stroke-width="2.6" stroke-linecap="round" stroke-linejoin="round"/></svg><text x="222" y="279" font-size="7.5" font-family="system-ui, -apple-system, Segoe UI, sans-serif" text-anchor="middle" fill="#78716c">mandatory-disconnect-power</text><svg x="280" y="214" width="52" height="52" viewBox="0 0 64 64" xmlns="http://www.w3.org/2000/svg"><circle cx="32" cy="32" r="27" fill="#0054a6"/><circle cx="32" cy="34" r="10" fill="none" stroke="#fff" stroke-width="2.6" stroke-linecap="round" stroke-linejoin="round"/><path d="M18 33 a14 14 0 0 1 28 0" fill="none" stroke="#fff" stroke-width="3.5" stroke-linecap="round" stroke-linejoin="round"/><rect x="14.5" y="29" width="7" height="12" rx="3" fill="#fff"/><rect x="42.5" y="29" width="7" height="12" rx="3" fill="#fff"/></svg><text x="306" y="279" font-size="7.5" font-family="system-ui, -apple-system, Segoe UI, sans-serif" text-anchor="middle" fill="#78716c">mandatory-ear-protection</text><svg x="364" y="214" width="52" height="52" viewBox="0 0 64 64" xmlns="http://www.w3.org/2000/svg"><circle cx="32" cy="32" r="27" fill="#0054a6"/><circle cx="23" cy="33" r="7.5" fill="none" stroke="#fff" stroke-width="3" stroke-linecap="round" stroke-linejoin="round"/><circle cx="41" cy="33" r="7.5" fill="none" stroke="#fff" stroke-width="3" stroke-linecap="round" stroke-linejoin="round"/><path d="M30.5 33 h3 M15.5 33 h-4.5 M48.5 33 h4.5" fill="none" stroke="#fff" stroke-width="3" stroke-linecap="round" stroke-linejoin="round"/></svg><text x="390" y="279" font-size="7.5" font-family="system-ui, -apple-system, Segoe UI, sans-serif" text-anchor="middle" fill="#78716c">mandatory-eye-protection</text><svg x="448" y="214" width="52" height="52" viewBox="0 0 64 64" xmlns="http://www.w3.org/2000/svg"><circle cx="32" cy="32" r="27" fill="#0054a6"/><path d="M18 26 q14 -6 28 0 v10 q-14 8 -28 0 z" fill="#fff"/><path d="M18 28 L10 24 M18 34 L10 38 M46 28 L54 24 M46 34 L54 38" fill="none" stroke="#fff" stroke-width="2.2" stroke-linecap="round" stroke-linejoin="round"/><path d="M24 30 h16 M24 34 h16" stroke="#0054a6" stroke-width="1.6" fill="none"/></svg><text x="474" y="279" font-size="7.5" font-family="system-ui, -apple-system, Segoe UI, sans-serif" text-anchor="middle" fill="#78716c">mandatory-face-mask</text><svg x="532" y="214" width="52" height="52" viewBox="0 0 64 64" xmlns="http://www.w3.org/2000/svg"><circle cx="32" cy="32" r="27" fill="#0054a6"/><rect x="29" y="12" width="6" height="26" rx="3" fill="#fff"/><circle cx="32" cy="46" r="4" fill="#fff"/></svg><text x="558" y="279" font-size="7.5" font-family="system-ui, -apple-system, Segoe UI, sans-serif" text-anchor="middle" fill="#78716c">mandatory-general</text><svg x="616" y="214" width="52" height="52" viewBox="0 0 64 64" xmlns="http://www.w3.org/2000/svg"><circle cx="32" cy="32" r="27" fill="#0054a6"/><path d="M17 36 q0 -16 15 -16 q15 0 15 16 z" fill="#fff"/><rect x="12" y="36" width="40" height="5" rx="2.5" fill="#fff"/><line x1="32" y1="21" x2="32" y2="36" stroke="#0054a6" stroke-width="2"/></svg><text x="642" y="279" font-size="7.5" font-family="system-ui, -apple-system, Segoe UI, sans-serif" text-anchor="middle" fill="#78716c">mandatory-head-protection</text><svg x="28" y="312" width="52" height="52" viewBox="0 0 64 64" xmlns="http://www.w3.org/2000/svg"><circle cx="32" cy="32" r="27" fill="#0054a6"/><path d="M24 18 q8 6 16 0 l6 4 v26 h-28 v-26 z" fill="#fff"/><rect x="18" y="31" width="28" height="4" fill="#0054a6"/><rect x="18" y="39" width="28" height="4" fill="#0054a6"/></svg><text x="54" y="377" font-size="7.5" font-family="system-ui, -apple-system, Segoe UI, sans-serif" text-anchor="middle" fill="#78716c">mandatory-high-visibility</text><svg x="112" y="312" width="52" height="52" viewBox="0 0 64 64" xmlns="http://www.w3.org/2000/svg"><circle cx="32" cy="32" r="27" fill="#0054a6"/><path d="M23 14 h18 v6 l4 2 v26 h-8 v-14 h-10 v14 h-8 v-26 l4 -2 z" fill="#fff"/><line x1="32" y1="14" x2="32" y2="26" stroke="#0054a6" stroke-width="2"/></svg><text x="138" y="377" font-size="7.5" font-family="system-ui, -apple-system, Segoe UI, sans-serif" text-anchor="middle" fill="#78716c">mandatory-protective-clothing</text><svg x="196" y="312" width="52" height="52" viewBox="0 0 64 64" xmlns="http://www.w3.org/2000/svg"><circle cx="32" cy="32" r="27" fill="#0054a6"/><rect x="26" y="34" width="20" height="15" rx="6" fill="#fff"/><rect x="26" y="23" width="4.6" height="17" rx="2.3" fill="#fff"/><rect x="31.2" y="18" width="4.6" height="22" rx="2.3" fill="#fff"/><rect x="36.4" y="21" width="4.6" height="19" rx="2.3" fill="#fff"/><rect x="41.6" y="26.5" width="4.6" height="13.5" rx="2.3" fill="#fff"/><rect x="20" y="30" width="4.6" height="12" rx="2.3" fill="#fff" transform="rotate(35 22.3 36)"/><rect x="25" y="48" width="22" height="5" rx="1" fill="#fff"/></svg><text x="222" y="377" font-size="7.5" font-family="system-ui, -apple-system, Segoe UI, sans-serif" text-anchor="middle" fill="#78716c">mandatory-protective-gloves</text><svg x="280" y="312" width="52" height="52" viewBox="0 0 64 64" xmlns="http://www.w3.org/2000/svg"><circle cx="32" cy="32" r="27" fill="#0054a6"/><path d="M14 20 Q24 15 32 20 V45 Q24 40 14 45 Z" fill="#fff"/><path d="M50 20 Q40 15 32 20 V45 Q40 40 50 45 Z" fill="#fff"/><line x1="32" y1="20" x2="32" y2="45" stroke="#0054a6" stroke-width="2"/></svg><text x="306" y="377" font-size="7.5" font-family="system-ui, -apple-system, Segoe UI, sans-serif" text-anchor="middle" fill="#78716c">mandatory-refer-to-manual</text><svg x="364" y="312" width="52" height="52" viewBox="0 0 64 64" xmlns="http://www.w3.org/2000/svg"><circle cx="32" cy="32" r="27" fill="#0054a6"/><path d="M22 16 h9 v12 c5 0 9 3 13 7 c3 3 3 8 3 8 H22 Z" fill="#fff"/><line x1="22" y1="39.5" x2="45" y2="39.5" stroke="#0054a6" stroke-width="2"/></svg><text x="390" y="377" font-size="7.5" font-family="system-ui, -apple-system, Segoe UI, sans-serif" text-anchor="middle" fill="#78716c">mandatory-safety-footwear</text><svg x="448" y="312" width="52" height="52" viewBox="0 0 64 64" xmlns="http://www.w3.org/2000/svg"><circle cx="32" cy="32" r="27" fill="#0054a6"/><circle cx="32" cy="14" r="4.5" fill="#fff"/><rect x="24" y="21" width="16" height="16" fill="#fff"/><path d="M26 37 V49 M38 37 V49 M24 23 L17 33 M40 23 L47 33" fill="none" stroke="#fff" stroke-width="3.5" stroke-linecap="round" stroke-linejoin="round"/><path d="M24 21 L40 37 M40 21 L24 37 M24 32 H40" stroke="#0054a6" stroke-width="2" fill="none"/></svg><text x="474" y="377" font-size="7.5" font-family="system-ui, -apple-system, Segoe UI, sans-serif" text-anchor="middle" fill="#78716c">mandatory-safety-harness</text><svg x="532" y="312" width="52" height="52" viewBox="0 0 64 64" xmlns="http://www.w3.org/2000/svg"><circle cx="32" cy="32" r="27" fill="#0054a6"/><path d="M17 11 h14 q6 0 6 6 v3" fill="none" stroke="#fff" stroke-width="3.2" stroke-linecap="round" stroke-linejoin="round"/><path d="M37 23 c2.8800000000000003 4.05 2.8800000000000003 7.2 0 7.2 c-2.8800000000000003 0 -2.8800000000000003 -3.15 0 -7.2 z" fill="#fff"/><path d="M31 27 c2.5600000000000005 3.6 2.5600000000000005 6.4 0 6.4 c-2.5600000000000005 0 -2.5600000000000005 -2.8000000000000003 0 -6.4 z" fill="#fff"/><g transform="translate(9 14) scale(0.78)"><rect x="26" y="34" width="20" height="15" rx="6" fill="#fff"/><rect x="26" y="23" width="4.6" height="17" rx="2.3" fill="#fff"/><rect x="31.2" y="18" width="4.6" height="22" rx="2.3" fill="#fff"/><rect x="36.4" y="21" width="4.6" height="19" rx="2.3" fill="#fff"/><rect x="41.6" y="26.5" width="4.6" height="13.5" rx="2.3" fill="#fff"/><rect x="20" y="30" width="4.6" height="12" rx="2.3" fill="#fff" transform="rotate(35 22.3 36)"/></g></svg><text x="558" y="377" font-size="7.5" font-family="system-ui, -apple-system, Segoe UI, sans-serif" text-anchor="middle" fill="#78716c">mandatory-wash-hands</text><svg x="616" y="312" width="52" height="52" viewBox="0 0 64 64" xmlns="http://www.w3.org/2000/svg"><circle cx="32" cy="32" r="24" fill="#fff"/><g transform="translate(32 33) scale(0.85) translate(-32 -33)"><rect x="26" y="34" width="20" height="15" rx="6" fill="#000"/><rect x="26" y="23" width="4.6" height="17" rx="2.3" fill="#000"/><rect x="31.2" y="18" width="4.6" height="22" rx="2.3" fill="#000"/><rect x="36.4" y="21" width="4.6" height="19" rx="2.3" fill="#000"/><rect x="41.6" y="26.5" width="4.6" height="13.5" rx="2.3" fill="#000"/><rect x="20" y="30" width="4.6" height="12" rx="2.3" fill="#000" transform="rotate(35 22.3 36)"/></g><circle cx="32" cy="32" r="24" fill="none" stroke="#c8102e" stroke-width="6"/><line x1="15" y1="15" x2="49" y2="49" stroke="#c8102e" stroke-width="6"/></svg><text x="642" y="377" font-size="7.5" font-family="system-ui, -apple-system, Segoe UI, sans-serif" text-anchor="middle" fill="#78716c">prohibition-do-not-touch</text><svg x="28" y="410" width="52" height="52" viewBox="0 0 64 64" xmlns="http://www.w3.org/2000/svg"><circle cx="32" cy="32" r="24" fill="#fff"/><ellipse cx="30" cy="34" rx="10" ry="6" fill="#000"/><circle cx="43" cy="27" r="4.5" fill="#000"/><path d="M43 24 l1.5 -4.5 3 3.5 z" fill="#000"/><path d="M24 39 V47 M36 39 V47 M20 32 L14 28 M46.5 28.5 L50 29.5" fill="none" stroke="#000" stroke-width="3" stroke-linecap="round" stroke-linejoin="round"/><circle cx="32" cy="32" r="24" fill="none" stroke="#c8102e" stroke-width="6"/><line x1="15" y1="15" x2="49" y2="49" stroke="#c8102e" stroke-width="6"/></svg><text x="54" y="475" font-size="7.5" font-family="system-ui, -apple-system, Segoe UI, sans-serif" text-anchor="middle" fill="#78716c">prohibition-no-dogs</text><svg x="112" y="410" width="52" height="52" viewBox="0 0 64 64" xmlns="http://www.w3.org/2000/svg"><circle cx="32" cy="32" r="24" fill="#fff"/><path d="M22 16 V25 q0 4 4 4 t4 -4 V16 M26 16 V48" fill="none" stroke="#000" stroke-width="2.6" stroke-linecap="round" stroke-linejoin="round"/><path d="M36 21 h10 l-1.5 14 h-7 z" fill="#000"/><path d="M46 23 q5 1 3 7 l-3.5 1" fill="none" stroke="#000" stroke-width="2" stroke-linecap="round" stroke-linejoin="round"/><circle cx="32" cy="32" r="24" fill="none" stroke="#c8102e" stroke-width="6"/><line x1="15" y1="15" x2="49" y2="49" stroke="#c8102e" stroke-width="6"/></svg><text x="138" y="475" font-size="7.5" font-family="system-ui, -apple-system, Segoe UI, sans-serif" text-anchor="middle" fill="#78716c">prohibition-no-eating-drinking</text><svg x="196" y="410" width="52" height="52" viewBox="0 0 64 64" xmlns="http://www.w3.org/2000/svg"><circle cx="32" cy="32" r="24" fill="#fff"/><rect x="20" y="32" width="15" height="9" rx="1" fill="#000"/><path d="M22 32 v-8 h8 v8" fill="none" stroke="#000" stroke-width="2.5" stroke-linecap="round" stroke-linejoin="round"/><circle cx="24" cy="45" r="3.2" fill="#000"/><circle cx="33" cy="45" r="3.2" fill="#000"/><path d="M39 20 V43 M39 43 H48" fill="none" stroke="#000" stroke-width="2.6" stroke-linecap="round" stroke-linejoin="round"/><circle cx="32" cy="32" r="24" fill="none" stroke="#c8102e" stroke-width="6"/><line x1="15" y1="15" x2="49" y2="49" stroke="#c8102e" stroke-width="6"/></svg><text x="222" y="475" font-size="7.5" font-family="system-ui, -apple-system, Segoe UI, sans-serif" text-anchor="middle" fill="#78716c">prohibition-no-forklifts</text><svg x="280" y="410" width="52" height="52" viewBox="0 0 64 64" xmlns="http://www.w3.org/2000/svg"><circle cx="32" cy="32" r="24" fill="#fff"/><rect x="25" y="17" width="15" height="28" rx="2.5" fill="none" stroke="#000" stroke-width="2.8" stroke-linecap="round" stroke-linejoin="round"/><line x1="29" y1="40.5" x2="36" y2="40.5" stroke="#000" stroke-width="2"/><circle cx="32" cy="32" r="24" fill="none" stroke="#c8102e" stroke-width="6"/><line x1="15" y1="15" x2="49" y2="49" stroke="#c8102e" stroke-width="6"/></svg><text x="306" y="475" font-size="7.5" font-family="system-ui, -apple-system, Segoe UI, sans-serif" text-anchor="middle" fill="#78716c">prohibition-no-mobile-phones</text><svg x="364" y="410" width="52" height="52" viewBox="0 0 64 64" xmlns="http://www.w3.org/2000/svg"><circle cx="32" cy="32" r="24" fill="#fff"/><path d="M32 14 c-4.675 5.95 -6.8 9.35 -6.8 13.174999999999999 a6.8 6.8 0 0 0 13.6 0 c0 -3.8249999999999997 -2.125 -7.225 -6.8 -13.174999999999999 z" fill="#000"/><rect x="30" y="37" width="4" height="12" fill="#000"/><circle cx="32" cy="32" r="24" fill="none" stroke="#c8102e" stroke-width="6"/><line x1="15" y1="15" x2="49" y2="49" stroke="#c8102e" stroke-width="6"/></svg><text x="390" y="475" font-size="7.5" font-family="system-ui, -apple-system, Segoe UI, sans-serif" text-anchor="middle" fill="#78716c">prohibition-no-open-flame</text><svg x="448" y="410" width="52" height="52" viewBox="0 0 64 64" xmlns="http://www.w3.org/2000/svg"><circle cx="32" cy="32" r="24" fill="#fff"/><circle cx="33" cy="16" r="3.5" fill="#000"/><path d="M32 20 L30 32 M31.5 23 L25 29 M31.5 23 L38 28 M30 32 L37 40 L37 47 M30 32 L25 40 L20 45" fill="none" stroke="#000" stroke-width="3" stroke-linecap="round" stroke-linejoin="round"/><circle cx="32" cy="32" r="24" fill="none" stroke="#c8102e" stroke-width="6"/><line x1="15" y1="15" x2="49" y2="49" stroke="#c8102e" stroke-width="6"/></svg><text x="474" y="475" font-size="7.5" font-family="system-ui, -apple-system, Segoe UI, sans-serif" text-anchor="middle" fill="#78716c">prohibition-no-pedestrians</text><svg x="532" y="410" width="52" height="52" viewBox="0 0 64 64" xmlns="http://www.w3.org/2000/svg"><circle cx="32" cy="32" r="24" fill="#fff"/><rect x="18" y="24" width="28" height="18" rx="2" fill="none" stroke="#000" stroke-width="2.8" stroke-linecap="round" stroke-linejoin="round"/><path d="M25 24 l2 -4 h10 l2 4" fill="none" stroke="#000" stroke-width="2.8" stroke-linecap="round" stroke-linejoin="round"/><circle cx="32" cy="33" r="5.5" fill="none" stroke="#000" stroke-width="2.8" stroke-linecap="round" stroke-linejoin="round"/><circle cx="32" cy="32" r="24" fill="none" stroke="#c8102e" stroke-width="6"/><line x1="15" y1="15" x2="49" y2="49" stroke="#c8102e" stroke-width="6"/></svg><text x="558" y="475" font-size="7.5" font-family="system-ui, -apple-system, Segoe UI, sans-serif" text-anchor="middle" fill="#78716c">prohibition-no-photography</text><svg x="616" y="410" width="52" height="52" viewBox="0 0 64 64" xmlns="http://www.w3.org/2000/svg"><circle cx="32" cy="32" r="24" fill="#fff"/><rect x="17" y="30" width="24" height="5" fill="#000"/><rect x="43" y="30" width="4.5" height="5" fill="#000"/><path d="M21 25 q3 -3 0 -7 M27 25 q3 -3 0 -7" fill="none" stroke="#000" stroke-width="2" stroke-linecap="round" stroke-linejoin="round"/><circle cx="32" cy="32" r="24" fill="none" stroke="#c8102e" stroke-width="6"/><line x1="15" y1="15" x2="49" y2="49" stroke="#c8102e" stroke-width="6"/></svg><text x="642" y="475" font-size="7.5" font-family="system-ui, -apple-system, Segoe UI, sans-serif" text-anchor="middle" fill="#78716c">prohibition-no-smoking</text><svg x="28" y="508" width="52" height="52" viewBox="0 0 64 64" xmlns="http://www.w3.org/2000/svg"><circle cx="32" cy="32" r="24" fill="#fff"/><g transform="rotate(40 27 20)"><path d="M21 15 h13 l-2 9 h-9 z" fill="#000"/><path d="M21.5 14 a5.5 4 0 0 1 12 0" fill="none" stroke="#000" stroke-width="1.8" stroke-linecap="round" stroke-linejoin="round"/></g><path d="M30 28 l4 5 M35 26 l4 5" fill="none" stroke="#000" stroke-width="2" stroke-linecap="round" stroke-linejoin="round"/><path d="M40 34 c-4 5 -6 7.5 -6 10.5 a6 6 0 0 0 12 0 c0 -3 -2 -5.5 -6 -10.5 z" fill="#000"/><circle cx="32" cy="32" r="24" fill="none" stroke="#c8102e" stroke-width="6"/><line x1="15" y1="15" x2="49" y2="49" stroke="#c8102e" stroke-width="6"/></svg><text x="54" y="573" font-size="7.5" font-family="system-ui, -apple-system, Segoe UI, sans-serif" text-anchor="middle" fill="#78716c">prohibition-no-water-extinguishing</text><svg x="112" y="508" width="52" height="52" viewBox="0 0 64 64" xmlns="http://www.w3.org/2000/svg"><path d="M32 6 L60 55 L4 55 Z" fill="#f7ce00" stroke="#000" stroke-width="3" stroke-linejoin="round"/><circle cx="32" cy="30.5" r="6" fill="none" stroke="#000" stroke-width="2.4" stroke-linecap="round" stroke-linejoin="round"/><circle cx="27.2" cy="38.8" r="6" fill="none" stroke="#000" stroke-width="2.4" stroke-linecap="round" stroke-linejoin="round"/><circle cx="36.8" cy="38.8" r="6" fill="none" stroke="#000" stroke-width="2.4" stroke-linecap="round" stroke-linejoin="round"/><circle cx="32" cy="36" r="2.6" fill="#000"/></svg><text x="138" y="573" font-size="7.5" font-family="system-ui, -apple-system, Segoe UI, sans-serif" text-anchor="middle" fill="#78716c">warning-biohazard</text><svg x="196" y="508" width="52" height="52" viewBox="0 0 64 64" xmlns="http://www.w3.org/2000/svg"><path d="M32 6 L60 55 L4 55 Z" fill="#f7ce00" stroke="#000" stroke-width="3" stroke-linejoin="round"/><path d="M25 24 c3.5200000000000005 4.95 3.5200000000000005 8.8 0 8.8 c-3.5200000000000005 0 -3.5200000000000005 -3.8500000000000005 0 -8.8 z" fill="#000"/><path d="M39 24 c3.5200000000000005 4.95 3.5200000000000005 8.8 0 8.8 c-3.5200000000000005 0 -3.5200000000000005 -3.8500000000000005 0 -8.8 z" fill="#000"/><rect x="19" y="42" width="11" height="3.2" fill="#000"/><rect x="34" y="42" width="11" height="3.2" fill="#000"/><path d="M22 40 l2 2 M26 39 l2.5 3 M37 40 l2 2 M41 39 l2.5 3" fill="none" stroke="#000" stroke-width="1.8" stroke-linecap="round" stroke-linejoin="round"/></svg><text x="222" y="573" font-size="7.5" font-family="system-ui, -apple-system, Segoe UI, sans-serif" text-anchor="middle" fill="#78716c">warning-corrosive</text><svg x="280" y="508" width="52" height="52" viewBox="0 0 64 64" xmlns="http://www.w3.org/2000/svg"><path d="M32 6 L60 55 L4 55 Z" fill="#f7ce00" stroke="#000" stroke-width="3" stroke-linejoin="round"/><path d="M34 18 L23 37 H30 L26 51 L41 32 H33.5 L38 18 Z" fill="#000"/></svg><text x="306" y="573" font-size="7.5" font-family="system-ui, -apple-system, Segoe UI, sans-serif" text-anchor="middle" fill="#78716c">warning-electricity</text><svg x="364" y="508" width="52" height="52" viewBox="0 0 64 64" xmlns="http://www.w3.org/2000/svg"><path d="M32 6 L60 55 L4 55 Z" fill="#f7ce00" stroke="#000" stroke-width="3" stroke-linejoin="round"/><path d="M32.0 23.5 L33.7 31.8 L39.9 26.1 L36.4 33.8 L44.8 32.8 L37.5 37.0 L44.8 41.2 L36.4 40.2 L39.9 47.9 L33.7 42.2 L32.0 50.5 L30.3 42.2 L24.1 47.9 L27.6 40.2 L19.2 41.2 L26.5 37.0 L19.2 32.8 L27.6 33.8 L24.1 26.1 L30.3 31.8 Z" fill="#000"/></svg><text x="390" y="573" font-size="7.5" font-family="system-ui, -apple-system, Segoe UI, sans-serif" text-anchor="middle" fill="#78716c">warning-explosive</text><svg x="448" y="508" width="52" height="52" viewBox="0 0 64 64" xmlns="http://www.w3.org/2000/svg"><path d="M32 6 L60 55 L4 55 Z" fill="#f7ce00" stroke="#000" stroke-width="3" stroke-linejoin="round"/><path d="M14 40 h12 v10 h20" fill="none" stroke="#000" stroke-width="2.5" stroke-linecap="round" stroke-linejoin="round"/><circle cx="40" cy="26" r="3.5" fill="#000"/><path d="M39 30 L44 38 M40 32 L33 30 M40 32 L46 28 M44 38 L50 42 M44 38 L42 46" fill="none" stroke="#000" stroke-width="2.8" stroke-linecap="round" stroke-linejoin="round"/></svg><text x="474" y="573" font-size="7.5" font-family="system-ui, -apple-system, Segoe UI, sans-serif" text-anchor="middle" fill="#78716c">warning-fall-hazard</text><svg x="532" y="508" width="52" height="52" viewBox="0 0 64 64" xmlns="http://www.w3.org/2000/svg"><path d="M32 6 L60 55 L4 55 Z" fill="#f7ce00" stroke="#000" stroke-width="3" stroke-linejoin="round"/><path d="M32 20 c-5.5 7 -8 11 -8 15.5 a8 8 0 0 0 16 0 c0 -4.5 -2.5 -8.5 -8 -15.5 z" fill="#000"/><path d="M32 30 c-3 3.8 -4.5 6 -4.5 8.5 a4.5 4.5 0 0 0 9 0 c0 -2.5 -1.5 -4.7 -4.5 -8.5 z" fill="#f7ce00"/></svg><text x="558" y="573" font-size="7.5" font-family="system-ui, -apple-system, Segoe UI, sans-serif" text-anchor="middle" fill="#78716c">warning-flammable</text><svg x="616" y="508" width="52" height="52" viewBox="0 0 64 64" xmlns="http://www.w3.org/2000/svg"><path d="M32 6 L60 55 L4 55 Z" fill="#f7ce00" stroke="#000" stroke-width="3" stroke-linejoin="round"/><g transform="translate(0 4)"><rect x="20" y="32" width="15" height="9" rx="1" fill="#000"/><path d="M22 32 v-8 h8 v8" fill="none" stroke="#000" stroke-width="2.5" stroke-linecap="round" stroke-linejoin="round"/><circle cx="24" cy="45" r="3.2" fill="#000"/><circle cx="33" cy="45" r="3.2" fill="#000"/><path d="M39 20 V43 M39 43 H48" fill="none" stroke="#000" stroke-width="2.6" stroke-linecap="round" stroke-linejoin="round"/></g></svg><text x="642" y="573" font-size="7.5" font-family="system-ui, -apple-system, Segoe UI, sans-serif" text-anchor="middle" fill="#78716c">warning-forklifts</text><svg x="28" y="606" width="52" height="52" viewBox="0 0 64 64" xmlns="http://www.w3.org/2000/svg"><path d="M32 6 L60 55 L4 55 Z" fill="#f7ce00" stroke="#000" stroke-width="3" stroke-linejoin="round"/><rect x="29.5" y="21" width="5" height="19" rx="2.5" fill="#000"/><circle cx="32" cy="47" r="3.6" fill="#000"/></svg><text x="54" y="671" font-size="7.5" font-family="system-ui, -apple-system, Segoe UI, sans-serif" text-anchor="middle" fill="#78716c">warning-general</text><svg x="112" y="606" width="52" height="52" viewBox="0 0 64 64" xmlns="http://www.w3.org/2000/svg"><path d="M32 6 L60 55 L4 55 Z" fill="#f7ce00" stroke="#000" stroke-width="3" stroke-linejoin="round"/><path d="M20 45 H44" fill="none" stroke="#000" stroke-width="3" stroke-linecap="round" stroke-linejoin="round"/><path d="M25 41 q-3 -5 0 -9 q3 -4 0 -8 M32 41 q-3 -5 0 -9 q3 -4 0 -8 M39 41 q-3 -5 0 -9 q3 -4 0 -8" fill="none" stroke="#000" stroke-width="2.4" stroke-linecap="round" stroke-linejoin="round"/></svg><text x="138" y="671" font-size="7.5" font-family="system-ui, -apple-system, Segoe UI, sans-serif" text-anchor="middle" fill="#78716c">warning-hot-surface</text><svg x="196" y="606" width="52" height="52" viewBox="0 0 64 64" xmlns="http://www.w3.org/2000/svg"><path d="M32 6 L60 55 L4 55 Z" fill="#f7ce00" stroke="#000" stroke-width="3" stroke-linejoin="round"/><circle cx="28" cy="36" r="2.8" fill="#000"/><path d="M33.0 36.0 L45.0 36.0 M31.5 39.5 L35.1 43.1 M28.0 41.0 L28.0 46.0 M24.5 39.5 L20.9 43.1 M23.0 36.0 L18.0 36.0 M24.5 32.5 L20.9 28.9 M28.0 31.0 L28.0 26.0 M31.5 32.5 L35.1 28.9" fill="none" stroke="#000" stroke-width="2.6" stroke-linecap="round" stroke-linejoin="round"/></svg><text x="222" y="671" font-size="7.5" font-family="system-ui, -apple-system, Segoe UI, sans-serif" text-anchor="middle" fill="#78716c">warning-laser</text><svg x="280" y="606" width="52" height="52" viewBox="0 0 64 64" xmlns="http://www.w3.org/2000/svg"><path d="M32 6 L60 55 L4 55 Z" fill="#f7ce00" stroke="#000" stroke-width="3" stroke-linejoin="round"/><path d="M32 37 L44.0 37.0 M39.5 37.0 l2.8 2.8 M39.5 37.0 l2.8 -2.8 M32 37 L38.0 47.4 M35.8 43.5 l-1.0 3.9 M35.8 43.5 l3.9 1.0 M32 37 L26.0 47.4 M28.3 43.5 l-3.9 1.0 M28.3 43.5 l1.0 3.9 M32 37 L20.0 37.0 M24.5 37.0 l-2.8 -2.8 M24.5 37.0 l-2.8 2.8 M32 37 L26.0 26.6 M28.2 30.5 l1.0 -3.9 M28.2 30.5 l-3.9 -1.0 M32 37 L38.0 26.6 M35.8 30.5 l3.9 -1.0 M35.8 30.5 l-1.0 -3.9" fill="none" stroke="#000" stroke-width="2.4" stroke-linecap="round" stroke-linejoin="round"/></svg><text x="306" y="671" font-size="7.5" font-family="system-ui, -apple-system, Segoe UI, sans-serif" text-anchor="middle" fill="#78716c">warning-low-temperature</text><svg x="364" y="606" width="52" height="52" viewBox="0 0 64 64" xmlns="http://www.w3.org/2000/svg"><path d="M32 6 L60 55 L4 55 Z" fill="#f7ce00" stroke="#000" stroke-width="3" stroke-linejoin="round"/><path d="M24 46 V27 a8 8 0 0 1 16 0 V46 H35 V27.5 a3 3 0 0 0 -6 0 V46 z" fill="#000"/></svg><text x="390" y="671" font-size="7.5" font-family="system-ui, -apple-system, Segoe UI, sans-serif" text-anchor="middle" fill="#78716c">warning-magnetic-field</text><svg x="448" y="606" width="52" height="52" viewBox="0 0 64 64" xmlns="http://www.w3.org/2000/svg"><path d="M32 6 L60 55 L4 55 Z" fill="#f7ce00" stroke="#000" stroke-width="3" stroke-linejoin="round"/><line x1="24" y1="26" x2="24" y2="48" stroke="#000" stroke-width="3" stroke-linecap="round"/><path d="M29 32 a7 7 0 0 1 0 10 M34 29 a11.5 11.5 0 0 1 0 16 M39 26 a16 16 0 0 1 0 22" fill="none" stroke="#000" stroke-width="2.6" stroke-linecap="round" stroke-linejoin="round"/></svg><text x="474" y="671" font-size="7.5" font-family="system-ui, -apple-system, Segoe UI, sans-serif" text-anchor="middle" fill="#78716c">warning-non-ionising-radiation</text><svg x="532" y="606" width="52" height="52" viewBox="0 0 64 64" xmlns="http://www.w3.org/2000/svg"><path d="M32 6 L60 55 L4 55 Z" fill="#f7ce00" stroke="#000" stroke-width="3" stroke-linejoin="round"/><circle cx="32" cy="35" r="2.4" fill="#000"/><path d="M29.8 31.1 L25.8 24.2 A12.5 12.5 0 0 1 38.3 24.2 L34.3 31.1 A4.5 4.5 0 0 0 29.8 31.1 Z" fill="#000"/><path d="M36.5 35.0 L44.5 35.0 A12.5 12.5 0 0 1 38.3 45.8 L34.3 38.9 A4.5 4.5 0 0 0 36.5 35.0 Z" fill="#000"/><path d="M29.8 38.9 L25.8 45.8 A12.5 12.5 0 0 1 19.5 35.0 L27.5 35.0 A4.5 4.5 0 0 0 29.8 38.9 Z" fill="#000"/></svg><text x="558" y="671" font-size="7.5" font-family="system-ui, -apple-system, Segoe UI, sans-serif" text-anchor="middle" fill="#78716c">warning-radioactive</text><svg x="616" y="606" width="52" height="52" viewBox="0 0 64 64" xmlns="http://www.w3.org/2000/svg"><path d="M32 6 L60 55 L4 55 Z" fill="#f7ce00" stroke="#000" stroke-width="3" stroke-linejoin="round"/><path d="M18 50 H46" fill="none" stroke="#000" stroke-width="2.5" stroke-linecap="round" stroke-linejoin="round"/><circle cx="27" cy="23" r="3.8" fill="#000"/><path d="M28 27 L34 36 M30 30 L22 26 M30 30 L38 25 M34 36 L44 40 M34 36 L40 46" fill="none" stroke="#000" stroke-width="3" stroke-linecap="round" stroke-linejoin="round"/></svg><text x="642" y="671" font-size="7.5" font-family="system-ui, -apple-system, Segoe UI, sans-serif" text-anchor="middle" fill="#78716c">warning-slippery</text><svg x="28" y="704" width="52" height="52" viewBox="0 0 64 64" xmlns="http://www.w3.org/2000/svg"><path d="M32 6 L60 55 L4 55 Z" fill="#f7ce00" stroke="#000" stroke-width="3" stroke-linejoin="round"/><circle cx="32" cy="16" r="3" fill="none" stroke="#000" stroke-width="2.5" stroke-linecap="round" stroke-linejoin="round"/><line x1="32" y1="19" x2="32" y2="24" stroke="#000" stroke-width="2.5"/><path d="M25 34 L32 24 L39 34" fill="none" stroke="#000" stroke-width="2" stroke-linecap="round" stroke-linejoin="round"/><rect x="24" y="34" width="16" height="12" fill="#000"/></svg><text x="54" y="769" font-size="7.5" font-family="system-ui, -apple-system, Segoe UI, sans-serif" text-anchor="middle" fill="#78716c">warning-suspended-load</text><svg x="112" y="704" width="52" height="52" viewBox="0 0 64 64" xmlns="http://www.w3.org/2000/svg"><path d="M32 6 L60 55 L4 55 Z" fill="#f7ce00" stroke="#000" stroke-width="3" stroke-linejoin="round"/><path d="M21 45 L43 29 M21 29 L43 45" fill="none" stroke="#000" stroke-width="4" stroke-linecap="round" stroke-linejoin="round"/><circle cx="32" cy="31" r="9" fill="#000"/><rect x="28" y="38.5" width="8" height="3.5" fill="#000"/><circle cx="28.5" cy="30" r="2.1" fill="#f7ce00"/><circle cx="35.5" cy="30" r="2.1" fill="#f7ce00"/><path d="M32 33.5 l-1.6 2.8 h3.2 z" fill="#f7ce00"/></svg><text x="138" y="769" font-size="7.5" font-family="system-ui, -apple-system, Segoe UI, sans-serif" text-anchor="middle" fill="#78716c">warning-toxic</text><svg x="196" y="704" width="52" height="52" viewBox="0 0 64 64" xmlns="http://www.w3.org/2000/svg"><path d="M32 6 L60 55 L4 55 Z" fill="#f7ce00" stroke="#000" stroke-width="3" stroke-linejoin="round"/><path d="M16 50 H48" fill="none" stroke="#000" stroke-width="2.5" stroke-linecap="round" stroke-linejoin="round"/><rect x="38" y="42" width="8" height="8" fill="#000"/><circle cx="24" cy="24" r="3.8" fill="#000"/><path d="M25 28 L31 37 M27 31 L35 27 M27 31 L34 34 M31 37 L38 43 M31 37 L23 45" fill="none" stroke="#000" stroke-width="3" stroke-linecap="round" stroke-linejoin="round"/></svg><text x="222" y="769" font-size="7.5" font-family="system-ui, -apple-system, Segoe UI, sans-serif" text-anchor="middle" fill="#78716c">warning-trip-hazard</text></svg>
