<svg viewBox="0 0 696 220" width="696" xmlns="http://www.w3.org/2000/svg"><rect x="0" y="0" width="696" height="220" rx="8" fill="#ffffff" stroke="#d6d3cd"/><svg x="28" y="18" width="52" height="52" viewBox="0 0 64 64" xmlns="http://www.w3.org/2000/svg" fill="none" stroke="#000" stroke-width="1.8"><rect x="6" y="17" width="52" height="34"/><line x1="6" y1="47.6" x2="58" y2="47.6"/><line x1="-1.8" y1="34" x2="65.8" y2="34" stroke-width="0.9" stroke-dasharray="6 2.2 1.4 2.2"/><text x="61" y="9" font-size="8" font-weight="bold" text-anchor="end" fill="#000" stroke="none">L ELEV</text></svg><text x="54" y="83" font-size="7.5" font-family="system-ui, -apple-system, Segoe UI, sans-serif" text-anchor="middle" fill="#78716c">angle-elevation</text><svg x="112" y="18" width="52" height="52" viewBox="0 0 64 64" xmlns="http://www.w3.org/2000/svg" fill="none" stroke="#000" stroke-width="1.8"><path d="M11.00 12.00 L15.20 12.00 L15.20 45.60 L15.20 45.60 L15.41 46.90 L16.00 48.07 L16.93 49.00 L18.10 49.59 L19.40 49.80 L53.00 49.80 L53.00 54.00 L11.00 54.00 Z"/><line x1="4.7" y1="33.0" x2="59.3" y2="33.0" stroke-width="0.9" stroke-dasharray="6 2.2 1.4 2.2"/><line x1="32.0" y1="5.7" x2="32.0" y2="60.3" stroke-width="0.9" stroke-dasharray="6 2.2 1.4 2.2"/><text x="61" y="9" font-size="8" font-weight="bold" text-anchor="end" fill="#000" stroke="none">L</text></svg><text x="138" y="83" font-size="7.5" font-family="system-ui, -apple-system, Segoe UI, sans-serif" text-anchor="middle" fill="#78716c">angle-equal</text><svg x="196" y="18" width="52" height="52" viewBox="0 0 64 64" xmlns="http://www.w3.org/2000/svg" fill="none" stroke="#000" stroke-width="1.8"><path d="M18.56 12.00 L22.06 12.00 L22.06 47.14 L22.06 47.14 L22.22 48.18 L22.70 49.11 L23.45 49.86 L24.38 50.34 L25.42 50.50 L45.44 50.50 L45.44 54.00 L18.56 54.00 Z"/><line x1="14.5" y1="33.0" x2="49.5" y2="33.0" stroke-width="0.9" stroke-dasharray="6 2.2 1.4 2.2"/><line x1="32.0" y1="5.7" x2="32.0" y2="60.3" stroke-width="0.9" stroke-dasharray="6 2.2 1.4 2.2"/><text x="61" y="9" font-size="8" font-weight="bold" text-anchor="end" fill="#000" stroke="none">L</text></svg><text x="222" y="83" font-size="7.5" font-family="system-ui, -apple-system, Segoe UI, sans-serif" text-anchor="middle" fill="#78716c">angle-unequal</text><svg x="280" y="18" width="52" height="52" viewBox="0 0 64 64" xmlns="http://www.w3.org/2000/svg" fill="none" stroke="#000" stroke-width="1.8"><rect x="6" y="17" width="52" height="34"/><line x1="6" y1="20.0" x2="58" y2="20.0"/><line x1="6" y1="48.0" x2="58" y2="48.0"/><line x1="-1.8" y1="34" x2="65.8" y2="34" stroke-width="0.9" stroke-dasharray="6 2.2 1.4 2.2"/><text x="61" y="9" font-size="8" font-weight="bold" text-anchor="end" fill="#000" stroke="none">[ ELEV</text></svg><text x="306" y="83" font-size="7.5" font-family="system-ui, -apple-system, Segoe UI, sans-serif" text-anchor="middle" fill="#78716c">channel-elevation</text><svg x="364" y="18" width="52" height="52" viewBox="0 0 64 64" xmlns="http://www.w3.org/2000/svg" fill="none" stroke="#000" stroke-width="1.8"><path d="M24.34 12.00 L39.66 12.00 L39.66 15.50 L29.84 15.50 L29.84 15.50 L29.22 15.60 L28.66 15.88 L28.22 16.32 L27.93 16.88 L27.84 17.50 L27.84 48.50 L27.84 48.50 L27.93 49.12 L28.22 49.68 L28.66 50.12 L29.22 50.40 L29.84 50.50 L39.66 50.50 L39.66 54.00 L24.34 54.00 Z"/><line x1="22.0" y1="33.0" x2="42.0" y2="33.0" stroke-width="0.9" stroke-dasharray="6 2.2 1.4 2.2"/><line x1="32.0" y1="5.7" x2="32.0" y2="60.3" stroke-width="0.9" stroke-dasharray="6 2.2 1.4 2.2"/><text x="61" y="9" font-size="8" font-weight="bold" text-anchor="end" fill="#000" stroke="none">[</text></svg><text x="390" y="83" font-size="7.5" font-family="system-ui, -apple-system, Segoe UI, sans-serif" text-anchor="middle" fill="#78716c">channel</text><svg x="448" y="18" width="52" height="52" viewBox="0 0 64 64" xmlns="http://www.w3.org/2000/svg" fill="none" stroke="#000" stroke-width="1.8"><circle cx="32" cy="33" r="21.0"/><circle cx="32" cy="33" r="17.5"/><line x1="4.7" y1="33.0" x2="59.3" y2="33.0" stroke-width="0.9" stroke-dasharray="6 2.2 1.4 2.2"/><line x1="32.0" y1="5.7" x2="32.0" y2="60.3" stroke-width="0.9" stroke-dasharray="6 2.2 1.4 2.2"/><text x="61" y="9" font-size="8" font-weight="bold" text-anchor="end" fill="#000" stroke="none">CHS</text></svg><text x="474" y="83" font-size="7.5" font-family="system-ui, -apple-system, Segoe UI, sans-serif" text-anchor="middle" fill="#78716c">chs</text><svg x="532" y="18" width="52" height="52" viewBox="0 0 64 64" xmlns="http://www.w3.org/2000/svg" fill="none" stroke="#000" stroke-width="1.8"><path d="M15.76 12.00 L48.24 12.00 L48.24 15.50 L36.56 15.50 L36.56 15.50 L35.69 15.64 L34.91 16.04 L34.29 16.66 L33.89 17.44 L33.75 18.31 L33.75 47.69 L33.75 47.69 L33.89 48.56 L34.29 49.34 L34.91 49.96 L35.69 50.36 L36.56 50.50 L48.24 50.50 L48.24 54.00 L15.76 54.00 L15.76 50.50 L27.44 50.50 L27.44 50.50 L28.31 50.36 L29.09 49.96 L29.71 49.34 L30.11 48.56 L30.25 47.69 L30.25 18.31 L30.25 18.31 L30.11 17.44 L29.71 16.66 L29.09 16.04 L28.31 15.64 L27.44 15.50 L15.76 15.50 Z"/><line x1="10.9" y1="33.0" x2="53.1" y2="33.0" stroke-width="0.9" stroke-dasharray="6 2.2 1.4 2.2"/><line x1="32.0" y1="5.7" x2="32.0" y2="60.3" stroke-width="0.9" stroke-dasharray="6 2.2 1.4 2.2"/><text x="61" y="9" font-size="8" font-weight="bold" text-anchor="end" fill="#000" stroke="none">HM</text></svg><text x="558" y="83" font-size="7.5" font-family="system-ui, -apple-system, Segoe UI, sans-serif" text-anchor="middle" fill="#78716c">hm-shape</text><svg x="616" y="18" width="52" height="52" viewBox="0 0 64 64" xmlns="http://www.w3.org/2000/svg" fill="none" stroke="#000" stroke-width="1.8"><path d="M21.50 12.00 L42.50 12.00 L42.50 15.50 L36.06 15.50 L36.06 15.50 L35.35 15.61 L34.70 15.94 L34.19 16.45 L33.86 17.10 L33.75 17.81 L33.75 48.19 L33.75 48.19 L33.86 48.90 L34.19 49.55 L34.70 50.06 L35.35 50.39 L36.06 50.50 L42.50 50.50 L42.50 54.00 L21.50 54.00 L21.50 50.50 L27.94 50.50 L27.94 50.50 L28.65 50.39 L29.30 50.06 L29.81 49.55 L30.14 48.90 L30.25 48.19 L30.25 17.81 L30.25 17.81 L30.14 17.10 L29.81 16.45 L29.30 15.94 L28.65 15.61 L27.94 15.50 L21.50 15.50 Z"/><line x1="18.4" y1="33.0" x2="45.6" y2="33.0" stroke-width="0.9" stroke-dasharray="6 2.2 1.4 2.2"/><line x1="32.0" y1="5.7" x2="32.0" y2="60.3" stroke-width="0.9" stroke-dasharray="6 2.2 1.4 2.2"/><text x="61" y="9" font-size="8" font-weight="bold" text-anchor="end" fill="#000" stroke="none">HN</text></svg><text x="642" y="83" font-size="7.5" font-family="system-ui, -apple-system, Segoe UI, sans-serif" text-anchor="middle" fill="#78716c">hn-shape</text><svg x="28" y="116" width="52" height="52" viewBox="0 0 64 64" xmlns="http://www.w3.org/2000/svg" fill="none" stroke="#000" stroke-width="1.8"><rect x="6" y="17" width="52" height="34"/><line x1="6" y1="20.0" x2="58" y2="20.0" stroke-dasharray="6 3.5"/><line x1="6" y1="48.0" x2="58" y2="48.0" stroke-dasharray="6 3.5"/><line x1="-1.8" y1="34" x2="65.8" y2="34" stroke-width="0.9" stroke-dasharray="6 2.2 1.4 2.2"/><text x="61" y="9" font-size="8" font-weight="bold" text-anchor="end" fill="#000" stroke="none">SHS ELEV</text></svg><text x="54" y="181" font-size="7.5" font-family="system-ui, -apple-system, Segoe UI, sans-serif" text-anchor="middle" fill="#78716c">hollow-section-elevation</text><svg x="112" y="116" width="52" height="52" viewBox="0 0 64 64" xmlns="http://www.w3.org/2000/svg" fill="none" stroke="#000" stroke-width="1.8"><path d="M11.00 12.00 L53.00 12.00 L53.00 15.50 L36.48 15.50 L36.48 15.50 L35.64 15.63 L34.88 16.02 L34.27 16.63 L33.88 17.39 L33.75 18.23 L33.75 47.77 L33.75 47.77 L33.88 48.61 L34.27 49.37 L34.88 49.98 L35.64 50.37 L36.48 50.50 L53.00 50.50 L53.00 54.00 L11.00 54.00 L11.00 50.50 L27.52 50.50 L27.52 50.50 L28.36 50.37 L29.12 49.98 L29.73 49.37 L30.12 48.61 L30.25 47.77 L30.25 18.23 L30.25 18.23 L30.12 17.39 L29.73 16.63 L29.12 16.02 L28.36 15.63 L27.52 15.50 L11.00 15.50 Z"/><line x1="4.7" y1="33.0" x2="59.3" y2="33.0" stroke-width="0.9" stroke-dasharray="6 2.2 1.4 2.2"/><line x1="32.0" y1="5.7" x2="32.0" y2="60.3" stroke-width="0.9" stroke-dasharray="6 2.2 1.4 2.2"/><text x="61" y="9" font-size="8" font-weight="bold" text-anchor="end" fill="#000" stroke="none">HW</text></svg><text x="138" y="181" font-size="7.5" font-family="system-ui, -apple-system, Segoe UI, sans-serif" text-anchor="middle" fill="#78716c">hw-shape</text><svg x="196" y="116" width="52" height="52" viewBox="0 0 64 64" xmlns="http://www.w3.org/2000/svg" fill="none" stroke="#000" stroke-width="1.8"><rect x="6" y="17" width="52" height="34"/><line x1="6" y1="20.0" x2="58" y2="20.0"/><line x1="6" y1="48.0" x2="58" y2="48.0"/><line x1="-1.8" y1="34" x2="65.8" y2="34" stroke-width="0.9" stroke-dasharray="6 2.2 1.4 2.2"/><text x="61" y="9" font-size="8" font-weight="bold" text-anchor="end" fill="#000" stroke="none">HW ELEV</text></svg><text x="222" y="181" font-size="7.5" font-family="system-ui, -apple-system, Segoe UI, sans-serif" text-anchor="middle" fill="#78716c">i-beam-elevation</text><svg x="280" y="116" width="52" height="52" viewBox="0 0 64 64" xmlns="http://www.w3.org/2000/svg" fill="none" stroke="#000" stroke-width="1.8"><path d="M21.50 12.00 L42.50 12.00 L42.50 15.50 L35.75 15.50 L35.75 15.50 L35.13 15.60 L34.57 15.88 L34.13 16.32 L33.85 16.88 L33.75 17.50 L33.75 48.50 L33.75 48.50 L33.85 49.12 L34.13 49.68 L34.57 50.12 L35.13 50.40 L35.75 50.50 L42.50 50.50 L42.50 54.00 L21.50 54.00 L21.50 50.50 L28.25 50.50 L28.25 50.50 L28.87 50.40 L29.43 50.12 L29.87 49.68 L30.15 49.12 L30.25 48.50 L30.25 17.50 L30.25 17.50 L30.15 16.88 L29.87 16.32 L29.43 15.88 L28.87 15.60 L28.25 15.50 L21.50 15.50 Z"/><line x1="18.4" y1="33.0" x2="45.6" y2="33.0" stroke-width="0.9" stroke-dasharray="6 2.2 1.4 2.2"/><line x1="32.0" y1="5.7" x2="32.0" y2="60.3" stroke-width="0.9" stroke-dasharray="6 2.2 1.4 2.2"/><text x="61" y="9" font-size="8" font-weight="bold" text-anchor="end" fill="#000" stroke="none">I</text></svg><text x="306" y="181" font-size="7.5" font-family="system-ui, -apple-system, Segoe UI, sans-serif" text-anchor="middle" fill="#78716c">i-beam</text><svg x="364" y="116" width="52" height="52" viewBox="0 0 64 64" xmlns="http://www.w3.org/2000/svg" fill="none" stroke="#000" stroke-width="1.8"><rect x="11.0" y="30.9" width="42.0" height="4.2"/><line x1="4.7" y1="33.0" x2="59.3" y2="33.0" stroke-width="0.9" stroke-dasharray="6 2.2 1.4 2.2"/><line x1="32.0" y1="30.3" x2="32.0" y2="35.7" stroke-width="0.9" stroke-dasharray="6 2.2 1.4 2.2"/><text x="61" y="9" font-size="8" font-weight="bold" text-anchor="end" fill="#000" stroke="none">PL</text></svg><text x="390" y="181" font-size="7.5" font-family="system-ui, -apple-system, Segoe UI, sans-serif" text-anchor="middle" fill="#78716c">plate</text><svg x="448" y="116" width="52" height="52" viewBox="0 0 64 64" xmlns="http://www.w3.org/2000/svg" fill="none" stroke="#000" stroke-width="1.8"><path d="M11.00 23.20 L11.21 21.90 L11.80 20.73 L12.73 19.80 L13.90 19.21 L15.20 19.00 L48.80 19.00 L50.10 19.21 L51.27 19.80 L52.20 20.73 L52.79 21.90 L53.00 23.20 L53.00 42.80 L52.79 44.10 L52.20 45.27 L51.27 46.20 L50.10 46.79 L48.80 47.00 L15.20 47.00 L13.90 46.79 L12.73 46.20 L11.80 45.27 L11.21 44.10 L11.00 42.80 Z"/><path d="M14.50 23.30 L14.54 23.05 L14.65 22.83 L14.83 22.65 L15.05 22.54 L15.30 22.50 L48.70 22.50 L48.95 22.54 L49.17 22.65 L49.35 22.83 L49.46 23.05 L49.50 23.30 L49.50 42.70 L49.46 42.95 L49.35 43.17 L49.17 43.35 L48.95 43.46 L48.70 43.50 L15.30 43.50 L15.05 43.46 L14.83 43.35 L14.65 43.17 L14.54 42.95 L14.50 42.70 Z"/><line x1="4.7" y1="33.0" x2="59.3" y2="33.0" stroke-width="0.9" stroke-dasharray="6 2.2 1.4 2.2"/><line x1="32.0" y1="14.8" x2="32.0" y2="51.2" stroke-width="0.9" stroke-dasharray="6 2.2 1.4 2.2"/><text x="61" y="9" font-size="8" font-weight="bold" text-anchor="end" fill="#000" stroke="none">RHS</text></svg><text x="474" y="181" font-size="7.5" font-family="system-ui, -apple-system, Segoe UI, sans-serif" text-anchor="middle" fill="#78716c">rhs</text><svg x="532" y="116" width="52" height="52" viewBox="0 0 64 64" xmlns="http://www.w3.org/2000/svg" fill="none" stroke="#000" stroke-width="1.8"><path d="M11.00 18.30 L11.31 16.35 L12.20 14.60 L13.60 13.20 L15.35 12.31 L17.30 12.00 L46.70 12.00 L48.65 12.31 L50.40 13.20 L51.80 14.60 L52.69 16.35 L53.00 18.30 L53.00 47.70 L52.69 49.65 L51.80 51.40 L50.40 52.80 L48.65 53.69 L46.70 54.00 L17.30 54.00 L15.35 53.69 L13.60 52.80 L12.20 51.40 L11.31 49.65 L11.00 47.70 Z"/><path d="M14.50 18.30 L14.64 17.43 L15.03 16.65 L15.65 16.03 L16.43 15.64 L17.30 15.50 L46.70 15.50 L47.57 15.64 L48.35 16.03 L48.97 16.65 L49.36 17.43 L49.50 18.30 L49.50 47.70 L49.36 48.57 L48.97 49.35 L48.35 49.97 L47.57 50.36 L46.70 50.50 L17.30 50.50 L16.43 50.36 L15.65 49.97 L15.03 49.35 L14.64 48.57 L14.50 47.70 Z"/><line x1="4.7" y1="33.0" x2="59.3" y2="33.0" stroke-width="0.9" stroke-dasharray="6 2.2 1.4 2.2"/><line x1="32.0" y1="5.7" x2="32.0" y2="60.3" stroke-width="0.9" stroke-dasharray="6 2.2 1.4 2.2"/><text x="61" y="9" font-size="8" font-weight="bold" text-anchor="end" fill="#000" stroke="none">SHS</text></svg><text x="558" y="181" font-size="7.5" font-family="system-ui, -apple-system, Segoe UI, sans-serif" text-anchor="middle" fill="#78716c">shs</text><svg x="616" y="116" width="52" height="52" viewBox="0 0 64 64" xmlns="http://www.w3.org/2000/svg" fill="none" stroke="#000" stroke-width="1.8"><rect x="6" y="17" width="52" height="34"/><line x1="6" y1="21.1" x2="58" y2="21.1"/><line x1="-1.8" y1="34" x2="65.8" y2="34" stroke-width="0.9" stroke-dasharray="6 2.2 1.4 2.2"/><text x="61" y="9" font-size="8" font-weight="bold" text-anchor="end" fill="#000" stroke="none">T ELEV</text></svg><text x="642" y="181" font-size="7.5" font-family="system-ui, -apple-system, Segoe UI, sans-serif" text-anchor="middle" fill="#78716c">tee-elevation</text></svg>
