<svg viewBox="0 0 696 318" width="696" xmlns="http://www.w3.org/2000/svg"><rect x="0" y="0" width="696" height="318" rx="8" fill="#ffffff" stroke="#d6d3cd"/><svg x="28" y="18" width="52" height="52" viewBox="0 0 64 64" xmlns="http://www.w3.org/2000/svg" fill="none" stroke="#000" stroke-width="1.8"><rect x="6" y="17" width="52" height="34"/><line x1="6" y1="47.6" x2="58" y2="47.6"/><line x1="-1.8" y1="34" x2="65.8" y2="34" stroke-width="0.9" stroke-dasharray="6 2.2 1.4 2.2"/><text x="61" y="9" font-size="8" font-weight="bold" text-anchor="end" fill="#000" stroke="none">L ELEV</text></svg><text x="54" y="83" font-size="7.5" font-family="system-ui, -apple-system, Segoe UI, sans-serif" text-anchor="middle" fill="#78716c">angle-elevation</text><svg x="112" y="18" width="52" height="52" viewBox="0 0 64 64" xmlns="http://www.w3.org/2000/svg" fill="none" stroke="#000" stroke-width="1.8"><rect x="6" y="17" width="52" height="34"/><line x1="6" y1="20.0" x2="58" y2="20.0"/><line x1="6" y1="48.0" x2="58" y2="48.0"/><line x1="-1.8" y1="34" x2="65.8" y2="34" stroke-width="0.9" stroke-dasharray="6 2.2 1.4 2.2"/><text x="61" y="9" font-size="8" font-weight="bold" text-anchor="end" fill="#000" stroke="none">UPN ELEV</text></svg><text x="138" y="83" font-size="7.5" font-family="system-ui, -apple-system, Segoe UI, sans-serif" text-anchor="middle" fill="#78716c">channel-elevation</text><svg x="196" y="18" width="52" height="52" viewBox="0 0 64 64" xmlns="http://www.w3.org/2000/svg" fill="none" stroke="#000" stroke-width="1.8"><circle cx="32" cy="33" r="21.0"/><circle cx="32" cy="33" r="17.5"/><line x1="4.7" y1="33.0" x2="59.3" y2="33.0" stroke-width="0.9" stroke-dasharray="6 2.2 1.4 2.2"/><line x1="32.0" y1="5.7" x2="32.0" y2="60.3" stroke-width="0.9" stroke-dasharray="6 2.2 1.4 2.2"/><text x="61" y="9" font-size="8" font-weight="bold" text-anchor="end" fill="#000" stroke="none">CHS</text></svg><text x="222" y="83" font-size="7.5" font-family="system-ui, -apple-system, Segoe UI, sans-serif" text-anchor="middle" fill="#78716c">chs</text><svg x="280" y="18" width="52" height="52" viewBox="0 0 64 64" xmlns="http://www.w3.org/2000/svg" fill="none" stroke="#000" stroke-width="1.8"><path d="M11.00 13.05 L53.00 13.05 L53.00 16.55 L37.53 16.55 L37.53 16.55 L36.36 16.74 L35.31 17.27 L34.47 18.11 L33.94 19.16 L33.75 20.33 L33.75 45.67 L33.75 45.67 L33.94 46.84 L34.47 47.89 L35.31 48.73 L36.36 49.26 L37.53 49.45 L53.00 49.45 L53.00 52.95 L11.00 52.95 L11.00 49.45 L26.47 49.45 L26.47 49.45 L27.64 49.26 L28.69 48.73 L29.53 47.89 L30.06 46.84 L30.25 45.67 L30.25 20.33 L30.25 20.33 L30.06 19.16 L29.53 18.11 L28.69 17.27 L27.64 16.74 L26.47 16.55 L11.00 16.55 Z"/><line x1="4.7" y1="33.0" x2="59.3" y2="33.0" stroke-width="0.9" stroke-dasharray="6 2.2 1.4 2.2"/><line x1="32.0" y1="7.1" x2="32.0" y2="58.9" stroke-width="0.9" stroke-dasharray="6 2.2 1.4 2.2"/><text x="61" y="9" font-size="8" font-weight="bold" text-anchor="end" fill="#000" stroke="none">HEA</text></svg><text x="306" y="83" font-size="7.5" font-family="system-ui, -apple-system, Segoe UI, sans-serif" text-anchor="middle" fill="#78716c">hea</text><svg x="364" y="18" width="52" height="52" viewBox="0 0 64 64" xmlns="http://www.w3.org/2000/svg" fill="none" stroke="#000" stroke-width="1.8"><path d="M11.00 12.00 L53.00 12.00 L53.00 15.50 L37.53 15.50 L37.53 15.50 L36.36 15.69 L35.31 16.22 L34.47 17.06 L33.94 18.11 L33.75 19.28 L33.75 46.72 L33.75 46.72 L33.94 47.89 L34.47 48.94 L35.31 49.78 L36.36 50.31 L37.53 50.50 L53.00 50.50 L53.00 54.00 L11.00 54.00 L11.00 50.50 L26.47 50.50 L26.47 50.50 L27.64 50.31 L28.69 49.78 L29.53 48.94 L30.06 47.89 L30.25 46.72 L30.25 19.28 L30.25 19.28 L30.06 18.11 L29.53 17.06 L28.69 16.22 L27.64 15.69 L26.47 15.50 L11.00 15.50 Z"/><line x1="4.7" y1="33.0" x2="59.3" y2="33.0" stroke-width="0.9" stroke-dasharray="6 2.2 1.4 2.2"/><line x1="32.0" y1="5.7" x2="32.0" y2="60.3" stroke-width="0.9" stroke-dasharray="6 2.2 1.4 2.2"/><text x="61" y="9" font-size="8" font-weight="bold" text-anchor="end" fill="#000" stroke="none">HEB</text></svg><text x="390" y="83" font-size="7.5" font-family="system-ui, -apple-system, Segoe UI, sans-serif" text-anchor="middle" fill="#78716c">heb</text><svg x="448" y="18" width="52" height="52" viewBox="0 0 64 64" xmlns="http://www.w3.org/2000/svg" fill="none" stroke="#000" stroke-width="1.8"><path d="M12.34 12.00 L51.66 12.00 L51.66 16.77 L37.19 16.77 L37.19 16.77 L36.12 16.94 L35.17 17.43 L34.41 18.19 L33.92 19.15 L33.75 20.21 L33.75 45.79 L33.75 45.79 L33.92 46.85 L34.41 47.81 L35.17 48.57 L36.12 49.06 L37.19 49.23 L51.66 49.23 L51.66 54.00 L12.34 54.00 L12.34 49.23 L26.81 49.23 L26.81 49.23 L27.88 49.06 L28.83 48.57 L29.59 47.81 L30.08 46.85 L30.25 45.79 L30.25 20.21 L30.25 20.21 L30.08 19.15 L29.59 18.19 L28.83 17.43 L27.88 16.94 L26.81 16.77 L12.34 16.77 Z"/><line x1="6.4" y1="33.0" x2="57.6" y2="33.0" stroke-width="0.9" stroke-dasharray="6 2.2 1.4 2.2"/><line x1="32.0" y1="5.7" x2="32.0" y2="60.3" stroke-width="0.9" stroke-dasharray="6 2.2 1.4 2.2"/><text x="61" y="9" font-size="8" font-weight="bold" text-anchor="end" fill="#000" stroke="none">HEM</text></svg><text x="474" y="83" font-size="7.5" font-family="system-ui, -apple-system, Segoe UI, sans-serif" text-anchor="middle" fill="#78716c">hem</text><svg x="532" y="18" width="52" height="52" viewBox="0 0 64 64" xmlns="http://www.w3.org/2000/svg" fill="none" stroke="#000" stroke-width="1.8"><rect x="6" y="17" width="52" height="34"/><line x1="6" y1="20.0" x2="58" y2="20.0" stroke-dasharray="6 3.5"/><line x1="6" y1="48.0" x2="58" y2="48.0" stroke-dasharray="6 3.5"/><line x1="-1.8" y1="34" x2="65.8" y2="34" stroke-width="0.9" stroke-dasharray="6 2.2 1.4 2.2"/><text x="61" y="9" font-size="8" font-weight="bold" text-anchor="end" fill="#000" stroke="none">SHS ELEV</text></svg><text x="558" y="83" font-size="7.5" font-family="system-ui, -apple-system, Segoe UI, sans-serif" text-anchor="middle" fill="#78716c">hollow-section-elevation</text><svg x="616" y="18" width="52" height="52" viewBox="0 0 64 64" xmlns="http://www.w3.org/2000/svg" fill="none" stroke="#000" stroke-width="1.8"><rect x="6" y="17" width="52" height="34"/><line x1="6" y1="20.0" x2="58" y2="20.0"/><line x1="6" y1="48.0" x2="58" y2="48.0"/><line x1="-1.8" y1="34" x2="65.8" y2="34" stroke-width="0.9" stroke-dasharray="6 2.2 1.4 2.2"/><text x="61" y="9" font-size="8" font-weight="bold" text-anchor="end" fill="#000" stroke="none">HEB ELEV</text></svg><text x="642" y="83" font-size="7.5" font-family="system-ui, -apple-system, Segoe UI, sans-serif" text-anchor="middle" fill="#78716c">i-beam-elevation</text><svg x="28" y="116" width="52" height="52" viewBox="0 0 64 64" xmlns="http://www.w3.org/2000/svg" fill="none" stroke="#000" stroke-width="1.8"><path d="M21.50 12.00 L42.50 12.00 L42.50 15.50 L36.27 15.50 L36.27 15.50 L35.49 15.62 L34.79 15.98 L34.23 16.54 L33.87 17.24 L33.75 18.02 L33.75 47.98 L33.75 47.98 L33.87 48.76 L34.23 49.46 L34.79 50.02 L35.49 50.38 L36.27 50.50 L42.50 50.50 L42.50 54.00 L21.50 54.00 L21.50 50.50 L27.73 50.50 L27.73 50.50 L28.51 50.38 L29.21 50.02 L29.77 49.46 L30.13 48.76 L30.25 47.98 L30.25 18.02 L30.25 18.02 L30.13 17.24 L29.77 16.54 L29.21 15.98 L28.51 15.62 L27.73 15.50 L21.50 15.50 Z"/><line x1="18.4" y1="33.0" x2="45.6" y2="33.0" stroke-width="0.9" stroke-dasharray="6 2.2 1.4 2.2"/><line x1="32.0" y1="5.7" x2="32.0" y2="60.3" stroke-width="0.9" stroke-dasharray="6 2.2 1.4 2.2"/><text x="61" y="9" font-size="8" font-weight="bold" text-anchor="end" fill="#000" stroke="none">IPE</text></svg><text x="54" y="181" font-size="7.5" font-family="system-ui, -apple-system, Segoe UI, sans-serif" text-anchor="middle" fill="#78716c">ipe</text><svg x="112" y="116" width="52" height="52" viewBox="0 0 64 64" xmlns="http://www.w3.org/2000/svg" fill="none" stroke="#000" stroke-width="1.8"><path d="M11.00 12.00 L15.20 12.00 L15.20 44.76 L15.20 44.76 L15.45 46.32 L16.16 47.72 L17.28 48.84 L18.68 49.55 L20.24 49.80 L53.00 49.80 L53.00 54.00 L11.00 54.00 Z"/><line x1="4.7" y1="33.0" x2="59.3" y2="33.0" stroke-width="0.9" stroke-dasharray="6 2.2 1.4 2.2"/><line x1="32.0" y1="5.7" x2="32.0" y2="60.3" stroke-width="0.9" stroke-dasharray="6 2.2 1.4 2.2"/><text x="61" y="9" font-size="8" font-weight="bold" text-anchor="end" fill="#000" stroke="none">L</text></svg><text x="138" y="181" font-size="7.5" font-family="system-ui, -apple-system, Segoe UI, sans-serif" text-anchor="middle" fill="#78716c">l-equal</text><svg x="196" y="116" width="52" height="52" viewBox="0 0 64 64" xmlns="http://www.w3.org/2000/svg" fill="none" stroke="#000" stroke-width="1.8"><path d="M19.40 12.00 L22.90 12.00 L22.90 47.14 L22.90 47.14 L23.06 48.18 L23.54 49.11 L24.29 49.86 L25.22 50.34 L26.26 50.50 L44.60 50.50 L44.60 54.00 L19.40 54.00 Z"/><line x1="15.6" y1="33.0" x2="48.4" y2="33.0" stroke-width="0.9" stroke-dasharray="6 2.2 1.4 2.2"/><line x1="32.0" y1="5.7" x2="32.0" y2="60.3" stroke-width="0.9" stroke-dasharray="6 2.2 1.4 2.2"/><text x="61" y="9" font-size="8" font-weight="bold" text-anchor="end" fill="#000" stroke="none">L</text></svg><text x="222" y="181" font-size="7.5" font-family="system-ui, -apple-system, Segoe UI, sans-serif" text-anchor="middle" fill="#78716c">l-unequal</text><svg x="280" y="116" width="52" height="52" viewBox="0 0 64 64" xmlns="http://www.w3.org/2000/svg" fill="none" stroke="#000" stroke-width="1.8"><rect x="11.0" y="30.9" width="42.0" height="4.2"/><line x1="4.7" y1="33.0" x2="59.3" y2="33.0" stroke-width="0.9" stroke-dasharray="6 2.2 1.4 2.2"/><line x1="32.0" y1="30.3" x2="32.0" y2="35.7" stroke-width="0.9" stroke-dasharray="6 2.2 1.4 2.2"/><text x="61" y="9" font-size="8" font-weight="bold" text-anchor="end" fill="#000" stroke="none">PL</text></svg><text x="306" y="181" font-size="7.5" font-family="system-ui, -apple-system, Segoe UI, sans-serif" text-anchor="middle" fill="#78716c">plate</text><svg x="364" y="116" width="52" height="52" viewBox="0 0 64 64" xmlns="http://www.w3.org/2000/svg" fill="none" stroke="#000" stroke-width="1.8"><path d="M11.00 23.48 L11.22 22.10 L11.86 20.85 L12.85 19.86 L14.10 19.22 L15.48 19.00 L48.52 19.00 L49.90 19.22 L51.15 19.86 L52.14 20.85 L52.78 22.10 L53.00 23.48 L53.00 42.52 L52.78 43.90 L52.14 45.15 L51.15 46.14 L49.90 46.78 L48.52 47.00 L15.48 47.00 L14.10 46.78 L12.85 46.14 L11.86 45.15 L11.22 43.90 L11.00 42.52 Z"/><path d="M14.50 23.48 L14.55 23.18 L14.69 22.90 L14.90 22.69 L15.18 22.55 L15.48 22.50 L48.52 22.50 L48.82 22.55 L49.10 22.69 L49.31 22.90 L49.45 23.18 L49.50 23.48 L49.50 42.52 L49.45 42.82 L49.31 43.10 L49.10 43.31 L48.82 43.45 L48.52 43.50 L15.48 43.50 L15.18 43.45 L14.90 43.31 L14.69 43.10 L14.55 42.82 L14.50 42.52 Z"/><line x1="4.7" y1="33.0" x2="59.3" y2="33.0" stroke-width="0.9" stroke-dasharray="6 2.2 1.4 2.2"/><line x1="32.0" y1="14.8" x2="32.0" y2="51.2" stroke-width="0.9" stroke-dasharray="6 2.2 1.4 2.2"/><text x="61" y="9" font-size="8" font-weight="bold" text-anchor="end" fill="#000" stroke="none">RHS</text></svg><text x="390" y="181" font-size="7.5" font-family="system-ui, -apple-system, Segoe UI, sans-serif" text-anchor="middle" fill="#78716c">rhs</text><svg x="448" y="116" width="52" height="52" viewBox="0 0 64 64" xmlns="http://www.w3.org/2000/svg" fill="none" stroke="#000" stroke-width="1.8"><path d="M11.00 18.72 L11.33 16.64 L12.28 14.77 L13.77 13.28 L15.64 12.33 L17.72 12.00 L46.28 12.00 L48.36 12.33 L50.23 13.28 L51.72 14.77 L52.67 16.64 L53.00 18.72 L53.00 47.28 L52.67 49.36 L51.72 51.23 L50.23 52.72 L48.36 53.67 L46.28 54.00 L17.72 54.00 L15.64 53.67 L13.77 52.72 L12.28 51.23 L11.33 49.36 L11.00 47.28 Z"/><path d="M14.50 18.72 L14.66 17.72 L15.11 16.83 L15.83 16.11 L16.72 15.66 L17.72 15.50 L46.28 15.50 L47.28 15.66 L48.17 16.11 L48.89 16.83 L49.34 17.72 L49.50 18.72 L49.50 47.28 L49.34 48.28 L48.89 49.17 L48.17 49.89 L47.28 50.34 L46.28 50.50 L17.72 50.50 L16.72 50.34 L15.83 49.89 L15.11 49.17 L14.66 48.28 L14.50 47.28 Z"/><line x1="4.7" y1="33.0" x2="59.3" y2="33.0" stroke-width="0.9" stroke-dasharray="6 2.2 1.4 2.2"/><line x1="32.0" y1="5.7" x2="32.0" y2="60.3" stroke-width="0.9" stroke-dasharray="6 2.2 1.4 2.2"/><text x="61" y="9" font-size="8" font-weight="bold" text-anchor="end" fill="#000" stroke="none">SHS</text></svg><text x="474" y="181" font-size="7.5" font-family="system-ui, -apple-system, Segoe UI, sans-serif" text-anchor="middle" fill="#78716c">shs</text><svg x="532" y="116" width="52" height="52" viewBox="0 0 64 64" xmlns="http://www.w3.org/2000/svg" fill="none" stroke="#000" stroke-width="1.8"><path d="M11.00 12.00 L53.00 12.00 L53.00 16.62 L39.35 16.62 L39.35 16.62 L37.79 16.87 L36.39 17.58 L35.27 18.70 L34.56 20.10 L34.31 21.66 L34.31 54.00 L29.69 54.00 L29.69 21.66 L29.69 21.66 L29.44 20.10 L28.73 18.70 L27.61 17.58 L26.21 16.87 L24.65 16.62 L11.00 16.62 Z"/><line x1="4.7" y1="33.0" x2="59.3" y2="33.0" stroke-width="0.9" stroke-dasharray="6 2.2 1.4 2.2"/><line x1="32.0" y1="5.7" x2="32.0" y2="60.3" stroke-width="0.9" stroke-dasharray="6 2.2 1.4 2.2"/><text x="61" y="9" font-size="8" font-weight="bold" text-anchor="end" fill="#000" stroke="none">T</text></svg><text x="558" y="181" font-size="7.5" font-family="system-ui, -apple-system, Segoe UI, sans-serif" text-anchor="middle" fill="#78716c">t-profile</text><svg x="616" y="116" width="52" height="52" viewBox="0 0 64 64" xmlns="http://www.w3.org/2000/svg" fill="none" stroke="#000" stroke-width="1.8"><rect x="6" y="17" width="52" height="34"/><line x1="6" y1="20.7" x2="58" y2="20.7"/><line x1="-1.8" y1="34" x2="65.8" y2="34" stroke-width="0.9" stroke-dasharray="6 2.2 1.4 2.2"/><text x="61" y="9" font-size="8" font-weight="bold" text-anchor="end" fill="#000" stroke="none">T ELEV</text></svg><text x="642" y="181" font-size="7.5" font-family="system-ui, -apple-system, Segoe UI, sans-serif" text-anchor="middle" fill="#78716c">tee-elevation</text><svg x="28" y="214" width="52" height="52" viewBox="0 0 64 64" xmlns="http://www.w3.org/2000/svg" fill="none" stroke="#000" stroke-width="1.8"><path d="M24.13 12.00 L39.88 12.00 L39.88 15.50 L30.04 15.50 L30.04 15.50 L29.29 15.62 L28.62 15.96 L28.09 16.50 L27.74 17.17 L27.63 17.91 L27.63 48.09 L27.63 48.09 L27.74 48.83 L28.09 49.50 L28.62 50.04 L29.29 50.38 L30.04 50.50 L39.88 50.50 L39.88 54.00 L24.13 54.00 Z"/><line x1="21.8" y1="33.0" x2="42.2" y2="33.0" stroke-width="0.9" stroke-dasharray="6 2.2 1.4 2.2"/><line x1="32.0" y1="5.7" x2="32.0" y2="60.3" stroke-width="0.9" stroke-dasharray="6 2.2 1.4 2.2"/><text x="61" y="9" font-size="8" font-weight="bold" text-anchor="end" fill="#000" stroke="none">UPN</text></svg><text x="54" y="279" font-size="7.5" font-family="system-ui, -apple-system, Segoe UI, sans-serif" text-anchor="middle" fill="#78716c">upn</text></svg>
