<svg viewBox="0 0 860 364" width="860" xmlns="http://www.w3.org/2000/svg"><rect x="0" y="0" width="860" height="364" rx="8" fill="#ffffff" stroke="#d6d3cd"/><text x="16" y="30" font-size="12" font-weight="700" font-family="system-ui, -apple-system, Segoe UI, sans-serif" fill="#44403c">us-stamps (United States)</text><g transform="rotate(-2 66.6 56)"><rect x="16" y="40" width="101.2" height="32" rx="6" fill="none" stroke="#22c55e" stroke-width="3"/><text x="66.6" y="61" font-size="13" font-weight="700" letter-spacing="0.5" font-family="system-ui, -apple-system, Segoe UI, sans-serif" text-anchor="middle" fill="#22c55e">APPROVED</text></g><g transform="rotate(-2 215.60000000000002 56)"><rect x="127.2" y="40" width="176.8" height="32" rx="6" fill="none" stroke="#22c55e" stroke-width="3"/><text x="215.60000000000002" y="61" font-size="13" font-weight="700" letter-spacing="0.5" font-family="system-ui, -apple-system, Segoe UI, sans-serif" text-anchor="middle" fill="#22c55e">APPROVED AS NOTED</text></g><g transform="rotate(-2 364.6 56)"><rect x="314" y="40" width="101.2" height="32" rx="6" fill="none" stroke="#ef4444" stroke-width="3"/><text x="364.6" y="61" font-size="13" font-weight="700" letter-spacing="0.5" font-family="system-ui, -apple-system, Segoe UI, sans-serif" text-anchor="middle" fill="#ef4444">REJECTED</text></g><g transform="rotate(-2 522 56)"><rect x="425.2" y="40" width="193.6" height="32" rx="6" fill="none" stroke="#ef4444" stroke-width="3"/><text x="522" y="61" font-size="13" font-weight="700" letter-spacing="0.5" font-family="system-ui, -apple-system, Segoe UI, sans-serif" text-anchor="middle" fill="#ef4444">REVISE AND RESUBMIT</text></g><g transform="rotate(-2 679.4 56)"><rect x="628.8" y="40" width="101.2" height="32" rx="6" fill="none" stroke="#3b82f6" stroke-width="3"/><text x="679.4" y="61" font-size="13" font-weight="700" letter-spacing="0.5" font-family="system-ui, -apple-system, Segoe UI, sans-serif" text-anchor="middle" fill="#3b82f6">REVIEWED</text></g><g transform="rotate(-2 786.4 56)"><rect x="740" y="40" width="92.80000000000001" height="32" rx="6" fill="none" stroke="#8b5cf6" stroke-width="3"/><text x="786.4" y="61" font-size="13" font-weight="700" letter-spacing="0.5" font-family="system-ui, -apple-system, Segoe UI, sans-serif" text-anchor="middle" fill="#8b5cf6">REVISED</text></g><g transform="rotate(-2 100.2 102)"><rect x="16" y="86" width="168.4" height="32" rx="6" fill="none" stroke="#22c55e" stroke-width="3"/><text x="100.2" y="107" font-size="13" font-weight="700" letter-spacing="0.5" font-family="system-ui, -apple-system, Segoe UI, sans-serif" text-anchor="middle" fill="#22c55e">FOR CONSTRUCTION</text></g><g transform="rotate(-2 295.4 102)"><rect x="194.4" y="86" width="202" height="32" rx="6" fill="none" stroke="#ef4444" stroke-width="3"/><text x="295.4" y="107" font-size="13" font-weight="700" letter-spacing="0.5" font-family="system-ui, -apple-system, Segoe UI, sans-serif" text-anchor="middle" fill="#ef4444">NOT FOR CONSTRUCTION</text></g><g transform="rotate(-2 494.79999999999995 102)"><rect x="406.4" y="86" width="176.8" height="32" rx="6" fill="none" stroke="#f59e0b" stroke-width="3"/><text x="494.79999999999995" y="107" font-size="13" font-weight="700" letter-spacing="0.5" font-family="system-ui, -apple-system, Segoe UI, sans-serif" text-anchor="middle" fill="#f59e0b">ISSUED FOR PERMIT</text></g><g transform="rotate(-2 669 102)"><rect x="593.2" y="86" width="151.60000000000002" height="32" rx="6" fill="none" stroke="#f59e0b" stroke-width="3"/><text x="669" y="107" font-size="13" font-weight="700" letter-spacing="0.5" font-family="system-ui, -apple-system, Segoe UI, sans-serif" text-anchor="middle" fill="#f59e0b">ISSUED FOR BID</text></g><g transform="rotate(-2 75 148)"><rect x="16" y="132" width="118" height="32" rx="6" fill="none" stroke="#f59e0b" stroke-width="3"/><text x="75" y="153" font-size="13" font-weight="700" letter-spacing="0.5" font-family="system-ui, -apple-system, Segoe UI, sans-serif" text-anchor="middle" fill="#f59e0b">FOR REVIEW</text></g><g transform="rotate(-2 207.2 148)"><rect x="144" y="132" width="126.4" height="32" rx="6" fill="none" stroke="#f59e0b" stroke-width="3"/><text x="207.2" y="153" font-size="13" font-weight="700" letter-spacing="0.5" font-family="system-ui, -apple-system, Segoe UI, sans-serif" text-anchor="middle" fill="#f59e0b">PRELIMINARY</text></g><g transform="rotate(-2 318.4 148)"><rect x="280.4" y="132" width="76" height="32" rx="6" fill="none" stroke="#3b82f6" stroke-width="3"/><text x="318.4" y="153" font-size="13" font-weight="700" letter-spacing="0.5" font-family="system-ui, -apple-system, Segoe UI, sans-serif" text-anchor="middle" fill="#3b82f6">DRAFT</text></g><g transform="rotate(-2 417 148)"><rect x="366.4" y="132" width="101.2" height="32" rx="6" fill="none" stroke="#6b7280" stroke-width="3"/><text x="417" y="153" font-size="13" font-weight="700" letter-spacing="0.5" font-family="system-ui, -apple-system, Segoe UI, sans-serif" text-anchor="middle" fill="#6b7280">AS-BUILT</text></g><g transform="rotate(-2 553.4 148)"><rect x="477.59999999999997" y="132" width="151.60000000000002" height="32" rx="6" fill="none" stroke="#6b7280" stroke-width="3"/><text x="553.4" y="153" font-size="13" font-weight="700" letter-spacing="0.5" font-family="system-ui, -apple-system, Segoe UI, sans-serif" text-anchor="middle" fill="#6b7280">RECORD DRAWING</text></g><g transform="rotate(-2 673 148)"><rect x="639.2" y="132" width="67.6" height="32" rx="6" fill="none" stroke="#6b7280" stroke-width="3"/><text x="673" y="153" font-size="13" font-weight="700" letter-spacing="0.5" font-family="system-ui, -apple-system, Segoe UI, sans-serif" text-anchor="middle" fill="#6b7280">VOID</text></g><text x="16" y="200" font-size="12" font-weight="700" font-family="system-ui, -apple-system, Segoe UI, sans-serif" fill="#44403c">de-stamps (Deutschland)</text><g transform="rotate(-2 62.400000000000006 226)"><rect x="16" y="210" width="92.80000000000001" height="32" rx="6" fill="none" stroke="#22c55e" stroke-width="3"/><text x="62.400000000000006" y="231" font-size="13" font-weight="700" letter-spacing="0.5" font-family="system-ui, -apple-system, Segoe UI, sans-serif" text-anchor="middle" fill="#22c55e">GEPRÜFT</text></g><g transform="rotate(-2 182 226)"><rect x="118.80000000000001" y="210" width="126.4" height="32" rx="6" fill="none" stroke="#22c55e" stroke-width="3"/><text x="182" y="231" font-size="13" font-weight="700" letter-spacing="0.5" font-family="system-ui, -apple-system, Segoe UI, sans-serif" text-anchor="middle" fill="#22c55e">FREIGEGEBEN</text></g><g transform="rotate(-2 331 226)"><rect x="255.20000000000002" y="210" width="151.60000000000002" height="32" rx="6" fill="none" stroke="#22c55e" stroke-width="3"/><text x="331" y="231" font-size="13" font-weight="700" letter-spacing="0.5" font-family="system-ui, -apple-system, Segoe UI, sans-serif" text-anchor="middle" fill="#22c55e">ZUR AUSFÜHRUNG</text></g><g transform="rotate(-2 517.8000000000001 226)"><rect x="416.80000000000007" y="210" width="202" height="32" rx="6" fill="none" stroke="#ef4444" stroke-width="3"/><text x="517.8000000000001" y="231" font-size="13" font-weight="700" letter-spacing="0.5" font-family="system-ui, -apple-system, Segoe UI, sans-serif" text-anchor="middle" fill="#ef4444">NICHT ZUR AUSFÜHRUNG</text></g><g transform="rotate(-2 683.6 226)"><rect x="628.8000000000001" y="210" width="109.60000000000001" height="32" rx="6" fill="none" stroke="#ef4444" stroke-width="3"/><text x="683.6" y="231" font-size="13" font-weight="700" letter-spacing="0.5" font-family="system-ui, -apple-system, Segoe UI, sans-serif" text-anchor="middle" fill="#ef4444">ABGELEHNT</text></g><g transform="rotate(-2 96 272)"><rect x="16" y="256" width="160" height="32" rx="6" fill="none" stroke="#f59e0b" stroke-width="3"/><text x="96" y="277" font-size="13" font-weight="700" letter-spacing="0.5" font-family="system-ui, -apple-system, Segoe UI, sans-serif" text-anchor="middle" fill="#f59e0b">ZUR GENEHMIGUNG</text></g><g transform="rotate(-2 249.2 272)"><rect x="186" y="256" width="126.4" height="32" rx="6" fill="none" stroke="#f59e0b" stroke-width="3"/><text x="249.2" y="277" font-size="13" font-weight="700" letter-spacing="0.5" font-family="system-ui, -apple-system, Segoe UI, sans-serif" text-anchor="middle" fill="#f59e0b">ZUR PRÜFUNG</text></g><g transform="rotate(-2 373 272)"><rect x="322.4" y="256" width="101.2" height="32" rx="6" fill="none" stroke="#f59e0b" stroke-width="3"/><text x="373" y="277" font-size="13" font-weight="700" letter-spacing="0.5" font-family="system-ui, -apple-system, Segoe UI, sans-serif" text-anchor="middle" fill="#f59e0b">VORABZUG</text></g><g transform="rotate(-2 480 272)"><rect x="433.59999999999997" y="256" width="92.80000000000001" height="32" rx="6" fill="none" stroke="#3b82f6" stroke-width="3"/><text x="480" y="277" font-size="13" font-weight="700" letter-spacing="0.5" font-family="system-ui, -apple-system, Segoe UI, sans-serif" text-anchor="middle" fill="#3b82f6">ENTWURF</text></g><g transform="rotate(-2 582.8 272)"><rect x="536.4" y="256" width="92.80000000000001" height="32" rx="6" fill="none" stroke="#3b82f6" stroke-width="3"/><text x="582.8" y="277" font-size="13" font-weight="700" letter-spacing="0.5" font-family="system-ui, -apple-system, Segoe UI, sans-serif" text-anchor="middle" fill="#3b82f6">GESEHEN</text></g><g transform="rotate(-2 689.8000000000001 272)"><rect x="639.2" y="256" width="101.2" height="32" rx="6" fill="none" stroke="#8b5cf6" stroke-width="3"/><text x="689.8000000000001" y="277" font-size="13" font-weight="700" letter-spacing="0.5" font-family="system-ui, -apple-system, Segoe UI, sans-serif" text-anchor="middle" fill="#8b5cf6">GEÄNDERT</text></g><g transform="rotate(-2 83.4 318)"><rect x="16" y="302" width="134.8" height="32" rx="6" fill="none" stroke="#6b7280" stroke-width="3"/><text x="83.4" y="323" font-size="13" font-weight="700" letter-spacing="0.5" font-family="system-ui, -apple-system, Segoe UI, sans-serif" text-anchor="middle" fill="#6b7280">BESTANDSPLAN</text></g><g transform="rotate(-2 211.4 318)"><rect x="160.8" y="302" width="101.2" height="32" rx="6" fill="none" stroke="#6b7280" stroke-width="3"/><text x="211.4" y="323" font-size="13" font-weight="700" letter-spacing="0.5" font-family="system-ui, -apple-system, Segoe UI, sans-serif" text-anchor="middle" fill="#6b7280">UNGÜLTIG</text></g></svg>
