<svg viewBox="0 0 696 220" width="696" xmlns="http://www.w3.org/2000/svg"><rect x="0" y="0" width="696" height="220" rx="8" fill="#ffffff" stroke="#d6d3cd"/><svg x="28" y="18" width="52" height="52" viewBox="0 0 64 64" xmlns="http://www.w3.org/2000/svg" fill="none" stroke="#000" stroke-width="1.6" stroke-linecap="round" stroke-linejoin="round"><title>Australian electrical plan symbols: ceiling-fan</title><desc>Elektrisch symbool; profiel au; type fan; variant ceiling.</desc><circle cx="32" cy="32" r="20"/><circle cx="32" cy="32" r="3" fill="#000"/><g stroke-width="0.8"><path d="M32 29 C25 18 18 24 28 33 M35 32 C46 25 40 18 31 28 M32 35 C39 46 46 40 36 31 M29 32 C18 39 24 46 33 36"/></g></svg><text x="54" y="83" font-size="7.5" font-family="system-ui, -apple-system, Segoe UI, sans-serif" text-anchor="middle" fill="#78716c">ceiling-fan</text><svg x="112" y="18" width="52" height="52" viewBox="0 0 64 64" xmlns="http://www.w3.org/2000/svg" fill="none" stroke="#000" stroke-width="1.6" stroke-linecap="round" stroke-linejoin="round"><title>Australian electrical plan symbols: data-outlet</title><desc>Elektrisch symbool; profiel au; type communication; variant data.</desc><rect x="14" y="18" width="36" height="28" rx="3"/><g stroke-width="0.8"><rect x="20" y="24" width="24" height="14" rx="2"/><line x1="24" y1="38" x2="24" y2="42"/><line x1="29" y1="38" x2="29" y2="42"/><line x1="35" y1="38" x2="35" y2="42"/><line x1="40" y1="38" x2="40" y2="42"/></g></svg><text x="138" y="83" font-size="7.5" font-family="system-ui, -apple-system, Segoe UI, sans-serif" text-anchor="middle" fill="#78716c">data-outlet</text><svg x="196" y="18" width="52" height="52" viewBox="0 0 64 64" xmlns="http://www.w3.org/2000/svg" fill="none" stroke="#000" stroke-width="1.6" stroke-linecap="round" stroke-linejoin="round"><title>Australian electrical plan symbols: downlight</title><desc>Elektrisch symbool; profiel au; type light; variant recessed.</desc><circle cx="32" cy="32" r="15"/><circle cx="32" cy="32" r="21"/><g stroke-width="0.8"><line x1="22" y1="22" x2="42" y2="42"/><line x1="42" y1="22" x2="22" y2="42"/></g></svg><text x="222" y="83" font-size="7.5" font-family="system-ui, -apple-system, Segoe UI, sans-serif" text-anchor="middle" fill="#78716c">downlight</text><svg x="280" y="18" width="52" height="52" viewBox="0 0 64 64" xmlns="http://www.w3.org/2000/svg" fill="none" stroke="#000" stroke-width="1.6" stroke-linecap="round" stroke-linejoin="round"><title>Australian electrical plan symbols: exhaust-fan</title><desc>Elektrisch symbool; profiel au; type fan; variant exhaust.</desc><circle cx="32" cy="32" r="20"/><circle cx="32" cy="32" r="3" fill="#000"/><g stroke-width="0.8"><path d="M32 29 C25 18 18 24 28 33 M35 32 C46 25 40 18 31 28 M32 35 C39 46 46 40 36 31 M29 32 C18 39 24 46 33 36"/><rect x="8" y="8" width="48" height="48" rx="4"/></g></svg><text x="306" y="83" font-size="7.5" font-family="system-ui, -apple-system, Segoe UI, sans-serif" text-anchor="middle" fill="#78716c">exhaust-fan</text><svg x="364" y="18" width="52" height="52" viewBox="0 0 64 64" xmlns="http://www.w3.org/2000/svg" fill="none" stroke="#000" stroke-width="1.6" stroke-linecap="round" stroke-linejoin="round"><title>Australian electrical plan symbols: fan-isolator</title><desc>Elektrisch symbool; profiel au; type isolator; variant fan.</desc><rect x="12" y="14" width="40" height="36" rx="4"/><circle cx="32" cy="32" r="6"/><g stroke-width="0.8"><line x1="18" y1="32" x2="25" y2="32"/><line x1="39" y1="32" x2="46" y2="32"/><path d="M32 20 L36 27 L28 27 Z"/></g></svg><text x="390" y="83" font-size="7.5" font-family="system-ui, -apple-system, Segoe UI, sans-serif" text-anchor="middle" fill="#78716c">fan-isolator</text><svg x="448" y="18" width="52" height="52" viewBox="0 0 64 64" xmlns="http://www.w3.org/2000/svg" fill="none" stroke="#000" stroke-width="1.6" stroke-linecap="round" stroke-linejoin="round"><title>Australian electrical plan symbols: gpo-double</title><desc>Elektrisch symbool; profiel au; type socket; variant double.</desc><path d="M16 39 A16 16 0 0 1 48 39"/><line x1="28" y1="24" x2="28" y2="12"/><line x1="36" y1="24" x2="36" y2="12"/><g stroke-width="0.8"><line x1="24" y1="47" x2="40" y2="47"/></g></svg><text x="474" y="83" font-size="7.5" font-family="system-ui, -apple-system, Segoe UI, sans-serif" text-anchor="middle" fill="#78716c">gpo-double</text><svg x="532" y="18" width="52" height="52" viewBox="0 0 64 64" xmlns="http://www.w3.org/2000/svg" fill="none" stroke="#000" stroke-width="1.6" stroke-linecap="round" stroke-linejoin="round"><title>Australian electrical plan symbols: gpo-single</title><desc>Elektrisch symbool; profiel au; type socket; variant single.</desc><path d="M16 39 A16 16 0 0 1 48 39"/><line x1="32" y1="24" x2="32" y2="12"/><g stroke-width="0.8"><line x1="24" y1="47" x2="40" y2="47"/></g></svg><text x="558" y="83" font-size="7.5" font-family="system-ui, -apple-system, Segoe UI, sans-serif" text-anchor="middle" fill="#78716c">gpo-single</text><svg x="616" y="18" width="52" height="52" viewBox="0 0 64 64" xmlns="http://www.w3.org/2000/svg" fill="none" stroke="#000" stroke-width="1.6" stroke-linecap="round" stroke-linejoin="round"><title>Australian electrical plan symbols: gpo-weatherproof</title><desc>Elektrisch symbool; profiel au; type socket; variant single, weatherproof.</desc><path d="M16 39 A16 16 0 0 1 48 39"/><line x1="32" y1="24" x2="32" y2="12"/><g stroke-width="0.8"><path d="M14 43 A20 20 0 0 0 50 43"/></g></svg><text x="642" y="83" font-size="7.5" font-family="system-ui, -apple-system, Segoe UI, sans-serif" text-anchor="middle" fill="#78716c">gpo-weatherproof</text><svg x="28" y="116" width="52" height="52" viewBox="0 0 64 64" xmlns="http://www.w3.org/2000/svg" fill="none" stroke="#000" stroke-width="1.6" stroke-linecap="round" stroke-linejoin="round"><title>Australian electrical plan symbols: light-point</title><desc>Elektrisch symbool; profiel au; type light; variant ceiling.</desc><circle cx="32" cy="32" r="15"/><g stroke-width="0.8"><line x1="22" y1="22" x2="42" y2="42"/><line x1="42" y1="22" x2="22" y2="42"/></g></svg><text x="54" y="181" font-size="7.5" font-family="system-ui, -apple-system, Segoe UI, sans-serif" text-anchor="middle" fill="#78716c">light-point</text><svg x="112" y="116" width="52" height="52" viewBox="0 0 64 64" xmlns="http://www.w3.org/2000/svg" fill="none" stroke="#000" stroke-width="1.6" stroke-linecap="round" stroke-linejoin="round"><title>Australian electrical plan symbols: smoke-alarm</title><desc>Elektrisch symbool; profiel au; type detector; variant smoke.</desc><circle cx="32" cy="32" r="18"/><g stroke-width="0.8"><path d="M20 29 C24 24 28 34 32 29 C36 24 40 34 44 29 M20 37 C24 32 28 42 32 37 C36 32 40 42 44 37"/></g></svg><text x="138" y="181" font-size="7.5" font-family="system-ui, -apple-system, Segoe UI, sans-serif" text-anchor="middle" fill="#78716c">smoke-alarm</text><svg x="196" y="116" width="52" height="52" viewBox="0 0 64 64" xmlns="http://www.w3.org/2000/svg" fill="none" stroke="#000" stroke-width="1.6" stroke-linecap="round" stroke-linejoin="round"><title>Australian electrical plan symbols: switch-2way</title><desc>Elektrisch symbool; profiel au; type switch; variant two-way.</desc><circle cx="18" cy="44" r="3"/><circle cx="44" cy="22" r="2.2"/><circle cx="48" cy="30" r="2.2"/><g stroke-width="0.8"><line x1="21" y1="41" x2="41" y2="25"/></g></svg><text x="222" y="181" font-size="7.5" font-family="system-ui, -apple-system, Segoe UI, sans-serif" text-anchor="middle" fill="#78716c">switch-2way</text><svg x="280" y="116" width="52" height="52" viewBox="0 0 64 64" xmlns="http://www.w3.org/2000/svg" fill="none" stroke="#000" stroke-width="1.6" stroke-linecap="round" stroke-linejoin="round"><title>Australian electrical plan symbols: switch</title><desc>Elektrisch symbool; profiel au; type switch; variant one-way.</desc><circle cx="18" cy="44" r="3"/><circle cx="44" cy="22" r="2.2"/><g stroke-width="0.8"><line x1="21" y1="41" x2="41" y2="25"/></g></svg><text x="306" y="181" font-size="7.5" font-family="system-ui, -apple-system, Segoe UI, sans-serif" text-anchor="middle" fill="#78716c">switch</text><svg x="364" y="116" width="52" height="52" viewBox="0 0 64 64" xmlns="http://www.w3.org/2000/svg" fill="none" stroke="#000" stroke-width="1.6" stroke-linecap="round" stroke-linejoin="round"><title>Australian electrical plan symbols: switchboard</title><desc>Elektrisch symbool; profiel au; type board; variant basis.</desc><rect x="12" y="12" width="40" height="40" rx="3"/><line x1="32" y1="12" x2="32" y2="52"/><g stroke-width="0.8"><line x1="18" y1="21" x2="46" y2="21"/><line x1="18" y1="28" x2="46" y2="28"/><line x1="18" y1="36" x2="46" y2="36"/><line x1="18" y1="43" x2="46" y2="43"/></g></svg><text x="390" y="181" font-size="7.5" font-family="system-ui, -apple-system, Segoe UI, sans-serif" text-anchor="middle" fill="#78716c">switchboard</text></svg>
