<svg viewBox="0 0 696 220" width="696" xmlns="http://www.w3.org/2000/svg"><rect x="0" y="0" width="696" height="220" rx="8" fill="#ffffff" stroke="#d6d3cd"/><svg x="28" y="18" width="52" height="52" viewBox="0 0 64 64" xmlns="http://www.w3.org/2000/svg" fill="none" stroke="#000" stroke-width="2"><line x1="4" y1="22" x2="60" y2="22"/><line x1="4" y1="40" x2="60" y2="40"/><circle cx="14" cy="30" r="1.6" fill="#000" stroke="none"/><circle cx="26" cy="35" r="1.6" fill="#000" stroke="none"/><circle cx="34" cy="27" r="1.6" fill="#000" stroke="none"/><circle cx="46" cy="33" r="1.6" fill="#000" stroke="none"/><path d="M20 28 L23 31 L17 31 Z"/><path d="M42 34 L45 37 L39 37 Z"/><text x="32" y="56" font-size="8" font-weight="bold" text-anchor="middle" fill="#000" stroke="none">BETON</text></svg><text x="54" y="83" font-size="7.5" font-family="system-ui, -apple-system, Segoe UI, sans-serif" text-anchor="middle" fill="#78716c">beton</text><svg x="112" y="18" width="52" height="52" viewBox="0 0 64 64" xmlns="http://www.w3.org/2000/svg" fill="none" stroke="#000" stroke-width="2"><line x1="4" y1="22" x2="60" y2="22"/><line x1="4" y1="40" x2="60" y2="40"/><rect x="22" y="26" width="20" height="10" fill="#fff"/><line x1="4" y1="31" x2="22" y2="31"/><line x1="42" y1="31" x2="60" y2="31"/><text x="32" y="34.5" font-size="8" font-weight="bold" text-anchor="middle" fill="#000" stroke="none">F30</text><text x="32" y="56" font-size="7" font-weight="bold" text-anchor="middle" fill="#000" stroke="none">BRANDWAND F30</text></svg><text x="138" y="83" font-size="7.5" font-family="system-ui, -apple-system, Segoe UI, sans-serif" text-anchor="middle" fill="#78716c">brandwand-f30</text><svg x="196" y="18" width="52" height="52" viewBox="0 0 64 64" xmlns="http://www.w3.org/2000/svg" fill="none" stroke="#000" stroke-width="2"><line x1="4" y1="22" x2="60" y2="22"/><line x1="4" y1="40" x2="60" y2="40"/><rect x="22" y="26" width="20" height="10" fill="#fff"/><line x1="4" y1="28" x2="22" y2="28"/><line x1="42" y1="28" x2="60" y2="28"/><line x1="4" y1="34" x2="22" y2="34"/><line x1="42" y1="34" x2="60" y2="34"/><text x="32" y="34.5" font-size="8" font-weight="bold" text-anchor="middle" fill="#000" stroke="none">F90</text><text x="32" y="56" font-size="7" font-weight="bold" text-anchor="middle" fill="#000" stroke="none">BRANDWAND F90</text></svg><text x="222" y="83" font-size="7.5" font-family="system-ui, -apple-system, Segoe UI, sans-serif" text-anchor="middle" fill="#78716c">brandwand-f90</text><svg x="280" y="18" width="52" height="52" viewBox="0 0 64 64" xmlns="http://www.w3.org/2000/svg" fill="none" stroke="#000" stroke-width="2"><line x1="4" y1="22" x2="60" y2="22"/><line x1="4" y1="40" x2="60" y2="40"/><line x1="10" y1="40" x2="22" y2="22"/><line x1="28" y1="40" x2="40" y2="22"/><line x1="46" y1="40" x2="58" y2="22"/><text x="32" y="56" font-size="8" font-weight="bold" text-anchor="middle" fill="#000" stroke="none">HOLZSTÄNDER</text></svg><text x="306" y="83" font-size="7.5" font-family="system-ui, -apple-system, Segoe UI, sans-serif" text-anchor="middle" fill="#78716c">holzstaenderwand</text><svg x="364" y="18" width="52" height="52" viewBox="0 0 64 64" xmlns="http://www.w3.org/2000/svg" fill="none" stroke="#000" stroke-width="2"><line x1="4" y1="22" x2="60" y2="22"/><line x1="4" y1="40" x2="60" y2="40"/><line x1="8" y1="40" x2="26" y2="22"/><line x1="20" y1="40" x2="38" y2="22"/><line x1="32" y1="40" x2="50" y2="22"/><line x1="44" y1="40" x2="60" y2="24"/><text x="32" y="56" font-size="8" font-weight="bold" text-anchor="middle" fill="#000" stroke="none">MAUERWERK</text></svg><text x="390" y="83" font-size="7.5" font-family="system-ui, -apple-system, Segoe UI, sans-serif" text-anchor="middle" fill="#78716c">mauerwerk</text><svg x="448" y="18" width="52" height="52" viewBox="0 0 64 64" xmlns="http://www.w3.org/2000/svg" fill="none" stroke="#000" stroke-width="2"><line x1="4" y1="22" x2="60" y2="22"/><line x1="4" y1="40" x2="60" y2="40"/><line x1="8" y1="40" x2="26" y2="22"/><line x1="26" y1="40" x2="44" y2="22"/><line x1="44" y1="40" x2="60" y2="24"/><circle cx="16" cy="32" r="1.4" fill="#000" stroke="none"/><circle cx="34" cy="30" r="1.4" fill="#000" stroke="none"/><circle cx="50" cy="34" r="1.4" fill="#000" stroke="none"/><text x="32" y="56" font-size="8" font-weight="bold" text-anchor="middle" fill="#000" stroke="none">PORENBETON</text></svg><text x="474" y="83" font-size="7.5" font-family="system-ui, -apple-system, Segoe UI, sans-serif" text-anchor="middle" fill="#78716c">porenbeton</text><svg x="532" y="18" width="52" height="52" viewBox="0 0 64 64" xmlns="http://www.w3.org/2000/svg" fill="none" stroke="#000" stroke-width="2"><line x1="4" y1="22" x2="60" y2="22"/><line x1="4" y1="40" x2="60" y2="40"/><line x1="4" y1="31" x2="60" y2="31" stroke-dasharray="4 4"/><text x="32" y="56" font-size="8" font-weight="bold" text-anchor="middle" fill="#000" stroke="none">SCHACHT</text></svg><text x="558" y="83" font-size="7.5" font-family="system-ui, -apple-system, Segoe UI, sans-serif" text-anchor="middle" fill="#78716c">schacht</text><svg x="616" y="18" width="52" height="52" viewBox="0 0 64 64" xmlns="http://www.w3.org/2000/svg" fill="none" stroke="#000" stroke-width="2"><line x1="4" y1="22" x2="60" y2="22"/><line x1="4" y1="40" x2="60" y2="40"/><circle cx="14" cy="30" r="1.6" fill="#000" stroke="none"/><circle cx="30" cy="35" r="1.6" fill="#000" stroke="none"/><circle cx="46" cy="28" r="1.6" fill="#000" stroke="none"/><line x1="8" y1="38" x2="24" y2="24"/><line x1="26" y1="38" x2="42" y2="24"/><line x1="44" y1="38" x2="58" y2="26"/><text x="32" y="56" font-size="8" font-weight="bold" text-anchor="middle" fill="#000" stroke="none">STAHLBETON</text></svg><text x="642" y="83" font-size="7.5" font-family="system-ui, -apple-system, Segoe UI, sans-serif" text-anchor="middle" fill="#78716c">stahlbeton</text><svg x="28" y="116" width="52" height="52" viewBox="0 0 64 64" xmlns="http://www.w3.org/2000/svg" fill="none" stroke="#000" stroke-width="2"><line x1="4" y1="22" x2="60" y2="22"/><line x1="4" y1="40" x2="60" y2="40"/><line x1="4" y1="31" x2="60" y2="31" stroke-dasharray="8 5"/><text x="32" y="56" font-size="8" font-weight="bold" text-anchor="middle" fill="#000" stroke="none">TROCKENBAU</text></svg><text x="54" y="181" font-size="7.5" font-family="system-ui, -apple-system, Segoe UI, sans-serif" text-anchor="middle" fill="#78716c">trockenbauwand</text></svg>
