<svg viewBox="0 0 696 318" width="696" xmlns="http://www.w3.org/2000/svg"><rect x="0" y="0" width="696" height="318" rx="8" fill="#ffffff" stroke="#d6d3cd"/><svg x="28" y="18" width="52" height="52" viewBox="0 0 64 64" xmlns="http://www.w3.org/2000/svg" fill="none" stroke="#000" stroke-width="2"><line x1="6" y1="22" x2="58" y2="22"/><line x1="6" y1="46" x2="58" y2="46"/><line x1="6" y1="30" x2="58" y2="30" stroke-dasharray="5 4"/><text x="32" y="60" font-size="8" font-weight="bold" text-anchor="middle" fill="#000" stroke="none">L ELEVATION</text></svg><text x="54" y="83" font-size="7.5" font-family="system-ui, -apple-system, Segoe UI, sans-serif" text-anchor="middle" fill="#78716c">angle-elevation</text><svg x="112" y="18" width="52" height="52" viewBox="0 0 64 64" xmlns="http://www.w3.org/2000/svg" fill="none" stroke="#000" stroke-width="1.8"><path d="M26.10 12.00 L37.90 12.00 L37.90 15.50 L31.60 15.50 L31.60 15.50 L30.99 15.60 L30.43 15.88 L29.99 16.32 L29.70 16.88 L29.60 17.50 L29.60 48.50 L29.60 48.50 L29.70 49.12 L29.99 49.68 L30.43 50.12 L30.99 50.40 L31.60 50.50 L37.90 50.50 L37.90 54.00 L26.10 54.00 Z"/><line x1="24.3" y1="33.0" x2="39.7" y2="33.0" stroke-width="0.9" stroke-dasharray="6 2.2 1.4 2.2"/><line x1="32.0" y1="5.7" x2="32.0" y2="60.3" stroke-width="0.9" stroke-dasharray="6 2.2 1.4 2.2"/><text x="61" y="9" font-size="8" font-weight="bold" text-anchor="end" fill="#000" stroke="none">C</text></svg><text x="138" y="83" font-size="7.5" font-family="system-ui, -apple-system, Segoe UI, sans-serif" text-anchor="middle" fill="#78716c">c-channel</text><svg x="196" y="18" width="52" height="52" viewBox="0 0 64 64" xmlns="http://www.w3.org/2000/svg" fill="none" stroke="#000" stroke-width="2"><line x1="6" y1="16" x2="58" y2="16"/><line x1="6" y1="22" x2="58" y2="22"/><line x1="6" y1="46" x2="58" y2="46"/><text x="32" y="60" font-size="8" font-weight="bold" text-anchor="middle" fill="#000" stroke="none">C ELEVATION</text></svg><text x="222" y="83" font-size="7.5" font-family="system-ui, -apple-system, Segoe UI, sans-serif" text-anchor="middle" fill="#78716c">channel-elevation</text><svg x="280" y="18" width="52" height="52" viewBox="0 0 64 64" xmlns="http://www.w3.org/2000/svg" fill="none" stroke="#000" stroke-width="2"><line x1="6" y1="16" x2="58" y2="16"/><line x1="6" y1="46" x2="58" y2="46"/><line x1="6" y1="22" x2="58" y2="22" stroke-dasharray="5 4"/><line x1="6" y1="40" x2="58" y2="40" stroke-dasharray="5 4"/><text x="32" y="60" font-size="8" font-weight="bold" text-anchor="middle" fill="#000" stroke="none">HSS ELEVATION</text></svg><text x="306" y="83" font-size="7.5" font-family="system-ui, -apple-system, Segoe UI, sans-serif" text-anchor="middle" fill="#78716c">hollow-section-elevation</text><svg x="364" y="18" width="52" height="52" viewBox="0 0 64 64" xmlns="http://www.w3.org/2000/svg" fill="none" stroke="#000" stroke-width="1.8"><path d="M11.00 12.82 L53.00 12.82 L53.00 16.32 L35.75 16.32 L35.75 16.32 L35.13 16.42 L34.57 16.70 L34.13 17.14 L33.85 17.70 L33.75 18.32 L33.75 47.68 L33.75 47.68 L33.85 48.30 L34.13 48.86 L34.57 49.30 L35.13 49.58 L35.75 49.68 L53.00 49.68 L53.00 53.18 L11.00 53.18 L11.00 49.68 L28.25 49.68 L28.25 49.68 L28.87 49.58 L29.43 49.30 L29.87 48.86 L30.15 48.30 L30.25 47.68 L30.25 18.32 L30.25 18.32 L30.15 17.70 L29.87 17.14 L29.43 16.70 L28.87 16.42 L28.25 16.32 L11.00 16.32 Z"/><line x1="4.7" y1="33.0" x2="59.3" y2="33.0" stroke-width="0.9" stroke-dasharray="6 2.2 1.4 2.2"/><line x1="32.0" y1="6.8" x2="32.0" y2="59.2" stroke-width="0.9" stroke-dasharray="6 2.2 1.4 2.2"/><text x="61" y="9" font-size="8" font-weight="bold" text-anchor="end" fill="#000" stroke="none">HP</text></svg><text x="390" y="83" font-size="7.5" font-family="system-ui, -apple-system, Segoe UI, sans-serif" text-anchor="middle" fill="#78716c">hp-shape</text><svg x="448" y="18" width="52" height="52" viewBox="0 0 64 64" xmlns="http://www.w3.org/2000/svg" fill="none" stroke="#000" stroke-width="1.8"><path d="M11.00 26.38 L11.19 25.16 L11.75 24.07 L12.62 23.20 L13.72 22.64 L14.93 22.45 L49.07 22.45 L50.28 22.64 L51.38 23.20 L52.25 24.07 L52.81 25.16 L53.00 26.38 L53.00 39.62 L52.81 40.84 L52.25 41.93 L51.38 42.80 L50.28 43.36 L49.07 43.55 L14.93 43.55 L13.72 43.36 L12.62 42.80 L11.75 41.93 L11.19 40.84 L11.00 39.62 Z"/><path d="M14.50 26.75 L14.54 26.50 L14.65 26.28 L14.83 26.10 L15.05 25.99 L15.30 25.95 L48.70 25.95 L48.95 25.99 L49.17 26.10 L49.35 26.28 L49.46 26.50 L49.50 26.75 L49.50 39.25 L49.46 39.50 L49.35 39.72 L49.17 39.90 L48.95 40.01 L48.70 40.05 L15.30 40.05 L15.05 40.01 L14.83 39.90 L14.65 39.72 L14.54 39.50 L14.50 39.25 Z"/><line x1="4.7" y1="33.0" x2="59.3" y2="33.0" stroke-width="0.9" stroke-dasharray="6 2.2 1.4 2.2"/><line x1="32.0" y1="19.3" x2="32.0" y2="46.7" stroke-width="0.9" stroke-dasharray="6 2.2 1.4 2.2"/><text x="61" y="9" font-size="8" font-weight="bold" text-anchor="end" fill="#000" stroke="none">HSS</text></svg><text x="474" y="83" font-size="7.5" font-family="system-ui, -apple-system, Segoe UI, sans-serif" text-anchor="middle" fill="#78716c">hss-rect</text><svg x="532" y="18" width="52" height="52" viewBox="0 0 64 64" xmlns="http://www.w3.org/2000/svg" fill="none" stroke="#000" stroke-width="1.8"><circle cx="32" cy="33" r="21.0"/><circle cx="32" cy="33" r="17.5"/><line x1="4.7" y1="33.0" x2="59.3" y2="33.0" stroke-width="0.9" stroke-dasharray="6 2.2 1.4 2.2"/><line x1="32.0" y1="5.7" x2="32.0" y2="60.3" stroke-width="0.9" stroke-dasharray="6 2.2 1.4 2.2"/><text x="61" y="9" font-size="8" font-weight="bold" text-anchor="end" fill="#000" stroke="none">HSS</text></svg><text x="558" y="83" font-size="7.5" font-family="system-ui, -apple-system, Segoe UI, sans-serif" text-anchor="middle" fill="#78716c">hss-round</text><svg x="616" y="18" width="52" height="52" viewBox="0 0 64 64" xmlns="http://www.w3.org/2000/svg" fill="none" stroke="#000" stroke-width="1.8"><path d="M11.00 18.91 L11.34 16.77 L12.32 14.85 L13.85 13.32 L15.77 12.34 L17.91 12.00 L46.09 12.00 L48.23 12.34 L50.15 13.32 L51.68 14.85 L52.66 16.77 L53.00 18.91 L53.00 47.09 L52.66 49.23 L51.68 51.15 L50.15 52.68 L48.23 53.66 L46.09 54.00 L17.91 54.00 L15.77 53.66 L13.85 52.68 L12.32 51.15 L11.34 49.23 L11.00 47.09 Z"/><path d="M14.51 18.91 L14.68 17.86 L15.16 16.91 L15.91 16.16 L16.86 15.68 L17.91 15.51 L46.09 15.51 L47.14 15.68 L48.09 16.16 L48.84 16.91 L49.32 17.86 L49.49 18.91 L49.49 47.09 L49.32 48.14 L48.84 49.09 L48.09 49.84 L47.14 50.32 L46.09 50.49 L17.91 50.49 L16.86 50.32 L15.91 49.84 L15.16 49.09 L14.68 48.14 L14.51 47.09 Z"/><line x1="4.7" y1="33.0" x2="59.3" y2="33.0" stroke-width="0.9" stroke-dasharray="6 2.2 1.4 2.2"/><line x1="32.0" y1="5.7" x2="32.0" y2="60.3" stroke-width="0.9" stroke-dasharray="6 2.2 1.4 2.2"/><text x="61" y="9" font-size="8" font-weight="bold" text-anchor="end" fill="#000" stroke="none">HSS</text></svg><text x="642" y="83" font-size="7.5" font-family="system-ui, -apple-system, Segoe UI, sans-serif" text-anchor="middle" fill="#78716c">hss-square</text><svg x="28" y="116" width="52" height="52" viewBox="0 0 64 64" xmlns="http://www.w3.org/2000/svg" fill="none" stroke="#000" stroke-width="2"><line x1="6" y1="16" x2="58" y2="16"/><line x1="6" y1="22" x2="58" y2="22"/><line x1="6" y1="40" x2="58" y2="40"/><line x1="6" y1="46" x2="58" y2="46"/><text x="32" y="60" font-size="8" font-weight="bold" text-anchor="middle" fill="#000" stroke="none">I ELEVATION</text></svg><text x="54" y="181" font-size="7.5" font-family="system-ui, -apple-system, Segoe UI, sans-serif" text-anchor="middle" fill="#78716c">i-beam-elevation</text><svg x="112" y="116" width="52" height="52" viewBox="0 0 64 64" xmlns="http://www.w3.org/2000/svg" fill="none" stroke="#000" stroke-width="1.8"><path d="M11.00 12.00 L16.23 12.00 L16.23 44.86 L16.23 44.86 L16.42 46.07 L16.98 47.16 L17.84 48.02 L18.93 48.58 L20.14 48.77 L53.00 48.77 L53.00 54.00 L11.00 54.00 Z"/><line x1="4.7" y1="33.0" x2="59.3" y2="33.0" stroke-width="0.9" stroke-dasharray="6 2.2 1.4 2.2"/><line x1="32.0" y1="5.7" x2="32.0" y2="60.3" stroke-width="0.9" stroke-dasharray="6 2.2 1.4 2.2"/><text x="61" y="9" font-size="8" font-weight="bold" text-anchor="end" fill="#000" stroke="none">L</text></svg><text x="138" y="181" font-size="7.5" font-family="system-ui, -apple-system, Segoe UI, sans-serif" text-anchor="middle" fill="#78716c">l-angle-equal</text><svg x="196" y="116" width="52" height="52" viewBox="0 0 64 64" xmlns="http://www.w3.org/2000/svg" fill="none" stroke="#000" stroke-width="1.8"><path d="M17.91 12.00 L21.42 12.00 L21.42 47.87 L21.42 47.87 L21.55 48.68 L21.92 49.41 L22.50 49.99 L23.23 50.36 L24.04 50.49 L46.09 50.49 L46.09 54.00 L17.91 54.00 Z"/><line x1="13.7" y1="33.0" x2="50.3" y2="33.0" stroke-width="0.9" stroke-dasharray="6 2.2 1.4 2.2"/><line x1="32.0" y1="5.7" x2="32.0" y2="60.3" stroke-width="0.9" stroke-dasharray="6 2.2 1.4 2.2"/><text x="61" y="9" font-size="8" font-weight="bold" text-anchor="end" fill="#000" stroke="none">L</text></svg><text x="222" y="181" font-size="7.5" font-family="system-ui, -apple-system, Segoe UI, sans-serif" text-anchor="middle" fill="#78716c">l-angle-unequal</text><svg x="280" y="116" width="52" height="52" viewBox="0 0 64 64" xmlns="http://www.w3.org/2000/svg" fill="none" stroke="#000" stroke-width="1.8"><circle cx="32" cy="33" r="21.0"/><circle cx="32" cy="33" r="17.5"/><line x1="4.7" y1="33.0" x2="59.3" y2="33.0" stroke-width="0.9" stroke-dasharray="6 2.2 1.4 2.2"/><line x1="32.0" y1="5.7" x2="32.0" y2="60.3" stroke-width="0.9" stroke-dasharray="6 2.2 1.4 2.2"/><text x="61" y="9" font-size="8" font-weight="bold" text-anchor="end" fill="#000" stroke="none">PIPE</text></svg><text x="306" y="181" font-size="7.5" font-family="system-ui, -apple-system, Segoe UI, sans-serif" text-anchor="middle" fill="#78716c">pipe</text><svg x="364" y="116" width="52" height="52" viewBox="0 0 64 64" xmlns="http://www.w3.org/2000/svg" fill="none" stroke="#000" stroke-width="1.8"><rect x="11.0" y="31.3" width="42.0" height="3.5"/><line x1="4.7" y1="33.0" x2="59.3" y2="33.0" stroke-width="0.9" stroke-dasharray="6 2.2 1.4 2.2"/><line x1="32.0" y1="30.7" x2="32.0" y2="35.3" stroke-width="0.9" stroke-dasharray="6 2.2 1.4 2.2"/><text x="61" y="9" font-size="8" font-weight="bold" text-anchor="end" fill="#000" stroke="none">PL</text></svg><text x="390" y="181" font-size="7.5" font-family="system-ui, -apple-system, Segoe UI, sans-serif" text-anchor="middle" fill="#78716c">plate</text><svg x="448" y="116" width="52" height="52" viewBox="0 0 64 64" xmlns="http://www.w3.org/2000/svg" fill="none" stroke="#000" stroke-width="1.8"><path d="M21.03 12.00 L42.97 12.00 L42.97 15.50 L35.82 15.50 L35.82 15.50 L35.18 15.60 L34.60 15.90 L34.15 16.35 L33.85 16.93 L33.75 17.57 L33.75 48.43 L33.75 48.43 L33.85 49.07 L34.15 49.65 L34.60 50.10 L35.18 50.40 L35.82 50.50 L42.97 50.50 L42.97 54.00 L21.03 54.00 L21.03 50.50 L28.18 50.50 L28.18 50.50 L28.82 50.40 L29.40 50.10 L29.85 49.65 L30.15 49.07 L30.25 48.43 L30.25 17.57 L30.25 17.57 L30.15 16.93 L29.85 16.35 L29.40 15.90 L28.82 15.60 L28.18 15.50 L21.03 15.50 Z"/><line x1="17.7" y1="33.0" x2="46.3" y2="33.0" stroke-width="0.9" stroke-dasharray="6 2.2 1.4 2.2"/><line x1="32.0" y1="5.7" x2="32.0" y2="60.3" stroke-width="0.9" stroke-dasharray="6 2.2 1.4 2.2"/><text x="61" y="9" font-size="8" font-weight="bold" text-anchor="end" fill="#000" stroke="none">S</text></svg><text x="474" y="181" font-size="7.5" font-family="system-ui, -apple-system, Segoe UI, sans-serif" text-anchor="middle" fill="#78716c">s-shape</text><svg x="532" y="116" width="52" height="52" viewBox="0 0 64 64" xmlns="http://www.w3.org/2000/svg" fill="none" stroke="#000" stroke-width="2"><line x1="6" y1="16" x2="58" y2="16"/><line x1="6" y1="22" x2="58" y2="22"/><line x1="6" y1="44" x2="58" y2="44" stroke-dasharray="5 4"/><text x="32" y="60" font-size="8" font-weight="bold" text-anchor="middle" fill="#000" stroke="none">T ELEVATION</text></svg><text x="558" y="181" font-size="7.5" font-family="system-ui, -apple-system, Segoe UI, sans-serif" text-anchor="middle" fill="#78716c">tee-elevation</text><svg x="616" y="116" width="52" height="52" viewBox="0 0 64 64" xmlns="http://www.w3.org/2000/svg" fill="none" stroke="#000" stroke-width="1.8"><path d="M20.82 12.00 L43.18 12.00 L43.18 15.50 L35.75 15.50 L35.75 15.50 L35.13 15.60 L34.57 15.88 L34.13 16.32 L33.85 16.88 L33.75 17.50 L33.75 48.50 L33.75 48.50 L33.85 49.12 L34.13 49.68 L34.57 50.12 L35.13 50.40 L35.75 50.50 L43.18 50.50 L43.18 54.00 L20.82 54.00 L20.82 50.50 L28.25 50.50 L28.25 50.50 L28.87 50.40 L29.43 50.12 L29.87 49.68 L30.15 49.12 L30.25 48.50 L30.25 17.50 L30.25 17.50 L30.15 16.88 L29.87 16.32 L29.43 15.88 L28.87 15.60 L28.25 15.50 L20.82 15.50 Z"/><line x1="17.5" y1="33.0" x2="46.5" y2="33.0" stroke-width="0.9" stroke-dasharray="6 2.2 1.4 2.2"/><line x1="32.0" y1="5.7" x2="32.0" y2="60.3" stroke-width="0.9" stroke-dasharray="6 2.2 1.4 2.2"/><text x="61" y="9" font-size="8" font-weight="bold" text-anchor="end" fill="#000" stroke="none">W</text></svg><text x="642" y="181" font-size="7.5" font-family="system-ui, -apple-system, Segoe UI, sans-serif" text-anchor="middle" fill="#78716c">w-shape</text><svg x="28" y="214" width="52" height="52" viewBox="0 0 64 64" xmlns="http://www.w3.org/2000/svg" fill="none" stroke="#000" stroke-width="1.8"><path d="M11.00 13.27 L53.00 13.27 L53.00 16.77 L35.79 16.77 L35.79 16.77 L35.16 16.87 L34.59 17.16 L34.14 17.61 L33.85 18.18 L33.75 18.81 L33.75 52.73 L30.25 52.73 L30.25 18.81 L30.25 18.81 L30.15 18.18 L29.86 17.61 L29.41 17.16 L28.84 16.87 L28.21 16.77 L11.00 16.77 Z"/><line x1="4.7" y1="33.0" x2="59.3" y2="33.0" stroke-width="0.9" stroke-dasharray="6 2.2 1.4 2.2"/><line x1="32.0" y1="7.4" x2="32.0" y2="58.6" stroke-width="0.9" stroke-dasharray="6 2.2 1.4 2.2"/><text x="61" y="9" font-size="8" font-weight="bold" text-anchor="end" fill="#000" stroke="none">WT</text></svg><text x="54" y="279" font-size="7.5" font-family="system-ui, -apple-system, Segoe UI, sans-serif" text-anchor="middle" fill="#78716c">wt-tee</text></svg>
