<svg viewBox="0 0 860 1710" width="860" xmlns="http://www.w3.org/2000/svg"><rect x="0" y="0" width="860" height="1710" rx="8" fill="#ffffff" stroke="#d6d3cd"/><text x="16" y="30" font-size="12" font-weight="700" font-family="system-ui, -apple-system, Segoe UI, sans-serif" fill="#44403c">us-stamps (United States)</text><g transform="rotate(-2 66.6 56)"><rect x="16" y="40" width="101.2" height="32" rx="6" fill="none" stroke="#22c55e" stroke-width="3"/><text x="66.6" y="61" font-size="13" font-weight="700" letter-spacing="0.5" font-family="system-ui, -apple-system, Segoe UI, sans-serif" text-anchor="middle" fill="#22c55e">APPROVED</text></g><g transform="rotate(-2 215.60000000000002 56)"><rect x="127.2" y="40" width="176.8" height="32" rx="6" fill="none" stroke="#22c55e" stroke-width="3"/><text x="215.60000000000002" y="61" font-size="13" font-weight="700" letter-spacing="0.5" font-family="system-ui, -apple-system, Segoe UI, sans-serif" text-anchor="middle" fill="#22c55e">APPROVED AS NOTED</text></g><g transform="rotate(-2 364.6 56)"><rect x="314" y="40" width="101.2" height="32" rx="6" fill="none" stroke="#ef4444" stroke-width="3"/><text x="364.6" y="61" font-size="13" font-weight="700" letter-spacing="0.5" font-family="system-ui, -apple-system, Segoe UI, sans-serif" text-anchor="middle" fill="#ef4444">REJECTED</text></g><g transform="rotate(-2 522 56)"><rect x="425.2" y="40" width="193.6" height="32" rx="6" fill="none" stroke="#ef4444" stroke-width="3"/><text x="522" y="61" font-size="13" font-weight="700" letter-spacing="0.5" font-family="system-ui, -apple-system, Segoe UI, sans-serif" text-anchor="middle" fill="#ef4444">REVISE AND RESUBMIT</text></g><g transform="rotate(-2 679.4 56)"><rect x="628.8" y="40" width="101.2" height="32" rx="6" fill="none" stroke="#3b82f6" stroke-width="3"/><text x="679.4" y="61" font-size="13" font-weight="700" letter-spacing="0.5" font-family="system-ui, -apple-system, Segoe UI, sans-serif" text-anchor="middle" fill="#3b82f6">REVIEWED</text></g><g transform="rotate(-2 786.4 56)"><rect x="740" y="40" width="92.80000000000001" height="32" rx="6" fill="none" stroke="#8b5cf6" stroke-width="3"/><text x="786.4" y="61" font-size="13" font-weight="700" letter-spacing="0.5" font-family="system-ui, -apple-system, Segoe UI, sans-serif" text-anchor="middle" fill="#8b5cf6">REVISED</text></g><g transform="rotate(-2 100.2 102)"><rect x="16" y="86" width="168.4" height="32" rx="6" fill="none" stroke="#22c55e" stroke-width="3"/><text x="100.2" y="107" font-size="13" font-weight="700" letter-spacing="0.5" font-family="system-ui, -apple-system, Segoe UI, sans-serif" text-anchor="middle" fill="#22c55e">FOR CONSTRUCTION</text></g><g transform="rotate(-2 295.4 102)"><rect x="194.4" y="86" width="202" height="32" rx="6" fill="none" stroke="#ef4444" stroke-width="3"/><text x="295.4" y="107" font-size="13" font-weight="700" letter-spacing="0.5" font-family="system-ui, -apple-system, Segoe UI, sans-serif" text-anchor="middle" fill="#ef4444">NOT FOR CONSTRUCTION</text></g><g transform="rotate(-2 494.79999999999995 102)"><rect x="406.4" y="86" width="176.8" height="32" rx="6" fill="none" stroke="#f59e0b" stroke-width="3"/><text x="494.79999999999995" y="107" font-size="13" font-weight="700" letter-spacing="0.5" font-family="system-ui, -apple-system, Segoe UI, sans-serif" text-anchor="middle" fill="#f59e0b">ISSUED FOR PERMIT</text></g><g transform="rotate(-2 669 102)"><rect x="593.2" y="86" width="151.60000000000002" height="32" rx="6" fill="none" stroke="#f59e0b" stroke-width="3"/><text x="669" y="107" font-size="13" font-weight="700" letter-spacing="0.5" font-family="system-ui, -apple-system, Segoe UI, sans-serif" text-anchor="middle" fill="#f59e0b">ISSUED FOR BID</text></g><g transform="rotate(-2 75 148)"><rect x="16" y="132" width="118" height="32" rx="6" fill="none" stroke="#f59e0b" stroke-width="3"/><text x="75" y="153" font-size="13" font-weight="700" letter-spacing="0.5" font-family="system-ui, -apple-system, Segoe UI, sans-serif" text-anchor="middle" fill="#f59e0b">FOR REVIEW</text></g><g transform="rotate(-2 207.2 148)"><rect x="144" y="132" width="126.4" height="32" rx="6" fill="none" stroke="#f59e0b" stroke-width="3"/><text x="207.2" y="153" font-size="13" font-weight="700" letter-spacing="0.5" font-family="system-ui, -apple-system, Segoe UI, sans-serif" text-anchor="middle" fill="#f59e0b">PRELIMINARY</text></g><g transform="rotate(-2 318.4 148)"><rect x="280.4" y="132" width="76" height="32" rx="6" fill="none" stroke="#3b82f6" stroke-width="3"/><text x="318.4" y="153" font-size="13" font-weight="700" letter-spacing="0.5" font-family="system-ui, -apple-system, Segoe UI, sans-serif" text-anchor="middle" fill="#3b82f6">DRAFT</text></g><g transform="rotate(-2 417 148)"><rect x="366.4" y="132" width="101.2" height="32" rx="6" fill="none" stroke="#6b7280" stroke-width="3"/><text x="417" y="153" font-size="13" font-weight="700" letter-spacing="0.5" font-family="system-ui, -apple-system, Segoe UI, sans-serif" text-anchor="middle" fill="#6b7280">AS-BUILT</text></g><g transform="rotate(-2 553.4 148)"><rect x="477.59999999999997" y="132" width="151.60000000000002" height="32" rx="6" fill="none" stroke="#6b7280" stroke-width="3"/><text x="553.4" y="153" font-size="13" font-weight="700" letter-spacing="0.5" font-family="system-ui, -apple-system, Segoe UI, sans-serif" text-anchor="middle" fill="#6b7280">RECORD DRAWING</text></g><g transform="rotate(-2 673 148)"><rect x="639.2" y="132" width="67.6" height="32" rx="6" fill="none" stroke="#6b7280" stroke-width="3"/><text x="673" y="153" font-size="13" font-weight="700" letter-spacing="0.5" font-family="system-ui, -apple-system, Segoe UI, sans-serif" text-anchor="middle" fill="#6b7280">VOID</text></g><text x="16" y="200" font-size="12" font-weight="700" font-family="system-ui, -apple-system, Segoe UI, sans-serif" fill="#44403c">de-stamps (Deutschland)</text><g transform="rotate(-2 62.400000000000006 226)"><rect x="16" y="210" width="92.80000000000001" height="32" rx="6" fill="none" stroke="#22c55e" stroke-width="3"/><text x="62.400000000000006" y="231" font-size="13" font-weight="700" letter-spacing="0.5" font-family="system-ui, -apple-system, Segoe UI, sans-serif" text-anchor="middle" fill="#22c55e">GEPRÜFT</text></g><g transform="rotate(-2 182 226)"><rect x="118.80000000000001" y="210" width="126.4" height="32" rx="6" fill="none" stroke="#22c55e" stroke-width="3"/><text x="182" y="231" font-size="13" font-weight="700" letter-spacing="0.5" font-family="system-ui, -apple-system, Segoe UI, sans-serif" text-anchor="middle" fill="#22c55e">FREIGEGEBEN</text></g><g transform="rotate(-2 331 226)"><rect x="255.20000000000002" y="210" width="151.60000000000002" height="32" rx="6" fill="none" stroke="#22c55e" stroke-width="3"/><text x="331" y="231" font-size="13" font-weight="700" letter-spacing="0.5" font-family="system-ui, -apple-system, Segoe UI, sans-serif" text-anchor="middle" fill="#22c55e">ZUR AUSFÜHRUNG</text></g><g transform="rotate(-2 517.8000000000001 226)"><rect x="416.80000000000007" y="210" width="202" height="32" rx="6" fill="none" stroke="#ef4444" stroke-width="3"/><text x="517.8000000000001" y="231" font-size="13" font-weight="700" letter-spacing="0.5" font-family="system-ui, -apple-system, Segoe UI, sans-serif" text-anchor="middle" fill="#ef4444">NICHT ZUR AUSFÜHRUNG</text></g><g transform="rotate(-2 683.6 226)"><rect x="628.8000000000001" y="210" width="109.60000000000001" height="32" rx="6" fill="none" stroke="#ef4444" stroke-width="3"/><text x="683.6" y="231" font-size="13" font-weight="700" letter-spacing="0.5" font-family="system-ui, -apple-system, Segoe UI, sans-serif" text-anchor="middle" fill="#ef4444">ABGELEHNT</text></g><g transform="rotate(-2 96 272)"><rect x="16" y="256" width="160" height="32" rx="6" fill="none" stroke="#f59e0b" stroke-width="3"/><text x="96" y="277" font-size="13" font-weight="700" letter-spacing="0.5" font-family="system-ui, -apple-system, Segoe UI, sans-serif" text-anchor="middle" fill="#f59e0b">ZUR GENEHMIGUNG</text></g><g transform="rotate(-2 249.2 272)"><rect x="186" y="256" width="126.4" height="32" rx="6" fill="none" stroke="#f59e0b" stroke-width="3"/><text x="249.2" y="277" font-size="13" font-weight="700" letter-spacing="0.5" font-family="system-ui, -apple-system, Segoe UI, sans-serif" text-anchor="middle" fill="#f59e0b">ZUR PRÜFUNG</text></g><g transform="rotate(-2 373 272)"><rect x="322.4" y="256" width="101.2" height="32" rx="6" fill="none" stroke="#f59e0b" stroke-width="3"/><text x="373" y="277" font-size="13" font-weight="700" letter-spacing="0.5" font-family="system-ui, -apple-system, Segoe UI, sans-serif" text-anchor="middle" fill="#f59e0b">VORABZUG</text></g><g transform="rotate(-2 480 272)"><rect x="433.59999999999997" y="256" width="92.80000000000001" height="32" rx="6" fill="none" stroke="#3b82f6" stroke-width="3"/><text x="480" y="277" font-size="13" font-weight="700" letter-spacing="0.5" font-family="system-ui, -apple-system, Segoe UI, sans-serif" text-anchor="middle" fill="#3b82f6">ENTWURF</text></g><g transform="rotate(-2 582.8 272)"><rect x="536.4" y="256" width="92.80000000000001" height="32" rx="6" fill="none" stroke="#3b82f6" stroke-width="3"/><text x="582.8" y="277" font-size="13" font-weight="700" letter-spacing="0.5" font-family="system-ui, -apple-system, Segoe UI, sans-serif" text-anchor="middle" fill="#3b82f6">GESEHEN</text></g><g transform="rotate(-2 689.8000000000001 272)"><rect x="639.2" y="256" width="101.2" height="32" rx="6" fill="none" stroke="#8b5cf6" stroke-width="3"/><text x="689.8000000000001" y="277" font-size="13" font-weight="700" letter-spacing="0.5" font-family="system-ui, -apple-system, Segoe UI, sans-serif" text-anchor="middle" fill="#8b5cf6">GEÄNDERT</text></g><g transform="rotate(-2 83.4 318)"><rect x="16" y="302" width="134.8" height="32" rx="6" fill="none" stroke="#6b7280" stroke-width="3"/><text x="83.4" y="323" font-size="13" font-weight="700" letter-spacing="0.5" font-family="system-ui, -apple-system, Segoe UI, sans-serif" text-anchor="middle" fill="#6b7280">BESTANDSPLAN</text></g><g transform="rotate(-2 211.4 318)"><rect x="160.8" y="302" width="101.2" height="32" rx="6" fill="none" stroke="#6b7280" stroke-width="3"/><text x="211.4" y="323" font-size="13" font-weight="700" letter-spacing="0.5" font-family="system-ui, -apple-system, Segoe UI, sans-serif" text-anchor="middle" fill="#6b7280">UNGÜLTIG</text></g><text x="16" y="370" font-size="12" font-weight="700" font-family="system-ui, -apple-system, Segoe UI, sans-serif" fill="#44403c">uk-stamps (United Kingdom)</text><g transform="rotate(-2 66.6 396)"><rect x="16" y="380" width="101.2" height="32" rx="6" fill="none" stroke="#22c55e" stroke-width="3"/><text x="66.6" y="401" font-size="13" font-weight="700" letter-spacing="0.5" font-family="system-ui, -apple-system, Segoe UI, sans-serif" text-anchor="middle" fill="#22c55e">APPROVED</text></g><g transform="rotate(-2 236.60000000000002 396)"><rect x="127.2" y="380" width="218.8" height="32" rx="6" fill="none" stroke="#22c55e" stroke-width="3"/><text x="236.60000000000002" y="401" font-size="13" font-weight="700" letter-spacing="0.5" font-family="system-ui, -apple-system, Segoe UI, sans-serif" text-anchor="middle" fill="#22c55e">APPROVED WITH COMMENTS</text></g><g transform="rotate(-2 406.6 396)"><rect x="356" y="380" width="101.2" height="32" rx="6" fill="none" stroke="#ef4444" stroke-width="3"/><text x="406.6" y="401" font-size="13" font-weight="700" letter-spacing="0.5" font-family="system-ui, -apple-system, Segoe UI, sans-serif" text-anchor="middle" fill="#ef4444">REJECTED</text></g><g transform="rotate(-2 564 396)"><rect x="467.2" y="380" width="193.6" height="32" rx="6" fill="none" stroke="#3b82f6" stroke-width="3"/><text x="564" y="401" font-size="13" font-weight="700" letter-spacing="0.5" font-family="system-ui, -apple-system, Segoe UI, sans-serif" text-anchor="middle" fill="#3b82f6">S0 WORK IN PROGRESS</text></g><g transform="rotate(-2 150.60000000000002 442)"><rect x="16" y="426" width="269.20000000000005" height="32" rx="6" fill="none" stroke="#f59e0b" stroke-width="3"/><text x="150.60000000000002" y="447" font-size="13" font-weight="700" letter-spacing="0.5" font-family="system-ui, -apple-system, Segoe UI, sans-serif" text-anchor="middle" fill="#f59e0b">S1 SUITABLE FOR COORDINATION</text></g><g transform="rotate(-2 425.6 442)"><rect x="295.20000000000005" y="426" width="260.8" height="32" rx="6" fill="none" stroke="#f59e0b" stroke-width="3"/><text x="425.6" y="447" font-size="13" font-weight="700" letter-spacing="0.5" font-family="system-ui, -apple-system, Segoe UI, sans-serif" text-anchor="middle" fill="#f59e0b">S2 SUITABLE FOR INFORMATION</text></g><g transform="rotate(-2 679.6 442)"><rect x="566" y="426" width="227.20000000000002" height="32" rx="6" fill="none" stroke="#f59e0b" stroke-width="3"/><text x="679.6" y="447" font-size="13" font-weight="700" letter-spacing="0.5" font-family="system-ui, -apple-system, Segoe UI, sans-serif" text-anchor="middle" fill="#f59e0b">S3 FOR REVIEW & COMMENT</text></g><g transform="rotate(-2 121.2 488)"><rect x="16" y="472" width="210.4" height="32" rx="6" fill="none" stroke="#f59e0b" stroke-width="3"/><text x="121.2" y="493" font-size="13" font-weight="700" letter-spacing="0.5" font-family="system-ui, -apple-system, Segoe UI, sans-serif" text-anchor="middle" fill="#f59e0b">S4 FOR STAGE APPROVAL</text></g><g transform="rotate(-2 320.6 488)"><rect x="236.4" y="472" width="168.4" height="32" rx="6" fill="none" stroke="#22c55e" stroke-width="3"/><text x="320.6" y="493" font-size="13" font-weight="700" letter-spacing="0.5" font-family="system-ui, -apple-system, Segoe UI, sans-serif" text-anchor="middle" fill="#22c55e">FOR CONSTRUCTION</text></g><g transform="rotate(-2 465.40000000000003 488)"><rect x="414.8" y="472" width="101.2" height="32" rx="6" fill="none" stroke="#6b7280" stroke-width="3"/><text x="465.40000000000003" y="493" font-size="13" font-weight="700" letter-spacing="0.5" font-family="system-ui, -apple-system, Segoe UI, sans-serif" text-anchor="middle" fill="#6b7280">AS BUILT</text></g><g transform="rotate(-2 585 488)"><rect x="526" y="472" width="118" height="32" rx="6" fill="none" stroke="#6b7280" stroke-width="3"/><text x="585" y="493" font-size="13" font-weight="700" letter-spacing="0.5" font-family="system-ui, -apple-system, Segoe UI, sans-serif" text-anchor="middle" fill="#6b7280">SUPERSEDED</text></g><g transform="rotate(-2 692 488)"><rect x="654" y="472" width="76" height="32" rx="6" fill="none" stroke="#3b82f6" stroke-width="3"/><text x="692" y="493" font-size="13" font-weight="700" letter-spacing="0.5" font-family="system-ui, -apple-system, Segoe UI, sans-serif" text-anchor="middle" fill="#3b82f6">DRAFT</text></g><g transform="rotate(-2 79.2 534)"><rect x="16" y="518" width="126.4" height="32" rx="6" fill="none" stroke="#f59e0b" stroke-width="3"/><text x="79.2" y="539" font-size="13" font-weight="700" letter-spacing="0.5" font-family="system-ui, -apple-system, Segoe UI, sans-serif" text-anchor="middle" fill="#f59e0b">PRELIMINARY</text></g><g transform="rotate(-2 198.8 534)"><rect x="152.4" y="518" width="92.80000000000001" height="32" rx="6" fill="none" stroke="#3b82f6" stroke-width="3"/><text x="198.8" y="539" font-size="13" font-weight="700" letter-spacing="0.5" font-family="system-ui, -apple-system, Segoe UI, sans-serif" text-anchor="middle" fill="#3b82f6">CHECKED</text></g><text x="16" y="586" font-size="12" font-weight="700" font-family="system-ui, -apple-system, Segoe UI, sans-serif" fill="#44403c">fr-stamps (France)</text><g transform="rotate(-2 108.60000000000001 612)"><rect x="16" y="596" width="185.20000000000002" height="32" rx="6" fill="none" stroke="#22c55e" stroke-width="3"/><text x="108.60000000000001" y="617" font-size="13" font-weight="700" letter-spacing="0.5" font-family="system-ui, -apple-system, Segoe UI, sans-serif" text-anchor="middle" fill="#22c55e">BON POUR EXÉCUTION</text></g><g transform="rotate(-2 261.8 612)"><rect x="211.20000000000002" y="596" width="101.2" height="32" rx="6" fill="none" stroke="#22c55e" stroke-width="3"/><text x="261.8" y="617" font-size="13" font-weight="700" letter-spacing="0.5" font-family="system-ui, -apple-system, Segoe UI, sans-serif" text-anchor="middle" fill="#22c55e">APPROUVÉ</text></g><g transform="rotate(-2 364.6 612)"><rect x="322.40000000000003" y="596" width="84.4" height="32" rx="6" fill="none" stroke="#ef4444" stroke-width="3"/><text x="364.6" y="617" font-size="13" font-weight="700" letter-spacing="0.5" font-family="system-ui, -apple-system, Segoe UI, sans-serif" text-anchor="middle" fill="#ef4444">REFUSÉ</text></g><g transform="rotate(-2 442.20000000000005 612)"><rect x="416.80000000000007" y="596" width="50.8" height="32" rx="6" fill="none" stroke="#3b82f6" stroke-width="3"/><text x="442.20000000000005" y="617" font-size="13" font-weight="700" letter-spacing="0.5" font-family="system-ui, -apple-system, Segoe UI, sans-serif" text-anchor="middle" fill="#3b82f6">VU</text></g><g transform="rotate(-2 561.8000000000001 612)"><rect x="477.6000000000001" y="596" width="168.4" height="32" rx="6" fill="none" stroke="#f59e0b" stroke-width="3"/><text x="561.8000000000001" y="617" font-size="13" font-weight="700" letter-spacing="0.5" font-family="system-ui, -apple-system, Segoe UI, sans-serif" text-anchor="middle" fill="#f59e0b">POUR APPROBATION</text></g><g transform="rotate(-2 740.2000000000002 612)"><rect x="656.0000000000001" y="596" width="168.4" height="32" rx="6" fill="none" stroke="#3b82f6" stroke-width="3"/><text x="740.2000000000002" y="617" font-size="13" font-weight="700" letter-spacing="0.5" font-family="system-ui, -apple-system, Segoe UI, sans-serif" text-anchor="middle" fill="#3b82f6">POUR INFORMATION</text></g><g transform="rotate(-2 104.4 658)"><rect x="16" y="642" width="176.8" height="32" rx="6" fill="none" stroke="#f59e0b" stroke-width="3"/><text x="104.4" y="663" font-size="13" font-weight="700" letter-spacing="0.5" font-family="system-ui, -apple-system, Segoe UI, sans-serif" text-anchor="middle" fill="#f59e0b">POUR COMMENTAIRES</text></g><g transform="rotate(-2 245 658)"><rect x="202.8" y="642" width="84.4" height="32" rx="6" fill="none" stroke="#3b82f6" stroke-width="3"/><text x="245" y="663" font-size="13" font-weight="700" letter-spacing="0.5" font-family="system-ui, -apple-system, Segoe UI, sans-serif" text-anchor="middle" fill="#3b82f6">PROJET</text></g><g transform="rotate(-2 364.6 658)"><rect x="297.20000000000005" y="642" width="134.8" height="32" rx="6" fill="none" stroke="#f59e0b" stroke-width="3"/><text x="364.6" y="663" font-size="13" font-weight="700" letter-spacing="0.5" font-family="system-ui, -apple-system, Segoe UI, sans-serif" text-anchor="middle" fill="#f59e0b">AVANT-PROJET</text></g><g transform="rotate(-2 551.4000000000001 658)"><rect x="442.00000000000006" y="642" width="218.8" height="32" rx="6" fill="none" stroke="#6b7280" stroke-width="3"/><text x="551.4000000000001" y="663" font-size="13" font-weight="700" letter-spacing="0.5" font-family="system-ui, -apple-system, Segoe UI, sans-serif" text-anchor="middle" fill="#6b7280">CONFORME À L'EXÉCUTION</text></g><g transform="rotate(-2 713.0000000000001 658)"><rect x="670.8000000000001" y="642" width="84.4" height="32" rx="6" fill="none" stroke="#6b7280" stroke-width="3"/><text x="713.0000000000001" y="663" font-size="13" font-weight="700" letter-spacing="0.5" font-family="system-ui, -apple-system, Segoe UI, sans-serif" text-anchor="middle" fill="#6b7280">ANNULÉ</text></g><g transform="rotate(-2 58.2 704)"><rect x="16" y="688" width="84.4" height="32" rx="6" fill="none" stroke="#8b5cf6" stroke-width="3"/><text x="58.2" y="709" font-size="13" font-weight="700" letter-spacing="0.5" font-family="system-ui, -apple-system, Segoe UI, sans-serif" text-anchor="middle" fill="#8b5cf6">RÉVISÉ</text></g><text x="16" y="756" font-size="12" font-weight="700" font-family="system-ui, -apple-system, Segoe UI, sans-serif" fill="#44403c">it-stamps (Italia)</text><g transform="rotate(-2 70.80000000000001 782)"><rect x="16" y="766" width="109.60000000000001" height="32" rx="6" fill="none" stroke="#22c55e" stroke-width="3"/><text x="70.80000000000001" y="787" font-size="13" font-weight="700" letter-spacing="0.5" font-family="system-ui, -apple-system, Segoe UI, sans-serif" text-anchor="middle" fill="#22c55e">APPROVATO</text></g><g transform="rotate(-2 240.8 782)"><rect x="135.60000000000002" y="766" width="210.4" height="32" rx="6" fill="none" stroke="#22c55e" stroke-width="3"/><text x="240.8" y="787" font-size="13" font-weight="700" letter-spacing="0.5" font-family="system-ui, -apple-system, Segoe UI, sans-serif" text-anchor="middle" fill="#22c55e">APPROVATO CON RISERVA</text></g><g transform="rotate(-2 406.6 782)"><rect x="356" y="766" width="101.2" height="32" rx="6" fill="none" stroke="#ef4444" stroke-width="3"/><text x="406.6" y="787" font-size="13" font-weight="700" letter-spacing="0.5" font-family="system-ui, -apple-system, Segoe UI, sans-serif" text-anchor="middle" fill="#ef4444">RESPINTO</text></g><g transform="rotate(-2 551.4 782)"><rect x="467.2" y="766" width="168.4" height="32" rx="6" fill="none" stroke="#f59e0b" stroke-width="3"/><text x="551.4" y="787" font-size="13" font-weight="700" letter-spacing="0.5" font-family="system-ui, -apple-system, Segoe UI, sans-serif" text-anchor="middle" fill="#f59e0b">PER APPROVAZIONE</text></g><g transform="rotate(-2 725.6 782)"><rect x="645.6" y="766" width="160" height="32" rx="6" fill="none" stroke="#22c55e" stroke-width="3"/><text x="725.6" y="787" font-size="13" font-weight="700" letter-spacing="0.5" font-family="system-ui, -apple-system, Segoe UI, sans-serif" text-anchor="middle" fill="#22c55e">PER COSTRUZIONE</text></g><g transform="rotate(-2 100.2 828)"><rect x="16" y="812" width="168.4" height="32" rx="6" fill="none" stroke="#3b82f6" stroke-width="3"/><text x="100.2" y="833" font-size="13" font-weight="700" letter-spacing="0.5" font-family="system-ui, -apple-system, Segoe UI, sans-serif" text-anchor="middle" fill="#3b82f6">PER INFORMAZIONE</text></g><g transform="rotate(-2 232.4 828)"><rect x="194.4" y="812" width="76" height="32" rx="6" fill="none" stroke="#3b82f6" stroke-width="3"/><text x="232.4" y="833" font-size="13" font-weight="700" letter-spacing="0.5" font-family="system-ui, -apple-system, Segoe UI, sans-serif" text-anchor="middle" fill="#3b82f6">BOZZA</text></g><g transform="rotate(-2 343.59999999999997 828)"><rect x="280.4" y="812" width="126.4" height="32" rx="6" fill="none" stroke="#f59e0b" stroke-width="3"/><text x="343.59999999999997" y="833" font-size="13" font-weight="700" letter-spacing="0.5" font-family="system-ui, -apple-system, Segoe UI, sans-serif" text-anchor="middle" fill="#f59e0b">PRELIMINARE</text></g><g transform="rotate(-2 454.79999999999995 828)"><rect x="416.79999999999995" y="812" width="76" height="32" rx="6" fill="none" stroke="#3b82f6" stroke-width="3"/><text x="454.79999999999995" y="833" font-size="13" font-weight="700" letter-spacing="0.5" font-family="system-ui, -apple-system, Segoe UI, sans-serif" text-anchor="middle" fill="#3b82f6">VISTO</text></g><g transform="rotate(-2 578.5999999999999 828)"><rect x="502.79999999999995" y="812" width="151.60000000000002" height="32" rx="6" fill="none" stroke="#6b7280" stroke-width="3"/><text x="578.5999999999999" y="833" font-size="13" font-weight="700" letter-spacing="0.5" font-family="system-ui, -apple-system, Segoe UI, sans-serif" text-anchor="middle" fill="#6b7280">COME COSTRUITO</text></g><g transform="rotate(-2 719.1999999999999 828)"><rect x="664.4" y="812" width="109.60000000000001" height="32" rx="6" fill="none" stroke="#6b7280" stroke-width="3"/><text x="719.1999999999999" y="833" font-size="13" font-weight="700" letter-spacing="0.5" font-family="system-ui, -apple-system, Segoe UI, sans-serif" text-anchor="middle" fill="#6b7280">ANNULLATO</text></g><g transform="rotate(-2 79.2 874)"><rect x="16" y="858" width="126.4" height="32" rx="6" fill="none" stroke="#8b5cf6" stroke-width="3"/><text x="79.2" y="879" font-size="13" font-weight="700" letter-spacing="0.5" font-family="system-ui, -apple-system, Segoe UI, sans-serif" text-anchor="middle" fill="#8b5cf6">REVISIONATO</text></g><text x="16" y="926" font-size="12" font-weight="700" font-family="system-ui, -apple-system, Segoe UI, sans-serif" fill="#44403c">es-stamps (España)</text><g transform="rotate(-2 66.6 952)"><rect x="16" y="936" width="101.2" height="32" rx="6" fill="none" stroke="#22c55e" stroke-width="3"/><text x="66.6" y="957" font-size="13" font-weight="700" letter-spacing="0.5" font-family="system-ui, -apple-system, Segoe UI, sans-serif" text-anchor="middle" fill="#22c55e">APROBADO</text></g><g transform="rotate(-2 245 952)"><rect x="127.2" y="936" width="235.60000000000002" height="32" rx="6" fill="none" stroke="#22c55e" stroke-width="3"/><text x="245" y="957" font-size="13" font-weight="700" letter-spacing="0.5" font-family="system-ui, -apple-system, Segoe UI, sans-serif" text-anchor="middle" fill="#22c55e">APROBADO CON COMENTARIOS</text></g><g transform="rotate(-2 427.6 952)"><rect x="372.8" y="936" width="109.60000000000001" height="32" rx="6" fill="none" stroke="#ef4444" stroke-width="3"/><text x="427.6" y="957" font-size="13" font-weight="700" letter-spacing="0.5" font-family="system-ui, -apple-system, Segoe UI, sans-serif" text-anchor="middle" fill="#ef4444">RECHAZADO</text></g><g transform="rotate(-2 572.4000000000001 952)"><rect x="492.40000000000003" y="936" width="160" height="32" rx="6" fill="none" stroke="#f59e0b" stroke-width="3"/><text x="572.4000000000001" y="957" font-size="13" font-weight="700" letter-spacing="0.5" font-family="system-ui, -apple-system, Segoe UI, sans-serif" text-anchor="middle" fill="#f59e0b">PARA APROBACIÓN</text></g><g transform="rotate(-2 750.8000000000001 952)"><rect x="662.4000000000001" y="936" width="176.8" height="32" rx="6" fill="none" stroke="#22c55e" stroke-width="3"/><text x="750.8000000000001" y="957" font-size="13" font-weight="700" letter-spacing="0.5" font-family="system-ui, -apple-system, Segoe UI, sans-serif" text-anchor="middle" fill="#22c55e">PARA CONSTRUCCIÓN</text></g><g transform="rotate(-2 100.2 998)"><rect x="16" y="982" width="168.4" height="32" rx="6" fill="none" stroke="#3b82f6" stroke-width="3"/><text x="100.2" y="1003" font-size="13" font-weight="700" letter-spacing="0.5" font-family="system-ui, -apple-system, Segoe UI, sans-serif" text-anchor="middle" fill="#3b82f6">PARA INFORMACIÓN</text></g><g transform="rotate(-2 245 998)"><rect x="194.4" y="982" width="101.2" height="32" rx="6" fill="none" stroke="#3b82f6" stroke-width="3"/><text x="245" y="1003" font-size="13" font-weight="700" letter-spacing="0.5" font-family="system-ui, -apple-system, Segoe UI, sans-serif" text-anchor="middle" fill="#3b82f6">BORRADOR</text></g><g transform="rotate(-2 364.6 998)"><rect x="305.6" y="982" width="118" height="32" rx="6" fill="none" stroke="#f59e0b" stroke-width="3"/><text x="364.6" y="1003" font-size="13" font-weight="700" letter-spacing="0.5" font-family="system-ui, -apple-system, Segoe UI, sans-serif" text-anchor="middle" fill="#f59e0b">PRELIMINAR</text></g><g transform="rotate(-2 484.20000000000005 998)"><rect x="433.6" y="982" width="101.2" height="32" rx="6" fill="none" stroke="#8b5cf6" stroke-width="3"/><text x="484.20000000000005" y="1003" font-size="13" font-weight="700" letter-spacing="0.5" font-family="system-ui, -apple-system, Segoe UI, sans-serif" text-anchor="middle" fill="#8b5cf6">REVISADO</text></g><g transform="rotate(-2 624.8000000000001 998)"><rect x="544.8000000000001" y="982" width="160" height="32" rx="6" fill="none" stroke="#6b7280" stroke-width="3"/><text x="624.8000000000001" y="1003" font-size="13" font-weight="700" letter-spacing="0.5" font-family="system-ui, -apple-system, Segoe UI, sans-serif" text-anchor="middle" fill="#6b7280">CONFORME A OBRA</text></g><g transform="rotate(-2 761.2 998)"><rect x="714.8000000000001" y="982" width="92.80000000000001" height="32" rx="6" fill="none" stroke="#6b7280" stroke-width="3"/><text x="761.2" y="1003" font-size="13" font-weight="700" letter-spacing="0.5" font-family="system-ui, -apple-system, Segoe UI, sans-serif" text-anchor="middle" fill="#6b7280">ANULADO</text></g><text x="16" y="1050" font-size="12" font-weight="700" font-family="system-ui, -apple-system, Segoe UI, sans-serif" fill="#44403c">pt-stamps (Portugal)</text><g transform="rotate(-2 66.6 1076)"><rect x="16" y="1060" width="101.2" height="32" rx="6" fill="none" stroke="#22c55e" stroke-width="3"/><text x="66.6" y="1081" font-size="13" font-weight="700" letter-spacing="0.5" font-family="system-ui, -apple-system, Segoe UI, sans-serif" text-anchor="middle" fill="#22c55e">APROVADO</text></g><g transform="rotate(-2 245 1076)"><rect x="127.2" y="1060" width="235.60000000000002" height="32" rx="6" fill="none" stroke="#22c55e" stroke-width="3"/><text x="245" y="1081" font-size="13" font-weight="700" letter-spacing="0.5" font-family="system-ui, -apple-system, Segoe UI, sans-serif" text-anchor="middle" fill="#22c55e">APROVADO COM COMENTÁRIOS</text></g><g transform="rotate(-2 427.6 1076)"><rect x="372.8" y="1060" width="109.60000000000001" height="32" rx="6" fill="none" stroke="#ef4444" stroke-width="3"/><text x="427.6" y="1081" font-size="13" font-weight="700" letter-spacing="0.5" font-family="system-ui, -apple-system, Segoe UI, sans-serif" text-anchor="middle" fill="#ef4444">REPROVADO</text></g><g transform="rotate(-2 568.2 1076)"><rect x="492.40000000000003" y="1060" width="151.60000000000002" height="32" rx="6" fill="none" stroke="#f59e0b" stroke-width="3"/><text x="568.2" y="1081" font-size="13" font-weight="700" letter-spacing="0.5" font-family="system-ui, -apple-system, Segoe UI, sans-serif" text-anchor="middle" fill="#f59e0b">PARA APROVAÇÃO</text></g><g transform="rotate(-2 734 1076)"><rect x="654" y="1060" width="160" height="32" rx="6" fill="none" stroke="#22c55e" stroke-width="3"/><text x="734" y="1081" font-size="13" font-weight="700" letter-spacing="0.5" font-family="system-ui, -apple-system, Segoe UI, sans-serif" text-anchor="middle" fill="#22c55e">PARA CONSTRUÇÃO</text></g><g transform="rotate(-2 96 1122)"><rect x="16" y="1106" width="160" height="32" rx="6" fill="none" stroke="#3b82f6" stroke-width="3"/><text x="96" y="1127" font-size="13" font-weight="700" letter-spacing="0.5" font-family="system-ui, -apple-system, Segoe UI, sans-serif" text-anchor="middle" fill="#3b82f6">PARA INFORMAÇÃO</text></g><g transform="rotate(-2 245 1122)"><rect x="186" y="1106" width="118" height="32" rx="6" fill="none" stroke="#f59e0b" stroke-width="3"/><text x="245" y="1127" font-size="13" font-weight="700" letter-spacing="0.5" font-family="system-ui, -apple-system, Segoe UI, sans-serif" text-anchor="middle" fill="#f59e0b">PRELIMINAR</text></g><g transform="rotate(-2 360.4 1122)"><rect x="314" y="1106" width="92.80000000000001" height="32" rx="6" fill="none" stroke="#8b5cf6" stroke-width="3"/><text x="360.4" y="1127" font-size="13" font-weight="700" letter-spacing="0.5" font-family="system-ui, -apple-system, Segoe UI, sans-serif" text-anchor="middle" fill="#8b5cf6">REVISTO</text></g><g transform="rotate(-2 484.20000000000005 1122)"><rect x="416.8" y="1106" width="134.8" height="32" rx="6" fill="none" stroke="#6b7280" stroke-width="3"/><text x="484.20000000000005" y="1127" font-size="13" font-weight="700" letter-spacing="0.5" font-family="system-ui, -apple-system, Segoe UI, sans-serif" text-anchor="middle" fill="#6b7280">TELAS FINAIS</text></g><g transform="rotate(-2 608 1122)"><rect x="561.6" y="1106" width="92.80000000000001" height="32" rx="6" fill="none" stroke="#6b7280" stroke-width="3"/><text x="608" y="1127" font-size="13" font-weight="700" letter-spacing="0.5" font-family="system-ui, -apple-system, Segoe UI, sans-serif" text-anchor="middle" fill="#6b7280">ANULADO</text></g><text x="16" y="1174" font-size="12" font-weight="700" font-family="system-ui, -apple-system, Segoe UI, sans-serif" fill="#44403c">tr-stamps (Türkiye)</text><g transform="rotate(-2 70.80000000000001 1200)"><rect x="16" y="1184" width="109.60000000000001" height="32" rx="6" fill="none" stroke="#22c55e" stroke-width="3"/><text x="70.80000000000001" y="1205" font-size="13" font-weight="700" letter-spacing="0.5" font-family="system-ui, -apple-system, Segoe UI, sans-serif" text-anchor="middle" fill="#22c55e">ONAYLANDI</text></g><g transform="rotate(-2 194.60000000000002 1200)"><rect x="135.60000000000002" y="1184" width="118" height="32" rx="6" fill="none" stroke="#ef4444" stroke-width="3"/><text x="194.60000000000002" y="1205" font-size="13" font-weight="700" letter-spacing="0.5" font-family="system-ui, -apple-system, Segoe UI, sans-serif" text-anchor="middle" fill="#ef4444">REDDEDİLDİ</text></g><g transform="rotate(-2 318.40000000000003 1200)"><rect x="263.6" y="1184" width="109.60000000000001" height="32" rx="6" fill="none" stroke="#f59e0b" stroke-width="3"/><text x="318.40000000000003" y="1205" font-size="13" font-weight="700" letter-spacing="0.5" font-family="system-ui, -apple-system, Segoe UI, sans-serif" text-anchor="middle" fill="#f59e0b">ONAY İÇİN</text></g><g transform="rotate(-2 454.80000000000007 1200)"><rect x="383.20000000000005" y="1184" width="143.2" height="32" rx="6" fill="none" stroke="#22c55e" stroke-width="3"/><text x="454.80000000000007" y="1205" font-size="13" font-weight="700" letter-spacing="0.5" font-family="system-ui, -apple-system, Segoe UI, sans-serif" text-anchor="middle" fill="#22c55e">UYGULAMA İÇİN</text></g><g transform="rotate(-2 595.4000000000001 1200)"><rect x="536.4000000000001" y="1184" width="118" height="32" rx="6" fill="none" stroke="#3b82f6" stroke-width="3"/><text x="595.4000000000001" y="1205" font-size="13" font-weight="700" letter-spacing="0.5" font-family="system-ui, -apple-system, Segoe UI, sans-serif" text-anchor="middle" fill="#3b82f6">BİLGİ İÇİN</text></g><g transform="rotate(-2 706.6000000000001 1200)"><rect x="664.4000000000001" y="1184" width="84.4" height="32" rx="6" fill="none" stroke="#3b82f6" stroke-width="3"/><text x="706.6000000000001" y="1205" font-size="13" font-weight="700" letter-spacing="0.5" font-family="system-ui, -apple-system, Segoe UI, sans-serif" text-anchor="middle" fill="#3b82f6">TASLAK</text></g><g transform="rotate(-2 66.6 1246)"><rect x="16" y="1230" width="101.2" height="32" rx="6" fill="none" stroke="#f59e0b" stroke-width="3"/><text x="66.6" y="1251" font-size="13" font-weight="700" letter-spacing="0.5" font-family="system-ui, -apple-system, Segoe UI, sans-serif" text-anchor="middle" fill="#f59e0b">ÖN PROJE</text></g><g transform="rotate(-2 203 1246)"><rect x="127.2" y="1230" width="151.60000000000002" height="32" rx="6" fill="none" stroke="#3b82f6" stroke-width="3"/><text x="203" y="1251" font-size="13" font-weight="700" letter-spacing="0.5" font-family="system-ui, -apple-system, Segoe UI, sans-serif" text-anchor="middle" fill="#3b82f6">KONTROL EDİLDİ</text></g><g transform="rotate(-2 335.20000000000005 1246)"><rect x="288.8" y="1230" width="92.80000000000001" height="32" rx="6" fill="none" stroke="#3b82f6" stroke-width="3"/><text x="335.20000000000005" y="1251" font-size="13" font-weight="700" letter-spacing="0.5" font-family="system-ui, -apple-system, Segoe UI, sans-serif" text-anchor="middle" fill="#3b82f6">GÖRÜLDÜ</text></g><g transform="rotate(-2 463.20000000000005 1246)"><rect x="391.6" y="1230" width="143.2" height="32" rx="6" fill="none" stroke="#8b5cf6" stroke-width="3"/><text x="463.20000000000005" y="1251" font-size="13" font-weight="700" letter-spacing="0.5" font-family="system-ui, -apple-system, Segoe UI, sans-serif" text-anchor="middle" fill="#8b5cf6">REVİZE EDİLDİ</text></g><g transform="rotate(-2 582.8 1246)"><rect x="544.8" y="1230" width="76" height="32" rx="6" fill="none" stroke="#6b7280" stroke-width="3"/><text x="582.8" y="1251" font-size="13" font-weight="700" letter-spacing="0.5" font-family="system-ui, -apple-system, Segoe UI, sans-serif" text-anchor="middle" fill="#6b7280">İPTAL</text></g><text x="16" y="1298" font-size="12" font-weight="700" font-family="system-ui, -apple-system, Segoe UI, sans-serif" fill="#44403c">il-stamps (ישראל)</text><g transform="rotate(-2 54 1324)"><rect x="16" y="1308" width="76" height="32" rx="6" fill="none" stroke="#22c55e" stroke-width="3"/><text x="54" y="1329" font-size="13" font-weight="700" letter-spacing="0.5" font-family="system-ui, -apple-system, Segoe UI, sans-serif" text-anchor="middle" fill="#22c55e">מאושר</text></g><g transform="rotate(-2 152.6 1324)"><rect x="102" y="1308" width="101.2" height="32" rx="6" fill="none" stroke="#ef4444" stroke-width="3"/><text x="152.6" y="1329" font-size="13" font-weight="700" letter-spacing="0.5" font-family="system-ui, -apple-system, Segoe UI, sans-serif" text-anchor="middle" fill="#ef4444">לא מאושר</text></g><g transform="rotate(-2 255.39999999999998 1324)"><rect x="213.2" y="1308" width="84.4" height="32" rx="6" fill="none" stroke="#f59e0b" stroke-width="3"/><text x="255.39999999999998" y="1329" font-size="13" font-weight="700" letter-spacing="0.5" font-family="system-ui, -apple-system, Segoe UI, sans-serif" text-anchor="middle" fill="#f59e0b">לאישור</text></g><g transform="rotate(-2 349.8 1324)"><rect x="307.6" y="1308" width="84.4" height="32" rx="6" fill="none" stroke="#22c55e" stroke-width="3"/><text x="349.8" y="1329" font-size="13" font-weight="700" letter-spacing="0.5" font-family="system-ui, -apple-system, Segoe UI, sans-serif" text-anchor="middle" fill="#22c55e">לביצוע</text></g><g transform="rotate(-2 440 1324)"><rect x="402" y="1308" width="76" height="32" rx="6" fill="none" stroke="#3b82f6" stroke-width="3"/><text x="440" y="1329" font-size="13" font-weight="700" letter-spacing="0.5" font-family="system-ui, -apple-system, Segoe UI, sans-serif" text-anchor="middle" fill="#3b82f6">טיוטה</text></g><g transform="rotate(-2 547 1324)"><rect x="488" y="1308" width="118" height="32" rx="6" fill="none" stroke="#3b82f6" stroke-width="3"/><text x="547" y="1329" font-size="13" font-weight="700" letter-spacing="0.5" font-family="system-ui, -apple-system, Segoe UI, sans-serif" text-anchor="middle" fill="#3b82f6">למידע בלבד</text></g><g transform="rotate(-2 649.8 1324)"><rect x="616" y="1308" width="67.6" height="32" rx="6" fill="none" stroke="#3b82f6" stroke-width="3"/><text x="649.8" y="1329" font-size="13" font-weight="700" letter-spacing="0.5" font-family="system-ui, -apple-system, Segoe UI, sans-serif" text-anchor="middle" fill="#3b82f6">נבדק</text></g><g transform="rotate(-2 731.6 1324)"><rect x="693.6" y="1308" width="76" height="32" rx="6" fill="none" stroke="#6b7280" stroke-width="3"/><text x="731.6" y="1329" font-size="13" font-weight="700" letter-spacing="0.5" font-family="system-ui, -apple-system, Segoe UI, sans-serif" text-anchor="middle" fill="#6b7280">מבוטל</text></g><text x="16" y="1376" font-size="12" font-weight="700" font-family="system-ui, -apple-system, Segoe UI, sans-serif" fill="#44403c">in-stamps (India)</text><g transform="rotate(-2 66.6 1402)"><rect x="16" y="1386" width="101.2" height="32" rx="6" fill="none" stroke="#22c55e" stroke-width="3"/><text x="66.6" y="1407" font-size="13" font-weight="700" letter-spacing="0.5" font-family="system-ui, -apple-system, Segoe UI, sans-serif" text-anchor="middle" fill="#22c55e">APPROVED</text></g><g transform="rotate(-2 215.60000000000002 1402)"><rect x="127.2" y="1386" width="176.8" height="32" rx="6" fill="none" stroke="#22c55e" stroke-width="3"/><text x="215.60000000000002" y="1407" font-size="13" font-weight="700" letter-spacing="0.5" font-family="system-ui, -apple-system, Segoe UI, sans-serif" text-anchor="middle" fill="#22c55e">APPROVED AS NOTED</text></g><g transform="rotate(-2 381.4 1402)"><rect x="314" y="1386" width="134.8" height="32" rx="6" fill="none" stroke="#ef4444" stroke-width="3"/><text x="381.4" y="1407" font-size="13" font-weight="700" letter-spacing="0.5" font-family="system-ui, -apple-system, Segoe UI, sans-serif" text-anchor="middle" fill="#ef4444">NOT APPROVED</text></g><g transform="rotate(-2 564 1402)"><rect x="458.8" y="1386" width="210.4" height="32" rx="6" fill="none" stroke="#22c55e" stroke-width="3"/><text x="564" y="1407" font-size="13" font-weight="700" letter-spacing="0.5" font-family="system-ui, -apple-system, Segoe UI, sans-serif" text-anchor="middle" fill="#22c55e">GOOD FOR CONSTRUCTION</text></g><g transform="rotate(-2 112.8 1448)"><rect x="16" y="1432" width="193.6" height="32" rx="6" fill="none" stroke="#f59e0b" stroke-width="3"/><text x="112.8" y="1453" font-size="13" font-weight="700" letter-spacing="0.5" font-family="system-ui, -apple-system, Segoe UI, sans-serif" text-anchor="middle" fill="#f59e0b">ISSUED FOR APPROVAL</text></g><g transform="rotate(-2 308 1448)"><rect x="219.6" y="1432" width="176.8" height="32" rx="6" fill="none" stroke="#f59e0b" stroke-width="3"/><text x="308" y="1453" font-size="13" font-weight="700" letter-spacing="0.5" font-family="system-ui, -apple-system, Segoe UI, sans-serif" text-anchor="middle" fill="#f59e0b">ISSUED FOR TENDER</text></g><g transform="rotate(-2 486.4 1448)"><rect x="406.4" y="1432" width="160" height="32" rx="6" fill="none" stroke="#3b82f6" stroke-width="3"/><text x="486.4" y="1453" font-size="13" font-weight="700" letter-spacing="0.5" font-family="system-ui, -apple-system, Segoe UI, sans-serif" text-anchor="middle" fill="#3b82f6">FOR INFORMATION</text></g><g transform="rotate(-2 639.6 1448)"><rect x="576.4" y="1432" width="126.4" height="32" rx="6" fill="none" stroke="#f59e0b" stroke-width="3"/><text x="639.6" y="1453" font-size="13" font-weight="700" letter-spacing="0.5" font-family="system-ui, -apple-system, Segoe UI, sans-serif" text-anchor="middle" fill="#f59e0b">PRELIMINARY</text></g><g transform="rotate(-2 750.8 1448)"><rect x="712.8" y="1432" width="76" height="32" rx="6" fill="none" stroke="#3b82f6" stroke-width="3"/><text x="750.8" y="1453" font-size="13" font-weight="700" letter-spacing="0.5" font-family="system-ui, -apple-system, Segoe UI, sans-serif" text-anchor="middle" fill="#3b82f6">DRAFT</text></g><g transform="rotate(-2 66.6 1494)"><rect x="16" y="1478" width="101.2" height="32" rx="6" fill="none" stroke="#6b7280" stroke-width="3"/><text x="66.6" y="1499" font-size="13" font-weight="700" letter-spacing="0.5" font-family="system-ui, -apple-system, Segoe UI, sans-serif" text-anchor="middle" fill="#6b7280">AS BUILT</text></g><g transform="rotate(-2 186.2 1494)"><rect x="127.2" y="1478" width="118" height="32" rx="6" fill="none" stroke="#6b7280" stroke-width="3"/><text x="186.2" y="1499" font-size="13" font-weight="700" letter-spacing="0.5" font-family="system-ui, -apple-system, Segoe UI, sans-serif" text-anchor="middle" fill="#6b7280">SUPERSEDED</text></g><g transform="rotate(-2 301.6 1494)"><rect x="255.2" y="1478" width="92.80000000000001" height="32" rx="6" fill="none" stroke="#3b82f6" stroke-width="3"/><text x="301.6" y="1499" font-size="13" font-weight="700" letter-spacing="0.5" font-family="system-ui, -apple-system, Segoe UI, sans-serif" text-anchor="middle" fill="#3b82f6">CHECKED</text></g><text x="16" y="1546" font-size="12" font-weight="700" font-family="system-ui, -apple-system, Segoe UI, sans-serif" fill="#44403c">br-stamps (Brasil)</text><g transform="rotate(-2 66.6 1572)"><rect x="16" y="1556" width="101.2" height="32" rx="6" fill="none" stroke="#22c55e" stroke-width="3"/><text x="66.6" y="1577" font-size="13" font-weight="700" letter-spacing="0.5" font-family="system-ui, -apple-system, Segoe UI, sans-serif" text-anchor="middle" fill="#22c55e">APROVADO</text></g><g transform="rotate(-2 236.60000000000002 1572)"><rect x="127.2" y="1556" width="218.8" height="32" rx="6" fill="none" stroke="#22c55e" stroke-width="3"/><text x="236.60000000000002" y="1577" font-size="13" font-weight="700" letter-spacing="0.5" font-family="system-ui, -apple-system, Segoe UI, sans-serif" text-anchor="middle" fill="#22c55e">APROVADO COM RESSALVAS</text></g><g transform="rotate(-2 410.8 1572)"><rect x="356" y="1556" width="109.60000000000001" height="32" rx="6" fill="none" stroke="#ef4444" stroke-width="3"/><text x="410.8" y="1577" font-size="13" font-weight="700" letter-spacing="0.5" font-family="system-ui, -apple-system, Segoe UI, sans-serif" text-anchor="middle" fill="#ef4444">REPROVADO</text></g><g transform="rotate(-2 551.4000000000001 1572)"><rect x="475.6" y="1556" width="151.60000000000002" height="32" rx="6" fill="none" stroke="#f59e0b" stroke-width="3"/><text x="551.4000000000001" y="1577" font-size="13" font-weight="700" letter-spacing="0.5" font-family="system-ui, -apple-system, Segoe UI, sans-serif" text-anchor="middle" fill="#f59e0b">PARA APROVAÇÃO</text></g><g transform="rotate(-2 125.4 1618)"><rect x="16" y="1602" width="218.8" height="32" rx="6" fill="none" stroke="#22c55e" stroke-width="3"/><text x="125.4" y="1623" font-size="13" font-weight="700" letter-spacing="0.5" font-family="system-ui, -apple-system, Segoe UI, sans-serif" text-anchor="middle" fill="#22c55e">LIBERADO PARA EXECUÇÃO</text></g><g transform="rotate(-2 324.8 1618)"><rect x="244.8" y="1602" width="160" height="32" rx="6" fill="none" stroke="#3b82f6" stroke-width="3"/><text x="324.8" y="1623" font-size="13" font-weight="700" letter-spacing="0.5" font-family="system-ui, -apple-system, Segoe UI, sans-serif" text-anchor="middle" fill="#3b82f6">PARA INFORMAÇÃO</text></g><g transform="rotate(-2 473.8 1618)"><rect x="414.8" y="1602" width="118" height="32" rx="6" fill="none" stroke="#f59e0b" stroke-width="3"/><text x="473.8" y="1623" font-size="13" font-weight="700" letter-spacing="0.5" font-family="system-ui, -apple-system, Segoe UI, sans-serif" text-anchor="middle" fill="#f59e0b">PRELIMINAR</text></g><g transform="rotate(-2 601.8 1618)"><rect x="542.8" y="1602" width="118" height="32" rx="6" fill="none" stroke="#8b5cf6" stroke-width="3"/><text x="601.8" y="1623" font-size="13" font-weight="700" letter-spacing="0.5" font-family="system-ui, -apple-system, Segoe UI, sans-serif" text-anchor="middle" fill="#8b5cf6">EM REVISÃO</text></g><g transform="rotate(-2 750.8 1618)"><rect x="670.8" y="1602" width="160" height="32" rx="6" fill="none" stroke="#6b7280" stroke-width="3"/><text x="750.8" y="1623" font-size="13" font-weight="700" letter-spacing="0.5" font-family="system-ui, -apple-system, Segoe UI, sans-serif" text-anchor="middle" fill="#6b7280">COMO CONSTRUÍDO</text></g><g transform="rotate(-2 70.80000000000001 1664)"><rect x="16" y="1648" width="109.60000000000001" height="32" rx="6" fill="none" stroke="#6b7280" stroke-width="3"/><text x="70.80000000000001" y="1669" font-size="13" font-weight="700" letter-spacing="0.5" font-family="system-ui, -apple-system, Segoe UI, sans-serif" text-anchor="middle" fill="#6b7280">CANCELADO</text></g></svg>
