<svg viewBox="0 0 696 220" width="696" xmlns="http://www.w3.org/2000/svg"><rect x="0" y="0" width="696" height="220" rx="8" fill="#ffffff" stroke="#d6d3cd"/><svg x="28" y="18" width="52" height="52" viewBox="0 0 64 64" xmlns="http://www.w3.org/2000/svg" fill="none" stroke="#000" stroke-width="2"><circle cx="32" cy="34" r="20" fill="#1a1a1a" stroke="#000" stroke-width="1"/><circle cx="32" cy="34" r="13" fill="#fff" stroke="none"/><text x="32" y="10" font-size="8" font-weight="bold" text-anchor="middle" fill="#000" stroke="none">CHS</text></svg><text x="54" y="83" font-size="7.5" font-family="system-ui, -apple-system, Segoe UI, sans-serif" text-anchor="middle" fill="#78716c">chs</text><svg x="112" y="18" width="52" height="52" viewBox="0 0 64 64" xmlns="http://www.w3.org/2000/svg" fill="none" stroke="#000" stroke-width="2"><path d="M8 28 H56 V40 H8 Z" fill="#1a1a1a" stroke="#000" stroke-width="1"/><text x="32" y="56" font-size="8" font-weight="bold" text-anchor="middle" fill="#000" stroke="none">FLAT</text></svg><text x="138" y="83" font-size="7.5" font-family="system-ui, -apple-system, Segoe UI, sans-serif" text-anchor="middle" fill="#78716c">flat</text><svg x="196" y="18" width="52" height="52" viewBox="0 0 64 64" xmlns="http://www.w3.org/2000/svg" fill="none" stroke="#000" stroke-width="2"><path d="M20 8 H46 V15 H28 V49 H46 V56 H20 Z" fill="#1a1a1a" stroke="#000" stroke-width="1"/><text x="32" y="63" font-size="8" font-weight="bold" text-anchor="middle" fill="#000" stroke="none">PFC</text></svg><text x="222" y="83" font-size="7.5" font-family="system-ui, -apple-system, Segoe UI, sans-serif" text-anchor="middle" fill="#78716c">pfc</text><svg x="280" y="18" width="52" height="52" viewBox="0 0 64 64" xmlns="http://www.w3.org/2000/svg" fill="none" stroke="#000" stroke-width="2"><path d="M8 18 h48 v28 h-48 Z M16 26 h32 v12 h-32 Z" fill="#1a1a1a" fill-rule="evenodd" stroke="#000" stroke-width="1"/><text x="32" y="12" font-size="8" font-weight="bold" text-anchor="middle" fill="#000" stroke="none">RHS</text></svg><text x="306" y="83" font-size="7.5" font-family="system-ui, -apple-system, Segoe UI, sans-serif" text-anchor="middle" fill="#78716c">rhs</text><svg x="364" y="18" width="52" height="52" viewBox="0 0 64 64" xmlns="http://www.w3.org/2000/svg" fill="none" stroke="#000" stroke-width="2"><path d="M16 8 V56 H56 V48 H24 V8 Z" fill="#1a1a1a" stroke="#000" stroke-width="1"/><text x="40" y="30" font-size="7.5" font-weight="bold" text-anchor="middle" fill="#000" stroke="none">RSA</text></svg><text x="390" y="83" font-size="7.5" font-family="system-ui, -apple-system, Segoe UI, sans-serif" text-anchor="middle" fill="#78716c">rsa-equal</text><svg x="448" y="18" width="52" height="52" viewBox="0 0 64 64" xmlns="http://www.w3.org/2000/svg" fill="none" stroke="#000" stroke-width="2"><path d="M16 16 V56 H58 V48 H24 V16 Z" fill="#1a1a1a" stroke="#000" stroke-width="1"/><text x="40" y="36" font-size="7.5" font-weight="bold" text-anchor="middle" fill="#000" stroke="none">RSA</text></svg><text x="474" y="83" font-size="7.5" font-family="system-ui, -apple-system, Segoe UI, sans-serif" text-anchor="middle" fill="#78716c">rsa-unequal</text><svg x="532" y="18" width="52" height="52" viewBox="0 0 64 64" xmlns="http://www.w3.org/2000/svg" fill="none" stroke="#000" stroke-width="2"><path d="M12 12 h40 v40 h-40 Z M20 20 h24 v24 h-24 Z" fill="#1a1a1a" fill-rule="evenodd" stroke="#000" stroke-width="1"/><text x="32" y="10" font-size="8" font-weight="bold" text-anchor="middle" fill="#000" stroke="none">SHS</text></svg><text x="558" y="83" font-size="7.5" font-family="system-ui, -apple-system, Segoe UI, sans-serif" text-anchor="middle" fill="#78716c">shs</text><svg x="616" y="18" width="52" height="52" viewBox="0 0 64 64" xmlns="http://www.w3.org/2000/svg" fill="none" stroke="#000" stroke-width="2"><path d="M10 12 H54 V20 H36 V52 H28 V20 H10 Z" fill="#1a1a1a" stroke="#000" stroke-width="1"/><text x="32" y="63" font-size="9" font-weight="bold" text-anchor="middle" fill="#000" stroke="none">T</text></svg><text x="642" y="83" font-size="7.5" font-family="system-ui, -apple-system, Segoe UI, sans-serif" text-anchor="middle" fill="#78716c">tee</text><svg x="28" y="116" width="52" height="52" viewBox="0 0 64 64" xmlns="http://www.w3.org/2000/svg" fill="none" stroke="#000" stroke-width="2"><path d="M16 8 H48 V15 H35 V49 H48 V56 H16 V49 H29 V15 H16 Z" fill="#1a1a1a" stroke="#000" stroke-width="1"/><text x="32" y="63" font-size="8" font-weight="bold" text-anchor="middle" fill="#000" stroke="none">UB</text></svg><text x="54" y="181" font-size="7.5" font-family="system-ui, -apple-system, Segoe UI, sans-serif" text-anchor="middle" fill="#78716c">ub</text><svg x="112" y="116" width="52" height="52" viewBox="0 0 64 64" xmlns="http://www.w3.org/2000/svg" fill="none" stroke="#000" stroke-width="2"><path d="M11 10 H53 V18 H37 V46 H53 V54 H11 V46 H27 V18 H11 Z" fill="#1a1a1a" stroke="#000" stroke-width="1"/><text x="32" y="63" font-size="8" font-weight="bold" text-anchor="middle" fill="#000" stroke="none">UC</text></svg><text x="138" y="181" font-size="7.5" font-family="system-ui, -apple-system, Segoe UI, sans-serif" text-anchor="middle" fill="#78716c">uc</text></svg>
