<svg viewBox="0 0 696 318" width="696" xmlns="http://www.w3.org/2000/svg"><rect x="0" y="0" width="696" height="318" rx="8" fill="#ffffff" stroke="#d6d3cd"/><svg x="28" y="18" width="52" height="52" viewBox="0 0 64 64" xmlns="http://www.w3.org/2000/svg" fill="none" stroke="#000" stroke-width="2"><circle cx="32" cy="32" r="13"/><circle cx="32" cy="32" r="5"/></svg><text x="54" y="83" font-size="7.5" font-family="system-ui, -apple-system, Segoe UI, sans-serif" text-anchor="middle" fill="#78716c">beldrukker</text><svg x="112" y="18" width="52" height="52" viewBox="0 0 64 64" xmlns="http://www.w3.org/2000/svg" fill="none" stroke="#000" stroke-width="2"><path d="M18 36 A14 14 0 0 1 46 36"/><text x="32" y="20" font-size="10" font-weight="bold" text-anchor="middle" fill="#000" stroke="none">CAI</text></svg><text x="138" y="83" font-size="7.5" font-family="system-ui, -apple-system, Segoe UI, sans-serif" text-anchor="middle" fill="#78716c">cai-aansluiting</text><svg x="196" y="18" width="52" height="52" viewBox="0 0 64 64" xmlns="http://www.w3.org/2000/svg" fill="none" stroke="#000" stroke-width="2"><path d="M18 36 A14 14 0 0 1 46 36"/><text x="32" y="20" font-size="10" font-weight="bold" text-anchor="middle" fill="#000" stroke="none">UTP</text></svg><text x="222" y="83" font-size="7.5" font-family="system-ui, -apple-system, Segoe UI, sans-serif" text-anchor="middle" fill="#78716c">data-aansluiting</text><svg x="280" y="18" width="52" height="52" viewBox="0 0 64 64" xmlns="http://www.w3.org/2000/svg" fill="none" stroke="#000" stroke-width="2"><circle cx="26" cy="40" r="4"/><line x1="29" y1="37" x2="44" y2="22"/><line x1="44" y1="22" x2="50" y2="28"/><path d="M30 46 L46 46 L46 38 Z"/></svg><text x="306" y="83" font-size="7.5" font-family="system-ui, -apple-system, Segoe UI, sans-serif" text-anchor="middle" fill="#78716c">dimmer</text><svg x="364" y="18" width="52" height="52" viewBox="0 0 64 64" xmlns="http://www.w3.org/2000/svg" fill="none" stroke="#000" stroke-width="2"><path d="M18 36 A14 14 0 0 1 46 36"/><line x1="32" y1="22" x2="32" y2="12"/><text x="45" y="20" font-size="11" font-weight="bold" text-anchor="middle" fill="#000" stroke="none">3~</text></svg><text x="390" y="83" font-size="7.5" font-family="system-ui, -apple-system, Segoe UI, sans-serif" text-anchor="middle" fill="#78716c">krachtaansluiting</text><svg x="448" y="18" width="52" height="52" viewBox="0 0 64 64" xmlns="http://www.w3.org/2000/svg" fill="none" stroke="#000" stroke-width="2"><circle cx="32" cy="32" r="4"/><line x1="35" y1="29" x2="48" y2="16"/><line x1="48" y1="16" x2="54" y2="22"/><line x1="42" y1="10" x2="48" y2="16"/><line x1="29" y1="35" x2="16" y2="48"/><line x1="16" y1="48" x2="10" y2="42"/><line x1="22" y1="54" x2="16" y2="48"/></svg><text x="474" y="83" font-size="7.5" font-family="system-ui, -apple-system, Segoe UI, sans-serif" text-anchor="middle" fill="#78716c">kruisschakelaar</text><svg x="532" y="18" width="52" height="52" viewBox="0 0 64 64" xmlns="http://www.w3.org/2000/svg" fill="none" stroke="#000" stroke-width="2"><line x1="22" y1="22" x2="42" y2="42"/><line x1="42" y1="22" x2="22" y2="42"/></svg><text x="558" y="83" font-size="7.5" font-family="system-ui, -apple-system, Segoe UI, sans-serif" text-anchor="middle" fill="#78716c">lichtpunt-plafond</text><svg x="616" y="18" width="52" height="52" viewBox="0 0 64 64" xmlns="http://www.w3.org/2000/svg" fill="none" stroke="#000" stroke-width="2"><line x1="24" y1="24" x2="40" y2="40"/><line x1="40" y1="24" x2="24" y2="40"/><line x1="12" y1="14" x2="12" y2="50"/><line x1="12" y1="32" x2="24" y2="32"/></svg><text x="642" y="83" font-size="7.5" font-family="system-ui, -apple-system, Segoe UI, sans-serif" text-anchor="middle" fill="#78716c">lichtpunt-wand</text><svg x="28" y="116" width="52" height="52" viewBox="0 0 64 64" xmlns="http://www.w3.org/2000/svg" fill="none" stroke="#000" stroke-width="2"><line x1="10" y1="48" x2="40" y2="18" stroke-dasharray="5 4"/><circle cx="45" cy="13" r="5"/></svg><text x="54" y="181" font-size="7.5" font-family="system-ui, -apple-system, Segoe UI, sans-serif" text-anchor="middle" fill="#78716c">loze-leiding</text><svg x="112" y="116" width="52" height="52" viewBox="0 0 64 64" xmlns="http://www.w3.org/2000/svg" fill="none" stroke="#000" stroke-width="2"><rect x="14" y="16" width="36" height="32"/><text x="32" y="37" font-size="13" font-weight="bold" text-anchor="middle" fill="#000" stroke="none">MK</text></svg><text x="138" y="181" font-size="7.5" font-family="system-ui, -apple-system, Segoe UI, sans-serif" text-anchor="middle" fill="#78716c">meterkast</text><svg x="196" y="116" width="52" height="52" viewBox="0 0 64 64" xmlns="http://www.w3.org/2000/svg" fill="none" stroke="#000" stroke-width="2"><circle cx="26" cy="40" r="4"/><line x1="29" y1="37" x2="44" y2="22"/><line x1="44" y1="22" x2="50" y2="28"/></svg><text x="222" y="181" font-size="7.5" font-family="system-ui, -apple-system, Segoe UI, sans-serif" text-anchor="middle" fill="#78716c">schakelaar-enkelpolig</text><svg x="280" y="116" width="52" height="52" viewBox="0 0 64 64" xmlns="http://www.w3.org/2000/svg" fill="none" stroke="#000" stroke-width="2"><path d="M20 38 A12 14 0 0 1 44 38 Z"/><line x1="20" y1="38" x2="44" y2="38"/><circle cx="32" cy="42" r="2.5"/></svg><text x="306" y="181" font-size="7.5" font-family="system-ui, -apple-system, Segoe UI, sans-serif" text-anchor="middle" fill="#78716c">schel</text><svg x="364" y="116" width="52" height="52" viewBox="0 0 64 64" xmlns="http://www.w3.org/2000/svg" fill="none" stroke="#000" stroke-width="2"><circle cx="26" cy="40" r="4"/><line x1="29" y1="37" x2="44" y2="22"/><line x1="44" y1="22" x2="50" y2="28"/><line x1="39" y1="27" x2="45" y2="33"/></svg><text x="390" y="181" font-size="7.5" font-family="system-ui, -apple-system, Segoe UI, sans-serif" text-anchor="middle" fill="#78716c">serieschakelaar</text><svg x="448" y="116" width="52" height="52" viewBox="0 0 64 64" xmlns="http://www.w3.org/2000/svg" fill="none" stroke="#000" stroke-width="2"><rect x="6" y="26" width="52" height="12"/><line x1="6" y1="32" x2="58" y2="32"/></svg><text x="474" y="181" font-size="7.5" font-family="system-ui, -apple-system, Segoe UI, sans-serif" text-anchor="middle" fill="#78716c">tl-armatuur</text><svg x="532" y="116" width="52" height="52" viewBox="0 0 64 64" xmlns="http://www.w3.org/2000/svg" fill="none" stroke="#000" stroke-width="2"><path d="M18 36 A14 14 0 0 1 46 36"/><line x1="28" y1="23" x2="28" y2="12"/><line x1="36" y1="23" x2="36" y2="12"/></svg><text x="558" y="181" font-size="7.5" font-family="system-ui, -apple-system, Segoe UI, sans-serif" text-anchor="middle" fill="#78716c">wcd-dubbel</text><svg x="616" y="116" width="52" height="52" viewBox="0 0 64 64" xmlns="http://www.w3.org/2000/svg" fill="none" stroke="#000" stroke-width="2"><path d="M18 36 A14 14 0 0 1 46 36"/><line x1="32" y1="22" x2="32" y2="12"/></svg><text x="642" y="181" font-size="7.5" font-family="system-ui, -apple-system, Segoe UI, sans-serif" text-anchor="middle" fill="#78716c">wcd-enkel</text><svg x="28" y="214" width="52" height="52" viewBox="0 0 64 64" xmlns="http://www.w3.org/2000/svg" fill="none" stroke="#000" stroke-width="2"><path d="M18 36 A14 14 0 0 1 46 36"/><line x1="32" y1="22" x2="32" y2="12"/><line x1="24" y1="12" x2="40" y2="12"/></svg><text x="54" y="279" font-size="7.5" font-family="system-ui, -apple-system, Segoe UI, sans-serif" text-anchor="middle" fill="#78716c">wcd-randaarde</text><svg x="112" y="214" width="52" height="52" viewBox="0 0 64 64" xmlns="http://www.w3.org/2000/svg" fill="none" stroke="#000" stroke-width="2"><path d="M18 36 A14 14 0 0 1 46 36"/><line x1="32" y1="22" x2="32" y2="12"/><text x="46" y="18" font-size="10" font-weight="normal" text-anchor="middle" fill="#000" stroke="none">sp</text></svg><text x="138" y="279" font-size="7.5" font-family="system-ui, -apple-system, Segoe UI, sans-serif" text-anchor="middle" fill="#78716c">wcd-spatwaterdicht</text><svg x="196" y="214" width="52" height="52" viewBox="0 0 64 64" xmlns="http://www.w3.org/2000/svg" fill="none" stroke="#000" stroke-width="2"><circle cx="32" cy="32" r="4"/><line x1="35" y1="29" x2="48" y2="16"/><line x1="48" y1="16" x2="54" y2="22"/><line x1="29" y1="35" x2="16" y2="48"/><line x1="16" y1="48" x2="10" y2="42"/></svg><text x="222" y="279" font-size="7.5" font-family="system-ui, -apple-system, Segoe UI, sans-serif" text-anchor="middle" fill="#78716c">wisselschakelaar</text></svg>
