<svg viewBox="0 0 696 220" width="696" xmlns="http://www.w3.org/2000/svg"><rect x="0" y="0" width="696" height="220" rx="8" fill="#ffffff" stroke="#d6d3cd"/><svg x="28" y="18" width="52" height="52" viewBox="0 0 64 64" xmlns="http://www.w3.org/2000/svg" fill="none" stroke="#000" stroke-width="2"><circle cx="30" cy="34" r="16"/><path d="M30 18 L52 18 L46 24"/></svg><text x="54" y="83" font-size="7.5" font-family="system-ui, -apple-system, Segoe UI, sans-serif" text-anchor="middle" fill="#78716c">centrifugal-pump</text><svg x="112" y="18" width="52" height="52" viewBox="0 0 64 64" xmlns="http://www.w3.org/2000/svg" fill="none" stroke="#000" stroke-width="2"><rect x="24" y="8" width="16" height="48" rx="6"/><line x1="24" y1="20" x2="40" y2="20"/><line x1="24" y1="30" x2="40" y2="30"/><line x1="24" y1="40" x2="40" y2="40"/></svg><text x="138" y="83" font-size="7.5" font-family="system-ui, -apple-system, Segoe UI, sans-serif" text-anchor="middle" fill="#78716c">column</text><svg x="196" y="18" width="52" height="52" viewBox="0 0 64 64" xmlns="http://www.w3.org/2000/svg" fill="none" stroke="#000" stroke-width="2"><path d="M14 20 L50 26 L50 38 L14 44 Z"/></svg><text x="222" y="83" font-size="7.5" font-family="system-ui, -apple-system, Segoe UI, sans-serif" text-anchor="middle" fill="#78716c">compressor</text><svg x="280" y="18" width="52" height="52" viewBox="0 0 64 64" xmlns="http://www.w3.org/2000/svg" fill="none" stroke="#000" stroke-width="2"><path d="M12 24 L32 32 L12 40 Z"/><path d="M52 24 L32 32 L52 40 Z"/><line x1="32" y1="32" x2="32" y2="18"/><path d="M22 18 A10 6 0 0 1 42 18"/></svg><text x="306" y="83" font-size="7.5" font-family="system-ui, -apple-system, Segoe UI, sans-serif" text-anchor="middle" fill="#78716c">control-valve</text><svg x="364" y="18" width="52" height="52" viewBox="0 0 64 64" xmlns="http://www.w3.org/2000/svg" fill="none" stroke="#000" stroke-width="2"><rect x="16" y="16" width="32" height="32"/><line x1="18" y1="28" x2="46" y2="28" stroke-dasharray="4 3"/><line x1="18" y1="36" x2="46" y2="36" stroke-dasharray="4 3"/></svg><text x="390" y="83" font-size="7.5" font-family="system-ui, -apple-system, Segoe UI, sans-serif" text-anchor="middle" fill="#78716c">filter</text><svg x="448" y="18" width="52" height="52" viewBox="0 0 64 64" xmlns="http://www.w3.org/2000/svg" fill="none" stroke="#000" stroke-width="2"><circle cx="32" cy="32" r="16"/><polyline points="16,32 24,24 32,40 40,24 48,32"/></svg><text x="474" y="83" font-size="7.5" font-family="system-ui, -apple-system, Segoe UI, sans-serif" text-anchor="middle" fill="#78716c">heat-exchanger</text><svg x="532" y="18" width="52" height="52" viewBox="0 0 64 64" xmlns="http://www.w3.org/2000/svg" fill="none" stroke="#000" stroke-width="2"><circle cx="32" cy="32" r="15"/><line x1="17" y1="32" x2="47" y2="32"/><text x="32" y="28" font-size="9" font-weight="bold" text-anchor="middle" fill="#000" stroke="none">PI</text></svg><text x="558" y="83" font-size="7.5" font-family="system-ui, -apple-system, Segoe UI, sans-serif" text-anchor="middle" fill="#78716c">instrument-indicator</text><svg x="616" y="18" width="52" height="52" viewBox="0 0 64 64" xmlns="http://www.w3.org/2000/svg" fill="none" stroke="#000" stroke-width="2"><path d="M18 16 A14 6 0 0 1 46 16 V48 A14 6 0 0 1 18 48 Z"/></svg><text x="642" y="83" font-size="7.5" font-family="system-ui, -apple-system, Segoe UI, sans-serif" text-anchor="middle" fill="#78716c">tank-vertical</text><svg x="28" y="116" width="52" height="52" viewBox="0 0 64 64" xmlns="http://www.w3.org/2000/svg" fill="none" stroke="#000" stroke-width="2"><path d="M12 24 L32 32 L12 40 Z"/><path d="M52 24 L32 32 L52 40 Z"/><circle cx="32" cy="32" r="6"/></svg><text x="54" y="181" font-size="7.5" font-family="system-ui, -apple-system, Segoe UI, sans-serif" text-anchor="middle" fill="#78716c">valve-ball</text><svg x="112" y="116" width="52" height="52" viewBox="0 0 64 64" xmlns="http://www.w3.org/2000/svg" fill="none" stroke="#000" stroke-width="2"><line x1="18" y1="20" x2="18" y2="44"/><line x1="46" y1="20" x2="46" y2="44"/><line x1="20" y1="42" x2="44" y2="22"/><circle cx="32" cy="32" r="3"/></svg><text x="138" y="181" font-size="7.5" font-family="system-ui, -apple-system, Segoe UI, sans-serif" text-anchor="middle" fill="#78716c">valve-butterfly</text><svg x="196" y="116" width="52" height="52" viewBox="0 0 64 64" xmlns="http://www.w3.org/2000/svg" fill="none" stroke="#000" stroke-width="2"><path d="M12 24 L32 32 L12 40 Z" fill="#1a1a1a"/><path d="M52 24 L32 32 L52 40 Z"/></svg><text x="222" y="181" font-size="7.5" font-family="system-ui, -apple-system, Segoe UI, sans-serif" text-anchor="middle" fill="#78716c">valve-check</text><svg x="280" y="116" width="52" height="52" viewBox="0 0 64 64" xmlns="http://www.w3.org/2000/svg" fill="none" stroke="#000" stroke-width="2"><path d="M12 24 L32 32 L12 40 Z"/><path d="M52 24 L32 32 L52 40 Z"/></svg><text x="306" y="181" font-size="7.5" font-family="system-ui, -apple-system, Segoe UI, sans-serif" text-anchor="middle" fill="#78716c">valve-gate</text><svg x="364" y="116" width="52" height="52" viewBox="0 0 64 64" xmlns="http://www.w3.org/2000/svg" fill="none" stroke="#000" stroke-width="2"><path d="M12 24 L32 32 L12 40 Z"/><path d="M52 24 L32 32 L52 40 Z"/><circle cx="32" cy="32" r="4" fill="#1a1a1a"/></svg><text x="390" y="181" font-size="7.5" font-family="system-ui, -apple-system, Segoe UI, sans-serif" text-anchor="middle" fill="#78716c">valve-globe</text><svg x="448" y="116" width="52" height="52" viewBox="0 0 64 64" xmlns="http://www.w3.org/2000/svg" fill="none" stroke="#000" stroke-width="2"><rect x="10" y="24" width="44" height="16" rx="8"/></svg><text x="474" y="181" font-size="7.5" font-family="system-ui, -apple-system, Segoe UI, sans-serif" text-anchor="middle" fill="#78716c">vessel-horizontal</text></svg>
