<svg viewBox="0 0 696 318" width="696" xmlns="http://www.w3.org/2000/svg"><rect x="0" y="0" width="696" height="318" rx="8" fill="#ffffff" stroke="#d6d3cd"/><svg x="28" y="18" width="52" height="52" viewBox="0 0 64 64" xmlns="http://www.w3.org/2000/svg" fill="none" stroke="#000" stroke-width="2"><path d="M18 36 A14 14 0 0 1 46 36"/><path d="M26 22 L38 22 L32 12 Z"/></svg><text x="54" y="83" font-size="7.5" font-family="system-ui, -apple-system, Segoe UI, sans-serif" text-anchor="middle" fill="#78716c">data-outlet</text><svg x="112" y="18" width="52" height="52" viewBox="0 0 64 64" xmlns="http://www.w3.org/2000/svg" fill="none" stroke="#000" stroke-width="2"><circle cx="24" cy="42" r="4"/><line x1="27" y1="39" x2="42" y2="24"/><line x1="42" y1="24" x2="48" y2="30"/><path d="M30 46 L46 46 L46 38 Z"/></svg><text x="138" y="83" font-size="7.5" font-family="system-ui, -apple-system, Segoe UI, sans-serif" text-anchor="middle" fill="#78716c">dimmer</text><svg x="196" y="18" width="52" height="52" viewBox="0 0 64 64" xmlns="http://www.w3.org/2000/svg" fill="none" stroke="#000" stroke-width="2"><rect x="12" y="20" width="40" height="24"/><path d="M12 20 L52 44" /><path d="M12 20 H52 V44 Z" fill="#1a1a1a" stroke="none"/></svg><text x="222" y="83" font-size="7.5" font-family="system-ui, -apple-system, Segoe UI, sans-serif" text-anchor="middle" fill="#78716c">distribution-board</text><svg x="280" y="18" width="52" height="52" viewBox="0 0 64 64" xmlns="http://www.w3.org/2000/svg" fill="none" stroke="#000" stroke-width="2"><path d="M20 38 A12 14 0 0 1 44 38 Z"/><line x1="20" y1="38" x2="44" y2="38"/><line x1="32" y1="24" x2="32" y2="18"/><circle cx="32" cy="42" r="2.5"/></svg><text x="306" y="83" font-size="7.5" font-family="system-ui, -apple-system, Segoe UI, sans-serif" text-anchor="middle" fill="#78716c">doorbell</text><svg x="364" y="18" width="52" height="52" viewBox="0 0 64 64" xmlns="http://www.w3.org/2000/svg" fill="none" stroke="#000" stroke-width="2"><rect x="6" y="26" width="52" height="12"/><line x1="6" y1="32" x2="58" y2="32"/></svg><text x="390" y="83" font-size="7.5" font-family="system-ui, -apple-system, Segoe UI, sans-serif" text-anchor="middle" fill="#78716c">fluorescent-luminaire</text><svg x="448" y="18" width="52" height="52" viewBox="0 0 64 64" xmlns="http://www.w3.org/2000/svg" fill="none" stroke="#000" stroke-width="2"><circle cx="32" cy="32" r="6" fill="#1a1a1a"/><line x1="32" y1="26" x2="32" y2="14"/><line x1="38" y1="32" x2="50" y2="32"/><line x1="26" y1="32" x2="14" y2="32"/></svg><text x="474" y="83" font-size="7.5" font-family="system-ui, -apple-system, Segoe UI, sans-serif" text-anchor="middle" fill="#78716c">junction-box</text><svg x="532" y="18" width="52" height="52" viewBox="0 0 64 64" xmlns="http://www.w3.org/2000/svg" fill="none" stroke="#000" stroke-width="2"><line x1="20" y1="20" x2="44" y2="44"/><line x1="44" y1="20" x2="20" y2="44"/></svg><text x="558" y="83" font-size="7.5" font-family="system-ui, -apple-system, Segoe UI, sans-serif" text-anchor="middle" fill="#78716c">light-point</text><svg x="616" y="18" width="52" height="52" viewBox="0 0 64 64" xmlns="http://www.w3.org/2000/svg" fill="none" stroke="#000" stroke-width="2"><rect x="18" y="14" width="28" height="14"/><path d="M22 34 A18 18 0 0 0 42 34"/><path d="M18 42 A26 26 0 0 0 46 42"/><text x="32" y="25" font-size="9" font-weight="bold" text-anchor="middle" fill="#000" stroke="none">PIR</text></svg><text x="642" y="83" font-size="7.5" font-family="system-ui, -apple-system, Segoe UI, sans-serif" text-anchor="middle" fill="#78716c">motion-detector</text><svg x="28" y="116" width="52" height="52" viewBox="0 0 64 64" xmlns="http://www.w3.org/2000/svg" fill="none" stroke="#000" stroke-width="2"><path d="M18 36 A14 14 0 0 1 46 36"/><text x="32" y="20" font-size="11" font-weight="bold" text-anchor="middle" fill="#000" stroke="none">T</text></svg><text x="54" y="181" font-size="7.5" font-family="system-ui, -apple-system, Segoe UI, sans-serif" text-anchor="middle" fill="#78716c">phone-outlet</text><svg x="112" y="116" width="52" height="52" viewBox="0 0 64 64" xmlns="http://www.w3.org/2000/svg" fill="none" stroke="#000" stroke-width="2"><circle cx="32" cy="32" r="14"/><circle cx="32" cy="32" r="6"/></svg><text x="138" y="181" font-size="7.5" font-family="system-ui, -apple-system, Segoe UI, sans-serif" text-anchor="middle" fill="#78716c">push-button</text><svg x="196" y="116" width="52" height="52" viewBox="0 0 64 64" xmlns="http://www.w3.org/2000/svg" fill="none" stroke="#000" stroke-width="2"><path d="M18 36 A14 14 0 0 1 46 36"/><line x1="28" y1="23" x2="28" y2="12"/><line x1="36" y1="23" x2="36" y2="12"/></svg><text x="222" y="181" font-size="7.5" font-family="system-ui, -apple-system, Segoe UI, sans-serif" text-anchor="middle" fill="#78716c">socket-double</text><svg x="280" y="116" width="52" height="52" viewBox="0 0 64 64" xmlns="http://www.w3.org/2000/svg" fill="none" stroke="#000" stroke-width="2"><path d="M18 36 A14 14 0 0 1 46 36"/><line x1="32" y1="22" x2="32" y2="12"/><line x1="24" y1="12" x2="40" y2="12"/></svg><text x="306" y="181" font-size="7.5" font-family="system-ui, -apple-system, Segoe UI, sans-serif" text-anchor="middle" fill="#78716c">socket-earthed</text><svg x="364" y="116" width="52" height="52" viewBox="0 0 64 64" xmlns="http://www.w3.org/2000/svg" fill="none" stroke="#000" stroke-width="2"><path d="M18 36 A14 14 0 0 1 46 36"/><line x1="32" y1="22" x2="32" y2="12"/></svg><text x="390" y="181" font-size="7.5" font-family="system-ui, -apple-system, Segoe UI, sans-serif" text-anchor="middle" fill="#78716c">socket-single</text><svg x="448" y="116" width="52" height="52" viewBox="0 0 64 64" xmlns="http://www.w3.org/2000/svg" fill="none" stroke="#000" stroke-width="2"><circle cx="32" cy="32" r="14"/><line x1="23" y1="23" x2="41" y2="41"/><line x1="41" y1="23" x2="23" y2="41"/></svg><text x="474" y="181" font-size="7.5" font-family="system-ui, -apple-system, Segoe UI, sans-serif" text-anchor="middle" fill="#78716c">spotlight</text><svg x="532" y="116" width="52" height="52" viewBox="0 0 64 64" xmlns="http://www.w3.org/2000/svg" fill="none" stroke="#000" stroke-width="2"><circle cx="26" cy="40" r="4"/><line x1="29" y1="37" x2="44" y2="22"/><line x1="44" y1="22" x2="50" y2="28"/><line x1="39" y1="27" x2="45" y2="33"/></svg><text x="558" y="181" font-size="7.5" font-family="system-ui, -apple-system, Segoe UI, sans-serif" text-anchor="middle" fill="#78716c">switch-double</text><svg x="616" y="116" width="52" height="52" viewBox="0 0 64 64" xmlns="http://www.w3.org/2000/svg" fill="none" stroke="#000" stroke-width="2"><circle cx="26" cy="40" r="4"/><line x1="29" y1="37" x2="44" y2="22"/><line x1="44" y1="22" x2="50" y2="28"/></svg><text x="642" y="181" font-size="7.5" font-family="system-ui, -apple-system, Segoe UI, sans-serif" text-anchor="middle" fill="#78716c">switch-single</text><svg x="28" y="214" width="52" height="52" viewBox="0 0 64 64" xmlns="http://www.w3.org/2000/svg" fill="none" stroke="#000" stroke-width="2"><circle cx="32" cy="32" r="4"/><line x1="35" y1="29" x2="48" y2="16"/><line x1="48" y1="16" x2="54" y2="22"/><line x1="29" y1="35" x2="16" y2="48"/><line x1="16" y1="48" x2="10" y2="42"/></svg><text x="54" y="279" font-size="7.5" font-family="system-ui, -apple-system, Segoe UI, sans-serif" text-anchor="middle" fill="#78716c">switch-two-way</text><svg x="112" y="214" width="52" height="52" viewBox="0 0 64 64" xmlns="http://www.w3.org/2000/svg" fill="none" stroke="#000" stroke-width="2"><circle cx="32" cy="32" r="14"/><text x="32" y="37" font-size="13" font-weight="bold" text-anchor="middle" fill="#000" stroke="none">t</text></svg><text x="138" y="279" font-size="7.5" font-family="system-ui, -apple-system, Segoe UI, sans-serif" text-anchor="middle" fill="#78716c">thermostat</text><svg x="196" y="214" width="52" height="52" viewBox="0 0 64 64" xmlns="http://www.w3.org/2000/svg" fill="none" stroke="#000" stroke-width="2"><path d="M18 36 A14 14 0 0 1 46 36"/><text x="32" y="20" font-size="10" font-weight="bold" text-anchor="middle" fill="#000" stroke="none">TV</text></svg><text x="222" y="279" font-size="7.5" font-family="system-ui, -apple-system, Segoe UI, sans-serif" text-anchor="middle" fill="#78716c">tv-outlet</text><svg x="280" y="214" width="52" height="52" viewBox="0 0 64 64" xmlns="http://www.w3.org/2000/svg" fill="none" stroke="#000" stroke-width="2"><line x1="24" y1="22" x2="42" y2="40"/><line x1="42" y1="22" x2="24" y2="40"/><line x1="12" y1="14" x2="12" y2="48"/><line x1="12" y1="31" x2="24" y2="31"/></svg><text x="306" y="279" font-size="7.5" font-family="system-ui, -apple-system, Segoe UI, sans-serif" text-anchor="middle" fill="#78716c">wall-light</text></svg>
