<svg viewBox="0 0 696 220" width="696" xmlns="http://www.w3.org/2000/svg"><rect x="0" y="0" width="696" height="220" rx="8" fill="#ffffff" stroke="#d6d3cd"/><svg x="28" y="18" width="52" height="52" viewBox="0 0 64 64" xmlns="http://www.w3.org/2000/svg" fill="none" stroke="#000" stroke-width="1.6" stroke-linecap="round" stroke-linejoin="round"><title>Japanese electrical plan symbols (JIS C 0303): aircon-outlet</title><desc>Elektrisch symbool; profiel jp; type connection; variant air-conditioning.</desc><rect x="12" y="18" width="40" height="28" rx="4"/><path d="M20 32 H44"/><g stroke-width="0.8"><path d="M25 25 L32 32 L25 39 M39 25 L32 32 L39 39"/></g></svg><text x="54" y="83" font-size="7.5" font-family="system-ui, -apple-system, Segoe UI, sans-serif" text-anchor="middle" fill="#78716c">aircon-outlet</text><svg x="112" y="18" width="52" height="52" viewBox="0 0 64 64" xmlns="http://www.w3.org/2000/svg" fill="none" stroke="#000" stroke-width="1.6" stroke-linecap="round" stroke-linejoin="round"><title>Japanese electrical plan symbols (JIS C 0303): ceiling-light</title><desc>Elektrisch symbool; profiel jp; type light; variant ceiling.</desc><circle cx="32" cy="32" r="15"/><g stroke-width="0.8"><line x1="22" y1="22" x2="42" y2="42"/><line x1="42" y1="22" x2="22" y2="42"/></g></svg><text x="138" y="83" font-size="7.5" font-family="system-ui, -apple-system, Segoe UI, sans-serif" text-anchor="middle" fill="#78716c">ceiling-light</text><svg x="196" y="18" width="52" height="52" viewBox="0 0 64 64" xmlns="http://www.w3.org/2000/svg" fill="none" stroke="#000" stroke-width="1.6" stroke-linecap="round" stroke-linejoin="round"><title>Japanese electrical plan symbols (JIS C 0303): distribution-board</title><desc>Elektrisch symbool; profiel jp; type board; variant basis.</desc><rect x="12" y="12" width="40" height="40" rx="3"/><line x1="32" y1="12" x2="32" y2="52"/><g stroke-width="0.8"><line x1="18" y1="21" x2="46" y2="21"/><line x1="18" y1="28" x2="46" y2="28"/><line x1="18" y1="36" x2="46" y2="36"/><line x1="18" y1="43" x2="46" y2="43"/></g></svg><text x="222" y="83" font-size="7.5" font-family="system-ui, -apple-system, Segoe UI, sans-serif" text-anchor="middle" fill="#78716c">distribution-board</text><svg x="280" y="18" width="52" height="52" viewBox="0 0 64 64" xmlns="http://www.w3.org/2000/svg" fill="none" stroke="#000" stroke-width="1.6" stroke-linecap="round" stroke-linejoin="round"><title>Japanese electrical plan symbols (JIS C 0303): doorbell</title><desc>Elektrisch symbool; profiel jp; type alarm; variant audible.</desc><path d="M14 38 H23 L38 48 V16 L23 26 H14 Z"/><g stroke-width="0.8"><path d="M43 24 A11 11 0 0 1 43 40 M48 19 A18 18 0 0 1 48 45"/></g></svg><text x="306" y="83" font-size="7.5" font-family="system-ui, -apple-system, Segoe UI, sans-serif" text-anchor="middle" fill="#78716c">doorbell</text><svg x="364" y="18" width="52" height="52" viewBox="0 0 64 64" xmlns="http://www.w3.org/2000/svg" fill="none" stroke="#000" stroke-width="1.6" stroke-linecap="round" stroke-linejoin="round"><title>Japanese electrical plan symbols (JIS C 0303): downlight</title><desc>Elektrisch symbool; profiel jp; type light; variant recessed.</desc><circle cx="32" cy="32" r="15"/><circle cx="32" cy="32" r="21"/><g stroke-width="0.8"><line x1="22" y1="22" x2="42" y2="42"/><line x1="42" y1="22" x2="22" y2="42"/></g></svg><text x="390" y="83" font-size="7.5" font-family="system-ui, -apple-system, Segoe UI, sans-serif" text-anchor="middle" fill="#78716c">downlight</text><svg x="448" y="18" width="52" height="52" viewBox="0 0 64 64" xmlns="http://www.w3.org/2000/svg" fill="none" stroke="#000" stroke-width="1.6" stroke-linecap="round" stroke-linejoin="round"><title>Japanese electrical plan symbols (JIS C 0303): fluorescent</title><desc>Elektrisch symbool; profiel jp; type light; variant linear.</desc><rect x="9" y="25" width="46" height="14" rx="2"/><g stroke-width="0.8"><line x1="14" y1="29" x2="50" y2="29"/><line x1="14" y1="35" x2="50" y2="35"/></g></svg><text x="474" y="83" font-size="7.5" font-family="system-ui, -apple-system, Segoe UI, sans-serif" text-anchor="middle" fill="#78716c">fluorescent</text><svg x="532" y="18" width="52" height="52" viewBox="0 0 64 64" xmlns="http://www.w3.org/2000/svg" fill="none" stroke="#000" stroke-width="1.6" stroke-linecap="round" stroke-linejoin="round"><title>Japanese electrical plan symbols (JIS C 0303): junction-box</title><desc>Elektrisch symbool; profiel jp; type junction; variant basis.</desc><circle cx="32" cy="32" r="18"/><circle cx="32" cy="32" r="4" fill="#000"/><g stroke-width="0.8"><line x1="20" y1="20" x2="44" y2="44"/><line x1="44" y1="20" x2="20" y2="44"/></g></svg><text x="558" y="83" font-size="7.5" font-family="system-ui, -apple-system, Segoe UI, sans-serif" text-anchor="middle" fill="#78716c">junction-box</text><svg x="616" y="18" width="52" height="52" viewBox="0 0 64 64" xmlns="http://www.w3.org/2000/svg" fill="none" stroke="#000" stroke-width="1.6" stroke-linecap="round" stroke-linejoin="round"><title>Japanese electrical plan symbols (JIS C 0303): outlet-double</title><desc>Elektrisch symbool; profiel jp; type socket; variant double.</desc><circle cx="32" cy="32" r="15"/><line x1="28" y1="25" x2="28" y2="39"/><line x1="36" y1="25" x2="36" y2="39"/><g stroke-width="0.8"><line x1="24" y1="47" x2="40" y2="47"/></g></svg><text x="642" y="83" font-size="7.5" font-family="system-ui, -apple-system, Segoe UI, sans-serif" text-anchor="middle" fill="#78716c">outlet-double</text><svg x="28" y="116" width="52" height="52" viewBox="0 0 64 64" xmlns="http://www.w3.org/2000/svg" fill="none" stroke="#000" stroke-width="1.6" stroke-linecap="round" stroke-linejoin="round"><title>Japanese electrical plan symbols (JIS C 0303): outlet-earthed</title><desc>Elektrisch symbool; profiel jp; type socket; variant single, earthed.</desc><circle cx="32" cy="32" r="15"/><line x1="32" y1="25" x2="32" y2="39"/><g stroke-width="0.8"><line x1="24" y1="14" x2="40" y2="14"/><line x1="27" y1="18" x2="37" y2="18" stroke-dasharray="1 2"/></g></svg><text x="54" y="181" font-size="7.5" font-family="system-ui, -apple-system, Segoe UI, sans-serif" text-anchor="middle" fill="#78716c">outlet-earthed</text><svg x="112" y="116" width="52" height="52" viewBox="0 0 64 64" xmlns="http://www.w3.org/2000/svg" fill="none" stroke="#000" stroke-width="1.6" stroke-linecap="round" stroke-linejoin="round"><title>Japanese electrical plan symbols (JIS C 0303): outlet</title><desc>Elektrisch symbool; profiel jp; type socket; variant single.</desc><circle cx="32" cy="32" r="15"/><line x1="32" y1="25" x2="32" y2="39"/><g stroke-width="0.8"><line x1="24" y1="47" x2="40" y2="47"/></g></svg><text x="138" y="181" font-size="7.5" font-family="system-ui, -apple-system, Segoe UI, sans-serif" text-anchor="middle" fill="#78716c">outlet</text><svg x="196" y="116" width="52" height="52" viewBox="0 0 64 64" xmlns="http://www.w3.org/2000/svg" fill="none" stroke="#000" stroke-width="1.6" stroke-linecap="round" stroke-linejoin="round"><title>Japanese electrical plan symbols (JIS C 0303): phone-outlet</title><desc>Elektrisch symbool; profiel jp; type communication; variant phone.</desc><circle cx="32" cy="32" r="20"/><path d="M22 20 C18 26 18 38 22 44 L27 39 C25 35 25 29 27 25 Z M42 20 C46 26 46 38 42 44 L37 39 C39 35 39 29 37 25 Z"/><g stroke-width="0.8"><line x1="27" y1="32" x2="37" y2="32"/></g></svg><text x="222" y="181" font-size="7.5" font-family="system-ui, -apple-system, Segoe UI, sans-serif" text-anchor="middle" fill="#78716c">phone-outlet</text><svg x="280" y="116" width="52" height="52" viewBox="0 0 64 64" xmlns="http://www.w3.org/2000/svg" fill="none" stroke="#000" stroke-width="1.6" stroke-linecap="round" stroke-linejoin="round"><title>Japanese electrical plan symbols (JIS C 0303): switch-3way</title><desc>Elektrisch symbool; profiel jp; type switch; variant three-way.</desc><circle cx="18" cy="44" r="3" fill="#000"/><circle cx="42" cy="20" r="2.2"/><circle cx="48" cy="26" r="2.2"/><circle cx="42" cy="32" r="2.2"/><g stroke-width="0.8"><line x1="21" y1="41" x2="39" y2="23"/></g></svg><text x="306" y="181" font-size="7.5" font-family="system-ui, -apple-system, Segoe UI, sans-serif" text-anchor="middle" fill="#78716c">switch-3way</text><svg x="364" y="116" width="52" height="52" viewBox="0 0 64 64" xmlns="http://www.w3.org/2000/svg" fill="none" stroke="#000" stroke-width="1.6" stroke-linecap="round" stroke-linejoin="round"><title>Japanese electrical plan symbols (JIS C 0303): switch</title><desc>Elektrisch symbool; profiel jp; type switch; variant one-way.</desc><circle cx="18" cy="44" r="3" fill="#000"/><circle cx="44" cy="22" r="2.2"/><g stroke-width="0.8"><line x1="21" y1="41" x2="41" y2="25"/></g></svg><text x="390" y="181" font-size="7.5" font-family="system-ui, -apple-system, Segoe UI, sans-serif" text-anchor="middle" fill="#78716c">switch</text><svg x="448" y="116" width="52" height="52" viewBox="0 0 64 64" xmlns="http://www.w3.org/2000/svg" fill="none" stroke="#000" stroke-width="1.6" stroke-linecap="round" stroke-linejoin="round"><title>Japanese electrical plan symbols (JIS C 0303): tv-outlet</title><desc>Elektrisch symbool; profiel jp; type communication; variant television.</desc><circle cx="32" cy="32" r="20"/><circle cx="32" cy="32" r="8"/><g stroke-width="0.8"><line x1="26" y1="14" x2="32" y2="24"/><line x1="38" y1="14" x2="32" y2="24"/></g></svg><text x="474" y="181" font-size="7.5" font-family="system-ui, -apple-system, Segoe UI, sans-serif" text-anchor="middle" fill="#78716c">tv-outlet</text></svg>
