<svg viewBox="0 0 696 122" width="696" xmlns="http://www.w3.org/2000/svg"><rect x="0" y="0" width="696" height="122" rx="8" fill="#ffffff" stroke="#d6d3cd"/><svg x="28" y="18" width="52" height="52" viewBox="0 0 64 64" xmlns="http://www.w3.org/2000/svg" fill="none" stroke="#000" stroke-width="2"><line x1="4" y1="22" x2="60" y2="22"/><line x1="4" y1="40" x2="60" y2="40"/><line x1="8" y1="40" x2="26" y2="22"/><line x1="14" y1="40" x2="32" y2="22"/><line x1="34" y1="40" x2="52" y2="22"/><line x1="40" y1="40" x2="58" y2="22"/><text x="32" y="56" font-size="8" font-weight="bold" text-anchor="middle" fill="#000" stroke="none">BLOCKWORK</text></svg><text x="54" y="83" font-size="7.5" font-family="system-ui, -apple-system, Segoe UI, sans-serif" text-anchor="middle" fill="#78716c">blockwork</text><svg x="112" y="18" width="52" height="52" viewBox="0 0 64 64" xmlns="http://www.w3.org/2000/svg" fill="none" stroke="#000" stroke-width="2"><line x1="4" y1="22" x2="60" y2="22"/><line x1="4" y1="40" x2="60" y2="40"/><line x1="10" y1="40" x2="24" y2="22"/><line x1="24" y1="40" x2="38" y2="22"/><line x1="38" y1="40" x2="52" y2="22"/><text x="32" y="56" font-size="8" font-weight="bold" text-anchor="middle" fill="#000" stroke="none">BRICKWORK</text></svg><text x="138" y="83" font-size="7.5" font-family="system-ui, -apple-system, Segoe UI, sans-serif" text-anchor="middle" fill="#78716c">brickwork</text><svg x="196" y="18" width="52" height="52" viewBox="0 0 64 64" xmlns="http://www.w3.org/2000/svg" fill="none" stroke="#000" stroke-width="2"><line x1="4" y1="16" x2="60" y2="16"/><line x1="4" y1="26" x2="60" y2="26"/><line x1="12" y1="26" x2="22" y2="16"/><line x1="34" y1="26" x2="44" y2="16"/><line x1="4" y1="34" x2="60" y2="34"/><line x1="4" y1="44" x2="60" y2="44"/><line x1="10" y1="44" x2="24" y2="34"/><line x1="16" y1="44" x2="30" y2="34"/><line x1="38" y1="44" x2="52" y2="34"/><line x1="44" y1="44" x2="58" y2="34"/><text x="32" y="58" font-size="7.5" font-weight="bold" text-anchor="middle" fill="#000" stroke="none">CAVITY WALL</text></svg><text x="222" y="83" font-size="7.5" font-family="system-ui, -apple-system, Segoe UI, sans-serif" text-anchor="middle" fill="#78716c">cavity-wall</text><svg x="280" y="18" width="52" height="52" viewBox="0 0 64 64" xmlns="http://www.w3.org/2000/svg" fill="none" stroke="#000" stroke-width="2"><line x1="4" y1="22" x2="60" y2="22"/><line x1="4" y1="40" x2="60" y2="40"/><circle cx="14" cy="30" r="1.6" fill="#000" stroke="none"/><circle cx="26" cy="35" r="1.6" fill="#000" stroke="none"/><circle cx="34" cy="27" r="1.6" fill="#000" stroke="none"/><circle cx="46" cy="33" r="1.6" fill="#000" stroke="none"/><path d="M18 26 L21 29 L15 29 Z"/><path d="M40 34 L43 37 L37 37 Z"/><text x="32" y="56" font-size="8" font-weight="bold" text-anchor="middle" fill="#000" stroke="none">CONCRETE</text></svg><text x="306" y="83" font-size="7.5" font-family="system-ui, -apple-system, Segoe UI, sans-serif" text-anchor="middle" fill="#78716c">concrete-wall</text><svg x="364" y="18" width="52" height="52" viewBox="0 0 64 64" xmlns="http://www.w3.org/2000/svg" fill="none" stroke="#000" stroke-width="2"><line x1="4" y1="22" x2="60" y2="22"/><line x1="4" y1="40" x2="60" y2="40"/><rect x="22" y="26" width="20" height="10" fill="#fff"/><line x1="4" y1="31" x2="22" y2="31"/><line x1="42" y1="31" x2="60" y2="31"/><text x="32" y="34.5" font-size="8" font-weight="bold" text-anchor="middle" fill="#000" stroke="none">30</text><text x="32" y="56" font-size="8" font-weight="bold" text-anchor="middle" fill="#000" stroke="none">30 MIN FR</text></svg><text x="390" y="83" font-size="7.5" font-family="system-ui, -apple-system, Segoe UI, sans-serif" text-anchor="middle" fill="#78716c">fire-wall-30min</text><svg x="448" y="18" width="52" height="52" viewBox="0 0 64 64" xmlns="http://www.w3.org/2000/svg" fill="none" stroke="#000" stroke-width="2"><line x1="4" y1="22" x2="60" y2="22"/><line x1="4" y1="40" x2="60" y2="40"/><rect x="22" y="26" width="20" height="10" fill="#fff"/><line x1="4" y1="28" x2="22" y2="28"/><line x1="42" y1="28" x2="60" y2="28"/><line x1="4" y1="34" x2="22" y2="34"/><line x1="42" y1="34" x2="60" y2="34"/><text x="32" y="34.5" font-size="8" font-weight="bold" text-anchor="middle" fill="#000" stroke="none">60</text><text x="32" y="56" font-size="8" font-weight="bold" text-anchor="middle" fill="#000" stroke="none">60 MIN FR</text></svg><text x="474" y="83" font-size="7.5" font-family="system-ui, -apple-system, Segoe UI, sans-serif" text-anchor="middle" fill="#78716c">fire-wall-60min</text><svg x="532" y="18" width="52" height="52" viewBox="0 0 64 64" xmlns="http://www.w3.org/2000/svg" fill="none" stroke="#000" stroke-width="2"><line x1="4" y1="22" x2="60" y2="22"/><line x1="4" y1="40" x2="60" y2="40"/><line x1="10" y1="40" x2="22" y2="22"/><line x1="22" y1="40" x2="10" y2="22"/><line x1="38" y1="40" x2="50" y2="22"/><line x1="50" y1="40" x2="38" y2="22"/><text x="32" y="56" font-size="8" font-weight="bold" text-anchor="middle" fill="#000" stroke="none">METAL STUD</text></svg><text x="558" y="83" font-size="7.5" font-family="system-ui, -apple-system, Segoe UI, sans-serif" text-anchor="middle" fill="#78716c">metal-stud-wall</text><svg x="616" y="18" width="52" height="52" viewBox="0 0 64 64" xmlns="http://www.w3.org/2000/svg" fill="none" stroke="#000" stroke-width="2"><line x1="4" y1="22" x2="60" y2="22"/><line x1="4" y1="40" x2="60" y2="40"/><line x1="10" y1="40" x2="22" y2="22"/><line x1="28" y1="40" x2="40" y2="22"/><line x1="46" y1="40" x2="58" y2="22"/><text x="32" y="56" font-size="8" font-weight="bold" text-anchor="middle" fill="#000" stroke="none">TIMBER STUD</text></svg><text x="642" y="83" font-size="7.5" font-family="system-ui, -apple-system, Segoe UI, sans-serif" text-anchor="middle" fill="#78716c">timber-stud-wall</text></svg>
