<svg viewBox="0 0 696 122" width="696" xmlns="http://www.w3.org/2000/svg"><rect x="0" y="0" width="696" height="122" rx="8" fill="#ffffff" stroke="#d6d3cd"/><svg x="28" y="18" width="52" height="52" viewBox="0 0 64 64" xmlns="http://www.w3.org/2000/svg" fill="none" stroke="#000" stroke-width="2"><circle cx="32" cy="36" r="20"/><path d="M32 20 L38 44 L32 39 L26 44 Z" fill="#000" stroke="none"/><text x="32" y="12" font-size="12" font-weight="bold" text-anchor="middle" fill="#000" stroke="none">N</text></svg><text x="54" y="83" font-size="7.5" font-family="system-ui, -apple-system, Segoe UI, sans-serif" text-anchor="middle" fill="#78716c">north-arrow-circled</text><svg x="112" y="18" width="52" height="52" viewBox="0 0 64 64" xmlns="http://www.w3.org/2000/svg" fill="none" stroke="#000" stroke-width="2"><path d="M32 6 L44 50 L32 42 Z" fill="#000" stroke="none"/><path d="M32 6 L20 50 L32 42 Z" fill="none"/><text x="32" y="62" font-size="12" font-weight="bold" text-anchor="middle" fill="#000" stroke="none">N</text></svg><text x="138" y="83" font-size="7.5" font-family="system-ui, -apple-system, Segoe UI, sans-serif" text-anchor="middle" fill="#78716c">north-arrow-classic</text><svg x="196" y="18" width="52" height="52" viewBox="0 0 64 64" xmlns="http://www.w3.org/2000/svg" fill="none" stroke="#000" stroke-width="2"><circle cx="32" cy="36" r="20"/><line x1="12" y1="36" x2="52" y2="36"/><line x1="32" y1="16" x2="32" y2="56"/><path d="M32 16 L37 36 L32 36 Z" fill="#000" stroke="none"/><path d="M32 16 L27 36 L32 36 Z" fill="none"/><text x="32" y="11" font-size="12" font-weight="bold" text-anchor="middle" fill="#000" stroke="none">N</text></svg><text x="222" y="83" font-size="7.5" font-family="system-ui, -apple-system, Segoe UI, sans-serif" text-anchor="middle" fill="#78716c">north-arrow-quartered</text><svg x="280" y="18" width="52" height="52" viewBox="0 0 64 64" xmlns="http://www.w3.org/2000/svg" fill="none" stroke="#000" stroke-width="2"><line x1="32" y1="56" x2="32" y2="14"/><path d="M24 22 L32 6 L40 22 Z" fill="#000" stroke="none"/><text x="44" y="16" font-size="12" font-weight="bold" text-anchor="middle" fill="#000" stroke="none">N</text></svg><text x="306" y="83" font-size="7.5" font-family="system-ui, -apple-system, Segoe UI, sans-serif" text-anchor="middle" fill="#78716c">north-arrow-simple</text></svg>
