<svg viewBox="0 0 696 220" width="696" xmlns="http://www.w3.org/2000/svg"><rect x="0" y="0" width="696" height="220" rx="8" fill="#ffffff" stroke="#d6d3cd"/><svg x="28" y="18" width="52" height="52" viewBox="0 0 64 64" xmlns="http://www.w3.org/2000/svg" fill="none" stroke="#000" stroke-width="1.5" stroke-linecap="round" stroke-linejoin="round"><title>Brazilian steel shapes (W series): angle-elevation</title><desc>Schematisch aanzicht met voorbeeldlengte 4 maal de profielhoogte.</desc><rect x="6" y="25.5" width="52" height="13"/><line x1="6" y1="26.638" x2="58" y2="26.638"/><g stroke-width="0.7" stroke-dasharray="5 2 1 2"><line x1="6" y1="32" x2="58" y2="32"/><line x1="32" y1="6" x2="32" y2="58"/></g></svg><text x="54" y="83" font-size="7.5" font-family="system-ui, -apple-system, Segoe UI, sans-serif" text-anchor="middle" fill="#78716c">angle-elevation</text><svg x="112" y="18" width="52" height="52" viewBox="0 0 64 64" xmlns="http://www.w3.org/2000/svg" fill="none" stroke="#000" stroke-width="1.5" stroke-linecap="round" stroke-linejoin="round"><title>Brazilian steel shapes (W series): channel-elevation</title><desc>Schematisch aanzicht met voorbeeldlengte 4 maal de profielhoogte.</desc><rect x="6" y="25.5" width="52" height="13"/><line x1="6" y1="26.204" x2="58" y2="26.204"/><line x1="6" y1="37.796" x2="58" y2="37.796"/><g stroke-width="0.7" stroke-dasharray="5 2 1 2"><line x1="6" y1="32" x2="58" y2="32"/><line x1="32" y1="6" x2="32" y2="58"/></g></svg><text x="138" y="83" font-size="7.5" font-family="system-ui, -apple-system, Segoe UI, sans-serif" text-anchor="middle" fill="#78716c">channel-elevation</text><svg x="196" y="18" width="52" height="52" viewBox="0 0 64 64" xmlns="http://www.w3.org/2000/svg" fill="none" stroke="#000" stroke-width="1.5" stroke-linecap="round" stroke-linejoin="round"><title>Brazilian steel shapes (W series): chs</title><desc>Catalogusgedreven doorsnede; vorm pipe.</desc><g stroke-width="0.7" stroke-dasharray="5 2 1 2"><line x1="6" y1="32" x2="58" y2="32"/><line x1="32" y1="6" x2="32" y2="58"/></g><circle cx="32" cy="32" r="26"/><circle cx="32" cy="32" r="23.075"/></svg><text x="222" y="83" font-size="7.5" font-family="system-ui, -apple-system, Segoe UI, sans-serif" text-anchor="middle" fill="#78716c">chs</text><svg x="280" y="18" width="52" height="52" viewBox="0 0 64 64" xmlns="http://www.w3.org/2000/svg" fill="none" stroke="#000" stroke-width="1.5" stroke-linecap="round" stroke-linejoin="round"><title>Brazilian steel shapes (W series): hollow-section-elevation</title><desc>Schematisch aanzicht met voorbeeldlengte 4 maal de profielhoogte.</desc><rect x="6" y="25.5" width="52" height="13"/><rect x="6.813" y="26.313" width="50.375" height="11.375"/><g stroke-width="0.7" stroke-dasharray="5 2 1 2"><line x1="6" y1="32" x2="58" y2="32"/><line x1="32" y1="6" x2="32" y2="58"/></g></svg><text x="306" y="83" font-size="7.5" font-family="system-ui, -apple-system, Segoe UI, sans-serif" text-anchor="middle" fill="#78716c">hollow-section-elevation</text><svg x="364" y="18" width="52" height="52" viewBox="0 0 64 64" xmlns="http://www.w3.org/2000/svg" fill="none" stroke="#000" stroke-width="1.5" stroke-linecap="round" stroke-linejoin="round"><title>Brazilian steel shapes (W series): i-beam-elevation</title><desc>Schematisch aanzicht met voorbeeldlengte 4 maal de profielhoogte.</desc><rect x="6" y="25.5" width="52" height="13"/><line x1="6" y1="26.2" x2="58" y2="26.2"/><line x1="6" y1="37.8" x2="58" y2="37.8"/><g stroke-width="0.7" stroke-dasharray="5 2 1 2"><line x1="6" y1="32" x2="58" y2="32"/><line x1="32" y1="6" x2="32" y2="58"/></g></svg><text x="390" y="83" font-size="7.5" font-family="system-ui, -apple-system, Segoe UI, sans-serif" text-anchor="middle" fill="#78716c">i-beam-elevation</text><svg x="448" y="18" width="52" height="52" viewBox="0 0 64 64" xmlns="http://www.w3.org/2000/svg" fill="none" stroke="#000" stroke-width="1.5" stroke-linecap="round" stroke-linejoin="round"><title>Brazilian steel shapes (W series): l-equal</title><desc>Catalogusgedreven doorsnede; vorm angle.</desc><g stroke-width="0.7" stroke-dasharray="5 2 1 2"><line x1="6" y1="32" x2="58" y2="32"/><line x1="32" y1="6" x2="32" y2="58"/></g><path d="M6 6 L10.55 6 L10.55 49.875 A3.575 3.575 0 0 0 14.125 53.45 L58 53.45 L58 58 L6 58 Z"/></svg><text x="474" y="83" font-size="7.5" font-family="system-ui, -apple-system, Segoe UI, sans-serif" text-anchor="middle" fill="#78716c">l-equal</text><svg x="532" y="18" width="52" height="52" viewBox="0 0 64 64" xmlns="http://www.w3.org/2000/svg" fill="none" stroke="#000" stroke-width="1.5" stroke-linecap="round" stroke-linejoin="round"><title>Brazilian steel shapes (W series): l-unequal</title><desc>Catalogusgedreven doorsnede; vorm angle.</desc><g stroke-width="0.7" stroke-dasharray="5 2 1 2"><line x1="6" y1="32" x2="58" y2="32"/><line x1="32" y1="6" x2="32" y2="58"/></g><path d="M14.938 6 L19.487 6 L19.487 49.875 A3.575 3.575 0 0 0 23.063 53.45 L49.063 53.45 L49.063 58 L14.938 58 Z"/></svg><text x="558" y="83" font-size="7.5" font-family="system-ui, -apple-system, Segoe UI, sans-serif" text-anchor="middle" fill="#78716c">l-unequal</text><svg x="616" y="18" width="52" height="52" viewBox="0 0 64 64" xmlns="http://www.w3.org/2000/svg" fill="none" stroke="#000" stroke-width="1.5" stroke-linecap="round" stroke-linejoin="round"><title>Brazilian steel shapes (W series): plate</title><desc>Catalogusgedreven doorsnede; vorm plate.</desc><g stroke-width="0.7" stroke-dasharray="5 2 1 2"><line x1="6" y1="32" x2="58" y2="32"/><line x1="32" y1="6" x2="32" y2="58"/></g><rect x="6" y="29.4" width="52" height="5.2"/></svg><text x="642" y="83" font-size="7.5" font-family="system-ui, -apple-system, Segoe UI, sans-serif" text-anchor="middle" fill="#78716c">plate</text><svg x="28" y="116" width="52" height="52" viewBox="0 0 64 64" xmlns="http://www.w3.org/2000/svg" fill="none" stroke="#000" stroke-width="1.5" stroke-linecap="round" stroke-linejoin="round"><title>Brazilian steel shapes (W series): rhs</title><desc>Catalogusgedreven doorsnede; vorm box.</desc><g stroke-width="0.7" stroke-dasharray="5 2 1 2"><line x1="6" y1="32" x2="58" y2="32"/><line x1="32" y1="6" x2="32" y2="58"/></g><rect x="6" y="12.5" width="52" height="39" rx="5.85"/><rect x="9.25" y="15.75" width="45.5" height="32.5" rx="2.6"/></svg><text x="54" y="181" font-size="7.5" font-family="system-ui, -apple-system, Segoe UI, sans-serif" text-anchor="middle" fill="#78716c">rhs</text><svg x="112" y="116" width="52" height="52" viewBox="0 0 64 64" xmlns="http://www.w3.org/2000/svg" fill="none" stroke="#000" stroke-width="1.5" stroke-linecap="round" stroke-linejoin="round"><title>Brazilian steel shapes (W series): shs</title><desc>Catalogusgedreven doorsnede; vorm box.</desc><g stroke-width="0.7" stroke-dasharray="5 2 1 2"><line x1="6" y1="32" x2="58" y2="32"/><line x1="32" y1="6" x2="32" y2="58"/></g><rect x="6" y="6" width="52" height="52" rx="5.85"/><rect x="9.25" y="9.25" width="45.5" height="45.5" rx="2.6"/></svg><text x="138" y="181" font-size="7.5" font-family="system-ui, -apple-system, Segoe UI, sans-serif" text-anchor="middle" fill="#78716c">shs</text><svg x="196" y="116" width="52" height="52" viewBox="0 0 64 64" xmlns="http://www.w3.org/2000/svg" fill="none" stroke="#000" stroke-width="1.5" stroke-linecap="round" stroke-linejoin="round"><title>Brazilian steel shapes (W series): tee-elevation</title><desc>Schematisch aanzicht met voorbeeldlengte 4 maal de profielhoogte.</desc><rect x="6" y="25.5" width="52" height="13"/><line x1="6" y1="26.511" x2="58" y2="26.511"/><g stroke-width="0.7" stroke-dasharray="5 2 1 2"><line x1="6" y1="32" x2="58" y2="32"/><line x1="32" y1="6" x2="32" y2="58"/></g></svg><text x="222" y="181" font-size="7.5" font-family="system-ui, -apple-system, Segoe UI, sans-serif" text-anchor="middle" fill="#78716c">tee-elevation</text><svg x="280" y="116" width="52" height="52" viewBox="0 0 64 64" xmlns="http://www.w3.org/2000/svg" fill="none" stroke="#000" stroke-width="1.5" stroke-linecap="round" stroke-linejoin="round"><title>Brazilian steel shapes (W series): u-channel</title><desc>Catalogusgedreven doorsnede; vorm u.</desc><g stroke-width="0.7" stroke-dasharray="5 2 1 2"><line x1="6" y1="32" x2="58" y2="32"/><line x1="32" y1="6" x2="32" y2="58"/></g><path d="M22.25 6 L41.75 6 L41.75 8.817 L26.583 8.817 A2.6 2.6 0 0 0 23.983 11.417 L23.983 52.583 A2.6 2.6 0 0 0 26.583 55.183 L41.75 55.183 L41.75 58 L22.25 58 Z"/></svg><text x="306" y="181" font-size="7.5" font-family="system-ui, -apple-system, Segoe UI, sans-serif" text-anchor="middle" fill="#78716c">u-channel</text><svg x="364" y="116" width="52" height="52" viewBox="0 0 64 64" xmlns="http://www.w3.org/2000/svg" fill="none" stroke="#000" stroke-width="1.5" stroke-linecap="round" stroke-linejoin="round"><title>Brazilian steel shapes (W series): w-beam</title><desc>Catalogusgedreven doorsnede; vorm i.</desc><g stroke-width="0.7" stroke-dasharray="5 2 1 2"><line x1="6" y1="32" x2="58" y2="32"/><line x1="32" y1="6" x2="32" y2="58"/></g><path d="M23.527 6 L40.473 6 L40.473 7.794 L34.043 7.794 A1.495 1.495 0 0 0 32.548 9.289 L32.548 54.711 A1.495 1.495 0 0 0 34.043 56.206 L40.473 56.206 L40.473 58 L23.527 58 L23.527 56.206 L29.957 56.206 A1.495 1.495 0 0 0 31.452 54.711 L31.452 9.289 A1.495 1.495 0 0 0 29.957 7.794 L23.527 7.794 Z"/></svg><text x="390" y="181" font-size="7.5" font-family="system-ui, -apple-system, Segoe UI, sans-serif" text-anchor="middle" fill="#78716c">w-beam</text><svg x="448" y="116" width="52" height="52" viewBox="0 0 64 64" xmlns="http://www.w3.org/2000/svg" fill="none" stroke="#000" stroke-width="1.5" stroke-linecap="round" stroke-linejoin="round"><title>Brazilian steel shapes (W series): w-column</title><desc>Catalogusgedreven doorsnede; vorm i.</desc><g stroke-width="0.7" stroke-dasharray="5 2 1 2"><line x1="6" y1="32" x2="58" y2="32"/><line x1="32" y1="6" x2="32" y2="58"/></g><path d="M6 6.102 L58 6.102 L58 9.009 L35.337 9.009 A2.457 2.457 0 0 0 32.88 11.466 L32.88 52.534 A2.457 2.457 0 0 0 35.337 54.991 L58 54.991 L58 57.898 L6 57.898 L6 54.991 L28.663 54.991 A2.457 2.457 0 0 0 31.12 52.534 L31.12 11.466 A2.457 2.457 0 0 0 28.663 9.009 L6 9.009 Z"/></svg><text x="474" y="181" font-size="7.5" font-family="system-ui, -apple-system, Segoe UI, sans-serif" text-anchor="middle" fill="#78716c">w-column</text></svg>
