<svg viewBox="0 0 696 318" width="696" xmlns="http://www.w3.org/2000/svg"><rect x="0" y="0" width="696" height="318" rx="8" fill="#ffffff" stroke="#d6d3cd"/><svg x="28" y="18" width="52" height="52" viewBox="0 0 64 64" xmlns="http://www.w3.org/2000/svg" fill="none" stroke="#000" stroke-width="1.5" stroke-linecap="round" stroke-linejoin="round"><title>US steel shapes (AISC): angle-elevation</title><desc>Schematisch aanzicht met voorbeeldlengte 4 maal de profielhoogte.</desc><rect x="6" y="25.5" width="52" height="13"/><line x1="6" y1="26.711" x2="58" y2="26.711"/><g stroke-width="0.7" stroke-dasharray="5 2 1 2"><line x1="6" y1="32" x2="58" y2="32"/><line x1="32" y1="6" x2="32" y2="58"/></g></svg><text x="54" y="83" font-size="7.5" font-family="system-ui, -apple-system, Segoe UI, sans-serif" text-anchor="middle" fill="#78716c">angle-elevation</text><svg x="112" y="18" width="52" height="52" viewBox="0 0 64 64" xmlns="http://www.w3.org/2000/svg" fill="none" stroke="#000" stroke-width="1.5" stroke-linecap="round" stroke-linejoin="round"><title>US steel shapes (AISC): c-channel</title><desc>Catalogusgedreven doorsnede; vorm u.</desc><g stroke-width="0.7" stroke-dasharray="5 2 1 2"><line x1="6" y1="32" x2="58" y2="32"/><line x1="32" y1="6" x2="32" y2="58"/></g><path d="M25.244 6 L38.756 6 L38.756 8.272 L28.54 8.272 A2.047 2.047 0 0 0 26.493 10.32 L26.493 53.68 A2.047 2.047 0 0 0 28.54 55.728 L38.756 55.728 L38.756 58 L25.244 58 Z"/></svg><text x="138" y="83" font-size="7.5" font-family="system-ui, -apple-system, Segoe UI, sans-serif" text-anchor="middle" fill="#78716c">c-channel</text><svg x="196" y="18" width="52" height="52" viewBox="0 0 64 64" xmlns="http://www.w3.org/2000/svg" fill="none" stroke="#000" stroke-width="1.5" stroke-linecap="round" stroke-linejoin="round"><title>US steel shapes (AISC): channel-elevation</title><desc>Schematisch aanzicht met voorbeeldlengte 4 maal de profielhoogte.</desc><rect x="6" y="25.5" width="52" height="13"/><line x1="6" y1="26.2" x2="58" y2="26.2"/><line x1="6" y1="37.8" x2="58" y2="37.8"/><g stroke-width="0.7" stroke-dasharray="5 2 1 2"><line x1="6" y1="32" x2="58" y2="32"/><line x1="32" y1="6" x2="32" y2="58"/></g></svg><text x="222" y="83" font-size="7.5" font-family="system-ui, -apple-system, Segoe UI, sans-serif" text-anchor="middle" fill="#78716c">channel-elevation</text><svg x="280" y="18" width="52" height="52" viewBox="0 0 64 64" xmlns="http://www.w3.org/2000/svg" fill="none" stroke="#000" stroke-width="1.5" stroke-linecap="round" stroke-linejoin="round"><title>US steel shapes (AISC): hollow-section-elevation</title><desc>Schematisch aanzicht met voorbeeldlengte 4 maal de profielhoogte.</desc><rect x="6" y="25.5" width="52" height="13"/><rect x="6.813" y="26.313" width="50.375" height="11.375"/><g stroke-width="0.7" stroke-dasharray="5 2 1 2"><line x1="6" y1="32" x2="58" y2="32"/><line x1="32" y1="6" x2="32" y2="58"/></g></svg><text x="306" y="83" font-size="7.5" font-family="system-ui, -apple-system, Segoe UI, sans-serif" text-anchor="middle" fill="#78716c">hollow-section-elevation</text><svg x="364" y="18" width="52" height="52" viewBox="0 0 64 64" xmlns="http://www.w3.org/2000/svg" fill="none" stroke="#000" stroke-width="1.5" stroke-linecap="round" stroke-linejoin="round"><title>US steel shapes (AISC): hp-shape</title><desc>Catalogusgedreven doorsnede; vorm i.</desc><g stroke-width="0.7" stroke-dasharray="5 2 1 2"><line x1="6" y1="32" x2="58" y2="32"/><line x1="32" y1="6" x2="32" y2="58"/></g><path d="M18.161 6 L45.839 6 L45.839 7.627 L33.996 7.627 A1.51 1.51 0 0 0 32.486 9.137 L32.486 54.863 A1.51 1.51 0 0 0 33.996 56.373 L45.839 56.373 L45.839 58 L18.161 58 L18.161 56.373 L30.004 56.373 A1.51 1.51 0 0 0 31.514 54.863 L31.514 9.137 A1.51 1.51 0 0 0 30.004 7.627 L18.161 7.627 Z"/></svg><text x="390" y="83" font-size="7.5" font-family="system-ui, -apple-system, Segoe UI, sans-serif" text-anchor="middle" fill="#78716c">hp-shape</text><svg x="448" y="18" width="52" height="52" viewBox="0 0 64 64" xmlns="http://www.w3.org/2000/svg" fill="none" stroke="#000" stroke-width="1.5" stroke-linecap="round" stroke-linejoin="round"><title>US steel shapes (AISC): hss-rect</title><desc>Catalogusgedreven doorsnede; vorm box.</desc><g stroke-width="0.7" stroke-dasharray="5 2 1 2"><line x1="6" y1="32" x2="58" y2="32"/><line x1="32" y1="6" x2="32" y2="58"/></g><rect x="6" y="12.5" width="52" height="39" rx="5.85"/><rect x="9.25" y="15.75" width="45.5" height="32.5" rx="2.6"/></svg><text x="474" y="83" font-size="7.5" font-family="system-ui, -apple-system, Segoe UI, sans-serif" text-anchor="middle" fill="#78716c">hss-rect</text><svg x="532" y="18" width="52" height="52" viewBox="0 0 64 64" xmlns="http://www.w3.org/2000/svg" fill="none" stroke="#000" stroke-width="1.5" stroke-linecap="round" stroke-linejoin="round"><title>US steel shapes (AISC): hss-round</title><desc>Catalogusgedreven doorsnede; vorm pipe.</desc><g stroke-width="0.7" stroke-dasharray="5 2 1 2"><line x1="6" y1="32" x2="58" y2="32"/><line x1="32" y1="6" x2="32" y2="58"/></g><circle cx="32" cy="32" r="26"/><circle cx="32" cy="32" r="23.075"/></svg><text x="558" y="83" font-size="7.5" font-family="system-ui, -apple-system, Segoe UI, sans-serif" text-anchor="middle" fill="#78716c">hss-round</text><svg x="616" y="18" width="52" height="52" viewBox="0 0 64 64" xmlns="http://www.w3.org/2000/svg" fill="none" stroke="#000" stroke-width="1.5" stroke-linecap="round" stroke-linejoin="round"><title>US steel shapes (AISC): hss-square</title><desc>Catalogusgedreven doorsnede; vorm box.</desc><g stroke-width="0.7" stroke-dasharray="5 2 1 2"><line x1="6" y1="32" x2="58" y2="32"/><line x1="32" y1="6" x2="32" y2="58"/></g><rect x="6" y="6" width="52" height="52" rx="6.5"/><rect x="9.25" y="9.25" width="45.5" height="45.5" rx="3.25"/></svg><text x="642" y="83" font-size="7.5" font-family="system-ui, -apple-system, Segoe UI, sans-serif" text-anchor="middle" fill="#78716c">hss-square</text><svg x="28" y="116" width="52" height="52" viewBox="0 0 64 64" xmlns="http://www.w3.org/2000/svg" fill="none" stroke="#000" stroke-width="1.5" stroke-linecap="round" stroke-linejoin="round"><title>US steel shapes (AISC): i-beam-elevation</title><desc>Schematisch aanzicht met voorbeeldlengte 4 maal de profielhoogte.</desc><rect x="6" y="25.5" width="52" height="13"/><line x1="6" y1="26.2" x2="58" y2="26.2"/><line x1="6" y1="37.8" x2="58" y2="37.8"/><g stroke-width="0.7" stroke-dasharray="5 2 1 2"><line x1="6" y1="32" x2="58" y2="32"/><line x1="32" y1="6" x2="32" y2="58"/></g></svg><text x="54" y="181" font-size="7.5" font-family="system-ui, -apple-system, Segoe UI, sans-serif" text-anchor="middle" fill="#78716c">i-beam-elevation</text><svg x="112" y="116" width="52" height="52" viewBox="0 0 64 64" xmlns="http://www.w3.org/2000/svg" fill="none" stroke="#000" stroke-width="1.5" stroke-linecap="round" stroke-linejoin="round"><title>US steel shapes (AISC): l-angle-equal</title><desc>Catalogusgedreven doorsnede; vorm angle.</desc><g stroke-width="0.7" stroke-dasharray="5 2 1 2"><line x1="6" y1="32" x2="58" y2="32"/><line x1="32" y1="6" x2="32" y2="58"/></g><path d="M6 6 L10.843 6 L10.843 49.282 A3.875 3.875 0 0 0 14.718 53.157 L58 53.157 L58 58 L6 58 Z"/></svg><text x="138" y="181" font-size="7.5" font-family="system-ui, -apple-system, Segoe UI, sans-serif" text-anchor="middle" fill="#78716c">l-angle-equal</text><svg x="196" y="116" width="52" height="52" viewBox="0 0 64 64" xmlns="http://www.w3.org/2000/svg" fill="none" stroke="#000" stroke-width="1.5" stroke-linecap="round" stroke-linejoin="round"><title>US steel shapes (AISC): l-angle-unequal</title><desc>Catalogusgedreven doorsnede; vorm angle.</desc><g stroke-width="0.7" stroke-dasharray="5 2 1 2"><line x1="6" y1="32" x2="58" y2="32"/><line x1="32" y1="6" x2="32" y2="58"/></g><path d="M14.938 6 L19.487 6 L19.487 49.875 A3.575 3.575 0 0 0 23.063 53.45 L49.063 53.45 L49.063 58 L14.938 58 Z"/></svg><text x="222" y="181" font-size="7.5" font-family="system-ui, -apple-system, Segoe UI, sans-serif" text-anchor="middle" fill="#78716c">l-angle-unequal</text><svg x="280" y="116" width="52" height="52" viewBox="0 0 64 64" xmlns="http://www.w3.org/2000/svg" fill="none" stroke="#000" stroke-width="1.5" stroke-linecap="round" stroke-linejoin="round"><title>US steel shapes (AISC): pipe</title><desc>Catalogusgedreven doorsnede; vorm pipe.</desc><g stroke-width="0.7" stroke-dasharray="5 2 1 2"><line x1="6" y1="32" x2="58" y2="32"/><line x1="32" y1="6" x2="32" y2="58"/></g><circle cx="32" cy="32" r="26"/><circle cx="32" cy="32" r="23.075"/></svg><text x="306" y="181" font-size="7.5" font-family="system-ui, -apple-system, Segoe UI, sans-serif" text-anchor="middle" fill="#78716c">pipe</text><svg x="364" y="116" width="52" height="52" viewBox="0 0 64 64" xmlns="http://www.w3.org/2000/svg" fill="none" stroke="#000" stroke-width="1.5" stroke-linecap="round" stroke-linejoin="round"><title>US steel shapes (AISC): plate</title><desc>Catalogusgedreven doorsnede; vorm plate.</desc><g stroke-width="0.7" stroke-dasharray="5 2 1 2"><line x1="6" y1="32" x2="58" y2="32"/><line x1="32" y1="6" x2="32" y2="58"/></g><rect x="6" y="29.4" width="52" height="5.2"/></svg><text x="390" y="181" font-size="7.5" font-family="system-ui, -apple-system, Segoe UI, sans-serif" text-anchor="middle" fill="#78716c">plate</text><svg x="448" y="116" width="52" height="52" viewBox="0 0 64 64" xmlns="http://www.w3.org/2000/svg" fill="none" stroke="#000" stroke-width="1.5" stroke-linecap="round" stroke-linejoin="round"><title>US steel shapes (AISC): s-shape</title><desc>Catalogusgedreven doorsnede; vorm i.</desc><g stroke-width="0.7" stroke-dasharray="5 2 1 2"><line x1="6" y1="32" x2="58" y2="32"/><line x1="32" y1="6" x2="32" y2="58"/></g><path d="M21.174 6 L42.826 6 L42.826 8.353 L34.634 8.353 A1.875 1.875 0 0 0 32.759 10.228 L32.759 53.772 A1.875 1.875 0 0 0 34.634 55.647 L42.826 55.647 L42.826 58 L21.174 58 L21.174 55.647 L29.366 55.647 A1.875 1.875 0 0 0 31.241 53.772 L31.241 10.228 A1.875 1.875 0 0 0 29.366 8.353 L21.174 8.353 Z"/></svg><text x="474" y="181" font-size="7.5" font-family="system-ui, -apple-system, Segoe UI, sans-serif" text-anchor="middle" fill="#78716c">s-shape</text><svg x="532" y="116" width="52" height="52" viewBox="0 0 64 64" xmlns="http://www.w3.org/2000/svg" fill="none" stroke="#000" stroke-width="1.5" stroke-linecap="round" stroke-linejoin="round"><title>US steel shapes (AISC): tee-elevation</title><desc>Schematisch aanzicht met voorbeeldlengte 4 maal de profielhoogte.</desc><rect x="6" y="25.5" width="52" height="13"/><line x1="6" y1="26.511" x2="58" y2="26.511"/><g stroke-width="0.7" stroke-dasharray="5 2 1 2"><line x1="6" y1="32" x2="58" y2="32"/><line x1="32" y1="6" x2="32" y2="58"/></g></svg><text x="558" y="181" font-size="7.5" font-family="system-ui, -apple-system, Segoe UI, sans-serif" text-anchor="middle" fill="#78716c">tee-elevation</text><svg x="616" y="116" width="52" height="52" viewBox="0 0 64 64" xmlns="http://www.w3.org/2000/svg" fill="none" stroke="#000" stroke-width="1.5" stroke-linecap="round" stroke-linejoin="round"><title>US steel shapes (AISC): w-shape</title><desc>Catalogusgedreven doorsnede; vorm i.</desc><g stroke-width="0.7" stroke-dasharray="5 2 1 2"><line x1="6" y1="32" x2="58" y2="32"/><line x1="32" y1="6" x2="32" y2="58"/></g><path d="M18.161 6 L45.839 6 L45.839 7.627 L33.996 7.627 A1.51 1.51 0 0 0 32.486 9.137 L32.486 54.863 A1.51 1.51 0 0 0 33.996 56.373 L45.839 56.373 L45.839 58 L18.161 58 L18.161 56.373 L30.004 56.373 A1.51 1.51 0 0 0 31.514 54.863 L31.514 9.137 A1.51 1.51 0 0 0 30.004 7.627 L18.161 7.627 Z"/></svg><text x="642" y="181" font-size="7.5" font-family="system-ui, -apple-system, Segoe UI, sans-serif" text-anchor="middle" fill="#78716c">w-shape</text><svg x="28" y="214" width="52" height="52" viewBox="0 0 64 64" xmlns="http://www.w3.org/2000/svg" fill="none" stroke="#000" stroke-width="1.5" stroke-linecap="round" stroke-linejoin="round"><title>US steel shapes (AISC): wt-tee</title><desc>Catalogusgedreven doorsnede; vorm tee.</desc><g stroke-width="0.7" stroke-dasharray="5 2 1 2"><line x1="6" y1="32" x2="58" y2="32"/><line x1="32" y1="6" x2="32" y2="58"/></g><path d="M8.889 6 L55.111 6 L55.111 10.044 L36.333 10.044 A2.889 2.889 0 0 0 33.444 12.933 L33.444 58 L30.556 58 L30.556 12.933 A2.889 2.889 0 0 0 27.667 10.044 L8.889 10.044 Z"/></svg><text x="54" y="279" font-size="7.5" font-family="system-ui, -apple-system, Segoe UI, sans-serif" text-anchor="middle" fill="#78716c">wt-tee</text></svg>
