<svg viewBox="0 0 696 318" width="696" xmlns="http://www.w3.org/2000/svg"><rect x="0" y="0" width="696" height="318" rx="8" fill="#ffffff" stroke="#d6d3cd"/><svg x="28" y="18" width="52" height="52" viewBox="0 0 64 64" xmlns="http://www.w3.org/2000/svg" fill="none" stroke="#000" stroke-width="1.6" stroke-linecap="round" stroke-linejoin="round"><title>US electrical plan symbols: ceiling-light</title><desc>Elektrisch symbool; profiel us; type light; variant ceiling.</desc><circle cx="32" cy="32" r="15"/><g stroke-width="0.8"><line x1="22" y1="22" x2="42" y2="42"/><line x1="42" y1="22" x2="22" y2="42"/></g></svg><text x="54" y="83" font-size="7.5" font-family="system-ui, -apple-system, Segoe UI, sans-serif" text-anchor="middle" fill="#78716c">ceiling-light</text><svg x="112" y="18" width="52" height="52" viewBox="0 0 64 64" xmlns="http://www.w3.org/2000/svg" fill="none" stroke="#000" stroke-width="1.6" stroke-linecap="round" stroke-linejoin="round"><title>US electrical plan symbols: data-outlet</title><desc>Elektrisch symbool; profiel us; type communication; variant data.</desc><rect x="14" y="18" width="36" height="28" rx="3"/><g stroke-width="0.8"><rect x="20" y="24" width="24" height="14" rx="2"/><line x1="24" y1="38" x2="24" y2="42"/><line x1="29" y1="38" x2="29" y2="42"/><line x1="35" y1="38" x2="35" y2="42"/><line x1="40" y1="38" x2="40" y2="42"/></g></svg><text x="138" y="83" font-size="7.5" font-family="system-ui, -apple-system, Segoe UI, sans-serif" text-anchor="middle" fill="#78716c">data-outlet</text><svg x="196" y="18" width="52" height="52" viewBox="0 0 64 64" xmlns="http://www.w3.org/2000/svg" fill="none" stroke="#000" stroke-width="1.6" stroke-linecap="round" stroke-linejoin="round"><title>US electrical plan symbols: duplex-receptacle</title><desc>Elektrisch symbool; profiel us; type socket; variant double.</desc><circle cx="32" cy="32" r="15"/><line x1="28" y1="25" x2="28" y2="39"/><line x1="36" y1="25" x2="36" y2="39"/><g stroke-width="0.8"><line x1="24" y1="47" x2="40" y2="47"/></g></svg><text x="222" y="83" font-size="7.5" font-family="system-ui, -apple-system, Segoe UI, sans-serif" text-anchor="middle" fill="#78716c">duplex-receptacle</text><svg x="280" y="18" width="52" height="52" viewBox="0 0 64 64" xmlns="http://www.w3.org/2000/svg" fill="none" stroke="#000" stroke-width="1.6" stroke-linecap="round" stroke-linejoin="round"><title>US electrical plan symbols: floor-receptacle</title><desc>Elektrisch symbool; profiel us; type socket; variant single, floor.</desc><circle cx="32" cy="32" r="15"/><line x1="32" y1="25" x2="32" y2="39"/><g stroke-width="0.8"><rect x="10" y="10" width="44" height="44" rx="3"/></g></svg><text x="306" y="83" font-size="7.5" font-family="system-ui, -apple-system, Segoe UI, sans-serif" text-anchor="middle" fill="#78716c">floor-receptacle</text><svg x="364" y="18" width="52" height="52" viewBox="0 0 64 64" xmlns="http://www.w3.org/2000/svg" fill="none" stroke="#000" stroke-width="1.6" stroke-linecap="round" stroke-linejoin="round"><title>US electrical plan symbols: fluorescent-fixture</title><desc>Elektrisch symbool; profiel us; type light; variant linear.</desc><rect x="9" y="25" width="46" height="14" rx="2"/><g stroke-width="0.8"><line x1="14" y1="29" x2="50" y2="29"/><line x1="14" y1="35" x2="50" y2="35"/></g></svg><text x="390" y="83" font-size="7.5" font-family="system-ui, -apple-system, Segoe UI, sans-serif" text-anchor="middle" fill="#78716c">fluorescent-fixture</text><svg x="448" y="18" width="52" height="52" viewBox="0 0 64 64" xmlns="http://www.w3.org/2000/svg" fill="none" stroke="#000" stroke-width="1.6" stroke-linecap="round" stroke-linejoin="round"><title>US electrical plan symbols: gfci-receptacle</title><desc>Elektrisch symbool; profiel us; type socket; variant double, protected.</desc><circle cx="32" cy="32" r="15"/><line x1="28" y1="25" x2="28" y2="39"/><line x1="36" y1="25" x2="36" y2="39"/><g stroke-width="0.8"><circle cx="27" cy="45" r="1.5" fill="#000" stroke="none"/><circle cx="37" cy="45" r="1.5" fill="#000" stroke="none"/></g></svg><text x="474" y="83" font-size="7.5" font-family="system-ui, -apple-system, Segoe UI, sans-serif" text-anchor="middle" fill="#78716c">gfci-receptacle</text><svg x="532" y="18" width="52" height="52" viewBox="0 0 64 64" xmlns="http://www.w3.org/2000/svg" fill="none" stroke="#000" stroke-width="1.6" stroke-linecap="round" stroke-linejoin="round"><title>US electrical plan symbols: junction-box</title><desc>Elektrisch symbool; profiel us; type junction; variant basis.</desc><circle cx="32" cy="32" r="18"/><circle cx="32" cy="32" r="4" fill="#000"/><g stroke-width="0.8"><line x1="20" y1="20" x2="44" y2="44"/><line x1="44" y1="20" x2="20" y2="44"/></g></svg><text x="558" y="83" font-size="7.5" font-family="system-ui, -apple-system, Segoe UI, sans-serif" text-anchor="middle" fill="#78716c">junction-box</text><svg x="616" y="18" width="52" height="52" viewBox="0 0 64 64" xmlns="http://www.w3.org/2000/svg" fill="none" stroke="#000" stroke-width="1.6" stroke-linecap="round" stroke-linejoin="round"><title>US electrical plan symbols: panelboard</title><desc>Elektrisch symbool; profiel us; type board; variant basis.</desc><rect x="12" y="12" width="40" height="40" rx="3"/><line x1="32" y1="12" x2="32" y2="52"/><g stroke-width="0.8"><line x1="18" y1="21" x2="46" y2="21"/><line x1="18" y1="28" x2="46" y2="28"/><line x1="18" y1="36" x2="46" y2="36"/><line x1="18" y1="43" x2="46" y2="43"/></g></svg><text x="642" y="83" font-size="7.5" font-family="system-ui, -apple-system, Segoe UI, sans-serif" text-anchor="middle" fill="#78716c">panelboard</text><svg x="28" y="116" width="52" height="52" viewBox="0 0 64 64" xmlns="http://www.w3.org/2000/svg" fill="none" stroke="#000" stroke-width="1.6" stroke-linecap="round" stroke-linejoin="round"><title>US electrical plan symbols: phone-outlet</title><desc>Elektrisch symbool; profiel us; type communication; variant phone.</desc><circle cx="32" cy="32" r="20"/><path d="M22 20 C18 26 18 38 22 44 L27 39 C25 35 25 29 27 25 Z M42 20 C46 26 46 38 42 44 L37 39 C39 35 39 29 37 25 Z"/><g stroke-width="0.8"><line x1="27" y1="32" x2="37" y2="32"/></g></svg><text x="54" y="181" font-size="7.5" font-family="system-ui, -apple-system, Segoe UI, sans-serif" text-anchor="middle" fill="#78716c">phone-outlet</text><svg x="112" y="116" width="52" height="52" viewBox="0 0 64 64" xmlns="http://www.w3.org/2000/svg" fill="none" stroke="#000" stroke-width="1.6" stroke-linecap="round" stroke-linejoin="round"><title>US electrical plan symbols: quadplex-receptacle</title><desc>Elektrisch symbool; profiel us; type socket; variant quadruple.</desc><circle cx="32" cy="32" r="15"/><line x1="23" y1="25" x2="23" y2="39"/><line x1="29" y1="25" x2="29" y2="39"/><line x1="35" y1="25" x2="35" y2="39"/><line x1="41" y1="25" x2="41" y2="39"/><g stroke-width="0.8"><line x1="24" y1="47" x2="40" y2="47"/></g></svg><text x="138" y="181" font-size="7.5" font-family="system-ui, -apple-system, Segoe UI, sans-serif" text-anchor="middle" fill="#78716c">quadplex-receptacle</text><svg x="196" y="116" width="52" height="52" viewBox="0 0 64 64" xmlns="http://www.w3.org/2000/svg" fill="none" stroke="#000" stroke-width="1.6" stroke-linecap="round" stroke-linejoin="round"><title>US electrical plan symbols: receptacle-240v</title><desc>Elektrisch symbool; profiel us; type connection; variant high-power.</desc><circle cx="32" cy="32" r="19"/><line x1="20" y1="32" x2="44" y2="32"/><g stroke-width="0.8"><line x1="25" y1="25" x2="25" y2="39"/><line x1="32" y1="25" x2="32" y2="39"/><line x1="39" y1="25" x2="39" y2="39"/></g></svg><text x="222" y="181" font-size="7.5" font-family="system-ui, -apple-system, Segoe UI, sans-serif" text-anchor="middle" fill="#78716c">receptacle-240v</text><svg x="280" y="116" width="52" height="52" viewBox="0 0 64 64" xmlns="http://www.w3.org/2000/svg" fill="none" stroke="#000" stroke-width="1.6" stroke-linecap="round" stroke-linejoin="round"><title>US electrical plan symbols: recessed-downlight</title><desc>Elektrisch symbool; profiel us; type light; variant recessed.</desc><circle cx="32" cy="32" r="15"/><circle cx="32" cy="32" r="21"/><g stroke-width="0.8"><line x1="22" y1="22" x2="42" y2="42"/><line x1="42" y1="22" x2="22" y2="42"/></g></svg><text x="306" y="181" font-size="7.5" font-family="system-ui, -apple-system, Segoe UI, sans-serif" text-anchor="middle" fill="#78716c">recessed-downlight</text><svg x="364" y="116" width="52" height="52" viewBox="0 0 64 64" xmlns="http://www.w3.org/2000/svg" fill="none" stroke="#000" stroke-width="1.6" stroke-linecap="round" stroke-linejoin="round"><title>US electrical plan symbols: switch-dimmer</title><desc>Elektrisch symbool; profiel us; type switch; variant dimmer.</desc><circle cx="18" cy="44" r="3"/><circle cx="44" cy="22" r="2.2"/><g stroke-width="0.8"><line x1="21" y1="41" x2="41" y2="25"/><path d="M25 50 A14 14 0 0 0 46 42 M43 38 L46 42 L41 44"/></g></svg><text x="390" y="181" font-size="7.5" font-family="system-ui, -apple-system, Segoe UI, sans-serif" text-anchor="middle" fill="#78716c">switch-dimmer</text><svg x="448" y="116" width="52" height="52" viewBox="0 0 64 64" xmlns="http://www.w3.org/2000/svg" fill="none" stroke="#000" stroke-width="1.6" stroke-linecap="round" stroke-linejoin="round"><title>US electrical plan symbols: switch-four-way</title><desc>Elektrisch symbool; profiel us; type switch; variant four-way.</desc><circle cx="18" cy="44" r="3"/><circle cx="40" cy="18" r="2.2"/><circle cx="48" cy="26" r="2.2"/><circle cx="48" cy="38" r="2.2"/><circle cx="40" cy="46" r="2.2"/><g stroke-width="0.8"><line x1="21" y1="41" x2="37" y2="21"/></g></svg><text x="474" y="181" font-size="7.5" font-family="system-ui, -apple-system, Segoe UI, sans-serif" text-anchor="middle" fill="#78716c">switch-four-way</text><svg x="532" y="116" width="52" height="52" viewBox="0 0 64 64" xmlns="http://www.w3.org/2000/svg" fill="none" stroke="#000" stroke-width="1.6" stroke-linecap="round" stroke-linejoin="round"><title>US electrical plan symbols: switch-three-way</title><desc>Elektrisch symbool; profiel us; type switch; variant three-way.</desc><circle cx="18" cy="44" r="3"/><circle cx="42" cy="20" r="2.2"/><circle cx="48" cy="26" r="2.2"/><circle cx="42" cy="32" r="2.2"/><g stroke-width="0.8"><line x1="21" y1="41" x2="39" y2="23"/></g></svg><text x="558" y="181" font-size="7.5" font-family="system-ui, -apple-system, Segoe UI, sans-serif" text-anchor="middle" fill="#78716c">switch-three-way</text><svg x="616" y="116" width="52" height="52" viewBox="0 0 64 64" xmlns="http://www.w3.org/2000/svg" fill="none" stroke="#000" stroke-width="1.6" stroke-linecap="round" stroke-linejoin="round"><title>US electrical plan symbols: switch</title><desc>Elektrisch symbool; profiel us; type switch; variant one-way.</desc><circle cx="18" cy="44" r="3"/><circle cx="44" cy="22" r="2.2"/><g stroke-width="0.8"><line x1="21" y1="41" x2="41" y2="25"/></g></svg><text x="642" y="181" font-size="7.5" font-family="system-ui, -apple-system, Segoe UI, sans-serif" text-anchor="middle" fill="#78716c">switch</text><svg x="28" y="214" width="52" height="52" viewBox="0 0 64 64" xmlns="http://www.w3.org/2000/svg" fill="none" stroke="#000" stroke-width="1.6" stroke-linecap="round" stroke-linejoin="round"><title>US electrical plan symbols: thermostat</title><desc>Elektrisch symbool; profiel us; type control; variant thermostat.</desc><circle cx="32" cy="32" r="20"/><line x1="28" y1="18" x2="28" y2="39"/><circle cx="28" cy="43" r="5" fill="#000"/><g stroke-width="0.8"><line x1="34" y1="22" x2="43" y2="22"/><line x1="34" y1="29" x2="40" y2="29"/><line x1="34" y1="36" x2="43" y2="36"/></g></svg><text x="54" y="279" font-size="7.5" font-family="system-ui, -apple-system, Segoe UI, sans-serif" text-anchor="middle" fill="#78716c">thermostat</text><svg x="112" y="214" width="52" height="52" viewBox="0 0 64 64" xmlns="http://www.w3.org/2000/svg" fill="none" stroke="#000" stroke-width="1.6" stroke-linecap="round" stroke-linejoin="round"><title>US electrical plan symbols: tv-outlet</title><desc>Elektrisch symbool; profiel us; type communication; variant television.</desc><circle cx="32" cy="32" r="20"/><circle cx="32" cy="32" r="8"/><g stroke-width="0.8"><line x1="26" y1="14" x2="32" y2="24"/><line x1="38" y1="14" x2="32" y2="24"/></g></svg><text x="138" y="279" font-size="7.5" font-family="system-ui, -apple-system, Segoe UI, sans-serif" text-anchor="middle" fill="#78716c">tv-outlet</text><svg x="196" y="214" width="52" height="52" viewBox="0 0 64 64" xmlns="http://www.w3.org/2000/svg" fill="none" stroke="#000" stroke-width="1.6" stroke-linecap="round" stroke-linejoin="round"><title>US electrical plan symbols: wall-sconce</title><desc>Elektrisch symbool; profiel us; type light; variant wall.</desc><path d="M18 42 A14 14 0 0 1 46 42"/><line x1="18" y1="42" x2="46" y2="42"/><g stroke-width="0.8"><line x1="32" y1="18" x2="32" y2="28"/><line x1="25" y1="21" x2="28" y2="29"/><line x1="39" y1="21" x2="36" y2="29"/></g></svg><text x="222" y="279" font-size="7.5" font-family="system-ui, -apple-system, Segoe UI, sans-serif" text-anchor="middle" fill="#78716c">wall-sconce</text></svg>
