<svg viewBox="0 0 696 318" width="696" xmlns="http://www.w3.org/2000/svg"><rect x="0" y="0" width="696" height="318" rx="8" fill="#ffffff" stroke="#d6d3cd"/><svg x="28" y="18" width="52" height="52" viewBox="0 0 64 64" xmlns="http://www.w3.org/2000/svg" fill="none" stroke="#000" stroke-width="1.6" stroke-linecap="round" stroke-linejoin="round"><title>Dutch electrical legend symbols: beldrukker</title><desc>Elektrisch symbool; profiel nl; type switch; variant push-button.</desc><circle cx="18" cy="44" r="3"/><circle cx="44" cy="22" r="2.2"/><g stroke-width="0.8"><line x1="21" y1="41" x2="41" y2="25"/><line x1="18" y1="20" x2="18" y2="35"/><line x1="12" y1="20" x2="24" y2="20"/></g></svg><text x="54" y="83" font-size="7.5" font-family="system-ui, -apple-system, Segoe UI, sans-serif" text-anchor="middle" fill="#78716c">beldrukker</text><svg x="112" y="18" width="52" height="52" viewBox="0 0 64 64" xmlns="http://www.w3.org/2000/svg" fill="none" stroke="#000" stroke-width="1.6" stroke-linecap="round" stroke-linejoin="round"><title>Dutch electrical legend symbols: cai-aansluiting</title><desc>Elektrisch symbool; profiel nl; type communication; variant television.</desc><circle cx="32" cy="32" r="20"/><circle cx="32" cy="32" r="8"/><g stroke-width="0.8"><line x1="26" y1="14" x2="32" y2="24"/><line x1="38" y1="14" x2="32" y2="24"/></g></svg><text x="138" y="83" font-size="7.5" font-family="system-ui, -apple-system, Segoe UI, sans-serif" text-anchor="middle" fill="#78716c">cai-aansluiting</text><svg x="196" y="18" width="52" height="52" viewBox="0 0 64 64" xmlns="http://www.w3.org/2000/svg" fill="none" stroke="#000" stroke-width="1.6" stroke-linecap="round" stroke-linejoin="round"><title>Dutch electrical legend symbols: data-aansluiting</title><desc>Elektrisch symbool; profiel nl; type communication; variant data.</desc><rect x="14" y="18" width="36" height="28" rx="3"/><g stroke-width="0.8"><rect x="20" y="24" width="24" height="14" rx="2"/><line x1="24" y1="38" x2="24" y2="42"/><line x1="29" y1="38" x2="29" y2="42"/><line x1="35" y1="38" x2="35" y2="42"/><line x1="40" y1="38" x2="40" y2="42"/></g></svg><text x="222" y="83" font-size="7.5" font-family="system-ui, -apple-system, Segoe UI, sans-serif" text-anchor="middle" fill="#78716c">data-aansluiting</text><svg x="280" y="18" width="52" height="52" viewBox="0 0 64 64" xmlns="http://www.w3.org/2000/svg" fill="none" stroke="#000" stroke-width="1.6" stroke-linecap="round" stroke-linejoin="round"><title>Dutch electrical legend symbols: dimmer</title><desc>Elektrisch symbool; profiel nl; type switch; variant dimmer.</desc><circle cx="18" cy="44" r="3"/><circle cx="44" cy="22" r="2.2"/><g stroke-width="0.8"><line x1="21" y1="41" x2="41" y2="25"/><path d="M25 50 A14 14 0 0 0 46 42 M43 38 L46 42 L41 44"/></g></svg><text x="306" y="83" font-size="7.5" font-family="system-ui, -apple-system, Segoe UI, sans-serif" text-anchor="middle" fill="#78716c">dimmer</text><svg x="364" y="18" width="52" height="52" viewBox="0 0 64 64" xmlns="http://www.w3.org/2000/svg" fill="none" stroke="#000" stroke-width="1.6" stroke-linecap="round" stroke-linejoin="round"><title>Dutch electrical legend symbols: krachtaansluiting</title><desc>Elektrisch symbool; profiel nl; type connection; variant high-power.</desc><circle cx="32" cy="32" r="19"/><line x1="20" y1="32" x2="44" y2="32"/><g stroke-width="0.8"><line x1="25" y1="25" x2="25" y2="39"/><line x1="32" y1="25" x2="32" y2="39"/><line x1="39" y1="25" x2="39" y2="39"/></g></svg><text x="390" y="83" font-size="7.5" font-family="system-ui, -apple-system, Segoe UI, sans-serif" text-anchor="middle" fill="#78716c">krachtaansluiting</text><svg x="448" y="18" width="52" height="52" viewBox="0 0 64 64" xmlns="http://www.w3.org/2000/svg" fill="none" stroke="#000" stroke-width="1.6" stroke-linecap="round" stroke-linejoin="round"><title>Dutch electrical legend symbols: kruisschakelaar</title><desc>Elektrisch symbool; profiel nl; type switch; variant four-way.</desc><circle cx="18" cy="44" r="3"/><circle cx="40" cy="18" r="2.2"/><circle cx="48" cy="26" r="2.2"/><circle cx="48" cy="38" r="2.2"/><circle cx="40" cy="46" r="2.2"/><g stroke-width="0.8"><line x1="21" y1="41" x2="37" y2="21"/></g></svg><text x="474" y="83" font-size="7.5" font-family="system-ui, -apple-system, Segoe UI, sans-serif" text-anchor="middle" fill="#78716c">kruisschakelaar</text><svg x="532" y="18" width="52" height="52" viewBox="0 0 64 64" xmlns="http://www.w3.org/2000/svg" fill="none" stroke="#000" stroke-width="1.6" stroke-linecap="round" stroke-linejoin="round"><title>Dutch electrical legend symbols: lichtpunt-plafond</title><desc>Elektrisch symbool; profiel nl; type light; variant ceiling.</desc><circle cx="32" cy="32" r="15"/><g stroke-width="0.8"><line x1="22" y1="22" x2="42" y2="42"/><line x1="42" y1="22" x2="22" y2="42"/></g></svg><text x="558" y="83" font-size="7.5" font-family="system-ui, -apple-system, Segoe UI, sans-serif" text-anchor="middle" fill="#78716c">lichtpunt-plafond</text><svg x="616" y="18" width="52" height="52" viewBox="0 0 64 64" xmlns="http://www.w3.org/2000/svg" fill="none" stroke="#000" stroke-width="1.6" stroke-linecap="round" stroke-linejoin="round"><title>Dutch electrical legend symbols: lichtpunt-wand</title><desc>Elektrisch symbool; profiel nl; type light; variant wall.</desc><path d="M18 42 A14 14 0 0 1 46 42"/><line x1="18" y1="42" x2="46" y2="42"/><g stroke-width="0.8"><line x1="32" y1="18" x2="32" y2="28"/><line x1="25" y1="21" x2="28" y2="29"/><line x1="39" y1="21" x2="36" y2="29"/></g></svg><text x="642" y="83" font-size="7.5" font-family="system-ui, -apple-system, Segoe UI, sans-serif" text-anchor="middle" fill="#78716c">lichtpunt-wand</text><svg x="28" y="116" width="52" height="52" viewBox="0 0 64 64" xmlns="http://www.w3.org/2000/svg" fill="none" stroke="#000" stroke-width="1.6" stroke-linecap="round" stroke-linejoin="round"><title>Dutch electrical legend symbols: loze-leiding</title><desc>Elektrisch symbool; profiel nl; type conduit; variant spare.</desc><path d="M10 44 C20 18 44 18 54 44" stroke-dasharray="5 3"/><g stroke-width="0.8"><circle cx="10" cy="44" r="3"/><circle cx="54" cy="44" r="3"/><line x1="28" y1="28" x2="36" y2="28"/></g></svg><text x="54" y="181" font-size="7.5" font-family="system-ui, -apple-system, Segoe UI, sans-serif" text-anchor="middle" fill="#78716c">loze-leiding</text><svg x="112" y="116" width="52" height="52" viewBox="0 0 64 64" xmlns="http://www.w3.org/2000/svg" fill="none" stroke="#000" stroke-width="1.6" stroke-linecap="round" stroke-linejoin="round"><title>Dutch electrical legend symbols: meterkast</title><desc>Elektrisch symbool; profiel nl; type board; variant basis.</desc><rect x="12" y="12" width="40" height="40" rx="3"/><line x1="32" y1="12" x2="32" y2="52"/><g stroke-width="0.8"><line x1="18" y1="21" x2="46" y2="21"/><line x1="18" y1="28" x2="46" y2="28"/><line x1="18" y1="36" x2="46" y2="36"/><line x1="18" y1="43" x2="46" y2="43"/></g></svg><text x="138" y="181" font-size="7.5" font-family="system-ui, -apple-system, Segoe UI, sans-serif" text-anchor="middle" fill="#78716c">meterkast</text><svg x="196" y="116" width="52" height="52" viewBox="0 0 64 64" xmlns="http://www.w3.org/2000/svg" fill="none" stroke="#000" stroke-width="1.6" stroke-linecap="round" stroke-linejoin="round"><title>Dutch electrical legend symbols: schakelaar-enkelpolig</title><desc>Elektrisch symbool; profiel nl; type switch; variant one-way.</desc><circle cx="18" cy="44" r="3"/><circle cx="44" cy="22" r="2.2"/><g stroke-width="0.8"><line x1="21" y1="41" x2="41" y2="25"/></g></svg><text x="222" y="181" font-size="7.5" font-family="system-ui, -apple-system, Segoe UI, sans-serif" text-anchor="middle" fill="#78716c">schakelaar-enkelpolig</text><svg x="280" y="116" width="52" height="52" viewBox="0 0 64 64" xmlns="http://www.w3.org/2000/svg" fill="none" stroke="#000" stroke-width="1.6" stroke-linecap="round" stroke-linejoin="round"><title>Dutch electrical legend symbols: schel</title><desc>Elektrisch symbool; profiel nl; type alarm; variant audible.</desc><path d="M14 38 H23 L38 48 V16 L23 26 H14 Z"/><g stroke-width="0.8"><path d="M43 24 A11 11 0 0 1 43 40 M48 19 A18 18 0 0 1 48 45"/></g></svg><text x="306" y="181" font-size="7.5" font-family="system-ui, -apple-system, Segoe UI, sans-serif" text-anchor="middle" fill="#78716c">schel</text><svg x="364" y="116" width="52" height="52" viewBox="0 0 64 64" xmlns="http://www.w3.org/2000/svg" fill="none" stroke="#000" stroke-width="1.6" stroke-linecap="round" stroke-linejoin="round"><title>Dutch electrical legend symbols: serieschakelaar</title><desc>Elektrisch symbool; profiel nl; type switch; variant double.</desc><circle cx="18" cy="44" r="3"/><circle cx="44" cy="22" r="2.2"/><circle cx="48" cy="30" r="2.2"/><g stroke-width="0.8"><line x1="21" y1="41" x2="41" y2="25"/></g></svg><text x="390" y="181" font-size="7.5" font-family="system-ui, -apple-system, Segoe UI, sans-serif" text-anchor="middle" fill="#78716c">serieschakelaar</text><svg x="448" y="116" width="52" height="52" viewBox="0 0 64 64" xmlns="http://www.w3.org/2000/svg" fill="none" stroke="#000" stroke-width="1.6" stroke-linecap="round" stroke-linejoin="round"><title>Dutch electrical legend symbols: tl-armatuur</title><desc>Elektrisch symbool; profiel nl; type light; variant linear.</desc><rect x="9" y="25" width="46" height="14" rx="2"/><g stroke-width="0.8"><line x1="14" y1="29" x2="50" y2="29"/><line x1="14" y1="35" x2="50" y2="35"/></g></svg><text x="474" y="181" font-size="7.5" font-family="system-ui, -apple-system, Segoe UI, sans-serif" text-anchor="middle" fill="#78716c">tl-armatuur</text><svg x="532" y="116" width="52" height="52" viewBox="0 0 64 64" xmlns="http://www.w3.org/2000/svg" fill="none" stroke="#000" stroke-width="1.6" stroke-linecap="round" stroke-linejoin="round"><title>Dutch electrical legend symbols: wcd-dubbel</title><desc>Elektrisch symbool; profiel nl; type socket; variant double.</desc><path d="M16 39 A16 16 0 0 1 48 39"/><line x1="28" y1="24" x2="28" y2="12"/><line x1="36" y1="24" x2="36" y2="12"/><g stroke-width="0.8"><line x1="24" y1="47" x2="40" y2="47"/></g></svg><text x="558" y="181" font-size="7.5" font-family="system-ui, -apple-system, Segoe UI, sans-serif" text-anchor="middle" fill="#78716c">wcd-dubbel</text><svg x="616" y="116" width="52" height="52" viewBox="0 0 64 64" xmlns="http://www.w3.org/2000/svg" fill="none" stroke="#000" stroke-width="1.6" stroke-linecap="round" stroke-linejoin="round"><title>Dutch electrical legend symbols: wcd-enkel</title><desc>Elektrisch symbool; profiel nl; type socket; variant single.</desc><path d="M16 39 A16 16 0 0 1 48 39"/><line x1="32" y1="24" x2="32" y2="12"/><g stroke-width="0.8"><line x1="24" y1="47" x2="40" y2="47"/></g></svg><text x="642" y="181" font-size="7.5" font-family="system-ui, -apple-system, Segoe UI, sans-serif" text-anchor="middle" fill="#78716c">wcd-enkel</text><svg x="28" y="214" width="52" height="52" viewBox="0 0 64 64" xmlns="http://www.w3.org/2000/svg" fill="none" stroke="#000" stroke-width="1.6" stroke-linecap="round" stroke-linejoin="round"><title>Dutch electrical legend symbols: wcd-randaarde</title><desc>Elektrisch symbool; profiel nl; type socket; variant single, earthed.</desc><path d="M16 39 A16 16 0 0 1 48 39"/><line x1="32" y1="24" x2="32" y2="12"/><g stroke-width="0.8"><line x1="24" y1="14" x2="40" y2="14"/><line x1="27" y1="18" x2="37" y2="18" stroke-dasharray="1 2"/></g></svg><text x="54" y="279" font-size="7.5" font-family="system-ui, -apple-system, Segoe UI, sans-serif" text-anchor="middle" fill="#78716c">wcd-randaarde</text><svg x="112" y="214" width="52" height="52" viewBox="0 0 64 64" xmlns="http://www.w3.org/2000/svg" fill="none" stroke="#000" stroke-width="1.6" stroke-linecap="round" stroke-linejoin="round"><title>Dutch electrical legend symbols: wcd-spatwaterdicht</title><desc>Elektrisch symbool; profiel nl; type socket; variant single, weatherproof.</desc><path d="M16 39 A16 16 0 0 1 48 39"/><line x1="32" y1="24" x2="32" y2="12"/><g stroke-width="0.8"><path d="M14 43 A20 20 0 0 0 50 43"/></g></svg><text x="138" y="279" font-size="7.5" font-family="system-ui, -apple-system, Segoe UI, sans-serif" text-anchor="middle" fill="#78716c">wcd-spatwaterdicht</text><svg x="196" y="214" width="52" height="52" viewBox="0 0 64 64" xmlns="http://www.w3.org/2000/svg" fill="none" stroke="#000" stroke-width="1.6" stroke-linecap="round" stroke-linejoin="round"><title>Dutch electrical legend symbols: wisselschakelaar</title><desc>Elektrisch symbool; profiel nl; type switch; variant two-way.</desc><circle cx="18" cy="44" r="3"/><circle cx="44" cy="22" r="2.2"/><circle cx="48" cy="30" r="2.2"/><g stroke-width="0.8"><line x1="21" y1="41" x2="41" y2="25"/></g></svg><text x="222" y="279" font-size="7.5" font-family="system-ui, -apple-system, Segoe UI, sans-serif" text-anchor="middle" fill="#78716c">wisselschakelaar</text></svg>
