<svg viewBox="0 0 696 220" width="696" xmlns="http://www.w3.org/2000/svg"><rect x="0" y="0" width="696" height="220" rx="8" fill="#ffffff" stroke="#d6d3cd"/><svg x="28" y="18" width="52" height="52" viewBox="0 0 64 64" xmlns="http://www.w3.org/2000/svg" fill="none" stroke="#000" stroke-width="1.8"><rect x="6" y="17" width="52" height="34"/><line x1="6" y1="47.6" x2="58" y2="47.6"/><line x1="-1.8" y1="34" x2="65.8" y2="34" stroke-width="0.9" stroke-dasharray="6 2.2 1.4 2.2"/><text x="61" y="9" font-size="8" font-weight="bold" text-anchor="end" fill="#000" stroke="none">RSA ELEV</text></svg><text x="54" y="83" font-size="7.5" font-family="system-ui, -apple-system, Segoe UI, sans-serif" text-anchor="middle" fill="#78716c">angle-elevation</text><svg x="112" y="18" width="52" height="52" viewBox="0 0 64 64" xmlns="http://www.w3.org/2000/svg" fill="none" stroke="#000" stroke-width="1.8"><rect x="6" y="17" width="52" height="34"/><line x1="6" y1="20.0" x2="58" y2="20.0"/><line x1="6" y1="48.0" x2="58" y2="48.0"/><line x1="-1.8" y1="34" x2="65.8" y2="34" stroke-width="0.9" stroke-dasharray="6 2.2 1.4 2.2"/><text x="61" y="9" font-size="8" font-weight="bold" text-anchor="end" fill="#000" stroke="none">PFC ELEV</text></svg><text x="138" y="83" font-size="7.5" font-family="system-ui, -apple-system, Segoe UI, sans-serif" text-anchor="middle" fill="#78716c">channel-elevation</text><svg x="196" y="18" width="52" height="52" viewBox="0 0 64 64" xmlns="http://www.w3.org/2000/svg" fill="none" stroke="#000" stroke-width="1.8"><circle cx="32" cy="33" r="21.0"/><circle cx="32" cy="33" r="17.5"/><line x1="4.7" y1="33.0" x2="59.3" y2="33.0" stroke-width="0.9" stroke-dasharray="6 2.2 1.4 2.2"/><line x1="32.0" y1="5.7" x2="32.0" y2="60.3" stroke-width="0.9" stroke-dasharray="6 2.2 1.4 2.2"/><text x="61" y="9" font-size="8" font-weight="bold" text-anchor="end" fill="#000" stroke="none">CHS</text></svg><text x="222" y="83" font-size="7.5" font-family="system-ui, -apple-system, Segoe UI, sans-serif" text-anchor="middle" fill="#78716c">chs</text><svg x="280" y="18" width="52" height="52" viewBox="0 0 64 64" xmlns="http://www.w3.org/2000/svg" fill="none" stroke="#000" stroke-width="1.8"><rect x="11.0" y="30.9" width="42.0" height="4.2"/><line x1="4.7" y1="33.0" x2="59.3" y2="33.0" stroke-width="0.9" stroke-dasharray="6 2.2 1.4 2.2"/><line x1="32.0" y1="30.3" x2="32.0" y2="35.7" stroke-width="0.9" stroke-dasharray="6 2.2 1.4 2.2"/><text x="61" y="9" font-size="8" font-weight="bold" text-anchor="end" fill="#000" stroke="none">FLAT</text></svg><text x="306" y="83" font-size="7.5" font-family="system-ui, -apple-system, Segoe UI, sans-serif" text-anchor="middle" fill="#78716c">flat</text><svg x="364" y="18" width="52" height="52" viewBox="0 0 64 64" xmlns="http://www.w3.org/2000/svg" fill="none" stroke="#000" stroke-width="1.8"><rect x="6" y="17" width="52" height="34"/><line x1="6" y1="20.0" x2="58" y2="20.0" stroke-dasharray="6 3.5"/><line x1="6" y1="48.0" x2="58" y2="48.0" stroke-dasharray="6 3.5"/><line x1="-1.8" y1="34" x2="65.8" y2="34" stroke-width="0.9" stroke-dasharray="6 2.2 1.4 2.2"/><text x="61" y="9" font-size="8" font-weight="bold" text-anchor="end" fill="#000" stroke="none">SHS ELEV</text></svg><text x="390" y="83" font-size="7.5" font-family="system-ui, -apple-system, Segoe UI, sans-serif" text-anchor="middle" fill="#78716c">hollow-section-elevation</text><svg x="448" y="18" width="52" height="52" viewBox="0 0 64 64" xmlns="http://www.w3.org/2000/svg" fill="none" stroke="#000" stroke-width="1.8"><rect x="6" y="17" width="52" height="34"/><line x1="6" y1="20.0" x2="58" y2="20.0"/><line x1="6" y1="48.0" x2="58" y2="48.0"/><line x1="-1.8" y1="34" x2="65.8" y2="34" stroke-width="0.9" stroke-dasharray="6 2.2 1.4 2.2"/><text x="61" y="9" font-size="8" font-weight="bold" text-anchor="end" fill="#000" stroke="none">UB ELEV</text></svg><text x="474" y="83" font-size="7.5" font-family="system-ui, -apple-system, Segoe UI, sans-serif" text-anchor="middle" fill="#78716c">i-beam-elevation</text><svg x="532" y="18" width="52" height="52" viewBox="0 0 64 64" xmlns="http://www.w3.org/2000/svg" fill="none" stroke="#000" stroke-width="1.8"><path d="M22.55 12.00 L41.45 12.00 L41.45 15.50 L28.57 15.50 L28.57 15.50 L27.79 15.62 L27.09 15.98 L26.53 16.54 L26.17 17.24 L26.05 18.02 L26.05 47.98 L26.05 47.98 L26.17 48.76 L26.53 49.46 L27.09 50.02 L27.79 50.38 L28.57 50.50 L41.45 50.50 L41.45 54.00 L22.55 54.00 Z"/><line x1="19.7" y1="33.0" x2="44.3" y2="33.0" stroke-width="0.9" stroke-dasharray="6 2.2 1.4 2.2"/><line x1="32.0" y1="5.7" x2="32.0" y2="60.3" stroke-width="0.9" stroke-dasharray="6 2.2 1.4 2.2"/><text x="61" y="9" font-size="8" font-weight="bold" text-anchor="end" fill="#000" stroke="none">PFC</text></svg><text x="558" y="83" font-size="7.5" font-family="system-ui, -apple-system, Segoe UI, sans-serif" text-anchor="middle" fill="#78716c">pfc</text><svg x="616" y="18" width="52" height="52" viewBox="0 0 64 64" xmlns="http://www.w3.org/2000/svg" fill="none" stroke="#000" stroke-width="1.8"><path d="M11.00 23.48 L11.22 22.10 L11.86 20.85 L12.85 19.86 L14.10 19.22 L15.48 19.00 L48.52 19.00 L49.90 19.22 L51.15 19.86 L52.14 20.85 L52.78 22.10 L53.00 23.48 L53.00 42.52 L52.78 43.90 L52.14 45.15 L51.15 46.14 L49.90 46.78 L48.52 47.00 L15.48 47.00 L14.10 46.78 L12.85 46.14 L11.86 45.15 L11.22 43.90 L11.00 42.52 Z"/><path d="M14.50 23.48 L14.55 23.18 L14.69 22.90 L14.90 22.69 L15.18 22.55 L15.48 22.50 L48.52 22.50 L48.82 22.55 L49.10 22.69 L49.31 22.90 L49.45 23.18 L49.50 23.48 L49.50 42.52 L49.45 42.82 L49.31 43.10 L49.10 43.31 L48.82 43.45 L48.52 43.50 L15.48 43.50 L15.18 43.45 L14.90 43.31 L14.69 43.10 L14.55 42.82 L14.50 42.52 Z"/><line x1="4.7" y1="33.0" x2="59.3" y2="33.0" stroke-width="0.9" stroke-dasharray="6 2.2 1.4 2.2"/><line x1="32.0" y1="14.8" x2="32.0" y2="51.2" stroke-width="0.9" stroke-dasharray="6 2.2 1.4 2.2"/><text x="61" y="9" font-size="8" font-weight="bold" text-anchor="end" fill="#000" stroke="none">RHS</text></svg><text x="642" y="83" font-size="7.5" font-family="system-ui, -apple-system, Segoe UI, sans-serif" text-anchor="middle" fill="#78716c">rhs</text><svg x="28" y="116" width="52" height="52" viewBox="0 0 64 64" xmlns="http://www.w3.org/2000/svg" fill="none" stroke="#000" stroke-width="1.8"><path d="M11.00 12.00 L15.20 12.00 L15.20 44.76 L15.20 44.76 L15.45 46.32 L16.16 47.72 L17.28 48.84 L18.68 49.55 L20.24 49.80 L53.00 49.80 L53.00 54.00 L11.00 54.00 Z"/><line x1="4.7" y1="33.0" x2="59.3" y2="33.0" stroke-width="0.9" stroke-dasharray="6 2.2 1.4 2.2"/><line x1="32.0" y1="5.7" x2="32.0" y2="60.3" stroke-width="0.9" stroke-dasharray="6 2.2 1.4 2.2"/><text x="61" y="9" font-size="8" font-weight="bold" text-anchor="end" fill="#000" stroke="none">RSA</text></svg><text x="54" y="181" font-size="7.5" font-family="system-ui, -apple-system, Segoe UI, sans-serif" text-anchor="middle" fill="#78716c">rsa-equal</text><svg x="112" y="116" width="52" height="52" viewBox="0 0 64 64" xmlns="http://www.w3.org/2000/svg" fill="none" stroke="#000" stroke-width="1.8"><path d="M19.40 12.00 L22.90 12.00 L22.90 47.14 L22.90 47.14 L23.06 48.18 L23.54 49.11 L24.29 49.86 L25.22 50.34 L26.26 50.50 L44.60 50.50 L44.60 54.00 L19.40 54.00 Z"/><line x1="15.6" y1="33.0" x2="48.4" y2="33.0" stroke-width="0.9" stroke-dasharray="6 2.2 1.4 2.2"/><line x1="32.0" y1="5.7" x2="32.0" y2="60.3" stroke-width="0.9" stroke-dasharray="6 2.2 1.4 2.2"/><text x="61" y="9" font-size="8" font-weight="bold" text-anchor="end" fill="#000" stroke="none">RSA</text></svg><text x="138" y="181" font-size="7.5" font-family="system-ui, -apple-system, Segoe UI, sans-serif" text-anchor="middle" fill="#78716c">rsa-unequal</text><svg x="196" y="116" width="52" height="52" viewBox="0 0 64 64" xmlns="http://www.w3.org/2000/svg" fill="none" stroke="#000" stroke-width="1.8"><path d="M11.00 18.72 L11.33 16.64 L12.28 14.77 L13.77 13.28 L15.64 12.33 L17.72 12.00 L46.28 12.00 L48.36 12.33 L50.23 13.28 L51.72 14.77 L52.67 16.64 L53.00 18.72 L53.00 47.28 L52.67 49.36 L51.72 51.23 L50.23 52.72 L48.36 53.67 L46.28 54.00 L17.72 54.00 L15.64 53.67 L13.77 52.72 L12.28 51.23 L11.33 49.36 L11.00 47.28 Z"/><path d="M14.50 18.72 L14.66 17.72 L15.11 16.83 L15.83 16.11 L16.72 15.66 L17.72 15.50 L46.28 15.50 L47.28 15.66 L48.17 16.11 L48.89 16.83 L49.34 17.72 L49.50 18.72 L49.50 47.28 L49.34 48.28 L48.89 49.17 L48.17 49.89 L47.28 50.34 L46.28 50.50 L17.72 50.50 L16.72 50.34 L15.83 49.89 L15.11 49.17 L14.66 48.28 L14.50 47.28 Z"/><line x1="4.7" y1="33.0" x2="59.3" y2="33.0" stroke-width="0.9" stroke-dasharray="6 2.2 1.4 2.2"/><line x1="32.0" y1="5.7" x2="32.0" y2="60.3" stroke-width="0.9" stroke-dasharray="6 2.2 1.4 2.2"/><text x="61" y="9" font-size="8" font-weight="bold" text-anchor="end" fill="#000" stroke="none">SHS</text></svg><text x="222" y="181" font-size="7.5" font-family="system-ui, -apple-system, Segoe UI, sans-serif" text-anchor="middle" fill="#78716c">shs</text><svg x="280" y="116" width="52" height="52" viewBox="0 0 64 64" xmlns="http://www.w3.org/2000/svg" fill="none" stroke="#000" stroke-width="1.8"><rect x="6" y="17" width="52" height="34"/><line x1="6" y1="20.0" x2="58" y2="20.0"/><line x1="-1.8" y1="34" x2="65.8" y2="34" stroke-width="0.9" stroke-dasharray="6 2.2 1.4 2.2"/><text x="61" y="9" font-size="8" font-weight="bold" text-anchor="end" fill="#000" stroke="none">T ELEV</text></svg><text x="306" y="181" font-size="7.5" font-family="system-ui, -apple-system, Segoe UI, sans-serif" text-anchor="middle" fill="#78716c">tee-elevation</text><svg x="364" y="116" width="52" height="52" viewBox="0 0 64 64" xmlns="http://www.w3.org/2000/svg" fill="none" stroke="#000" stroke-width="1.8"><path d="M11.00 13.91 L53.00 13.91 L53.00 17.41 L36.02 17.41 L36.02 17.41 L35.32 17.52 L34.68 17.84 L34.18 18.34 L33.86 18.97 L33.75 19.67 L33.75 52.09 L30.25 52.09 L30.25 19.67 L30.25 19.67 L30.14 18.97 L29.82 18.34 L29.32 17.84 L28.68 17.52 L27.98 17.41 L11.00 17.41 Z"/><line x1="4.7" y1="33.0" x2="59.3" y2="33.0" stroke-width="0.9" stroke-dasharray="6 2.2 1.4 2.2"/><line x1="32.0" y1="8.2" x2="32.0" y2="57.8" stroke-width="0.9" stroke-dasharray="6 2.2 1.4 2.2"/><text x="61" y="9" font-size="8" font-weight="bold" text-anchor="end" fill="#000" stroke="none">T</text></svg><text x="390" y="181" font-size="7.5" font-family="system-ui, -apple-system, Segoe UI, sans-serif" text-anchor="middle" fill="#78716c">tee</text><svg x="448" y="116" width="52" height="52" viewBox="0 0 64 64" xmlns="http://www.w3.org/2000/svg" fill="none" stroke="#000" stroke-width="1.8"><path d="M20.56 12.00 L43.44 12.00 L43.44 15.50 L35.75 15.50 L35.75 15.50 L35.13 15.60 L34.57 15.88 L34.13 16.32 L33.85 16.88 L33.75 17.50 L33.75 48.50 L33.75 48.50 L33.85 49.12 L34.13 49.68 L34.57 50.12 L35.13 50.40 L35.75 50.50 L43.44 50.50 L43.44 54.00 L20.56 54.00 L20.56 50.50 L28.25 50.50 L28.25 50.50 L28.87 50.40 L29.43 50.12 L29.87 49.68 L30.15 49.12 L30.25 48.50 L30.25 17.50 L30.25 17.50 L30.15 16.88 L29.87 16.32 L29.43 15.88 L28.87 15.60 L28.25 15.50 L20.56 15.50 Z"/><line x1="17.1" y1="33.0" x2="46.9" y2="33.0" stroke-width="0.9" stroke-dasharray="6 2.2 1.4 2.2"/><line x1="32.0" y1="5.7" x2="32.0" y2="60.3" stroke-width="0.9" stroke-dasharray="6 2.2 1.4 2.2"/><text x="61" y="9" font-size="8" font-weight="bold" text-anchor="end" fill="#000" stroke="none">UB</text></svg><text x="474" y="181" font-size="7.5" font-family="system-ui, -apple-system, Segoe UI, sans-serif" text-anchor="middle" fill="#78716c">ub</text><svg x="532" y="116" width="52" height="52" viewBox="0 0 64 64" xmlns="http://www.w3.org/2000/svg" fill="none" stroke="#000" stroke-width="1.8"><path d="M11.00 12.00 L53.00 12.00 L53.00 15.50 L35.86 15.50 L35.86 15.50 L35.21 15.60 L34.62 15.90 L34.15 16.37 L33.85 16.96 L33.75 17.61 L33.75 48.39 L33.75 48.39 L33.85 49.04 L34.15 49.63 L34.62 50.10 L35.21 50.40 L35.86 50.50 L53.00 50.50 L53.00 54.00 L11.00 54.00 L11.00 50.50 L28.14 50.50 L28.14 50.50 L28.79 50.40 L29.38 50.10 L29.85 49.63 L30.15 49.04 L30.25 48.39 L30.25 17.61 L30.25 17.61 L30.15 16.96 L29.85 16.37 L29.38 15.90 L28.79 15.60 L28.14 15.50 L11.00 15.50 Z"/><line x1="4.7" y1="33.0" x2="59.3" y2="33.0" stroke-width="0.9" stroke-dasharray="6 2.2 1.4 2.2"/><line x1="32.0" y1="5.7" x2="32.0" y2="60.3" stroke-width="0.9" stroke-dasharray="6 2.2 1.4 2.2"/><text x="61" y="9" font-size="8" font-weight="bold" text-anchor="end" fill="#000" stroke="none">UC</text></svg><text x="558" y="181" font-size="7.5" font-family="system-ui, -apple-system, Segoe UI, sans-serif" text-anchor="middle" fill="#78716c">uc</text></svg>
