<svg viewBox="0 0 696 220" width="696" xmlns="http://www.w3.org/2000/svg"><rect x="0" y="0" width="696" height="220" rx="8" fill="#ffffff" stroke="#d6d3cd"/><svg x="28" y="18" width="52" height="52" viewBox="0 0 64 64" xmlns="http://www.w3.org/2000/svg" fill="none" stroke="#000" stroke-width="1.6" stroke-linecap="round" stroke-linejoin="round"><title>UK electrical plan symbols: consumer-unit</title><desc>Elektrisch symbool; profiel uk; type board; variant basis.</desc><rect x="12" y="12" width="40" height="40" rx="3"/><line x1="32" y1="12" x2="32" y2="52"/><g stroke-width="0.8"><line x1="18" y1="21" x2="46" y2="21"/><line x1="18" y1="28" x2="46" y2="28"/><line x1="18" y1="36" x2="46" y2="36"/><line x1="18" y1="43" x2="46" y2="43"/></g></svg><text x="54" y="83" font-size="7.5" font-family="system-ui, -apple-system, Segoe UI, sans-serif" text-anchor="middle" fill="#78716c">consumer-unit</text><svg x="112" y="18" width="52" height="52" viewBox="0 0 64 64" xmlns="http://www.w3.org/2000/svg" fill="none" stroke="#000" stroke-width="1.6" stroke-linecap="round" stroke-linejoin="round"><title>UK electrical plan symbols: cooker-point</title><desc>Elektrisch symbool; profiel uk; type connection; variant high-power.</desc><circle cx="32" cy="32" r="19"/><line x1="20" y1="32" x2="44" y2="32"/><g stroke-width="0.8"><line x1="25" y1="25" x2="25" y2="39"/><line x1="32" y1="25" x2="32" y2="39"/><line x1="39" y1="25" x2="39" y2="39"/></g></svg><text x="138" y="83" font-size="7.5" font-family="system-ui, -apple-system, Segoe UI, sans-serif" text-anchor="middle" fill="#78716c">cooker-point</text><svg x="196" y="18" width="52" height="52" viewBox="0 0 64 64" xmlns="http://www.w3.org/2000/svg" fill="none" stroke="#000" stroke-width="1.6" stroke-linecap="round" stroke-linejoin="round"><title>UK electrical plan symbols: data-outlet</title><desc>Elektrisch symbool; profiel uk; type communication; variant data.</desc><rect x="14" y="18" width="36" height="28" rx="3"/><g stroke-width="0.8"><rect x="20" y="24" width="24" height="14" rx="2"/><line x1="24" y1="38" x2="24" y2="42"/><line x1="29" y1="38" x2="29" y2="42"/><line x1="35" y1="38" x2="35" y2="42"/><line x1="40" y1="38" x2="40" y2="42"/></g></svg><text x="222" y="83" font-size="7.5" font-family="system-ui, -apple-system, Segoe UI, sans-serif" text-anchor="middle" fill="#78716c">data-outlet</text><svg x="280" y="18" width="52" height="52" viewBox="0 0 64 64" xmlns="http://www.w3.org/2000/svg" fill="none" stroke="#000" stroke-width="1.6" stroke-linecap="round" stroke-linejoin="round"><title>UK electrical plan symbols: fused-connection-unit</title><desc>Elektrisch symbool; profiel uk; type isolator; variant fused.</desc><rect x="12" y="14" width="40" height="36" rx="4"/><rect x="25" y="27" width="14" height="8" rx="2"/><g stroke-width="0.8"><line x1="18" y1="32" x2="25" y2="32"/><line x1="39" y1="32" x2="46" y2="32"/></g></svg><text x="306" y="83" font-size="7.5" font-family="system-ui, -apple-system, Segoe UI, sans-serif" text-anchor="middle" fill="#78716c">fused-connection-unit</text><svg x="364" y="18" width="52" height="52" viewBox="0 0 64 64" xmlns="http://www.w3.org/2000/svg" fill="none" stroke="#000" stroke-width="1.6" stroke-linecap="round" stroke-linejoin="round"><title>UK electrical plan symbols: pendant-light</title><desc>Elektrisch symbool; profiel uk; type light; variant pendant.</desc><line x1="32" y1="8" x2="32" y2="24"/><circle cx="32" cy="35" r="11"/><g stroke-width="0.8"><path d="M24 42 H40 M27 46 H37"/></g></svg><text x="390" y="83" font-size="7.5" font-family="system-ui, -apple-system, Segoe UI, sans-serif" text-anchor="middle" fill="#78716c">pendant-light</text><svg x="448" y="18" width="52" height="52" viewBox="0 0 64 64" xmlns="http://www.w3.org/2000/svg" fill="none" stroke="#000" stroke-width="1.6" stroke-linecap="round" stroke-linejoin="round"><title>UK electrical plan symbols: shaver-socket</title><desc>Elektrisch symbool; profiel uk; type socket; variant single, shaver.</desc><path d="M16 39 A16 16 0 0 1 48 39"/><line x1="32" y1="24" x2="32" y2="12"/><g stroke-width="0.8"><path d="M32 45 L38 52 L32 59 L26 52 Z"/></g></svg><text x="474" y="83" font-size="7.5" font-family="system-ui, -apple-system, Segoe UI, sans-serif" text-anchor="middle" fill="#78716c">shaver-socket</text><svg x="532" y="18" width="52" height="52" viewBox="0 0 64 64" xmlns="http://www.w3.org/2000/svg" fill="none" stroke="#000" stroke-width="1.6" stroke-linecap="round" stroke-linejoin="round"><title>UK electrical plan symbols: socket-13a-double</title><desc>Elektrisch symbool; profiel uk; type socket; variant double.</desc><path d="M16 39 A16 16 0 0 1 48 39"/><line x1="28" y1="24" x2="28" y2="12"/><line x1="36" y1="24" x2="36" y2="12"/><g stroke-width="0.8"><line x1="24" y1="47" x2="40" y2="47"/></g></svg><text x="558" y="83" font-size="7.5" font-family="system-ui, -apple-system, Segoe UI, sans-serif" text-anchor="middle" fill="#78716c">socket-13a-double</text><svg x="616" y="18" width="52" height="52" viewBox="0 0 64 64" xmlns="http://www.w3.org/2000/svg" fill="none" stroke="#000" stroke-width="1.6" stroke-linecap="round" stroke-linejoin="round"><title>UK electrical plan symbols: socket-13a-single</title><desc>Elektrisch symbool; profiel uk; type socket; variant single.</desc><path d="M16 39 A16 16 0 0 1 48 39"/><line x1="32" y1="24" x2="32" y2="12"/><g stroke-width="0.8"><line x1="24" y1="47" x2="40" y2="47"/></g></svg><text x="642" y="83" font-size="7.5" font-family="system-ui, -apple-system, Segoe UI, sans-serif" text-anchor="middle" fill="#78716c">socket-13a-single</text><svg x="28" y="116" width="52" height="52" viewBox="0 0 64 64" xmlns="http://www.w3.org/2000/svg" fill="none" stroke="#000" stroke-width="1.6" stroke-linecap="round" stroke-linejoin="round"><title>UK electrical plan symbols: switch-1way</title><desc>Elektrisch symbool; profiel uk; type switch; variant one-way.</desc><circle cx="18" cy="44" r="3"/><circle cx="44" cy="22" r="2.2"/><g stroke-width="0.8"><line x1="21" y1="41" x2="41" y2="25"/></g></svg><text x="54" y="181" font-size="7.5" font-family="system-ui, -apple-system, Segoe UI, sans-serif" text-anchor="middle" fill="#78716c">switch-1way</text><svg x="112" y="116" width="52" height="52" viewBox="0 0 64 64" xmlns="http://www.w3.org/2000/svg" fill="none" stroke="#000" stroke-width="1.6" stroke-linecap="round" stroke-linejoin="round"><title>UK electrical plan symbols: switch-2way</title><desc>Elektrisch symbool; profiel uk; type switch; variant two-way.</desc><circle cx="18" cy="44" r="3"/><circle cx="44" cy="22" r="2.2"/><circle cx="48" cy="30" r="2.2"/><g stroke-width="0.8"><line x1="21" y1="41" x2="41" y2="25"/></g></svg><text x="138" y="181" font-size="7.5" font-family="system-ui, -apple-system, Segoe UI, sans-serif" text-anchor="middle" fill="#78716c">switch-2way</text><svg x="196" y="116" width="52" height="52" viewBox="0 0 64 64" xmlns="http://www.w3.org/2000/svg" fill="none" stroke="#000" stroke-width="1.6" stroke-linecap="round" stroke-linejoin="round"><title>UK electrical plan symbols: switch-intermediate</title><desc>Elektrisch symbool; profiel uk; type switch; variant four-way.</desc><circle cx="18" cy="44" r="3"/><circle cx="40" cy="18" r="2.2"/><circle cx="48" cy="26" r="2.2"/><circle cx="48" cy="38" r="2.2"/><circle cx="40" cy="46" r="2.2"/><g stroke-width="0.8"><line x1="21" y1="41" x2="37" y2="21"/></g></svg><text x="222" y="181" font-size="7.5" font-family="system-ui, -apple-system, Segoe UI, sans-serif" text-anchor="middle" fill="#78716c">switch-intermediate</text><svg x="280" y="116" width="52" height="52" viewBox="0 0 64 64" xmlns="http://www.w3.org/2000/svg" fill="none" stroke="#000" stroke-width="1.6" stroke-linecap="round" stroke-linejoin="round"><title>UK electrical plan symbols: switched-socket</title><desc>Elektrisch symbool; profiel uk; type socket; variant single, switched.</desc><path d="M16 39 A16 16 0 0 1 48 39"/><line x1="32" y1="24" x2="32" y2="12"/><g stroke-width="0.8"><circle cx="48" cy="18" r="2"/><line x1="46" y1="20" x2="40" y2="26"/></g></svg><text x="306" y="181" font-size="7.5" font-family="system-ui, -apple-system, Segoe UI, sans-serif" text-anchor="middle" fill="#78716c">switched-socket</text><svg x="364" y="116" width="52" height="52" viewBox="0 0 64 64" xmlns="http://www.w3.org/2000/svg" fill="none" stroke="#000" stroke-width="1.6" stroke-linecap="round" stroke-linejoin="round"><title>UK electrical plan symbols: tv-outlet</title><desc>Elektrisch symbool; profiel uk; type communication; variant television.</desc><circle cx="32" cy="32" r="20"/><circle cx="32" cy="32" r="8"/><g stroke-width="0.8"><line x1="26" y1="14" x2="32" y2="24"/><line x1="38" y1="14" x2="32" y2="24"/></g></svg><text x="390" y="181" font-size="7.5" font-family="system-ui, -apple-system, Segoe UI, sans-serif" text-anchor="middle" fill="#78716c">tv-outlet</text></svg>
