<svg viewBox="0 0 64 64" xmlns="http://www.w3.org/2000/svg" fill="none" stroke="#000" stroke-width="1.8"><path d="M11.00 18.30 L11.31 16.35 L12.20 14.60 L13.60 13.20 L15.35 12.31 L17.30 12.00 L46.70 12.00 L48.65 12.31 L50.40 13.20 L51.80 14.60 L52.69 16.35 L53.00 18.30 L53.00 47.70 L52.69 49.65 L51.80 51.40 L50.40 52.80 L48.65 53.69 L46.70 54.00 L17.30 54.00 L15.35 53.69 L13.60 52.80 L12.20 51.40 L11.31 49.65 L11.00 47.70 Z"/><path d="M14.50 18.30 L14.64 17.43 L15.03 16.65 L15.65 16.03 L16.43 15.64 L17.30 15.50 L46.70 15.50 L47.57 15.64 L48.35 16.03 L48.97 16.65 L49.36 17.43 L49.50 18.30 L49.50 47.70 L49.36 48.57 L48.97 49.35 L48.35 49.97 L47.57 50.36 L46.70 50.50 L17.30 50.50 L16.43 50.36 L15.65 49.97 L15.03 49.35 L14.64 48.57 L14.50 47.70 Z"/><line x1="4.7" y1="33.0" x2="59.3" y2="33.0" stroke-width="0.9" stroke-dasharray="6 2.2 1.4 2.2"/><line x1="32.0" y1="5.7" x2="32.0" y2="60.3" stroke-width="0.9" stroke-dasharray="6 2.2 1.4 2.2"/><text x="61" y="9" font-size="8" font-weight="bold" text-anchor="end" fill="#000" stroke="none">SHS</text></svg>
