<svg viewBox="0 0 64 64" xmlns="http://www.w3.org/2000/svg" fill="none" stroke="#000" stroke-width="1.5" stroke-linecap="round" stroke-linejoin="round"><title>Australian steel sections (AS/NZS): ub</title><desc>Catalogusgedreven doorsnede; vorm i.</desc><g stroke-width="0.7" stroke-dasharray="5 2 1 2"><line x1="6" y1="32" x2="58" y2="32"/><line x1="32" y1="6" x2="32" y2="58"/></g><path d="M17.888 6 L46.112 6 L46.112 7.745 L34.403 7.745 A1.882 1.882 0 0 0 32.522 9.626 L32.522 54.374 A1.882 1.882 0 0 0 34.403 56.255 L46.112 56.255 L46.112 58 L17.888 58 L17.888 56.255 L29.597 56.255 A1.882 1.882 0 0 0 31.478 54.374 L31.478 9.626 A1.882 1.882 0 0 0 29.597 7.745 L17.888 7.745 Z"/></svg>
