<svg viewBox="0 0 64 64" xmlns="http://www.w3.org/2000/svg" fill="none" stroke="#000" stroke-width="1.5" stroke-linecap="round" stroke-linejoin="round"><title>Australian steel sections (AS/NZS): uc</title><desc>Catalogusgedreven doorsnede; vorm i.</desc><g stroke-width="0.7" stroke-dasharray="5 2 1 2"><line x1="6" y1="32" x2="58" y2="32"/><line x1="32" y1="6" x2="32" y2="58"/></g><path d="M6 6 L58 6 L58 8.818 L35.753 8.818 A2.818 2.818 0 0 0 32.935 11.635 L32.935 52.365 A2.818 2.818 0 0 0 35.753 55.182 L58 55.182 L58 58 L6 58 L6 55.182 L28.247 55.182 A2.818 2.818 0 0 0 31.065 52.365 L31.065 11.635 A2.818 2.818 0 0 0 28.247 8.818 L6 8.818 Z"/></svg>
