<svg viewBox="0 0 64 64" xmlns="http://www.w3.org/2000/svg" fill="none" stroke="#000" stroke-width="1.8"><path d="M11.50 12.00 L52.50 12.00 L52.50 15.50 L36.03 15.50 L36.03 15.50 L35.33 15.61 L34.69 15.94 L34.19 16.44 L33.86 17.08 L33.75 17.78 L33.75 48.22 L33.75 48.22 L33.86 48.92 L34.19 49.56 L34.69 50.06 L35.33 50.39 L36.03 50.50 L52.50 50.50 L52.50 54.00 L11.50 54.00 L11.50 50.50 L27.97 50.50 L27.97 50.50 L28.67 50.39 L29.31 50.06 L29.81 49.56 L30.14 48.92 L30.25 48.22 L30.25 17.78 L30.25 17.78 L30.14 17.08 L29.81 16.44 L29.31 15.94 L28.67 15.61 L27.97 15.50 L11.50 15.50 Z"/><line x1="5.4" y1="33.0" x2="58.6" y2="33.0" stroke-width="0.9" stroke-dasharray="6 2.2 1.4 2.2"/><line x1="32.0" y1="5.7" x2="32.0" y2="60.3" stroke-width="0.9" stroke-dasharray="6 2.2 1.4 2.2"/><text x="61" y="9" font-size="8" font-weight="bold" text-anchor="end" fill="#000" stroke="none">UC</text></svg>
