<svg viewBox="0 0 64 64" xmlns="http://www.w3.org/2000/svg" fill="none" stroke="#000" stroke-width="1.5" stroke-linecap="round" stroke-linejoin="round"><title>Russian steel shapes (GOST): dvutavr-b</title><desc>Catalogusgedreven doorsnede; vorm i.</desc><g stroke-width="0.7" stroke-dasharray="5 2 1 2"><line x1="6" y1="32" x2="58" y2="32"/><line x1="32" y1="6" x2="32" y2="58"/></g><path d="M19 6 L45 6 L45 8.184 L35.146 8.184 A2.47 2.47 0 0 0 32.676 10.654 L32.676 53.346 A2.47 2.47 0 0 0 35.146 55.816 L45 55.816 L45 58 L19 58 L19 55.816 L28.854 55.816 A2.47 2.47 0 0 0 31.324 53.346 L31.324 10.654 A2.47 2.47 0 0 0 28.854 8.184 L19 8.184 Z"/></svg>
