<svg viewBox="0 0 64 64" xmlns="http://www.w3.org/2000/svg" fill="none" stroke="#000" stroke-width="1.8"><path d="M15.76 12.00 L48.24 12.00 L48.24 15.50 L36.56 15.50 L36.56 15.50 L35.69 15.64 L34.91 16.04 L34.29 16.66 L33.89 17.44 L33.75 18.31 L33.75 47.69 L33.75 47.69 L33.89 48.56 L34.29 49.34 L34.91 49.96 L35.69 50.36 L36.56 50.50 L48.24 50.50 L48.24 54.00 L15.76 54.00 L15.76 50.50 L27.44 50.50 L27.44 50.50 L28.31 50.36 L29.09 49.96 L29.71 49.34 L30.11 48.56 L30.25 47.69 L30.25 18.31 L30.25 18.31 L30.11 17.44 L29.71 16.66 L29.09 16.04 L28.31 15.64 L27.44 15.50 L15.76 15.50 Z"/><line x1="10.9" y1="33.0" x2="53.1" y2="33.0" stroke-width="0.9" stroke-dasharray="6 2.2 1.4 2.2"/><line x1="32.0" y1="5.7" x2="32.0" y2="60.3" stroke-width="0.9" stroke-dasharray="6 2.2 1.4 2.2"/><text x="61" y="9" font-size="8" font-weight="bold" text-anchor="end" fill="#000" stroke="none">HM</text></svg>
