<svg viewBox="0 0 64 64" xmlns="http://www.w3.org/2000/svg" fill="none" stroke="#000" stroke-width="1.5" stroke-linecap="round" stroke-linejoin="round"><title>Chinese steel shapes (GB): hn-shape</title><desc>Catalogusgedreven doorsnede; vorm i.</desc><g stroke-width="0.7" stroke-dasharray="5 2 1 2"><line x1="6" y1="32" x2="58" y2="32"/><line x1="32" y1="6" x2="32" y2="58"/></g><path d="M19 6 L45 6 L45 7.396 L34.748 7.396 A2.268 2.268 0 0 0 32.48 9.664 L32.48 54.336 A2.268 2.268 0 0 0 34.748 56.604 L45 56.604 L45 58 L19 58 L19 56.604 L29.252 56.604 A2.268 2.268 0 0 0 31.52 54.336 L31.52 9.664 A2.268 2.268 0 0 0 29.252 7.396 L19 7.396 Z"/></svg>
