<svg viewBox="0 0 64 64" xmlns="http://www.w3.org/2000/svg" fill="none" stroke="#000" stroke-width="1.8"><path d="M11.00 12.00 L53.00 12.00 L53.00 15.50 L36.48 15.50 L36.48 15.50 L35.64 15.63 L34.88 16.02 L34.27 16.63 L33.88 17.39 L33.75 18.23 L33.75 47.77 L33.75 47.77 L33.88 48.61 L34.27 49.37 L34.88 49.98 L35.64 50.37 L36.48 50.50 L53.00 50.50 L53.00 54.00 L11.00 54.00 L11.00 50.50 L27.52 50.50 L27.52 50.50 L28.36 50.37 L29.12 49.98 L29.73 49.37 L30.12 48.61 L30.25 47.77 L30.25 18.23 L30.25 18.23 L30.12 17.39 L29.73 16.63 L29.12 16.02 L28.36 15.63 L27.52 15.50 L11.00 15.50 Z"/><line x1="4.7" y1="33.0" x2="59.3" y2="33.0" stroke-width="0.9" stroke-dasharray="6 2.2 1.4 2.2"/><line x1="32.0" y1="5.7" x2="32.0" y2="60.3" stroke-width="0.9" stroke-dasharray="6 2.2 1.4 2.2"/><text x="61" y="9" font-size="8" font-weight="bold" text-anchor="end" fill="#000" stroke="none">HW</text></svg>
