<svg viewBox="0 0 64 64" xmlns="http://www.w3.org/2000/svg" fill="none" stroke="#000" stroke-width="1.5" stroke-linecap="round" stroke-linejoin="round"><title>Chinese steel shapes (GB): i-beam</title><desc>Catalogusgedreven doorsnede; vorm i.</desc><g stroke-width="0.7" stroke-dasharray="5 2 1 2"><line x1="6" y1="32" x2="58" y2="32"/><line x1="32" y1="6" x2="32" y2="58"/></g><path d="M19 6 L45 6 L45 8.964 L35.25 8.964 A2.34 2.34 0 0 0 32.91 11.304 L32.91 52.696 A2.34 2.34 0 0 0 35.25 55.036 L45 55.036 L45 58 L19 58 L19 55.036 L28.75 55.036 A2.34 2.34 0 0 0 31.09 52.696 L31.09 11.304 A2.34 2.34 0 0 0 28.75 8.964 L19 8.964 Z"/></svg>
