<svg viewBox="0 0 64 64" xmlns="http://www.w3.org/2000/svg" fill="none" stroke="#000" stroke-width="1.8"><path d="M21.50 12.00 L42.50 12.00 L42.50 15.50 L35.75 15.50 L35.75 15.50 L35.13 15.60 L34.57 15.88 L34.13 16.32 L33.85 16.88 L33.75 17.50 L33.75 48.50 L33.75 48.50 L33.85 49.12 L34.13 49.68 L34.57 50.12 L35.13 50.40 L35.75 50.50 L42.50 50.50 L42.50 54.00 L21.50 54.00 L21.50 50.50 L28.25 50.50 L28.25 50.50 L28.87 50.40 L29.43 50.12 L29.87 49.68 L30.15 49.12 L30.25 48.50 L30.25 17.50 L30.25 17.50 L30.15 16.88 L29.87 16.32 L29.43 15.88 L28.87 15.60 L28.25 15.50 L21.50 15.50 Z"/><line x1="18.4" y1="33.0" x2="45.6" y2="33.0" stroke-width="0.9" stroke-dasharray="6 2.2 1.4 2.2"/><line x1="32.0" y1="5.7" x2="32.0" y2="60.3" stroke-width="0.9" stroke-dasharray="6 2.2 1.4 2.2"/><text x="61" y="9" font-size="8" font-weight="bold" text-anchor="end" fill="#000" stroke="none">I</text></svg>
