<svg viewBox="0 0 64 64" xmlns="http://www.w3.org/2000/svg"><rect x="5" y="5" width="54" height="54" rx="4" fill="#00854d"/><g transform="rotate(0 32 32)"><path d="M13 13 L23 23 M23 23 L16.2 21.2 M23 23 L21.2 16.2" fill="none" stroke="#fff" stroke-width="3" stroke-linecap="round" stroke-linejoin="round"/></g><g transform="rotate(90 32 32)"><path d="M13 13 L23 23 M23 23 L16.2 21.2 M23 23 L21.2 16.2" fill="none" stroke="#fff" stroke-width="3" stroke-linecap="round" stroke-linejoin="round"/></g><g transform="rotate(180 32 32)"><path d="M13 13 L23 23 M23 23 L16.2 21.2 M23 23 L21.2 16.2" fill="none" stroke="#fff" stroke-width="3" stroke-linecap="round" stroke-linejoin="round"/></g><g transform="rotate(270 32 32)"><path d="M13 13 L23 23 M23 23 L16.2 21.2 M23 23 L21.2 16.2" fill="none" stroke="#fff" stroke-width="3" stroke-linecap="round" stroke-linejoin="round"/></g><circle cx="28" cy="26.8" r="2.3" fill="#fff"/><path d="M25.4 35.5 q0 -6 2.6 -6 q2.6 0 2.6 6 z" fill="#fff"/><circle cx="36" cy="26.8" r="2.3" fill="#fff"/><path d="M33.4 35.5 q0 -6 2.6 -6 q2.6 0 2.6 6 z" fill="#fff"/><circle cx="28" cy="36.8" r="2.3" fill="#fff"/><path d="M25.4 45.5 q0 -6 2.6 -6 q2.6 0 2.6 6 z" fill="#fff"/><circle cx="36" cy="36.8" r="2.3" fill="#fff"/><path d="M33.4 45.5 q0 -6 2.6 -6 q2.6 0 2.6 6 z" fill="#fff"/></svg>
