<svg viewBox="0 0 64 64" xmlns="http://www.w3.org/2000/svg"><rect x="5" y="5" width="54" height="54" rx="4" fill="#00854d"/><path d="M25 12 c3.2 4.5 3.2 8 0 8 c-3.2 0 -3.2 -3.5 0 -8 z" fill="#fff"/><path d="M32 9 c3.2 4.5 3.2 8 0 8 c-3.2 0 -3.2 -3.5 0 -8 z" fill="#fff"/><path d="M39 12 c3.2 4.5 3.2 8 0 8 c-3.2 0 -3.2 -3.5 0 -8 z" fill="#fff"/><path d="M15 38 Q32 26 49 38 Q32 50 15 38 Z" fill="none" stroke="#fff" stroke-width="2.8" stroke-linecap="round" stroke-linejoin="round"/><circle cx="32" cy="38" r="4.5" fill="#fff"/></svg>
