<svg viewBox="0 0 64 64" xmlns="http://www.w3.org/2000/svg"><circle cx="32" cy="32" r="27" fill="#0054a6"/><path d="M17 11 h14 q6 0 6 6 v3" fill="none" stroke="#fff" stroke-width="3.2" stroke-linecap="round" stroke-linejoin="round"/><path d="M37 23 c2.8800000000000003 4.05 2.8800000000000003 7.2 0 7.2 c-2.8800000000000003 0 -2.8800000000000003 -3.15 0 -7.2 z" fill="#fff"/><path d="M31 27 c2.5600000000000005 3.6 2.5600000000000005 6.4 0 6.4 c-2.5600000000000005 0 -2.5600000000000005 -2.8000000000000003 0 -6.4 z" fill="#fff"/><g transform="translate(9 14) scale(0.78)"><rect x="26" y="34" width="20" height="15" rx="6" fill="#fff"/><rect x="26" y="23" width="4.6" height="17" rx="2.3" fill="#fff"/><rect x="31.2" y="18" width="4.6" height="22" rx="2.3" fill="#fff"/><rect x="36.4" y="21" width="4.6" height="19" rx="2.3" fill="#fff"/><rect x="41.6" y="26.5" width="4.6" height="13.5" rx="2.3" fill="#fff"/><rect x="20" y="30" width="4.6" height="12" rx="2.3" fill="#fff" transform="rotate(35 22.3 36)"/></g></svg>
