<svg viewBox="0 0 64 64" xmlns="http://www.w3.org/2000/svg"><path d="M32 6 L60 55 L4 55 Z" fill="#f7ce00" stroke="#000" stroke-width="3" stroke-linejoin="round"/><path d="M32 37 L44.0 37.0 M39.5 37.0 l2.8 2.8 M39.5 37.0 l2.8 -2.8 M32 37 L38.0 47.4 M35.8 43.5 l-1.0 3.9 M35.8 43.5 l3.9 1.0 M32 37 L26.0 47.4 M28.3 43.5 l-3.9 1.0 M28.3 43.5 l1.0 3.9 M32 37 L20.0 37.0 M24.5 37.0 l-2.8 -2.8 M24.5 37.0 l-2.8 2.8 M32 37 L26.0 26.6 M28.2 30.5 l1.0 -3.9 M28.2 30.5 l-3.9 -1.0 M32 37 L38.0 26.6 M35.8 30.5 l3.9 -1.0 M35.8 30.5 l-1.0 -3.9" fill="none" stroke="#000" stroke-width="2.4" stroke-linecap="round" stroke-linejoin="round"/></svg>
