<svg viewBox="0 0 64 64" xmlns="http://www.w3.org/2000/svg"><path d="M32 6 L60 55 L4 55 Z" fill="#f7ce00" stroke="#000" stroke-width="3" stroke-linejoin="round"/><circle cx="32" cy="35" r="2.4" fill="#000"/><path d="M29.8 31.1 L25.8 24.2 A12.5 12.5 0 0 1 38.3 24.2 L34.3 31.1 A4.5 4.5 0 0 0 29.8 31.1 Z" fill="#000"/><path d="M36.5 35.0 L44.5 35.0 A12.5 12.5 0 0 1 38.3 45.8 L34.3 38.9 A4.5 4.5 0 0 0 36.5 35.0 Z" fill="#000"/><path d="M29.8 38.9 L25.8 45.8 A12.5 12.5 0 0 1 19.5 35.0 L27.5 35.0 A4.5 4.5 0 0 0 29.8 38.9 Z" fill="#000"/></svg>
