<svg viewBox="0 0 64 64" xmlns="http://www.w3.org/2000/svg" fill="none" stroke="#000" stroke-width="1.5" stroke-linecap="round" stroke-linejoin="round"><title>European steel profiles: hea</title><desc>Catalogusgedreven doorsnede; vorm i.</desc><g stroke-width="0.7" stroke-dasharray="5 2 1 2"><line x1="6" y1="32" x2="58" y2="32"/><line x1="32" y1="6" x2="32" y2="58"/></g><path d="M6 7.3 L58 7.3 L58 9.9 L37.525 9.9 A4.68 4.68 0 0 0 32.845 14.58 L32.845 49.42 A4.68 4.68 0 0 0 37.525 54.1 L58 54.1 L58 56.7 L6 56.7 L6 54.1 L26.475 54.1 A4.68 4.68 0 0 0 31.155 49.42 L31.155 14.58 A4.68 4.68 0 0 0 26.475 9.9 L6 9.9 Z"/></svg>
