<svg viewBox="0 0 64 64" xmlns="http://www.w3.org/2000/svg" fill="none" stroke="#000" stroke-width="1.8"><path d="M11.00 13.05 L53.00 13.05 L53.00 16.55 L37.53 16.55 L37.53 16.55 L36.36 16.74 L35.31 17.27 L34.47 18.11 L33.94 19.16 L33.75 20.33 L33.75 45.67 L33.75 45.67 L33.94 46.84 L34.47 47.89 L35.31 48.73 L36.36 49.26 L37.53 49.45 L53.00 49.45 L53.00 52.95 L11.00 52.95 L11.00 49.45 L26.47 49.45 L26.47 49.45 L27.64 49.26 L28.69 48.73 L29.53 47.89 L30.06 46.84 L30.25 45.67 L30.25 20.33 L30.25 20.33 L30.06 19.16 L29.53 18.11 L28.69 17.27 L27.64 16.74 L26.47 16.55 L11.00 16.55 Z"/><line x1="4.7" y1="33.0" x2="59.3" y2="33.0" stroke-width="0.9" stroke-dasharray="6 2.2 1.4 2.2"/><line x1="32.0" y1="7.1" x2="32.0" y2="58.9" stroke-width="0.9" stroke-dasharray="6 2.2 1.4 2.2"/><text x="61" y="9" font-size="8" font-weight="bold" text-anchor="end" fill="#000" stroke="none">HEA</text></svg>
