<svg viewBox="0 0 64 64" xmlns="http://www.w3.org/2000/svg" fill="none" stroke="#000" stroke-width="1.5" stroke-linecap="round" stroke-linejoin="round"><title>European steel profiles: heb</title><desc>Catalogusgedreven doorsnede; vorm i.</desc><g stroke-width="0.7" stroke-dasharray="5 2 1 2"><line x1="6" y1="32" x2="58" y2="32"/><line x1="32" y1="6" x2="32" y2="58"/></g><path d="M6 6 L58 6 L58 9.9 L37.85 9.9 A4.68 4.68 0 0 0 33.17 14.58 L33.17 49.42 A4.68 4.68 0 0 0 37.85 54.1 L58 54.1 L58 58 L6 58 L6 54.1 L26.15 54.1 A4.68 4.68 0 0 0 30.83 49.42 L30.83 14.58 A4.68 4.68 0 0 0 26.15 9.9 L6 9.9 Z"/></svg>
