<svg viewBox="0 0 64 64" xmlns="http://www.w3.org/2000/svg" fill="none" stroke="#000" stroke-width="1.8"><path d="M11.00 12.00 L53.00 12.00 L53.00 15.50 L37.53 15.50 L37.53 15.50 L36.36 15.69 L35.31 16.22 L34.47 17.06 L33.94 18.11 L33.75 19.28 L33.75 46.72 L33.75 46.72 L33.94 47.89 L34.47 48.94 L35.31 49.78 L36.36 50.31 L37.53 50.50 L53.00 50.50 L53.00 54.00 L11.00 54.00 L11.00 50.50 L26.47 50.50 L26.47 50.50 L27.64 50.31 L28.69 49.78 L29.53 48.94 L30.06 47.89 L30.25 46.72 L30.25 19.28 L30.25 19.28 L30.06 18.11 L29.53 17.06 L28.69 16.22 L27.64 15.69 L26.47 15.50 L11.00 15.50 Z"/><line x1="4.7" y1="33.0" x2="59.3" y2="33.0" stroke-width="0.9" stroke-dasharray="6 2.2 1.4 2.2"/><line x1="32.0" y1="5.7" x2="32.0" y2="60.3" stroke-width="0.9" stroke-dasharray="6 2.2 1.4 2.2"/><text x="61" y="9" font-size="8" font-weight="bold" text-anchor="end" fill="#000" stroke="none">HEB</text></svg>
