<svg viewBox="0 0 64 64" xmlns="http://www.w3.org/2000/svg" fill="none" stroke="#000" stroke-width="1.5" stroke-linecap="round" stroke-linejoin="round"><title>European steel profiles: hem</title><desc>Catalogusgedreven doorsnede; vorm i.</desc><g stroke-width="0.7" stroke-dasharray="5 2 1 2"><line x1="6" y1="32" x2="58" y2="32"/><line x1="32" y1="6" x2="32" y2="58"/></g><path d="M7.655 6 L56.345 6 L56.345 11.909 L38.027 11.909 A4.255 4.255 0 0 0 33.773 16.164 L33.773 47.836 A4.255 4.255 0 0 0 38.027 52.091 L56.345 52.091 L56.345 58 L7.655 58 L7.655 52.091 L25.973 52.091 A4.255 4.255 0 0 0 30.227 47.836 L30.227 16.164 A4.255 4.255 0 0 0 25.973 11.909 L7.655 11.909 Z"/></svg>
