<svg viewBox="0 0 64 64" xmlns="http://www.w3.org/2000/svg" fill="none" stroke="#000" stroke-width="1.8"><path d="M12.34 12.00 L51.66 12.00 L51.66 16.77 L37.19 16.77 L37.19 16.77 L36.12 16.94 L35.17 17.43 L34.41 18.19 L33.92 19.15 L33.75 20.21 L33.75 45.79 L33.75 45.79 L33.92 46.85 L34.41 47.81 L35.17 48.57 L36.12 49.06 L37.19 49.23 L51.66 49.23 L51.66 54.00 L12.34 54.00 L12.34 49.23 L26.81 49.23 L26.81 49.23 L27.88 49.06 L28.83 48.57 L29.59 47.81 L30.08 46.85 L30.25 45.79 L30.25 20.21 L30.25 20.21 L30.08 19.15 L29.59 18.19 L28.83 17.43 L27.88 16.94 L26.81 16.77 L12.34 16.77 Z"/><line x1="6.4" y1="33.0" x2="57.6" y2="33.0" stroke-width="0.9" stroke-dasharray="6 2.2 1.4 2.2"/><line x1="32.0" y1="5.7" x2="32.0" y2="60.3" stroke-width="0.9" stroke-dasharray="6 2.2 1.4 2.2"/><text x="61" y="9" font-size="8" font-weight="bold" text-anchor="end" fill="#000" stroke="none">HEM</text></svg>
