<svg viewBox="0 0 64 64" xmlns="http://www.w3.org/2000/svg" fill="none" stroke="#000" stroke-width="1.8"><path d="M21.50 12.00 L42.50 12.00 L42.50 15.50 L36.27 15.50 L36.27 15.50 L35.49 15.62 L34.79 15.98 L34.23 16.54 L33.87 17.24 L33.75 18.02 L33.75 47.98 L33.75 47.98 L33.87 48.76 L34.23 49.46 L34.79 50.02 L35.49 50.38 L36.27 50.50 L42.50 50.50 L42.50 54.00 L21.50 54.00 L21.50 50.50 L27.73 50.50 L27.73 50.50 L28.51 50.38 L29.21 50.02 L29.77 49.46 L30.13 48.76 L30.25 47.98 L30.25 18.02 L30.25 18.02 L30.13 17.24 L29.77 16.54 L29.21 15.98 L28.51 15.62 L27.73 15.50 L21.50 15.50 Z"/><line x1="18.4" y1="33.0" x2="45.6" y2="33.0" stroke-width="0.9" stroke-dasharray="6 2.2 1.4 2.2"/><line x1="32.0" y1="5.7" x2="32.0" y2="60.3" stroke-width="0.9" stroke-dasharray="6 2.2 1.4 2.2"/><text x="61" y="9" font-size="8" font-weight="bold" text-anchor="end" fill="#000" stroke="none">IPE</text></svg>
