<svg viewBox="0 0 64 64" xmlns="http://www.w3.org/2000/svg" fill="none" stroke="#000" stroke-width="1.5" stroke-linecap="round" stroke-linejoin="round"><title>European steel profiles: ipe</title><desc>Catalogusgedreven doorsnede; vorm i.</desc><g stroke-width="0.7" stroke-dasharray="5 2 1 2"><line x1="6" y1="32" x2="58" y2="32"/><line x1="32" y1="6" x2="32" y2="58"/></g><path d="M19 6 L45 6 L45 8.21 L35.848 8.21 A3.12 3.12 0 0 0 32.728 11.33 L32.728 52.67 A3.12 3.12 0 0 0 35.848 55.79 L45 55.79 L45 58 L19 58 L19 55.79 L28.152 55.79 A3.12 3.12 0 0 0 31.272 52.67 L31.272 11.33 A3.12 3.12 0 0 0 28.152 8.21 L19 8.21 Z"/></svg>
