<svg viewBox="0 0 64 64" xmlns="http://www.w3.org/2000/svg" fill="none" stroke="#000" stroke-width="1.8"><path d="M14.76 12.00 L49.24 12.00 L49.24 15.50 L35.84 15.50 L35.84 15.50 L35.19 15.60 L34.61 15.90 L34.15 16.36 L33.85 16.94 L33.75 17.59 L33.75 48.41 L33.75 48.41 L33.85 49.06 L34.15 49.64 L34.61 50.10 L35.19 50.40 L35.84 50.50 L49.24 50.50 L49.24 54.00 L14.76 54.00 L14.76 50.50 L28.16 50.50 L28.16 50.50 L28.81 50.40 L29.39 50.10 L29.85 49.64 L30.15 49.06 L30.25 48.41 L30.25 17.59 L30.25 17.59 L30.15 16.94 L29.85 16.36 L29.39 15.90 L28.81 15.60 L28.16 15.50 L14.76 15.50 Z"/><line x1="9.6" y1="33.0" x2="54.4" y2="33.0" stroke-width="0.9" stroke-dasharray="6 2.2 1.4 2.2"/><line x1="32.0" y1="5.7" x2="32.0" y2="60.3" stroke-width="0.9" stroke-dasharray="6 2.2 1.4 2.2"/><text x="61" y="9" font-size="8" font-weight="bold" text-anchor="end" fill="#000" stroke="none">W</text></svg>
