<svg viewBox="0 0 64 64" xmlns="http://www.w3.org/2000/svg" fill="none" stroke="#000" stroke-width="1.5" stroke-linecap="round" stroke-linejoin="round"><title>Brazilian steel shapes (W series): w-beam</title><desc>Catalogusgedreven doorsnede; vorm i.</desc><g stroke-width="0.7" stroke-dasharray="5 2 1 2"><line x1="6" y1="32" x2="58" y2="32"/><line x1="32" y1="6" x2="32" y2="58"/></g><path d="M23.527 6 L40.473 6 L40.473 7.794 L34.043 7.794 A1.495 1.495 0 0 0 32.548 9.289 L32.548 54.711 A1.495 1.495 0 0 0 34.043 56.206 L40.473 56.206 L40.473 58 L23.527 58 L23.527 56.206 L29.957 56.206 A1.495 1.495 0 0 0 31.452 54.711 L31.452 9.289 A1.495 1.495 0 0 0 29.957 7.794 L23.527 7.794 Z"/></svg>
