<svg viewBox="0 0 64 64" xmlns="http://www.w3.org/2000/svg" fill="none" stroke="#000" stroke-width="1.5" stroke-linecap="round" stroke-linejoin="round"><title>Brazilian steel shapes (W series): w-column</title><desc>Catalogusgedreven doorsnede; vorm i.</desc><g stroke-width="0.7" stroke-dasharray="5 2 1 2"><line x1="6" y1="32" x2="58" y2="32"/><line x1="32" y1="6" x2="32" y2="58"/></g><path d="M6 6.102 L58 6.102 L58 9.009 L35.337 9.009 A2.457 2.457 0 0 0 32.88 11.466 L32.88 52.534 A2.457 2.457 0 0 0 35.337 54.991 L58 54.991 L58 57.898 L6 57.898 L6 54.991 L28.663 54.991 A2.457 2.457 0 0 0 31.12 52.534 L31.12 11.466 A2.457 2.457 0 0 0 28.663 9.009 L6 9.009 Z"/></svg>
