<svg viewBox="0 0 64 64" xmlns="http://www.w3.org/2000/svg" fill="none" stroke="#000" stroke-width="1.8"><path d="M11.00 12.00 L53.00 12.00 L53.00 15.50 L36.06 15.50 L36.06 15.50 L35.35 15.61 L34.70 15.94 L34.19 16.45 L33.86 17.10 L33.75 17.81 L33.75 48.19 L33.75 48.19 L33.86 48.90 L34.19 49.55 L34.70 50.06 L35.35 50.39 L36.06 50.50 L53.00 50.50 L53.00 54.00 L11.00 54.00 L11.00 50.50 L27.94 50.50 L27.94 50.50 L28.65 50.39 L29.30 50.06 L29.81 49.55 L30.14 48.90 L30.25 48.19 L30.25 17.81 L30.25 17.81 L30.14 17.10 L29.81 16.45 L29.30 15.94 L28.65 15.61 L27.94 15.50 L11.00 15.50 Z"/><line x1="4.7" y1="33.0" x2="59.3" y2="33.0" stroke-width="0.9" stroke-dasharray="6 2.2 1.4 2.2"/><line x1="32.0" y1="5.7" x2="32.0" y2="60.3" stroke-width="0.9" stroke-dasharray="6 2.2 1.4 2.2"/><text x="61" y="9" font-size="8" font-weight="bold" text-anchor="end" fill="#000" stroke="none">ISHB</text></svg>
