<svg viewBox="0 0 64 64" xmlns="http://www.w3.org/2000/svg" fill="none" stroke="#000" stroke-width="1.5" stroke-linecap="round" stroke-linejoin="round"><title>Indian steel shapes (IS 808): ishb</title><desc>Catalogusgedreven doorsnede; vorm i.</desc><g stroke-width="0.7" stroke-dasharray="5 2 1 2"><line x1="6" y1="32" x2="58" y2="32"/><line x1="32" y1="6" x2="32" y2="58"/></g><path d="M10.333 6 L53.667 6 L53.667 7.837 L34.565 7.837 A1.907 1.907 0 0 0 32.659 9.744 L32.659 54.256 A1.907 1.907 0 0 0 34.565 56.163 L53.667 56.163 L53.667 58 L10.333 58 L10.333 56.163 L29.435 56.163 A1.907 1.907 0 0 0 31.341 54.256 L31.341 9.744 A1.907 1.907 0 0 0 29.435 7.837 L10.333 7.837 Z"/></svg>
