<svg viewBox="0 0 64 64" xmlns="http://www.w3.org/2000/svg" fill="none" stroke="#000" stroke-width="1.5" stroke-linecap="round" stroke-linejoin="round"><title>Indian steel shapes (IS 808): ismb</title><desc>Catalogusgedreven doorsnede; vorm i.</desc><g stroke-width="0.7" stroke-dasharray="5 2 1 2"><line x1="6" y1="32" x2="58" y2="32"/><line x1="32" y1="6" x2="32" y2="58"/></g><path d="M19.867 6 L44.133 6 L44.133 8.149 L35.077 8.149 A2.427 2.427 0 0 0 32.65 10.576 L32.65 53.424 A2.427 2.427 0 0 0 35.077 55.851 L44.133 55.851 L44.133 58 L19.867 58 L19.867 55.851 L28.923 55.851 A2.427 2.427 0 0 0 31.35 53.424 L31.35 10.576 A2.427 2.427 0 0 0 28.923 8.149 L19.867 8.149 Z"/></svg>
