<svg viewBox="0 0 64 64" xmlns="http://www.w3.org/2000/svg" fill="none" stroke="#000" stroke-width="1.8"><path d="M11.00 23.48 L11.22 22.10 L11.86 20.85 L12.85 19.86 L14.10 19.22 L15.48 19.00 L48.52 19.00 L49.90 19.22 L51.15 19.86 L52.14 20.85 L52.78 22.10 L53.00 23.48 L53.00 42.52 L52.78 43.90 L52.14 45.15 L51.15 46.14 L49.90 46.78 L48.52 47.00 L15.48 47.00 L14.10 46.78 L12.85 46.14 L11.86 45.15 L11.22 43.90 L11.00 42.52 Z"/><path d="M14.50 23.48 L14.55 23.18 L14.69 22.90 L14.90 22.69 L15.18 22.55 L15.48 22.50 L48.52 22.50 L48.82 22.55 L49.10 22.69 L49.31 22.90 L49.45 23.18 L49.50 23.48 L49.50 42.52 L49.45 42.82 L49.31 43.10 L49.10 43.31 L48.82 43.45 L48.52 43.50 L15.48 43.50 L15.18 43.45 L14.90 43.31 L14.69 43.10 L14.55 42.82 L14.50 42.52 Z"/><line x1="4.7" y1="33.0" x2="59.3" y2="33.0" stroke-width="0.9" stroke-dasharray="6 2.2 1.4 2.2"/><line x1="32.0" y1="14.8" x2="32.0" y2="51.2" stroke-width="0.9" stroke-dasharray="6 2.2 1.4 2.2"/><text x="61" y="9" font-size="8" font-weight="bold" text-anchor="end" fill="#000" stroke="none">RHS</text></svg>
