<svg viewBox="0 0 64 64" xmlns="http://www.w3.org/2000/svg" fill="none" stroke="#000" stroke-width="1.8"><path d="M11.00 18.72 L11.33 16.64 L12.28 14.77 L13.77 13.28 L15.64 12.33 L17.72 12.00 L46.28 12.00 L48.36 12.33 L50.23 13.28 L51.72 14.77 L52.67 16.64 L53.00 18.72 L53.00 47.28 L52.67 49.36 L51.72 51.23 L50.23 52.72 L48.36 53.67 L46.28 54.00 L17.72 54.00 L15.64 53.67 L13.77 52.72 L12.28 51.23 L11.33 49.36 L11.00 47.28 Z"/><path d="M14.50 18.72 L14.66 17.72 L15.11 16.83 L15.83 16.11 L16.72 15.66 L17.72 15.50 L46.28 15.50 L47.28 15.66 L48.17 16.11 L48.89 16.83 L49.34 17.72 L49.50 18.72 L49.50 47.28 L49.34 48.28 L48.89 49.17 L48.17 49.89 L47.28 50.34 L46.28 50.50 L17.72 50.50 L16.72 50.34 L15.83 49.89 L15.11 49.17 L14.66 48.28 L14.50 47.28 Z"/><line x1="4.7" y1="33.0" x2="59.3" y2="33.0" stroke-width="0.9" stroke-dasharray="6 2.2 1.4 2.2"/><line x1="32.0" y1="5.7" x2="32.0" y2="60.3" stroke-width="0.9" stroke-dasharray="6 2.2 1.4 2.2"/><text x="61" y="9" font-size="8" font-weight="bold" text-anchor="end" fill="#000" stroke="none">SHS</text></svg>
