<svg viewBox="0 0 64 64" xmlns="http://www.w3.org/2000/svg" fill="none" stroke="#000" stroke-width="1.5" stroke-linecap="round" stroke-linejoin="round"><title>UK steel sections: ub</title><desc>Catalogusgedreven doorsnede; vorm i.</desc><g stroke-width="0.7" stroke-dasharray="5 2 1 2"><line x1="6" y1="32" x2="58" y2="32"/><line x1="32" y1="6" x2="32" y2="58"/></g><path d="M17.86 6 L46.14 6 L46.14 7.748 L34.04 7.748 A1.525 1.525 0 0 0 32.514 9.274 L32.514 54.726 A1.525 1.525 0 0 0 34.04 56.252 L46.14 56.252 L46.14 58 L17.86 58 L17.86 56.252 L29.96 56.252 A1.525 1.525 0 0 0 31.486 54.726 L31.486 9.274 A1.525 1.525 0 0 0 29.96 7.748 L17.86 7.748 Z"/></svg>
