<svg viewBox="0 0 64 64" xmlns="http://www.w3.org/2000/svg" fill="none" stroke="#000" stroke-width="1.5" stroke-linecap="round" stroke-linejoin="round"><title>UK steel sections: uc</title><desc>Catalogusgedreven doorsnede; vorm i.</desc><g stroke-width="0.7" stroke-dasharray="5 2 1 2"><line x1="6" y1="32" x2="58" y2="32"/><line x1="32" y1="6" x2="32" y2="58"/></g><path d="M6.471 6 L57.529 6 L57.529 9.523 L35.697 9.523 A2.531 2.531 0 0 0 33.166 12.053 L33.166 51.947 A2.531 2.531 0 0 0 35.697 54.477 L57.529 54.477 L57.529 58 L6.471 58 L6.471 54.477 L28.303 54.477 A2.531 2.531 0 0 0 30.834 51.947 L30.834 12.053 A2.531 2.531 0 0 0 28.303 9.523 L6.471 9.523 Z"/></svg>
