<svg viewBox="0 0 64 64" xmlns="http://www.w3.org/2000/svg" fill="none" stroke="#000" stroke-width="1.8"><path d="M11.00 12.00 L53.00 12.00 L53.00 15.50 L35.86 15.50 L35.86 15.50 L35.21 15.60 L34.62 15.90 L34.15 16.37 L33.85 16.96 L33.75 17.61 L33.75 48.39 L33.75 48.39 L33.85 49.04 L34.15 49.63 L34.62 50.10 L35.21 50.40 L35.86 50.50 L53.00 50.50 L53.00 54.00 L11.00 54.00 L11.00 50.50 L28.14 50.50 L28.14 50.50 L28.79 50.40 L29.38 50.10 L29.85 49.63 L30.15 49.04 L30.25 48.39 L30.25 17.61 L30.25 17.61 L30.15 16.96 L29.85 16.37 L29.38 15.90 L28.79 15.60 L28.14 15.50 L11.00 15.50 Z"/><line x1="4.7" y1="33.0" x2="59.3" y2="33.0" stroke-width="0.9" stroke-dasharray="6 2.2 1.4 2.2"/><line x1="32.0" y1="5.7" x2="32.0" y2="60.3" stroke-width="0.9" stroke-dasharray="6 2.2 1.4 2.2"/><text x="61" y="9" font-size="8" font-weight="bold" text-anchor="end" fill="#000" stroke="none">UC</text></svg>
